<?xml version="1.0" encoding="UTF-8" standalone="no"?>
<!-- Created with Inkscape (http://www.inkscape.org/) -->

<svg
   width="203.42012mm"
   height="77.181656mm"
   viewBox="0 0 203.42012 77.181656"
   version="1.1"
   id="svg1"
   xmlns="http://www.w3.org/2000/svg"
   xmlns:svg="http://www.w3.org/2000/svg">
  <defs
     id="defs1" />
  <g
     id="layer1"
     transform="translate(-2.4006726,-125.95377)">
    <path
       id="path232"
       d="m 6.7229002,175.48116 v -22.15301 h 1.119317 v 22.15301 h -1.119317 v 0"
       style="fill:#64471c;fill-opacity:1;fill-rule:nonzero;stroke:none;stroke-width:0.112;stroke-dasharray:none" />
    <path
       id="path233"
       d="m 9.7129752,175.48116 v -22.15301 h 1.1215578 v 22.15301 H 9.7129752 v 0"
       style="fill:#64471c;fill-opacity:1;fill-rule:nonzero;stroke:none;stroke-width:0.112;stroke-dasharray:none" />
    <path
       id="path234"
       d="m 26.366987,198.50204 c 0.04038,-0.57739 -0.141319,-1.30864 -0.439645,-2.24615 -0.243385,-0.7538 -1.015015,-1.92807 -1.990772,-3.0429 -0.284877,-0.32413 -0.60339,-0.60339 -0.932011,-0.86696 0.589936,-0.0404 1.12268,-0.18506 1.59149,-0.45199 0.243374,-0.13795 0.444135,-0.31291 0.631439,-0.49797 0.499091,0.7234 0.977995,1.67785 1.24493,2.61099 0.486752,1.69467 0.486752,3.09438 -0.105431,4.49498 z m -0.842288,-1.56233 c -0.356655,-0.78812 -0.944356,-1.5823 -1.774303,-2.37973 -0.438531,-0.39927 -1.185492,-0.95893 -2.238637,-1.67785 -1.193329,-0.76939 -2.08497,-1.33017 -2.676036,-1.68346 -0.429553,0.11889 -0.727887,0.21422 -0.887153,0.28713 -0.205245,0.0908 -0.382444,0.20636 -0.560774,0.32076 -0.0059,-0.1716 -0.0191,-0.34095 -0.0191,-0.51479 -0.0026,-0.51816 0.04483,-1.00043 0.118886,-1.46252 0.311795,0.3017 0.629192,0.58433 0.955566,0.84117 0.609005,0.47555 1.226987,0.85575 1.859545,1.14062 0.413856,0.18619 0.823224,0.3219 1.225859,0.41498 0.622464,0.41049 1.185495,0.81426 1.658787,1.2124 0.55517,0.46545 1.019492,0.93314 1.38961,1.40083 0.36675,0.46657 0.671817,0.96679 0.909587,1.49941 0.218705,0.48452 0.334225,0.98137 0.347681,1.48955 -0.06283,-0.27165 -0.167116,-0.5664 -0.309549,-0.8885 z m -3.837976,-0.56953 c -0.517033,-0.0986 -1.140627,-0.10779 -1.779911,-0.16162 0.04483,-0.17833 0.0987,-0.36013 0.123375,-0.53487 0.07848,-0.58994 0.03137,-1.10473 -0.137953,-1.54214 -0.170482,-0.43629 -0.448623,-0.75369 -0.837803,-0.94884 -0.485633,-0.23889 -0.995945,-0.23216 -1.53093,0.0225 -7.94e-4,-0.007 -7.94e-4,-0.0146 -0.0026,-0.0225 0.477785,-0.40937 1.298766,-0.63704 1.848337,-0.51255 0.58769,0.0707 1.769819,0.74471 2.80389,1.44568 1.359329,0.91969 3.078679,2.83093 3.636092,4.8743 -0.818742,-1.36169 -2.538089,-2.32073 -4.122851,-2.61996 z m -5.575263,3.52595 c 0.303948,-0.21511 0.594428,-0.60418 0.939868,-1.13603 0.266928,-0.41272 0.526011,-1.23371 0.685266,-2.13668 0.376843,0.13583 0.792946,0.24361 1.286433,0.29532 -0.160385,0.40914 -0.374605,0.83196 -0.626954,1.19647 -0.646017,0.93448 -1.344745,1.50536 -2.284613,1.78092 z m -0.8479,-3.20519 c -0.329737,-0.60765 -1.026226,-1.28194 -1.206788,-2.11301 -0.157023,-0.72341 0.419454,-1.22923 0.857988,-1.27858 0.33759,-0.0393 0.772747,0.17945 1.047533,0.45872 -0.0059,0.0258 -0.02019,0.0482 -0.02352,0.074 -0.08412,0.49573 -0.01908,0.97688 0.187304,1.4412 0.111033,0.24787 0.264679,0.46545 0.451983,0.65926 0.0026,0.028 0.0067,0.0552 0.009,0.0818 0.09645,1.05326 -0.153657,2.69096 -0.9466,3.80332 0.344321,-0.96342 0.12001,-2.21385 -0.376843,-3.12679 z m 1.867395,-2.91941 0.1144,0.90398 c 0.0168,0.14692 0.02463,0.27926 0.0381,0.41945 -0.246748,-0.43291 -0.27142,-0.93201 -0.152538,-1.32343 z m -0.125611,2.49221 c 0.102058,0.0692 0.205245,0.13672 0.323006,0.19493 -0.0168,0.38032 -0.05156,0.73339 -0.122246,1.04888 -0.08184,0.37325 -0.206372,0.73115 -0.37684,1.06638 -0.151413,0.30618 -0.352177,0.56773 -0.600044,0.78195 0.109919,-0.14278 0.215339,-0.31538 0.317408,-0.51738 0.247859,-0.49987 0.403762,-1.11673 0.463198,-1.85707 0.009,-0.1863 0.0067,-0.42721 -0.0042,-0.71769 z m 0.648263,-2.13444 c -0.06166,-0.39703 0.306187,-0.50918 0.57984,-0.51928 0.273659,-0.0101 0.713311,0.29834 0.882666,0.56639 0.20188,0.31404 0.246745,0.94996 0.207489,1.56457 -0.0076,0.1153 -0.03592,0.25336 -0.06502,0.39042 -0.44863,-0.0696 -0.891637,-0.18091 -1.296527,-0.38705 -0.05829,-0.0292 -0.102057,-0.0684 -0.154773,-0.10318 -0.009,-0.51704 -0.07848,-1.02735 -0.153649,-1.51187 z m 0.385808,-6.16183 c 0.137954,-0.27366 0.297222,-0.51143 0.48115,-0.71443 0.183938,-0.20189 0.381333,-0.35891 0.592182,-0.47442 0.207489,-0.11665 0.422828,-0.18394 0.637051,-0.20077 0.218704,-0.0146 0.420584,0.0236 0.609007,0.11777 0.225433,0.11215 0.381328,0.286 0.462079,0.5204 0.08185,0.2344 0.0662,0.46657 -0.0482,0.69313 -0.133469,0.26581 -0.346562,0.40376 -0.640416,0.41497 0.141317,0.13907 0.272539,0.23889 0.392546,0.30058 0.05611,0.0269 0.112155,0.0336 0.168236,0.0482 -0.480031,0.36226 -0.806405,0.88042 -0.973511,1.55785 -0.697613,-0.39928 -1.367181,-0.86472 -2.018802,-1.36831 0.09533,-0.32076 0.202996,-0.6247 0.338703,-0.895 z m 4.412215,1.30437 c 0.57648,0.0673 1.384001,0.63816 2.08497,1.29091 0.141316,0.13235 0.289361,0.30282 0.438536,0.49237 -0.125619,0.20188 -0.278151,0.38469 -0.484513,0.53049 -0.277029,0.19179 -0.600038,0.32077 -0.964544,0.38582 -0.302821,0.0561 -0.628075,0.0572 -0.967906,0.0246 -0.523759,-0.3746 -1.071084,-0.70097 -1.601584,-1.01164 -0.536101,-0.31628 -0.308422,-0.87033 -0.05274,-1.2068 0.256834,-0.33871 1.058746,-0.56415 1.547749,-0.50582 z m 1.95824,-0.28936 c 0.248988,0.11215 0.423952,0.28936 0.564139,0.49684 -0.186174,-0.18617 -0.374594,-0.35104 -0.567502,-0.49797 7.94e-4,7.9e-4 0.0026,7.9e-4 0.0034,7.9e-4 z m -10.247678,-0.89837 c -0.13122,0 -0.259077,-0.0112 -0.388054,-0.0157 0.09533,-0.15478 0.197388,-0.30394 0.275903,-0.48115 0.07293,-0.16038 0.168232,-0.45648 0.288234,-0.88715 -0.354409,-0.59219 -0.915194,-1.4827 -1.684576,-2.67604 -0.71892,-1.05202 -1.278575,-1.8001 -1.676733,-2.23863 -0.797428,-0.82883 -1.5914898,-1.41765 -2.3799428,-1.77431 -0.323008,-0.14243 -0.617982,-0.24674 -0.888275,-0.30842 0.508066,0.0123 1.003792,0.12897 1.488305,0.34544 0.532747,0.23889 1.0329518,0.54395 1.5006428,0.91182 0.46769,0.37011 0.934262,0.8322 1.400836,1.38849 0.397029,0.4733 0.80191,1.03744 1.212398,1.65879 0.09197,0.40375 0.227679,0.812 0.412736,1.22586 0.285999,0.63256 0.667327,1.25054 1.141744,1.85954 0.23328,0.29722 0.487875,0.5877 0.759296,0.87257 -0.462085,0.074 -0.945473,0.12113 -1.462514,0.11889 z m -2.008709,2.45396 c -0.0482,0.43853 -0.555172,1.01502 -1.278577,0.858 -0.831072,-0.18057 -1.5051278,-0.87706 -2.1130158,-1.2068 -0.912942,-0.49685 -2.163484,-0.72116 -3.126898,-0.37684 1.11258,-0.79294 2.750055,-1.04305 3.8032,-0.9466 0.03364,0.003 0.06839,0.008 0.10206,0.0112 0.210855,0.21983 0.444135,0.40713 0.7222858,0.53162 0.463204,0.20749 0.946589,0.27254 1.441196,0.18955 0.02352,-0.003 0.04265,-0.0168 0.06502,-0.0213 0.241131,0.27478 0.420584,0.65499 0.384691,0.96118 z m -4.8148498,-3.48131 c 0.383572,-0.26693 0.833321,-0.49125 1.262875,-0.65387 l 0.0067,0.0628 c 0.04601,0.47217 0.144685,0.87369 0.266936,1.24156 -0.92192,0.15814 -1.761972,0.42282 -2.182556,0.69425 -0.531614,0.34544 -0.920798,0.63592 -1.136139,0.93985 0.275904,-0.93985 0.847902,-1.63859 1.782159,-2.28461 z m 2.9474558,1.10586 c 0.162623,0.0146 0.319643,0.0258 0.491244,0.0448 l 1.132776,0.14244 c -0.4475,0.19516 -1.109226,0.19066 -1.62402,-0.1873 z m -1.0766958,0.28488 c -0.300574,-0.0124 -0.547322,-0.0135 -0.737983,-0.004 -0.740228,0.0595 -1.357088,0.21534 -1.857299,0.4632 -0.201882,0.10206 -0.374605,0.2075 -0.51704,0.3174 0.214222,-0.24785 0.475538,-0.44862 0.781724,-0.60003 0.335346,-0.17048 0.693124,-0.29497 1.066599,-0.37684 0.328621,-0.0729 0.698733,-0.11103 1.096886,-0.12449 0.05274,0.11215 0.105431,0.22543 0.167113,0.32525 z m 0.630315,-0.8008 c -0.01574,-0.0269 -0.03365,-0.046 -0.0482,-0.0729 -0.22095,-0.43292 -0.336468,-0.90846 -0.403762,-1.39073 0.111035,-0.0213 0.228796,-0.0482 0.324128,-0.0538 0.6146168,-0.0393 1.2505398,0.006 1.5645738,0.20748 0.269174,0.16936 0.576485,0.60901 0.566393,0.88267 -0.01011,0.27366 -0.122258,0.64153 -0.519287,0.57985 -0.476654,-0.074 -0.976876,-0.14244 -1.4838228,-0.15253 z m -0.674053,-3.79648 c -0.300577,-1.58476 -1.259507,-3.30634 -2.619965,-4.12396 2.044602,0.55741 3.9546208,2.27676 4.8731748,3.63609 0.702088,1.03295 1.37727,2.2162 1.446811,2.8039 0.118882,0.52488 -0.08303,1.29651 -0.458722,1.78327 -0.05274,-0.008 -0.106545,-0.0112 -0.15926,-0.0202 0.254598,-0.53499 0.261329,-1.0453 0.02246,-1.53093 -0.195152,-0.38807 -0.512559,-0.66734 -0.948841,-0.8378 -0.437407,-0.16937 -0.952198,-0.21647 -1.5421448,-0.13796 -0.150283,0.0213 -0.306189,0.0707 -0.459833,0.10655 -0.0471,-0.6034 -0.06057,-1.18997 -0.153656,-1.67898 z m 2.3631178,-4.78793 c 0.933141,0.26694 1.887585,0.74584 2.610985,1.24718 -0.185055,0.1873 -0.358894,0.38582 -0.49684,0.62919 -0.26806,0.46881 -0.413858,1.00268 -0.453115,1.59149 -0.263564,-0.32861 -0.543959,-0.64713 -0.868087,-0.93201 -1.112589,-0.97464 -2.289095,-1.74739 -3.0416628,-1.98853 -0.937625,-0.30057 -1.668878,-0.48226 -2.246484,-0.44077 1.399704,-0.59106 2.800537,-0.59106 4.4952038,-0.10655 z m 2.953065,1.49841 c 0.189542,0.14916 0.358902,0.29721 0.491241,0.43965 0.652751,0.70097 1.223624,1.50737 1.292035,2.08385 0.0572,0.489 -0.169352,1.29204 -0.506945,1.54775 -0.336468,0.25684 -0.890516,0.48452 -1.206791,-0.0527 -0.310676,-0.5305 -0.638167,-1.07781 -1.012769,-1.6027 -0.03137,-0.33871 -0.03029,-0.66284 0.02582,-0.96679 0.06502,-0.36562 0.192913,-0.68751 0.385818,-0.96341 0.145802,-0.2075 0.328621,-0.36002 0.531622,-0.48564 z m 2.071518,0.56526 c 0,8e-4 0,0.003 7.94e-4,0.003 -0.146931,-0.19178 -0.311798,-0.38021 -0.495729,-0.56639 0.206362,0.1402 0.383575,0.31404 0.494607,0.56303 z m 0.265811,3.76844 c 0.0059,0.0112 0.0042,0.0225 0.009,0.0336 0.06166,0.12 0.16151,0.25122 0.300588,0.39253 0.01117,-0.29384 0.149162,-0.50693 0.414973,-0.6404 0.226552,-0.1144 0.458713,-0.1301 0.693123,-0.0482 0.234411,0.0808 0.408242,0.23665 0.520404,0.46208 0.09421,0.18842 0.132342,0.3903 0.117766,0.60901 -0.0168,0.21534 -0.08412,0.42955 -0.200763,0.63704 -0.115517,0.21085 -0.272539,0.40825 -0.474419,0.59218 -0.202999,0.18394 -0.440772,0.3432 -0.714431,0.48115 -0.265805,0.13347 -0.564144,0.24002 -0.878181,0.33423 -0.47666,-0.62359 -0.9208,-1.264 -1.303253,-1.93132 0.652746,-0.16151 1.154084,-0.46994 1.515229,-0.92193 z m 10.805086,10.43497 c -0.125611,-1.11146 -0.410491,-2.16909 -0.862473,-3.18073 -0.268057,-0.60004 -0.584338,-1.12269 -0.920806,-1.60608 0.0034,-0.007 0.0076,-0.0112 0.01117,-0.0191 0.250116,-0.55742 0.299455,-1.10362 0.139081,-1.64197 -0.155903,-0.53611 -0.477785,-0.91182 -0.963425,-1.12829 -0.329737,-0.14916 -0.643773,-0.16262 -0.947711,-0.0404 -0.301699,0.12225 -0.526015,0.33871 -0.66957,0.65387 -0.0042,0.009 -0.0067,0.0213 -0.01008,0.0292 -0.07966,-0.0314 -0.160385,-0.0717 -0.241139,-0.0976 -0.545076,-0.17833 -1.068847,-0.1929 -1.567936,-0.0595 0.139073,-0.29609 0.148045,-0.60453 0.01116,-0.92529 -0.13907,-0.3331 -0.38694,-0.58658 -0.740227,-0.76154 -0.370115,-0.18618 -0.7649,-0.24338 -1.185484,-0.17047 -0.418338,0.0696 -0.81089,0.26468 -1.181003,0.57536 -0.368995,0.31403 -0.678547,0.71891 -0.926401,1.21801 -0.07066,0.14132 -0.12899,0.29609 -0.187304,0.44862 -0.03811,-0.0303 -0.0763,-0.0549 -0.113279,-0.0864 -0.05156,-0.0415 -0.09197,-0.0852 -0.142438,-0.12786 -0.04265,-0.0505 -0.08636,-0.0909 -0.127857,-0.14244 -0.05384,-0.065 -0.09983,-0.1357 -0.153657,-0.20188 0.146928,-0.0572 0.296093,-0.11328 0.432924,-0.18169 0.499089,-0.24786 0.903979,-0.55742 1.218012,-0.9264 0.310669,-0.37012 0.50582,-0.76266 0.575358,-1.181 0.07293,-0.42059 0.01574,-0.81538 -0.170476,-1.1855 -0.174967,-0.35329 -0.428435,-0.60115 -0.761535,-0.74022 -0.280389,-0.12001 -0.549563,-0.10991 -0.810889,-0.0179 0.10206,-0.46544 0.07402,-0.95108 -0.08973,-1.45579 -0.02692,-0.0818 -0.06729,-0.16037 -0.09981,-0.24225 0.009,-0.003 0.02019,-0.006 0.02918,-0.009 0.316278,-0.14245 0.532747,-0.36675 0.654992,-0.66958 0.123376,-0.30394 0.108792,-0.6191 -0.04037,-0.94883 -0.215339,-0.48339 -0.591063,-0.80641 -1.129414,-0.9623 -0.536098,-0.16039 -1.084543,-0.11104 -1.641959,0.13907 -0.0067,0.003 -0.01011,0.009 -0.01794,0.0124 -0.484513,-0.3376 -1.007157,-0.65275 -1.606068,-0.92192 -1.010531,-0.452 -2.070402,-0.738 -3.180747,-0.86249 -1.1114558,-0.12 -2.1780598,-0.0797 -3.2065328,0.12113 -1.025099,0.20413 -1.916737,0.54844 -2.671548,1.02959 -0.753692,0.48901 -1.29091,1.0924 -1.615046,1.80908 -0.306186,0.68303 -0.386937,1.30549 -0.244496,1.86851 0.143553,0.56078 0.47666,0.96229 1.003795,1.1967 0.414972,0.18731 0.815366,0.20525 1.194459,0.0448 0.380206,-0.15702 0.680783,-0.45872 0.903975,-0.91295 -0.493482,0.17496 -0.986975,0.15141 -1.47597,-0.0684 -0.471056,-0.21197 -0.805275,-0.51928 -1.002673,-0.92864 -0.196273,-0.41162 -0.207491,-0.80977 -0.03255,-1.20007 0.19403,-0.43517 0.541711,-0.71668 1.037445,-0.84229 0.496842,-0.12899 1.016132,-0.0707 1.556718,0.17272 0.693121,0.30843 1.301009,0.88379 1.818047,1.71598 0.517036,0.83107 0.827712,1.73393 0.936501,2.70183 l 0.124492,1.15409 c -0.192905,0.074 -0.384688,0.14019 -0.58097,0.23777 -0.637039,0.32076 -1.2124,0.73237 -1.728313,1.23371 -0.512559,0.50582 -0.928651,1.05651 -1.248294,1.65093 -0.315164,0.59443 -0.509193,1.17989 -0.576485,1.75188 -0.06284,0.57536 0.01789,1.09015 0.24338,1.54326 0.216461,0.4318 0.49348,0.72677 0.832194,0.88491 0.337584,0.15814 0.675182,0.1559 1.007157,-0.0124 0.262443,-0.1301 0.435169,-0.32301 0.509191,-0.57649 0.0763,-0.25459 0.04938,-0.52825 -0.08524,-0.82434 -0.114398,0.31852 -0.32861,0.55405 -0.63816,0.70771 -0.297222,0.14916 -0.586583,0.19065 -0.87145,0.12224 -0.287126,-0.0707 -0.487878,-0.22655 -0.612373,-0.47442 -0.136831,-0.27365 -0.136831,-0.5619 0.0034,-0.86135 0.139068,-0.29946 0.379077,-0.53387 0.721159,-0.70547 0.437407,-0.21982 0.972389,-0.28823 1.598218,-0.20524 0.624708,0.0807 1.203434,0.29385 1.73056,0.6348 l 1.001554,0.65275 c 0.8277118,0.55293 1.5443838,0.67742 2.1432968,0.37685 0.29273,-0.14693 0.522645,-0.36114 0.68303,-0.64154 0.160385,-0.28263 0.235527,-0.59555 0.227677,-0.94547 -0.009,-0.3488 -0.09645,-0.69761 -0.272537,-1.04529 -0.0034,-0.008 -0.01344,-0.0225 -0.01789,-0.0303 0.157022,-0.092 0.314042,-0.17946 0.46096,-0.30507 0.144682,-0.12561 0.266935,-0.27702 0.392549,-0.42619 0.320762,0.0191 0.634807,0.028 0.938744,0.0179 0.548442,-0.0179 1.067718,-0.0807 1.555597,-0.18955 0.01908,-0.004 0.03474,-0.0112 0.05274,-0.0157 0.179443,0.17384 0.352169,0.34993 0.545074,0.5204 0.02466,0.0202 0.05274,0.0404 0.07739,0.0606 0.02019,0.0247 0.04037,0.0527 0.06057,0.0774 0.142433,0.16263 0.291607,0.30618 0.437406,0.45872 -0.0042,0.0202 -0.01117,0.0359 -0.01574,0.0561 -0.108788,0.48788 -0.171598,1.00717 -0.189539,1.5556 -0.01117,0.34993 0.0034,0.71443 0.03137,1.08567 -0.122248,0.10767 -0.252352,0.20749 -0.356656,0.32862 -0.11888,0.13907 -0.199633,0.28824 -0.288234,0.43629 -0.04601,-0.028 -0.09646,-0.0606 -0.130101,-0.0751 -0.347684,-0.1772 -0.696492,-0.26468 -1.045297,-0.27366 -0.349925,-0.008 -0.66284,0.0673 -0.945473,0.22768 -0.280387,0.16038 -0.494609,0.3903 -0.641527,0.68303 -0.300583,0.59891 -0.174959,1.31559 0.376848,2.1433 l 0.652743,1.00177 c 0.340953,0.52702 0.554046,1.10574 0.634794,1.73045 0.08303,0.62572 0.01455,1.16059 -0.205245,1.59822 -0.171596,0.34174 -0.405995,0.58187 -0.705451,0.72116 -0.299455,0.1402 -0.5877,0.1402 -0.861356,0.003 -0.24787,-0.12437 -0.40376,-0.32503 -0.474422,-0.61203 -0.06839,-0.28521 -0.02692,-0.57435 0.122248,-0.87179 0.15366,-0.30932 0.389184,-0.52354 0.7077,-0.63794 -0.296093,-0.13447 -0.569749,-0.16162 -0.824344,-0.0853 -0.253468,0.074 -0.446373,0.24663 -0.576479,0.50908 -0.168236,0.33209 -0.170482,0.66979 -0.01236,1.00715 0.158138,0.33872 0.453114,0.61596 0.884912,0.83242 0.453112,0.22521 0.967904,0.3063 1.543267,0.24316 0.573111,-0.067 1.157446,-0.2611 1.751877,-0.57615 0.595546,-0.31975 1.145106,-0.73596 1.650926,-1.24852 0.501338,-0.51569 0.912953,-1.09138 1.233715,-1.72842 0.08636,-0.17261 0.141317,-0.3395 0.209728,-0.50908 l 1.265118,0.13672 c 0.967909,0.10777 1.87076,0.41968 2.701835,0.93672 0.832204,0.51603 1.406432,1.12504 1.715982,1.81816 0.243385,0.53924 0.300582,1.05752 0.173847,1.55526 -0.126741,0.49719 -0.408247,0.84375 -0.843415,1.03744 -0.390303,0.17395 -0.787334,0.1651 -1.200063,-0.0324 -0.409371,-0.19717 -0.716674,-0.53274 -0.929777,-1.00245 -0.218702,-0.48934 -0.242258,-0.9826 -0.0673,-1.47731 -0.454228,0.22431 -0.755922,0.52623 -0.912944,0.90644 -0.159261,0.37774 -0.142436,0.77814 0.04374,1.193 0.235526,0.52836 0.637042,0.86181 1.197824,1.00503 0.564144,0.14154 1.185484,0.0596 1.868514,-0.24529 0.716674,-0.32334 1.321197,-0.8627 1.807953,-1.61538 0.483386,-0.75481 0.825468,-1.6451 1.030714,-2.67155 0.201877,-1.02824 0.241136,-2.09507 0.121126,-3.20642"
       style="fill:#64471c;fill-opacity:1;fill-rule:nonzero;stroke:none;stroke-width:0.112;stroke-dasharray:none" />
    <path
       id="path235"
       d="m 26.472418,135.08152 c -0.266935,0.93314 -0.745839,1.88871 -1.24493,2.61099 -0.187304,-0.18506 -0.388065,-0.35889 -0.631439,-0.49685 -0.46881,-0.26693 -1.001554,-0.41161 -1.59149,-0.45199 0.328621,-0.26468 0.646015,-0.54395 0.932011,-0.86809 0.975757,-1.1137 1.747387,-2.28909 1.990772,-3.04278 0.298326,-0.9365 0.480021,-1.66776 0.439645,-2.24536 0.592183,1.40083 0.592183,2.80053 0.105431,4.49408 z m -1.935818,3.44543 c -0.700969,0.65274 -1.50849,1.2225 -2.08497,1.29091 -0.489003,0.0583 -1.290912,-0.16711 -1.547746,-0.50582 -0.255717,-0.33646 -0.483396,-0.89052 0.05274,-1.20679 0.530502,-0.3118 1.077825,-0.63818 1.601586,-1.01278 0.339834,-0.0314 0.665086,-0.0303 0.967909,0.0258 0.364504,0.0639 0.68751,0.19402 0.964539,0.38581 0.20637,0.14468 0.358894,0.3275 0.484516,0.5305 -0.149175,0.18954 -0.29722,0.3589 -0.438534,0.49236 z m -0.12673,1.58027 c 0,0 -0.0026,0 -0.0034,8e-4 0.192908,-0.14692 0.381331,-0.31291 0.567505,-0.49909 -0.14019,0.20861 -0.314034,0.38582 -0.564139,0.49797 z m -3.588986,1.89768 c -0.08075,0.23441 -0.236646,0.40713 -0.462079,0.5204 -0.188423,0.0942 -0.390303,0.13235 -0.609007,0.11777 -0.214223,-0.0168 -0.429562,-0.0841 -0.637051,-0.20076 -0.210849,-0.11552 -0.408244,-0.27254 -0.592182,-0.47442 -0.183928,-0.203 -0.343196,-0.44189 -0.48115,-0.71443 -0.150283,-0.30058 -0.266928,-0.64265 -0.367866,-1.00492 0.660596,-0.51143 1.339141,-0.98473 2.04797,-1.38961 0.185052,0.74696 0.570865,1.28979 1.135012,1.6543 -0.108791,0.004 -0.219824,0.0292 -0.329737,0.083 -0.120012,0.0617 -0.251235,0.16151 -0.392551,0.30059 0.293854,0.0112 0.506949,0.14916 0.640418,0.41497 0.114395,0.22656 0.130093,0.45871 0.0482,0.69312 z m -3.452156,-4.07574 c 0,-0.21646 0.01458,-0.42956 0.02466,-0.64378 0.177207,0.11328 0.352168,0.22768 0.55517,0.31741 0.159266,0.074 0.457597,0.16935 0.887156,0.28823 0.591063,-0.35329 1.482704,-0.91406 2.676035,-1.68457 1.053142,-0.71781 1.800101,-1.27746 2.238632,-1.67674 0.829948,-0.79742 1.417648,-1.59149 1.774304,-2.37994 0.142433,-0.32189 0.246737,-0.61798 0.309549,-0.88827 -0.01347,0.50806 -0.128977,1.00492 -0.347681,1.4883 -0.237771,0.53387 -0.542838,1.03408 -0.909587,1.50065 -0.370118,0.46769 -0.834441,0.93538 -1.389608,1.40083 -0.473292,0.39815 -1.036323,0.80191 -1.658789,1.2124 -0.402633,0.092 -0.812004,0.22768 -1.22586,0.41385 -0.632558,0.28488 -1.25054,0.66621 -1.859544,1.14175 -0.331978,0.26021 -0.654984,0.55069 -0.972392,0.86024 -0.06283,-0.42957 -0.103177,-0.87482 -0.102057,-1.35036 z m -2.453968,-2.00759 c -0.438534,-0.0494 -1.015011,-0.55517 -0.857988,-1.27858 0.180562,-0.83107 0.877051,-1.50512 1.206788,-2.11301 0.496853,-0.91407 0.721169,-2.16349 0.376843,-3.1269 0.779487,1.09463 1.030717,2.69174 0.9466,3.74712 -0.190667,0.19515 -0.347689,0.41385 -0.46096,0.66508 -0.206369,0.46433 -0.27142,0.9466 -0.187301,1.44233 0.009,0.0572 0.03928,0.10879 0.05156,0.16599 -0.270293,0.29834 -0.722278,0.53835 -1.075568,0.49797 z m 3.481313,-4.81597 c 0.227679,0.32861 0.418346,0.70434 0.571995,1.07445 -0.480023,0.0538 -0.888275,0.16039 -1.255025,0.29497 -0.161504,-0.85238 -0.407125,-1.61953 -0.661715,-2.01432 -0.34544,-0.53162 -0.63592,-0.9208 -0.939868,-1.13614 0.939868,0.27591 1.638596,0.84678 2.284613,1.78104 z m -0.434043,2.23975 c 0.399277,-0.203 0.833321,-0.31403 1.275212,-0.38357 0.0471,0.18954 0.07629,0.36563 0.08636,0.51816 0.03928,0.61349 -0.0059,1.25054 -0.207489,1.56457 -0.169355,0.26805 -0.609007,0.57648 -0.882666,0.56639 -0.273653,-0.0101 -0.64153,-0.12226 -0.57984,-0.51928 0.08184,-0.52826 0.159256,-1.0823 0.157012,-1.64645 0.05157,-0.0337 0.09421,-0.0707 0.151411,-0.0998 z m -0.952204,-1.10585 c -0.05947,-0.74023 -0.215339,-1.3571 -0.463198,-1.8573 -0.102069,-0.20188 -0.207489,-0.37461 -0.317408,-0.51704 0.247867,0.21422 0.448631,0.47553 0.600044,0.78172 0.170468,0.33535 0.294962,0.69201 0.37684,1.06548 0.06166,0.27815 0.09421,0.59219 0.114398,0.92192 -0.113278,0.0561 -0.2131,0.12225 -0.311793,0.18954 0.0067,-0.22767 0.0076,-0.42843 7.94e-4,-0.58432 z m 0.287126,1.73056 c -0.01455,0.1873 -0.02804,0.37348 -0.05156,0.57536 l -0.103177,0.81425 c -0.136837,-0.40264 -0.114403,-0.93763 0.15477,-1.38961 z m 4.389771,-1.25054 c 1.584761,-0.30058 3.304108,-1.25839 4.122853,-2.61995 -0.557416,2.04347 -2.276766,3.95349 -3.636094,4.87428 -1.034074,0.70098 -2.216203,1.37503 -2.803893,1.44569 -0.435168,0.0987 -1.039683,-0.0247 -1.511864,-0.28151 0.414981,0.11776 0.81425,0.0886 1.196706,-0.0998 0.38918,-0.19515 0.667321,-0.51256 0.837803,-0.94884 0.169352,-0.43741 0.216455,-0.95221 0.137953,-1.54215 -0.02918,-0.21758 -0.09197,-0.44077 -0.153659,-0.66508 0.650513,-0.0549 1.285306,-0.0628 1.810195,-0.16263 z m -4.201351,9.08799 c 0.273659,0.13571 0.511432,0.29721 0.714428,0.48227 0.201882,0.18393 0.358907,0.38021 0.474422,0.58882 0.116644,0.20973 0.183938,0.42282 0.20076,0.64041 0.01455,0.21645 -0.02352,0.41833 -0.117761,0.60788 -0.112162,0.22544 -0.286001,0.38021 -0.520408,0.46096 -0.234411,0.083 -0.466569,0.0662 -0.693121,-0.0471 -0.265811,-0.13235 -0.403765,-0.34769 -0.414973,-0.64042 -0.122256,0.12562 -0.203009,0.23889 -0.264692,0.34769 -0.363384,-0.48228 -0.880427,-0.80752 -1.560092,-0.97464 0.360022,-0.62919 0.776124,-1.23259 1.220259,-1.82253 0.345442,0.0987 0.672933,0.21197 0.961178,0.35666 z m -0.932016,6.15623 c -0.11103,0.24787 -0.288242,0.42283 -0.494604,0.56302 0.18393,-0.18618 0.348798,-0.3746 0.495726,-0.56638 -7.94e-4,7.9e-4 -7.94e-4,0.003 -7.94e-4,0.003 z m -1.580277,0.12561 c -0.132339,0.14244 -0.301699,0.29049 -0.491241,0.43965 -0.202996,-0.12674 -0.385821,-0.27815 -0.531617,-0.48562 -0.192907,-0.27591 -0.320765,-0.5978 -0.38582,-0.96343 -0.05611,-0.30394 -0.0572,-0.62807 -0.02582,-0.9679 0.3746,-0.52377 0.702091,-1.07221 1.012767,-1.60159 0.31628,-0.53723 0.870326,-0.30955 1.206794,-0.0527 0.337589,0.25572 0.564144,1.05876 0.506947,1.54775 -0.06839,0.57536 -0.639289,1.38288 -1.292035,2.08386 z m -3.444306,1.93805 c -1.6946668,0.48452 -3.0954998,0.48452 -4.4952038,-0.10654 0.577606,0.0415 1.308859,-0.1402 2.246484,-0.44077 0.7525678,-0.24226 1.9290738,-1.0139 3.0416628,-1.98852 0.324128,-0.28488 0.604523,-0.60341 0.868087,-0.93202 0.03928,0.58882 0.185055,1.12267 0.453115,1.59149 0.137946,0.24226 0.311785,0.4419 0.49684,0.62919 -0.7234,0.50021 -1.677844,0.97913 -2.610985,1.24717 z m -4.9830828,-0.66396 c 1.360458,-0.81873 2.319388,-2.53921 2.619965,-4.12397 0.08748,-0.45423 0.104304,-0.99257 0.14356,-1.54998 0.157015,0.037 0.316283,0.0875 0.469927,0.10878 0.5899468,0.0797 1.1047408,0.0314 1.5421478,-0.13907 0.436282,-0.16936 0.753686,-0.44974 0.948838,-0.83669 0.238895,-0.48563 0.232164,-0.99482 -0.02246,-1.53204 0.08185,-0.0123 0.165991,-0.0179 0.246745,-0.0303 0.318521,0.48788 0.480028,1.17988 0.371237,1.66327 -0.06956,0.5877 -0.744718,1.77094 -1.446811,2.80389 -0.918554,1.35821 -2.8285728,3.07868 -4.8731748,3.6361 z m 0.792943,-7.19928 c -0.934257,-0.64713 -1.506254,-1.34587 -1.782156,-2.28573 0.215339,0.30506 0.604522,0.59554 1.136139,0.94211 0.413858,0.26581 1.232588,0.52377 2.133206,0.68414 -0.09982,0.33535 -0.17721,0.70322 -0.217588,1.11932 l -0.02019,0.18842 c -0.426188,-0.16262 -0.870321,-0.38469 -1.249413,-0.64826 z m 1.423257,-3.13139 c 0.607888,-0.33086 1.2819438,-1.02735 2.1130158,-1.20904 0.723405,-0.1559 1.230352,0.42059 1.278577,0.85799 0.03137,0.2703 -0.107669,0.59331 -0.30394,0.85575 -0.04938,-0.0112 -0.09534,-0.037 -0.145809,-0.046 -0.494607,-0.083 -0.977992,-0.0191 -1.441196,0.18954 -0.3319858,0.14805 -0.5977938,0.39031 -0.8321938,0.67407 -1.054272,0.0953 -2.68501,-0.15702 -3.795352,-0.9466 0.963414,0.34432 2.213956,0.12112 3.126898,-0.37572 z m 2.0154428,1.97955 c -0.226555,0.0269 -0.438526,0.0437 -0.647139,0.0595 0.591058,-0.57087 1.475967,-0.55405 1.950384,-0.25011 0.01008,0.007 0.01908,0.0168 0.02801,0.0235 z m -1.0116478,0.56527 c 0.5327408,-0.007 1.0576318,-0.0785 1.5578398,-0.15702 0.397034,-0.0617 0.509196,0.30731 0.51929,0.57985 0.01008,0.27365 -0.29722,0.71443 -0.566391,0.88491 -0.314036,0.20188 -0.949957,0.24562 -1.5645758,0.20636 -0.09981,-0.007 -0.22207,-0.0336 -0.339831,-0.0572 0.06283,-0.50245 0.172725,-1.00042 0.393668,-1.4569 z m -0.774994,-0.48227 c -0.377965,-0.0157 -0.731252,-0.0516 -1.045297,-0.12001 -0.373475,-0.083 -0.731253,-0.20749 -1.066599,-0.37684 -0.306186,-0.15253 -0.567502,-0.35218 -0.781724,-0.60116 0.142435,0.10991 0.315158,0.21534 0.51704,0.31628 0.500211,0.24787 1.117071,0.40489 1.857299,0.4632 0.170471,0.009 0.391422,0.008 0.648258,-7.9e-4 -0.05047,0.0942 -0.08412,0.21534 -0.128977,0.31964 z m 5.1715008,0.0404 c 0.480031,-7.9e-4 0.928651,0.0415 1.361575,0.10431 -0.231042,0.24786 -0.455358,0.49909 -0.658357,0.75592 -0.474417,0.60901 -0.855745,1.22811 -1.141744,1.86067 -0.185057,0.41386 -0.32077,0.82211 -0.412736,1.22474 -0.410488,0.62247 -0.815369,1.18661 -1.212398,1.65991 -0.466574,0.55629 -0.933146,1.01837 -1.400836,1.38848 -0.467691,0.36675 -0.9678958,0.67294 -1.5006428,0.91183 -0.484513,0.21647 -0.980239,0.33199 -1.488305,0.34545 0.270293,-0.0617 0.565267,-0.16599 0.888275,-0.30843 0.788453,-0.35778 1.5825148,-0.94548 2.3799428,-1.77431 0.398158,-0.43852 0.957813,-1.18661 1.676733,-2.23862 0.769382,-1.19446 1.330167,-2.08498 1.684576,-2.67605 -0.120002,-0.43068 -0.215339,-0.72677 -0.288234,-0.88714 -0.0583,-0.13011 -0.135713,-0.23553 -0.204129,-0.35442 0.106553,-0.003 0.20973,-0.0124 0.31628,-0.0124 z M 27.503124,130.5527 c -0.205245,-1.0251 -0.54732,-1.91674 -1.030706,-2.67155 -0.486759,-0.75144 -1.091281,-1.29091 -1.807958,-1.61392 -0.683027,-0.30619 -1.304367,-0.38806 -1.868512,-0.24562 -0.560781,0.14356 -0.962294,0.47666 -1.197827,1.00491 -0.186176,0.41498 -0.202996,0.81425 -0.04374,1.19334 0.15702,0.38021 0.458716,0.68191 0.912945,0.90622 -0.174961,-0.49573 -0.151413,-0.98809 0.06729,-1.47821 0.213101,-0.46994 0.520404,-0.80416 0.92978,-1.00156 0.412724,-0.19738 0.809755,-0.20748 1.200058,-0.0326 0.435168,0.19291 0.716677,0.54059 0.843415,1.03632 0.126738,0.49909 0.06956,1.01725 -0.173847,1.55672 -0.309547,0.69312 -0.88378,1.30213 -1.715982,1.81805 -0.831075,0.51703 -1.733926,0.82771 -2.70183,0.93649 l -1.317826,0.14357 c -0.05493,-0.12899 -0.09309,-0.25572 -0.157022,-0.3847 -0.320762,-0.63704 -0.732383,-1.2124 -1.23372,-1.72831 -0.505818,-0.51257 -1.055378,-0.92866 -1.650926,-1.2483 -0.594429,-0.31516 -1.178761,-0.50919 -1.751875,-0.57649 -0.575361,-0.0628 -1.090158,0.0179 -1.543267,0.24339 -0.431798,0.21534 -0.726768,0.49348 -0.88491,0.83219 -0.158139,0.33758 -0.155892,0.67518 0.01236,1.00716 0.130098,0.26244 0.323006,0.43404 0.576474,0.50919 0.254598,0.0763 0.528257,0.0494 0.824344,-0.0852 -0.318513,-0.1144 -0.554043,-0.32862 -0.707697,-0.63817 -0.149169,-0.29722 -0.190669,-0.58658 -0.122248,-0.87145 0.07066,-0.28712 0.226555,-0.489 0.474417,-0.61237 0.273658,-0.13683 0.561903,-0.13683 0.861358,0.003 0.299456,0.13907 0.533856,0.37908 0.705456,0.72116 0.219829,0.43741 0.28824,0.97239 0.205246,1.59822 -0.08075,0.62471 -0.293849,1.20343 -0.634802,1.73056 l -0.652743,1.00155 c -0.551807,0.82771 -0.677423,1.54439 -0.376841,2.1433 0.146918,0.29273 0.361135,0.52265 0.641522,0.68191 0.282634,0.16151 0.595548,0.23665 0.945473,0.2288 0.348808,-0.009 0.697616,-0.0965 1.045295,-0.27367 0.0482,-0.0225 0.1144,-0.0616 0.191788,-0.11215 0.07511,0.1144 0.133467,0.23328 0.226555,0.34095 0.107667,0.12562 0.241136,0.2288 0.367874,0.33871 -0.03592,0.41498 -0.05493,0.82098 -0.04265,1.2068 0.0168,0.53049 0.07848,1.03183 0.18169,1.50625 -0.136832,0.14468 -0.278149,0.27927 -0.413854,0.43404 -0.02019,0.0235 -0.04038,0.0527 -0.06057,0.0763 -0.02463,0.0213 -0.05274,0.0404 -0.07739,0.0617 -0.233278,0.20525 -0.444135,0.41499 -0.656111,0.62696 -0.472173,-0.10207 -0.971273,-0.16375 -1.497277,-0.18057 -0.269177,-0.008 -0.54396,-0.004 -0.825466,0.0101 -0.153657,-0.20188 -0.318524,-0.38805 -0.505828,-0.54956 -0.132339,-0.11439 -0.275902,-0.18954 -0.416094,-0.27478 0.153649,-0.32525 0.237765,-0.6505 0.245621,-0.97464 0.0076,-0.35104 -0.06729,-0.66396 -0.22768,-0.94434 -0.160385,-0.28151 -0.3903,-0.49574 -0.68303,-0.64265 -0.59891,-0.30059 -1.315582,-0.17497 -2.1432958,0.37684 l -1.001549,0.65274 c -0.527129,0.33984 -1.105855,0.55517 -1.730563,0.63593 -0.625832,0.0818 -1.160814,0.0135 -1.598221,-0.20749 -0.342077,-0.16936 -0.582088,-0.40376 -0.721159,-0.70434 -0.1402,-0.29945 -0.1402,-0.58658 -0.0034,-0.86248 0.124494,-0.24562 0.325249,-0.40263 0.612375,-0.47329 0.284869,-0.0673 0.574231,-0.0258 0.871448,0.12113 0.309552,0.15477 0.523764,0.3903 0.638159,0.70881 0.134591,-0.29721 0.161507,-0.56974 0.08525,-0.82321 -0.07403,-0.2546 -0.246748,-0.44639 -0.509193,-0.57873 -0.331976,-0.16711 -0.669568,-0.17048 -1.007158,-0.0123 -0.338714,0.15925 -0.61573,0.45423 -0.832191,0.88491 -0.225433,0.45423 -0.306184,0.96902 -0.243382,1.54438 0.06729,0.57312 0.261321,1.15857 0.576487,1.75188 0.31964,0.59554 0.735735,1.14399 1.248291,1.64981 0.515916,0.50358 1.091274,0.91407 1.728316,1.23371 0.191789,0.0953 0.379087,0.16038 0.56751,0.23329 l -0.111032,1.02734 c -0.108791,0.96903 -0.419468,1.87076 -0.936498,2.70296 -0.517041,0.83219 -1.124929,1.40755 -1.818053,1.71598 -0.540586,0.24338 -1.05987,0.30058 -1.556715,0.17272 -0.495734,-0.12561 -0.843415,-0.40712 -1.037447,-0.84228 -0.174964,-0.39031 -0.163743,-0.78847 0.03255,-1.20008 0.197398,-0.40937 0.531614,-0.71779 1.002673,-0.92865 0.488995,-0.22095 0.982485,-0.24338 1.475973,-0.0696 -0.223198,-0.4531 -0.523775,-0.75593 -0.903981,-0.91183 -0.379087,-0.16037 -0.779484,-0.14243 -1.194459,0.0448 -0.527134,0.23441 -0.860234,0.6348 -1.003789,1.19558 -0.142447,0.56415 -0.06166,1.18662 0.244491,1.86964 0.324138,0.71668 0.861359,1.32007 1.615045,1.80907 0.754812,0.48115 1.646452,0.82548 2.671551,1.02847 1.02847,0.20188 2.095074,0.24114 3.2065358,0.12225 1.11034,-0.12449 2.170213,-0.41049 3.180741,-0.8636 0.598914,-0.26805 1.121558,-0.58321 1.606069,-0.9208 0.0076,0.003 0.01116,0.009 0.01789,0.0124 0.557418,0.24899 1.10586,0.29833 1.641961,0.13907 0.538348,-0.1559 0.914075,-0.4789 1.129414,-0.96342 0.149161,-0.32974 0.163751,-0.64377 0.04037,-0.94772 -0.122245,-0.30281 -0.338714,-0.52713 -0.654994,-0.66957 -0.009,-0.003 -0.02019,-0.006 -0.02918,-0.0101 0.03255,-0.0807 0.07293,-0.15925 0.09981,-0.24225 0.148042,-0.45535 0.177207,-0.895 0.107667,-1.31895 0.255714,0.0841 0.519287,0.0953 0.792948,-0.0225 0.3331,-0.13907 0.586568,-0.38694 0.761531,-0.7391 0.186185,-0.37236 0.243385,-0.76715 0.170482,-1.1855 -0.06956,-0.41945 -0.264689,-0.812 -0.575358,-1.18212 -0.314036,-0.36786 -0.718923,-0.67742 -1.218012,-0.92753 -0.161506,-0.0797 -0.333105,-0.1458 -0.506946,-0.21197 0.07739,-0.0998 0.146923,-0.20412 0.227676,-0.30282 0.04147,-0.0505 0.08524,-0.092 0.127857,-0.14132 0.05047,-0.0437 0.09085,-0.0875 0.142436,-0.12897 0.02352,-0.0179 0.0482,-0.0347 0.07175,-0.0538 0.06839,0.18954 0.141313,0.3746 0.228795,0.54844 0.247862,0.49909 0.557409,0.90398 0.926407,1.21801 0.370112,0.31067 0.762662,0.50582 1.181,0.57536 0.420584,0.0729 0.815371,0.0157 1.185484,-0.17048 0.35329,-0.17496 0.601154,-0.42843 0.740224,-0.76153 0.141322,-0.33199 0.133472,-0.65163 -0.01908,-0.95557 -0.02804,-0.0561 -0.06839,-0.0931 -0.103187,-0.13795 0.532738,0.16823 1.09352,0.16823 1.678971,-0.0225 0.08075,-0.0258 0.161505,-0.0662 0.241139,-0.0987 0.0034,0.009 0.0059,0.0213 0.01011,0.0303 0.143555,0.31516 0.367863,0.5305 0.669568,0.65386 0.30394,0.12226 0.617976,0.10768 0.947713,-0.0404 0.48564,-0.21646 0.807522,-0.59218 0.963425,-1.12828 0.160375,-0.53835 0.111032,-1.08455 -0.139081,-1.64196 -0.0034,-0.008 -0.0076,-0.0124 -0.01116,-0.0191 0.336468,-0.48339 0.652745,-1.00604 0.920805,-1.60607 0.451983,-1.01165 0.73686,-2.06928 0.862473,-3.18073 0.120007,-1.1126 0.08075,-2.1792 -0.121129,-3.20767"
       style="fill:#64471c;fill-opacity:1;fill-rule:nonzero;stroke:none;stroke-width:0.112;stroke-dasharray:none" />
    <path
       id="path236"
       d="m 29.432204,131.7404 v -1.1238 H 178.50745 v 1.1238 H 29.432204 v 0"
       style="fill:#64471c;fill-opacity:1;fill-rule:nonzero;stroke:none;stroke-width:0.112;stroke-dasharray:none" />
    <path
       id="path237"
       d="m 29.432204,134.73048 v -1.12269 H 178.50632 v 1.12269 H 29.432204 v 0"
       style="fill:#64471c;fill-opacity:1;fill-rule:nonzero;stroke:none;stroke-width:0.112;stroke-dasharray:none" />
    <path
       id="path238"
       d="m 29.432204,197.16323 v -1.1229 H 178.50745 v 1.1229 H 29.432204 v 0"
       style="fill:#64471c;fill-opacity:1;fill-rule:nonzero;stroke:none;stroke-width:0.112;stroke-dasharray:none" />
    <path
       id="path239"
       d="m 29.432204,194.17304 v -1.12267 H 178.50745 v 1.12267 H 29.432204 v 0"
       style="fill:#64471c;fill-opacity:1;fill-rule:nonzero;stroke:none;stroke-width:0.112;stroke-dasharray:none" />
    <path
       id="path240"
       d="m 199.05438,183.85022 c -0.0931,0.48901 -0.10654,1.07558 -0.15365,1.67898 -0.15253,-0.0359 -0.30843,-0.0852 -0.45984,-0.10655 -0.58882,-0.0785 -1.10361,-0.0314 -1.54214,0.13796 -0.43628,0.17046 -0.75369,0.44973 -0.94883,0.8378 -0.23778,0.48563 -0.23217,0.99594 0.0225,1.53093 -0.0527,0.009 -0.10654,0.0123 -0.15926,0.0202 -0.3746,-0.48676 -0.57647,-1.25839 -0.45871,-1.78328 0.0707,-0.5877 0.74471,-1.77095 1.44681,-2.8039 0.91967,-1.35933 2.82969,-3.07868 4.87316,-3.63608 -1.36044,0.81761 -2.31826,2.53919 -2.61996,4.12395 z m 1.82815,3.20654 c 0.93425,0.64602 1.50625,1.34475 1.78215,2.28461 -0.21646,-0.30394 -0.60452,-0.59442 -1.13726,-0.93986 -0.42059,-0.27142 -1.26063,-0.5361 -2.18143,-0.69424 0.12113,-0.36788 0.21982,-0.76939 0.26581,-1.24157 l 0.007,-0.0628 c 0.43068,0.16262 0.8793,0.38693 1.26399,0.65386 z m -1.42439,3.13251 c -0.60788,0.32974 -1.28081,1.02623 -2.11188,1.2068 -0.72454,0.15702 -1.23036,-0.41947 -1.27971,-0.858 -0.0347,-0.30618 0.14468,-0.68639 0.38582,-0.96117 0.0213,0.004 0.0415,0.0179 0.0639,0.0213 0.49572,0.083 0.978,0.0179 1.4412,-0.18955 0.27927,-0.1245 0.51256,-0.31179 0.72228,-0.53162 0.0337,-0.003 0.0696,-0.008 0.10319,-0.0112 1.05202,-0.0965 2.6895,0.15365 3.80208,0.94659 -0.96342,-0.34432 -2.21283,-0.12 -3.12691,0.37684 z m -2.01431,-1.98179 c 0.1716,-0.0191 0.32749,-0.0303 0.49012,-0.0448 -0.5148,0.37796 -1.17651,0.38246 -1.6229,0.18731 z m 0.98472,-0.63368 c -0.0135,0.0269 -0.0326,0.046 -0.0471,0.0729 -0.50807,0.0101 -1.00828,0.0785 -1.48494,0.15253 -0.39591,0.0617 -0.50919,-0.30619 -0.51928,-0.57985 -0.009,-0.27366 0.29833,-0.7133 0.56638,-0.88266 0.31404,-0.20189 0.95109,-0.24675 1.56569,-0.20749 0.0953,0.006 0.21198,0.0325 0.32414,0.0538 -0.0684,0.48227 -0.18282,0.95781 -0.40489,1.39073 z m 0.74921,0.54844 c 0.39927,0.0135 0.76939,0.0516 1.098,0.1245 0.37348,0.0818 0.73013,0.20636 1.06548,0.37684 0.30731,0.15141 0.56751,0.35217 0.78172,0.60003 -0.14243,-0.10991 -0.31515,-0.21534 -0.51703,-0.3174 -0.50022,-0.24787 -1.11707,-0.40376 -1.8573,-0.4632 -0.19067,-0.009 -0.43629,-0.008 -0.73686,0.004 0.0617,-0.0998 0.1144,-0.2131 0.16599,-0.32525 z m -5.11879,-0.0381 c -0.51816,0.003 -1.00156,-0.0448 -1.46363,-0.1189 0.27141,-0.28486 0.52601,-0.57535 0.75928,-0.87256 0.47555,-0.60901 0.85688,-1.22699 1.14288,-1.85955 0.18505,-0.41386 0.32076,-0.8221 0.41273,-1.22586 0.41049,-0.62135 0.81425,-1.18549 1.2124,-1.65879 0.46657,-0.55628 0.93314,-1.01837 1.40083,-1.38849 0.46769,-0.36786 0.96678,-0.67293 1.50064,-0.91182 0.4834,-0.21646 0.98025,-0.33311 1.48831,-0.34544 -0.2703,0.0617 -0.56526,0.16599 -0.88827,0.30843 -0.78846,0.35665 -1.58253,0.94547 -2.37995,1.7743 -0.39927,0.43853 -0.95893,1.18661 -1.67673,2.23863 -0.77051,1.19334 -1.33129,2.08385 -1.68458,2.67604 0.11889,0.43067 0.21422,0.72677 0.28824,0.88715 0.0785,0.17722 0.18057,0.32638 0.2759,0.48115 -0.1301,0.004 -0.25796,0.0157 -0.38805,0.0157 z m -3.3243,-0.6707 c -0.27254,-0.13795 -0.51143,-0.29721 -0.71443,-0.48115 -0.20076,-0.18393 -0.3589,-0.38133 -0.47443,-0.59218 -0.11664,-0.20749 -0.18393,-0.4217 -0.19963,-0.63704 -0.0157,-0.21871 0.0225,-0.42059 0.11664,-0.60901 0.11327,-0.22543 0.286,-0.38133 0.5204,-0.46208 0.23441,-0.0818 0.46657,-0.0662 0.69312,0.0482 0.26694,0.13347 0.40489,0.34656 0.41499,0.6404 0.13907,-0.14131 0.23889,-0.27253 0.30057,-0.39253 0.006,-0.0112 0.004,-0.0225 0.0101,-0.0336 0.36002,0.45198 0.86135,0.76042 1.5141,0.92192 -0.38245,0.66732 -0.82659,1.30773 -1.30325,1.93132 -0.31291,-0.0942 -0.61237,-0.20076 -0.87818,-0.33423 z m 0.93201,-6.28745 c 0.11216,-0.24899 0.28824,-0.42283 0.49685,-0.56303 -0.18617,0.18618 -0.35104,0.37461 -0.49797,0.5664 7.9e-4,-8e-4 7.9e-4,-0.003 7.9e-4,-0.003 z m 1.58027,-0.12562 c 0.13123,-0.14244 0.30283,-0.29048 0.49238,-0.43965 0.20187,0.12562 0.3858,0.27815 0.53049,0.48564 0.19291,0.2759 0.32189,0.59779 0.38582,0.96341 0.0572,0.30395 0.0583,0.62808 0.0269,0.96679 -0.3746,0.52489 -0.70209,1.07221 -1.01388,1.60271 -0.31628,0.53722 -0.86922,0.30954 -1.2068,0.0527 -0.33759,-0.25572 -0.56415,-1.05876 -0.50582,-1.54775 0.0673,-0.57649 0.63816,-1.38289 1.2909,-2.08387 z m 3.44543,-1.93805 c 1.69356,-0.48452 3.09438,-0.48452 4.49409,0.10655 -0.57648,-0.0415 -1.30886,0.1402 -2.24649,0.44077 -0.75144,0.24114 -1.92796,1.01389 -3.04054,1.98852 -0.32525,0.28488 -0.60564,0.6034 -0.86921,0.93202 -0.0393,-0.58882 -0.18506,-1.12268 -0.45198,-1.59149 -0.13795,-0.24338 -0.3118,-0.44189 -0.49798,-0.6292 0.72341,-0.50133 1.67898,-0.98023 2.61211,-1.24717 z m -5.83883,12.22947 c 0,0.17384 -0.0135,0.34319 -0.0213,0.51479 -0.17721,-0.11328 -0.35442,-0.22991 -0.56078,-0.32076 -0.15926,-0.0729 -0.45648,-0.16823 -0.88716,-0.28712 -0.58993,0.35329 -1.48157,0.91407 -2.67603,1.68346 -1.05202,0.71891 -1.79898,1.27858 -2.23863,1.67785 -0.82883,0.79742 -1.41765,1.5916 -1.77431,2.37972 -0.14243,0.32211 -0.24673,0.61685 -0.30842,0.8885 0.0124,-0.50818 0.12898,-1.00503 0.34656,-1.48954 0.23777,-0.53263 0.54395,-1.03285 0.9107,-1.49942 0.37012,-0.46768 0.83332,-0.93537 1.38849,-1.40082 0.4733,-0.39815 1.03632,-0.80191 1.65879,-1.2124 0.40376,-0.0931 0.812,-0.2288 1.22586,-0.41499 0.63368,-0.28486 1.25165,-0.66507 1.86066,-1.14062 0.32637,-0.25683 0.64378,-0.54058 0.95557,-0.84229 0.074,0.46209 0.12112,0.94548 0.12001,1.46364 z m 2.45285,2.00759 c 0.43853,0.0494 1.01389,0.55517 0.85911,1.27858 -0.18169,0.83107 -0.8793,1.50535 -1.20904,2.11301 -0.49797,0.91295 -0.72116,2.16337 -0.37572,3.1268 -0.79182,-1.11237 -1.04417,-2.75007 -0.94771,-3.80332 0.003,-0.0267 0.007,-0.0538 0.009,-0.0805 0.18731,-0.19404 0.34096,-0.41162 0.452,-0.66061 0.20748,-0.46432 0.27141,-0.94547 0.18842,-1.4412 -0.004,-0.0258 -0.0191,-0.0482 -0.0235,-0.074 0.27478,-0.27927 0.70882,-0.49797 1.04754,-0.45871 z m -3.48132,4.81586 c -0.25347,-0.36452 -0.46544,-0.78734 -0.62583,-1.19648 0.49124,-0.0517 0.90735,-0.15949 1.28307,-0.29531 0.16038,0.90297 0.41946,1.72395 0.68639,2.13668 0.34544,0.53184 0.63593,0.92091 0.94211,1.13603 -0.93987,-0.27557 -1.63859,-0.84644 -2.28574,-1.78092 z m 0.43293,-2.37087 c -0.40376,0.20615 -0.84678,0.31741 -1.2954,0.38705 -0.028,-0.13705 -0.0583,-0.27511 -0.0662,-0.39041 -0.0393,-0.61461 0.004,-1.25053 0.20638,-1.56458 0.17047,-0.26804 0.61124,-0.57647 0.88491,-0.56638 0.27253,0.0101 0.64152,0.12225 0.58096,0.51928 -0.0774,0.48564 -0.1458,0.99482 -0.15701,1.51298 -0.0516,0.0347 -0.0953,0.0729 -0.15366,0.10206 z m 0.95332,1.23708 c 0.0595,0.74034 0.21534,1.3572 0.4632,1.85707 0.10206,0.202 0.20749,0.37461 0.31629,0.51738 -0.24787,-0.21422 -0.44751,-0.47576 -0.60116,-0.78195 -0.16824,-0.33523 -0.29385,-0.69312 -0.37685,-1.06637 -0.0673,-0.3155 -0.10542,-0.66991 -0.11888,-1.04889 0.11552,-0.0582 0.2187,-0.12572 0.32076,-0.19492 -0.0123,0.29138 -0.0135,0.53139 -0.003,0.71768 z m -0.27366,-1.88758 c 0.0124,-0.13907 0.0202,-0.27142 0.0381,-0.41834 l 0.11327,-0.90398 c 0.12002,0.39142 0.0942,0.89052 -0.1514,1.32232 z m -4.40324,1.27633 c -1.58476,0.29924 -3.30411,1.25828 -4.12396,2.61996 0.55741,-2.04336 2.27676,-3.95461 3.63608,-4.87429 1.03408,-0.70097 2.2162,-1.37503 2.8039,-1.44568 0.55068,-0.1245 1.37055,0.10317 1.84944,0.51254 -7.9e-4,0.008 -7.9e-4,0.0146 -0.003,0.0225 -0.53723,-0.2546 -1.04641,-0.26133 -1.53093,-0.0225 -0.38806,0.19516 -0.66845,0.51255 -0.83668,0.94884 -0.1716,0.43741 -0.21983,0.95221 -0.13907,1.54214 0.0235,0.17475 0.0785,0.35655 0.12336,0.53487 -0.63929,0.0538 -1.26287,0.063 -1.77991,0.16162 z m -4.68138,2.13186 c -0.59106,-1.4006 -0.59106,-2.8003 -0.10542,-4.49498 0.26804,-0.93313 0.74583,-1.88758 1.24604,-2.61099 0.18731,0.18506 0.38694,0.36003 0.63032,0.49797 0.46881,0.26693 1.00267,0.41162 1.59149,0.45199 -0.32861,0.26357 -0.64714,0.54284 -0.93201,0.86697 -0.97576,1.11482 -1.74739,2.28909 -1.98965,3.0429 -0.29945,0.93751 -0.48115,1.66876 -0.44077,2.24614 z m 1.8315,-7.93929 c 0.70098,-0.65274 1.5085,-1.22361 2.08386,-1.2909 0.49011,-0.0583 1.29204,0.1671 1.54775,0.50582 0.25684,0.33646 0.48451,0.89051 -0.0527,1.2068 -0.52937,0.31067 -1.07781,0.63704 -1.60046,1.01163 -0.33984,0.0326 -0.66508,0.0314 -0.96903,-0.0247 -0.36451,-0.065 -0.68751,-0.19404 -0.96342,-0.38582 -0.20749,-0.1458 -0.3589,-0.32862 -0.48563,-0.53049 0.14916,-0.18956 0.29721,-0.36003 0.43965,-0.49237 z m 0.12562,-1.58026 c 7.9e-4,0 0.003,0 0.003,-8e-4 -0.19292,0.14693 -0.38134,0.3118 -0.56751,0.49797 0.14019,-0.20748 0.31516,-0.38469 0.56414,-0.49684 z m 3.59011,-1.76646 c 0.0818,-0.23441 0.23553,-0.40825 0.46208,-0.52041 0.18842,-0.0942 0.3903,-0.13234 0.60789,-0.11776 0.21645,0.0168 0.42954,0.0841 0.63928,0.20076 0.20861,0.11552 0.40488,0.27254 0.58882,0.47442 0.18506,0.203 0.34656,0.44077 0.48227,0.71443 0.1357,0.2703 0.2445,0.57424 0.33983,0.895 -0.65163,0.50359 -1.3212,0.96903 -2.0188,1.36831 -0.16824,-0.67743 -0.49461,-1.19559 -0.97351,-1.55784 0.0549,-0.0146 0.1099,-0.0213 0.16598,-0.0482 0.12225,-0.0617 0.25235,-0.1615 0.39479,-0.30057 -0.29384,-0.0112 -0.50807,-0.14917 -0.64153,-0.41498 -0.11327,-0.22656 -0.1301,-0.45872 -0.0471,-0.69312 z m 18.10643,-6.34466 c -0.32301,-0.71667 -0.86136,-1.32007 -1.61393,-1.80907 -0.7548,-0.48115 -1.64644,-0.82547 -2.67155,-1.02959 -1.02846,-0.20076 -2.09506,-0.24113 -3.20765,-0.12113 -1.11034,0.12449 -2.1691,0.41049 -3.18074,0.86248 -0.60004,0.26918 -1.12156,0.58433 -1.60494,0.92192 -0.008,-0.003 -0.0124,-0.009 -0.0191,-0.0123 -0.55741,-0.25011 -1.10473,-0.29946 -1.64196,-0.13907 -0.53723,0.15589 -0.91294,0.4789 -1.12941,0.96229 -0.14805,0.32974 -0.16262,0.64489 -0.0404,0.94884 0.12338,0.30282 0.33872,0.52713 0.655,0.66957 0.009,0.003 0.0213,0.006 0.0303,0.009 -0.0336,0.0819 -0.074,0.16039 -0.0998,0.24226 -0.16487,0.5047 -0.19179,0.99034 -0.0897,1.45578 -0.26133,-0.092 -0.53162,-0.10206 -0.81202,0.0179 -0.3331,0.13908 -0.58545,0.38694 -0.76153,0.74023 -0.18618,0.37012 -0.24226,0.76491 -0.17048,1.1855 0.0707,0.41833 0.26469,0.81088 0.57648,1.181 0.31292,0.36898 0.7178,0.67853 1.21801,0.9264 0.13683,0.0684 0.28488,0.12449 0.4318,0.18169 -0.0527,0.0662 -0.0998,0.13683 -0.15252,0.20188 -0.0415,0.0516 -0.0864,0.092 -0.12899,0.14244 -0.0505,0.0427 -0.0909,0.0864 -0.14244,0.12785 -0.037,0.0314 -0.0751,0.0549 -0.11215,0.0864 -0.0595,-0.15253 -0.11776,-0.30731 -0.1873,-0.44862 -0.25011,-0.4991 -0.55854,-0.90398 -0.92641,-1.21801 -0.37011,-0.31068 -0.76377,-0.50583 -1.18324,-0.57536 -0.41834,-0.0729 -0.81314,-0.0157 -1.18548,0.17047 -0.35218,0.17496 -0.60004,0.42844 -0.73912,0.76154 -0.13683,0.32077 -0.12673,0.63031 0.0135,0.92529 -0.50021,-0.13347 -1.02398,-0.11889 -1.57018,0.0595 -0.0807,0.0258 -0.16038,0.0662 -0.24001,0.0976 -0.004,-0.008 -0.007,-0.0202 -0.0101,-0.0292 -0.14356,-0.31516 -0.36787,-0.53162 -0.67069,-0.65388 -0.30282,-0.12224 -0.61798,-0.10878 -0.94772,0.0404 -0.48451,0.21646 -0.8064,0.59219 -0.96341,1.12829 -0.15927,0.53835 -0.11104,1.08455 0.13907,1.64196 0.003,0.008 0.009,0.0124 0.0124,0.0191 -0.33759,0.48339 -0.65275,1.00603 -0.9208,1.60607 -0.45312,1.01164 -0.73799,2.06928 -0.86361,3.18074 -0.11888,1.11135 -0.0797,2.17818 0.12113,3.20642 0.20525,1.02645 0.54844,1.91674 1.03072,2.67155 0.48788,0.75268 1.09127,1.29204 1.80907,1.61538 0.68191,0.30485 1.30437,0.38682 1.86852,0.24529 0.56077,-0.14323 0.96117,-0.47667 1.19669,-1.00503 0.18619,-0.41487 0.20413,-0.81526 0.0437,-1.193 -0.15701,-0.38021 -0.45871,-0.68213 -0.91182,-0.90644 0.17496,0.49471 0.15029,0.98797 -0.0684,1.47731 -0.21197,0.46971 -0.5204,0.80528 -0.92976,1.00245 -0.41162,0.19751 -0.80977,0.20636 -1.19896,0.0324 -0.43628,-0.19369 -0.71779,-0.54025 -0.8434,-1.03744 -0.12786,-0.49775 -0.0707,-1.01602 0.17271,-1.55526 0.30955,-0.69313 0.8838,-1.30213 1.71599,-1.81816 0.83219,-0.51705 1.73392,-0.82895 2.70183,-0.93673 l 1.26512,-0.13671 c 0.0696,0.16958 0.12449,0.33646 0.21086,0.50907 0.31964,0.63704 0.73013,1.21274 1.2337,1.72843 0.50695,0.51255 1.05427,0.92876 1.64982,1.24852 0.5933,0.31505 1.17875,0.50907 1.753,0.57615 0.57423,0.0632 1.08902,-0.0179 1.54438,-0.24316 0.42955,-0.21646 0.72452,-0.49371 0.88491,-0.83242 0.15701,-0.33737 0.15365,-0.67506 -0.0134,-1.00716 -0.13123,-0.26244 -0.32414,-0.43505 -0.57873,-0.50908 -0.25235,-0.0763 -0.52489,-0.0491 -0.82322,0.0853 0.31852,0.1144 0.55405,0.32862 0.70994,0.63795 0.14693,0.29743 0.18842,0.58658 0.12001,0.87178 -0.0696,0.28701 -0.22768,0.48766 -0.4733,0.61204 -0.2759,0.13717 -0.56302,0.13717 -0.86136,-0.003 -0.3017,-0.1393 -0.5361,-0.37942 -0.70546,-0.72116 -0.21982,-0.43763 -0.28936,-0.9725 -0.20748,-1.59822 0.0819,-0.62471 0.29609,-1.20343 0.63704,-1.73045 l 0.65275,-1.00177 c 0.55069,-0.82771 0.6763,-1.54439 0.37684,-2.1433 -0.14804,-0.29273 -0.36226,-0.52265 -0.64377,-0.68303 -0.28039,-0.16039 -0.59331,-0.23553 -0.94324,-0.22768 -0.34879,0.009 -0.69648,0.0965 -1.04641,0.27366 -0.0326,0.0145 -0.083,0.0471 -0.12897,0.0751 -0.0886,-0.14805 -0.17048,-0.29722 -0.28825,-0.43629 -0.10542,-0.12113 -0.23553,-0.22095 -0.35666,-0.32862 0.0258,-0.37236 0.0415,-0.73574 0.0303,-1.08567 -0.0179,-0.54844 -0.0797,-1.06773 -0.18954,-1.5556 -0.004,-0.0202 -0.0112,-0.0359 -0.0158,-0.0561 0.14581,-0.15253 0.29498,-0.29609 0.43741,-0.45872 0.0213,-0.0247 0.0404,-0.0527 0.0617,-0.0774 0.0236,-0.0202 0.0527,-0.0404 0.0763,-0.0606 0.19404,-0.17047 0.36564,-0.34656 0.54508,-0.5204 0.0191,0.004 0.0347,0.0112 0.0527,0.0157 0.489,0.1088 1.00828,0.1716 1.55673,0.18955 0.30282,0.0101 0.61797,7.9e-4 0.93874,-0.0179 0.1245,0.14917 0.24786,0.30058 0.39142,0.4262 0.14693,0.1256 0.30507,0.21309 0.46208,0.30506 -0.004,0.008 -0.0145,0.0225 -0.0179,0.0303 -0.17608,0.34768 -0.26356,0.69649 -0.27254,1.04529 -0.009,0.34992 0.0662,0.66284 0.22768,0.94547 0.15926,0.2804 0.3903,0.49461 0.6819,0.64154 0.59891,0.30057 1.31559,0.17608 2.1433,-0.37685 l 1.00155,-0.65274 c 0.52826,-0.34095 1.10586,-0.55406 1.73057,-0.63481 0.62695,-0.083 1.16081,-0.0146 1.59934,0.20525 0.34095,0.1716 0.58096,0.40601 0.72004,0.70546 0.14019,0.29946 0.14019,0.5877 0.003,0.86136 -0.12338,0.24786 -0.32526,0.40376 -0.61238,0.47442 -0.28487,0.0684 -0.57312,0.0269 -0.87145,-0.12225 -0.30843,-0.15366 -0.52377,-0.38919 -0.63705,-0.70771 -0.13458,0.29609 -0.16262,0.56976 -0.0864,0.82434 0.0751,0.25348 0.24674,0.44639 0.5103,0.57649 0.33087,0.16823 0.66846,0.17047 1.00604,0.0124 0.33983,-0.15814 0.61686,-0.4531 0.8322,-0.88491 0.22544,-0.45311 0.30731,-0.9679 0.24338,-1.54326 -0.0673,-0.57199 -0.2602,-1.15745 -0.57648,-1.75187 -0.31964,-0.59443 -0.73574,-1.14511 -1.24829,-1.65094 -0.51593,-0.50134 -1.09128,-0.91294 -1.72833,-1.23371 -0.19627,-0.0976 -0.38805,-0.16375 -0.58097,-0.23777 l 0.12562,-1.15409 c 0.10767,-0.9679 0.41946,-1.87076 0.9365,-2.70183 0.51704,-0.83219 1.12492,-1.40755 1.81804,-1.71598 0.53948,-0.24338 1.05876,-0.3017 1.55673,-0.17272 0.49572,0.12561 0.84341,0.40713 1.03632,0.84229 0.17608,0.3903 0.16487,0.78845 -0.0326,1.20007 -0.1974,0.40936 -0.53162,0.71667 -1.00155,0.92865 -0.49013,0.21982 -0.98248,0.24337 -1.47709,0.0684 0.22318,0.45424 0.52489,0.75594 0.90509,0.91295 0.37908,0.16039 0.77836,0.14244 1.19334,-0.0448 0.52825,-0.23441 0.86135,-0.63593 1.00491,-1.19671 0.14244,-0.56302 0.0606,-1.18548 -0.24562,-1.86851"
       style="fill:#64471c;fill-opacity:1;fill-rule:nonzero;stroke:none;stroke-width:0.112;stroke-dasharray:none" />
    <path
       id="path241"
       d="m 196.80118,145.72735 c -0.7021,-1.03296 -1.37615,-2.21619 -1.44681,-2.80389 -0.10767,-0.4834 0.0527,-1.17539 0.37123,-1.66327 0.0818,0.0124 0.16599,0.0179 0.24674,0.0303 -0.25459,0.53722 -0.2602,1.04641 -0.0225,1.53204 0.19516,0.38694 0.51255,0.66733 0.94884,0.83669 0.43853,0.17047 0.95333,0.2187 1.54214,0.13907 0.15366,-0.0213 0.31292,-0.0718 0.46994,-0.10879 0.0393,0.55741 0.0572,1.09576 0.14355,1.54999 0.3017,1.58476 1.25952,3.30524 2.61997,4.12397 -2.04348,-0.55742 -3.9535,-2.27788 -4.87317,-3.63609 z m -0.1088,4.30005 c -0.93313,-0.26804 -1.8887,-0.74696 -2.61211,-1.24717 0.18618,-0.18729 0.36003,-0.38693 0.49798,-0.62919 0.26692,-0.46882 0.41273,-1.00267 0.45198,-1.59149 0.26357,0.32861 0.54396,0.64714 0.86921,0.93202 1.11258,0.97462 2.2891,1.74626 3.04054,1.98852 0.93763,0.30057 1.67001,0.48227 2.24649,0.44077 -1.39971,0.59106 -2.80053,0.59106 -4.49409,0.10654 z m -2.95305,-1.4984 c -0.18955,-0.14916 -0.36003,-0.29721 -0.49238,-0.43965 -0.65274,-0.70097 -1.22361,-1.50849 -1.2909,-2.08385 -0.0583,-0.489 0.16823,-1.29204 0.50582,-1.54775 0.33758,-0.25684 0.89052,-0.48452 1.2068,0.0527 0.31179,0.52937 0.63928,1.07781 1.01388,1.60159 0.0314,0.33983 0.0303,0.66395 -0.0269,0.96789 -0.0639,0.36563 -0.19291,0.68752 -0.38582,0.96343 -0.14469,0.20748 -0.32862,0.35889 -0.53049,0.48563 z m -2.07265,-0.56526 c 0,-8e-4 0,-0.003 -7.9e-4,-0.003 0.14693,0.19179 0.3118,0.38021 0.49797,0.56639 -0.20861,-0.1402 -0.38469,-0.31516 -0.49684,-0.56303 z m -0.30955,-3.71572 c -0.0628,-0.1088 -0.14244,-0.22207 -0.2658,-0.34769 -0.0101,0.29273 -0.14805,0.50807 -0.41499,0.64042 -0.22655,0.11327 -0.45871,0.13009 -0.69312,0.0471 -0.2344,-0.0807 -0.40713,-0.23552 -0.5204,-0.46096 -0.0942,-0.18955 -0.13235,-0.39143 -0.11664,-0.60788 0.0157,-0.21759 0.083,-0.43068 0.19963,-0.64041 0.11553,-0.20861 0.27367,-0.40489 0.47443,-0.58882 0.203,-0.18506 0.44189,-0.34656 0.71443,-0.48227 0.28936,-0.14469 0.61574,-0.25796 0.96117,-0.35666 0.44414,0.58994 0.86024,1.19334 1.22026,1.82253 -0.67855,0.16712 -1.19671,0.49236 -1.55897,0.97464 z m 2.70184,-3.11233 c 0.10654,0 0.20861,0.0101 0.31515,0.0124 -0.0673,0.11889 -0.1458,0.22431 -0.203,0.35441 -0.074,0.16038 -0.16935,0.45647 -0.28824,0.88716 0.35329,0.59106 0.91407,1.48157 1.68458,2.67604 0.7178,1.05201 1.27746,1.8001 1.67673,2.23863 0.79742,0.82882 1.59149,1.41652 2.37995,1.7743 0.32301,0.14244 0.61797,0.24674 0.88827,0.30843 -0.50806,-0.0135 -1.00491,-0.12898 -1.48831,-0.34545 -0.53386,-0.23889 -1.03295,-0.54507 -1.50064,-0.91182 -0.46769,-0.37012 -0.93426,-0.83219 -1.40083,-1.38848 -0.39815,-0.4733 -0.80191,-1.03745 -1.2124,-1.65992 -0.092,-0.40263 -0.22768,-0.81089 -0.41273,-1.22474 -0.286,-0.63256 -0.66733,-1.25166 -1.14288,-1.86067 -0.20299,-0.25683 -0.42731,-0.50806 -0.65835,-0.75592 0.43292,-0.0628 0.88155,-0.10543 1.3627,-0.1043 z m 2.00758,-2.45397 c 0.0494,-0.4374 0.55517,-1.01389 1.27971,-0.85799 0.83107,0.18169 1.504,0.87818 2.11188,1.20904 0.91408,0.49685 2.16349,0.72004 3.12691,0.37572 -1.11034,0.78958 -2.74109,1.04193 -3.79423,0.9466 -0.23441,-0.28376 -0.50134,-0.52601 -0.83332,-0.67406 -0.4632,-0.20861 -0.94548,-0.27254 -1.4412,-0.18954 -0.0505,0.009 -0.0965,0.0347 -0.1458,0.046 -0.19515,-0.26244 -0.33423,-0.58545 -0.30395,-0.85575 z m 0.82996,2.73885 c 0.50021,0.0785 1.0251,0.15029 1.55896,0.15702 0.21983,0.45648 0.33087,0.95445 0.39255,1.4569 -0.11665,0.0236 -0.23889,0.0505 -0.33872,0.0572 -0.6146,0.0393 -1.25165,-0.004 -1.56569,-0.20636 -0.26805,-0.17048 -0.57536,-0.61126 -0.56638,-0.88491 0.0101,-0.27254 0.12337,-0.64154 0.51928,-0.57985 z m -0.75705,-0.59891 c 0.47442,-0.30395 1.35932,-0.32077 1.95151,0.25011 -0.20973,-0.0157 -0.42059,-0.0326 -0.64714,-0.0595 l -1.33241,-0.16712 c 0.0101,-0.007 0.0191,-0.0168 0.028,-0.0235 z m 2.96091,-0.046 c 0.25796,0.009 0.4789,0.0101 0.64826,8e-4 0.74023,-0.0583 1.35708,-0.21534 1.8573,-0.46321 0.20188,-0.10094 0.3746,-0.20637 0.51703,-0.31628 -0.21421,0.24898 -0.47441,0.44863 -0.78172,0.60116 -0.33535,0.16935 -0.692,0.29384 -1.06548,0.37684 -0.31404,0.0684 -0.66845,0.10431 -1.04642,0.12001 -0.0448,-0.1043 -0.0774,-0.22543 -0.12897,-0.31964 z m 1.78216,1.38849 c -0.38021,0.26357 -0.82323,0.48563 -1.24943,0.64826 l -0.0213,-0.18842 c -0.0404,-0.4161 -0.11665,-0.78397 -0.21646,-1.11932 0.89949,-0.16038 1.72047,-0.41834 2.13208,-0.68415 0.53274,-0.34656 0.9208,-0.63704 1.13726,-0.94211 -0.27591,0.93987 -0.8479,1.6386 -1.78215,2.28574 z m -10.70191,-0.9107 c -0.13571,0.27254 -0.29721,0.51143 -0.48227,0.71443 -0.18394,0.20187 -0.38021,0.3589 -0.58882,0.47441 -0.20974,0.11665 -0.42283,0.18394 -0.63928,0.20077 -0.21759,0.0145 -0.41947,-0.0236 -0.60789,-0.11777 -0.22655,-0.11328 -0.38021,-0.28599 -0.46208,-0.5204 -0.083,-0.23441 -0.0662,-0.46657 0.0471,-0.69312 0.13346,-0.26582 0.34769,-0.40376 0.64153,-0.41498 -0.14244,-0.13908 -0.27254,-0.23889 -0.39479,-0.30058 -0.10991,-0.0538 -0.2187,-0.0785 -0.32862,-0.083 0.56527,-0.36451 0.95109,-0.90734 1.13615,-1.6543 0.70883,0.40489 1.38736,0.87818 2.04796,1.38961 -0.10207,0.36227 -0.2187,0.70434 -0.36899,1.00492 z m -4.41221,-1.4356 c -0.57536,-0.0684 -1.38288,-0.63817 -2.08386,-1.29092 -0.14243,-0.13346 -0.29048,-0.30282 -0.43964,-0.49236 0.12673,-0.203 0.27814,-0.38582 0.48563,-0.5305 0.2759,-0.19178 0.59891,-0.32188 0.96341,-0.38581 0.30395,-0.0561 0.6292,-0.0572 0.96903,-0.0258 0.52265,0.3746 1.07109,0.70097 1.60046,1.01277 0.53723,0.31627 0.30956,0.87033 0.0528,1.20679 -0.25572,0.33871 -1.05764,0.56414 -1.54775,0.50583 z m -1.95824,0.28936 c -0.24898,-0.11215 -0.42395,-0.28936 -0.56415,-0.49797 0.18618,0.18617 0.37573,0.35217 0.56752,0.49909 -8e-4,-7.9e-4 -0.003,-7.9e-4 -0.003,-7.9e-4 z m -0.8165,-2.41472 c -0.50021,-0.72228 -0.978,-1.67784 -1.24604,-2.61098 -0.48564,-1.69355 -0.48564,-3.09326 0.10542,-4.49408 -0.0404,0.5776 0.14132,1.30886 0.44077,2.24536 0.24226,0.75368 1.01389,1.92907 1.98965,3.04278 0.28487,0.32414 0.6034,0.6034 0.93201,0.86808 -0.58882,0.0404 -1.12268,0.18506 -1.59149,0.452 -0.24338,0.13795 -0.44301,0.31179 -0.63032,0.49684 z m -0.29833,-5.54273 c 0.35665,0.78845 0.94547,1.58251 1.77431,2.37994 0.43965,0.39928 1.1866,0.95893 2.23863,1.67673 1.19445,0.77052 2.08609,1.33129 2.67603,1.68458 0.43068,-0.11888 0.72789,-0.21421 0.88715,-0.28824 0.20525,-0.0908 0.38021,-0.20412 0.55518,-0.31852 0.0123,0.21534 0.0269,0.42843 0.0269,0.6449 8e-4,0.47554 -0.0415,0.92079 -0.10319,1.35035 -0.31627,-0.30955 -0.6404,-0.60003 -0.97239,-0.86024 -0.609,-0.47553 -1.22698,-0.85686 -1.86066,-1.14174 -0.41385,-0.18618 -0.8221,-0.32189 -1.22586,-0.41385 -0.62246,-0.41049 -1.18549,-0.81425 -1.65879,-1.21241 -0.55516,-0.46545 -1.01837,-0.93314 -1.38849,-1.40082 -0.36675,-0.46657 -0.67293,-0.96679 -0.9107,-1.50065 -0.21758,-0.48339 -0.33423,-0.98024 -0.34656,-1.48831 0.0617,0.27029 0.16599,0.56639 0.30842,0.88828 z m 3.83909,0.56975 c 0.52489,0.0998 1.15969,0.10767 1.80907,0.16263 -0.0606,0.22431 -0.12337,0.4475 -0.15252,0.66508 -0.0808,0.58994 -0.0326,1.10474 0.13907,1.54214 0.16823,0.43628 0.44862,0.75369 0.83668,0.94884 0.38245,0.18842 0.78172,0.21758 1.19558,0.0998 -0.47218,0.25683 -1.0767,0.3802 -1.51186,0.28151 -0.5877,-0.0707 -1.76982,-0.74471 -2.8039,-1.44569 -1.35932,-0.9208 -3.07867,-2.83081 -3.63608,-4.87429 0.81985,1.36157 2.5392,2.31938 4.12396,2.61996 z m 5.57639,-3.39496 c -0.30618,0.21534 -0.59667,0.60452 -0.94211,1.13614 -0.25459,0.39479 -0.50021,1.16081 -0.66172,2.01432 -0.36675,-0.13459 -0.77499,-0.24114 -1.2539,-0.29497 0.15365,-0.37011 0.34319,-0.74584 0.57199,-1.07445 0.64715,-0.93426 1.34587,-1.50514 2.28574,-1.78104 z m 0.84565,3.20541 c 0.32974,0.60789 1.02735,1.28195 1.20904,2.11302 0.15478,0.72341 -0.42058,1.22923 -0.85911,1.27858 -0.35217,0.0404 -0.8064,-0.19964 -1.0767,-0.49797 0.0135,-0.0572 0.0426,-0.10879 0.0527,-0.16599 0.083,-0.49574 0.0191,-0.978 -0.18841,-1.44233 -0.11328,-0.25123 -0.27031,-0.46993 -0.46097,-0.6662 -0.0841,-1.05427 0.16824,-2.65248 0.94772,-3.746 -0.34544,0.96341 -0.12225,2.21282 0.37572,3.12689 z m -1.87748,2.8297 -0.10319,-0.81426 c -0.0247,-0.20187 -0.037,-0.38805 -0.0527,-0.57535 0.26917,0.45198 0.29272,0.98696 0.15589,1.38961 z m 0.13234,-2.53697 c -0.0998,-0.0662 -0.19852,-0.13234 -0.31067,-0.18842 0.0191,-0.32974 0.0516,-0.64377 0.11215,-0.92192 0.083,-0.37348 0.20861,-0.73013 0.37685,-1.06548 0.15365,-0.30619 0.35329,-0.56751 0.60116,-0.78173 -0.1088,0.14244 -0.21423,0.31517 -0.31629,0.51704 -0.24786,0.50021 -0.40376,1.11708 -0.4632,1.85731 -0.009,0.15477 -0.008,0.35665 0,0.5832 z m -2.3149,0.65723 c 0.0101,-0.15253 0.0404,-0.32861 0.0875,-0.51816 0.44078,0.0696 0.87706,0.18058 1.2741,0.38358 0.0572,0.0292 0.0998,0.0662 0.15029,0.0987 -8e-4,0.56527 0.0763,1.11931 0.16037,1.64756 0.0606,0.39703 -0.30842,0.5092 -0.58096,0.51929 -0.27366,0.0101 -0.71443,-0.29834 -0.88491,-0.56639 -0.20188,-0.31404 -0.24562,-0.95108 -0.20637,-1.56458 z m 16.8559,12.86876 c -0.14356,-0.56078 -0.47667,-0.96118 -1.00492,-1.19558 -0.41497,-0.1873 -0.81425,-0.20524 -1.19333,-0.0448 -0.38021,0.1559 -0.68191,0.45872 -0.9051,0.91182 0.49461,-0.17383 0.98697,-0.1514 1.47709,0.0696 0.46993,0.21085 0.80416,0.51928 1.00155,0.92865 0.1974,0.41161 0.20861,0.80977 0.0326,1.20007 -0.1929,0.43516 -0.54059,0.71668 -1.03632,0.84229 -0.49797,0.12786 -1.01725,0.0707 -1.55672,-0.17272 -0.69313,-0.30843 -1.301,-0.88379 -1.81805,-1.71599 -0.51704,-0.83219 -0.82883,-1.73393 -0.93649,-2.70295 l -0.11217,-1.02735 c 0.18843,-0.0729 0.37573,-0.13795 0.56752,-0.23328 0.63704,-0.31964 1.2124,-0.73014 1.72832,-1.23372 0.51255,-0.50582 0.92865,-1.05426 1.24829,-1.6498 0.31628,-0.59332 0.50919,-1.17877 0.57648,-1.75188 0.0639,-0.57536 -0.0179,-1.09015 -0.24337,-1.54439 -0.21534,-0.43068 -0.49237,-0.72565 -0.83221,-0.8849 -0.33758,-0.15814 -0.67517,-0.15478 -1.00603,0.0123 -0.26357,0.13234 -0.43517,0.32412 -0.51031,0.57872 -0.0763,0.25347 -0.0482,0.52601 0.0864,0.82322 0.11328,-0.31852 0.32862,-0.55404 0.63705,-0.70881 0.29833,-0.14694 0.58657,-0.18843 0.87145,-0.12114 0.28711,0.0707 0.489,0.22767 0.61237,0.4733 0.13683,0.2759 0.13683,0.56302 -0.003,0.86248 -0.13908,0.30058 -0.37909,0.53498 -0.72004,0.70434 -0.43853,0.22094 -0.97239,0.28936 -1.59935,0.20749 -0.6247,-0.0808 -1.2023,-0.2961 -1.73056,-0.63593 l -1.00155,-0.65274 c -0.82771,-0.55181 -1.54439,-0.67743 -2.1433,-0.37684 -0.2916,0.14691 -0.52264,0.36113 -0.6819,0.64265 -0.1615,0.28038 -0.23665,0.5933 -0.22768,0.94434 0.008,0.32414 0.092,0.64939 0.24562,0.97464 -0.14019,0.0852 -0.28375,0.16039 -0.41722,0.27478 -0.18617,0.16151 -0.35217,0.34768 -0.50581,0.54956 -0.28152,-0.0145 -0.5563,-0.0179 -0.82435,-0.0101 -0.52714,0.0168 -1.02511,0.0785 -1.49728,0.18057 -0.21311,-0.21197 -0.42283,-0.42171 -0.65724,-0.62696 -0.0235,-0.0213 -0.0527,-0.0404 -0.0763,-0.0617 -0.0213,-0.0235 -0.0404,-0.0527 -0.0617,-0.0763 -0.13459,-0.15477 -0.2759,-0.28936 -0.41273,-0.43404 0.10318,-0.47442 0.16262,-0.97576 0.18057,-1.50625 0.0123,-0.38582 -0.008,-0.79182 -0.0415,-1.2068 0.12562,-0.10879 0.25908,-0.21309 0.36787,-0.33871 0.0931,-0.10767 0.15141,-0.22768 0.22544,-0.34095 0.0774,0.0505 0.14356,0.0897 0.19178,0.11215 0.34993,0.17721 0.69762,0.26469 1.04642,0.27367 0.34992,0.008 0.66284,-0.0673 0.94323,-0.2288 0.28151,-0.15927 0.49573,-0.38918 0.64378,-0.68191 0.29945,-0.59892 0.17384,-1.31559 -0.37685,-2.1433 l -0.65274,-1.00155 c -0.34096,-0.52713 -0.55518,-1.10586 -0.63705,-1.73056 -0.0818,-0.62583 -0.0124,-1.16082 0.20748,-1.59822 0.16937,-0.34208 0.40376,-0.58209 0.70547,-0.72116 0.29834,-0.1402 0.58545,-0.1402 0.86135,-0.003 0.24563,0.12336 0.40377,0.32524 0.4733,0.61237 0.0684,0.28487 0.0269,0.57423 -0.12,0.87145 -0.1559,0.30955 -0.39142,0.52376 -0.70995,0.63816 0.29834,0.13459 0.57088,0.16151 0.82323,0.0852 0.25458,-0.0751 0.4475,-0.24675 0.57872,-0.50919 0.16711,-0.33198 0.17047,-0.66957 0.0135,-1.00716 -0.16039,-0.33871 -0.45536,-0.61685 -0.88491,-0.83219 -0.45536,-0.22543 -0.97015,-0.30619 -1.54439,-0.24338 -0.57424,0.0673 -1.15969,0.26132 -1.75299,0.57648 -0.59554,0.31965 -1.14287,0.73574 -1.64982,1.24829 -0.50357,0.51592 -0.91406,1.09128 -1.2337,1.72832 -0.065,0.12899 -0.10319,0.25572 -0.15814,0.3847 l -1.31784,-0.14356 c -0.9679,-0.10879 -1.86964,-0.41947 -2.70183,-0.9365 -0.83219,-0.51592 -1.40644,-1.12492 -1.71598,-1.81805 -0.24338,-0.53947 -0.30058,-1.05762 -0.17272,-1.55672 0.12561,-0.49573 0.40712,-0.84341 0.84341,-1.03631 0.38918,-0.17497 0.78733,-0.16487 1.19895,0.0325 0.40936,0.1974 0.71779,0.53161 0.92976,1.00155 0.21871,0.49013 0.24338,0.98248 0.0684,1.47821 0.45312,-0.2243 0.75481,-0.52601 0.91183,-0.90622 0.16038,-0.37908 0.14244,-0.77835 -0.0437,-1.19333 -0.23553,-0.52825 -0.63593,-0.86136 -1.1967,-1.00491 -0.56415,-0.14245 -1.18661,-0.0606 -1.86852,0.24562 -0.71779,0.323 -1.32119,0.86247 -1.80907,1.61391 -0.48227,0.75482 -0.82547,1.64646 -1.03071,2.67156 -0.20076,1.02846 -0.24002,2.09507 -0.12113,3.20766 0.12562,1.11146 0.41049,2.16908 0.8636,3.18073 0.26805,0.60003 0.5832,1.12268 0.9208,1.60607 -0.003,0.007 -0.009,0.0112 -0.0123,0.0191 -0.25011,0.55742 -0.29834,1.10361 -0.13907,1.64196 0.15701,0.5361 0.4789,0.91183 0.96341,1.12828 0.32974,0.14805 0.6449,0.16264 0.94772,0.0404 0.30282,-0.12336 0.52713,-0.3387 0.67069,-0.65387 0.003,-0.009 0.006,-0.0213 0.0101,-0.0303 0.0797,0.0326 0.15925,0.0729 0.24001,0.0987 0.58658,0.19066 1.14735,0.19066 1.68121,0.0213 -0.0359,0.046 -0.0763,0.083 -0.10318,0.13907 -0.15478,0.30394 -0.16262,0.62358 -0.0213,0.95557 0.13907,0.3331 0.38694,0.58657 0.73911,0.76153 0.37236,0.18619 0.76715,0.24339 1.18549,0.17048 0.41946,-0.0696 0.81313,-0.26469 1.18324,-0.57535 0.36787,-0.31404 0.6763,-0.71893 0.92641,-1.21802 0.0864,-0.17384 0.15926,-0.3589 0.22879,-0.54844 0.0225,0.0191 0.0482,0.0359 0.0707,0.0538 0.0516,0.0415 0.092,0.0852 0.14244,0.12897 0.0426,0.0494 0.0875,0.0909 0.12898,0.14132 0.0808,0.0987 0.14917,0.203 0.22767,0.30282 -0.17496,0.0662 -0.34656,0.13235 -0.50693,0.21197 -0.50022,0.25011 -0.9051,0.55966 -1.21802,0.92754 -0.31179,0.37011 -0.50582,0.76265 -0.57649,1.18211 -0.0718,0.41835 -0.0157,0.81313 0.17049,1.1855 0.17608,0.35216 0.42843,0.60003 0.76153,0.7391 0.27367,0.11776 0.53835,0.10655 0.79295,0.0225 -0.0684,0.42395 -0.0404,0.8636 0.10878,1.31895 0.0258,0.083 0.0662,0.1615 0.0998,0.24226 -0.009,0.004 -0.0213,0.007 -0.0303,0.0101 -0.31627,0.14244 -0.53161,0.36675 -0.65498,0.66957 -0.12225,0.30395 -0.10767,0.61798 0.0404,0.94772 0.21647,0.48451 0.59218,0.80752 1.12941,0.96342 0.53723,0.15925 1.08454,0.10991 1.64196,-0.13907 0.007,-0.003 0.0112,-0.009 0.0191,-0.0124 0.48339,0.33758 1.00491,0.65275 1.60495,0.9208 1.01164,0.4531 2.07039,0.73911 3.18074,0.8636 1.11258,0.11888 2.17919,0.0797 3.20765,-0.12225 1.02511,-0.203 1.91674,-0.54733 2.67155,-1.02847 0.75257,-0.489 1.29091,-1.09239 1.61393,-1.80907 0.30618,-0.68303 0.38805,-1.30549 0.24562,-1.86964"
       style="fill:#64471c;fill-opacity:1;fill-rule:nonzero;stroke:none;stroke-width:0.112;stroke-dasharray:none" />
    <path
       id="path242"
       d="m 200.37783,175.48116 v -22.15301 h 1.12155 v 22.15301 h -1.12155 v 0"
       style="fill:#64471c;fill-opacity:1;fill-rule:nonzero;stroke:none;stroke-width:0.112;stroke-dasharray:none" />
    <path
       id="path243"
       d="m 197.38775,175.48116 v -22.15301 h 1.11932 v 22.15301 h -1.11932 v 0"
       style="fill:#64471c;fill-opacity:1;fill-rule:nonzero;stroke:none;stroke-width:0.112;stroke-dasharray:none" />
  </g>
</svg>
