<?xml version="1.0" encoding="UTF-8" standalone="no"?>
<!-- Created with Inkscape (http://www.inkscape.org/) -->

<svg
   width="25.291084mm"
   height="25.290733mm"
   viewBox="0 0 25.291084 25.290733"
   version="1.1"
   id="svg1"
   xmlns="http://www.w3.org/2000/svg"
   xmlns:svg="http://www.w3.org/2000/svg">
  <defs
     id="defs1" />
  <g
     id="layer1"
     transform="translate(-2.400699,-125.95377)">
    <path
       id="path235"
       d="m 26.472418,135.08152 c -0.266935,0.93314 -0.745839,1.88871 -1.24493,2.61099 -0.187304,-0.18506 -0.388065,-0.35889 -0.631439,-0.49685 -0.46881,-0.26693 -1.001554,-0.41161 -1.59149,-0.45199 0.328621,-0.26468 0.646015,-0.54395 0.932011,-0.86809 0.975757,-1.1137 1.747387,-2.28909 1.990772,-3.04278 0.298326,-0.9365 0.480021,-1.66776 0.439645,-2.24536 0.592183,1.40083 0.592183,2.80053 0.105431,4.49408 z m -1.935818,3.44543 c -0.700969,0.65274 -1.50849,1.2225 -2.08497,1.29091 -0.489003,0.0583 -1.290912,-0.16711 -1.547746,-0.50582 -0.255717,-0.33646 -0.483396,-0.89052 0.05274,-1.20679 0.530502,-0.3118 1.077825,-0.63818 1.601586,-1.01278 0.339834,-0.0314 0.665086,-0.0303 0.967909,0.0258 0.364504,0.0639 0.68751,0.19402 0.964539,0.38581 0.20637,0.14468 0.358894,0.3275 0.484516,0.5305 -0.149175,0.18954 -0.29722,0.3589 -0.438534,0.49236 z m -0.12673,1.58027 c 0,0 -0.0026,0 -0.0034,8e-4 0.192908,-0.14692 0.381331,-0.31291 0.567505,-0.49909 -0.14019,0.20861 -0.314034,0.38582 -0.564139,0.49797 z m -3.588986,1.89768 c -0.08075,0.23441 -0.236646,0.40713 -0.462079,0.5204 -0.188423,0.0942 -0.390303,0.13235 -0.609007,0.11777 -0.214223,-0.0168 -0.429562,-0.0841 -0.637051,-0.20076 -0.210849,-0.11552 -0.408244,-0.27254 -0.592182,-0.47442 -0.183928,-0.203 -0.343196,-0.44189 -0.48115,-0.71443 -0.150283,-0.30058 -0.266928,-0.64265 -0.367866,-1.00492 0.660596,-0.51143 1.339141,-0.98473 2.04797,-1.38961 0.185052,0.74696 0.570865,1.28979 1.135012,1.6543 -0.108791,0.004 -0.219824,0.0292 -0.329737,0.083 -0.120012,0.0617 -0.251235,0.16151 -0.392551,0.30059 0.293854,0.0112 0.506949,0.14916 0.640418,0.41497 0.114395,0.22656 0.130093,0.45871 0.0482,0.69312 z m -3.452156,-4.07574 c 0,-0.21646 0.01458,-0.42956 0.02466,-0.64378 0.177207,0.11328 0.352168,0.22768 0.55517,0.31741 0.159266,0.074 0.457597,0.16935 0.887156,0.28823 0.591063,-0.35329 1.482704,-0.91406 2.676035,-1.68457 1.053142,-0.71781 1.800101,-1.27746 2.238632,-1.67674 0.829948,-0.79742 1.417648,-1.59149 1.774304,-2.37994 0.142433,-0.32189 0.246737,-0.61798 0.309549,-0.88827 -0.01347,0.50806 -0.128977,1.00492 -0.347681,1.4883 -0.237771,0.53387 -0.542838,1.03408 -0.909587,1.50065 -0.370118,0.46769 -0.834441,0.93538 -1.389608,1.40083 -0.473292,0.39815 -1.036323,0.80191 -1.658789,1.2124 -0.402633,0.092 -0.812004,0.22768 -1.22586,0.41385 -0.632558,0.28488 -1.25054,0.66621 -1.859544,1.14175 -0.331978,0.26021 -0.654984,0.55069 -0.972392,0.86024 -0.06283,-0.42957 -0.103177,-0.87482 -0.102057,-1.35036 z m -2.453968,-2.00759 c -0.438534,-0.0494 -1.015011,-0.55517 -0.857988,-1.27858 0.180562,-0.83107 0.877051,-1.50512 1.206788,-2.11301 0.496853,-0.91407 0.721169,-2.16349 0.376843,-3.1269 0.779487,1.09463 1.030717,2.69174 0.9466,3.74712 -0.190667,0.19515 -0.347689,0.41385 -0.46096,0.66508 -0.206369,0.46433 -0.27142,0.9466 -0.187301,1.44233 0.009,0.0572 0.03928,0.10879 0.05156,0.16599 -0.270293,0.29834 -0.722278,0.53835 -1.075568,0.49797 z m 3.481313,-4.81597 c 0.227679,0.32861 0.418346,0.70434 0.571995,1.07445 -0.480023,0.0538 -0.888275,0.16039 -1.255025,0.29497 -0.161504,-0.85238 -0.407125,-1.61953 -0.661715,-2.01432 -0.34544,-0.53162 -0.63592,-0.9208 -0.939868,-1.13614 0.939868,0.27591 1.638596,0.84678 2.284613,1.78104 z m -0.434043,2.23975 c 0.399277,-0.203 0.833321,-0.31403 1.275212,-0.38357 0.0471,0.18954 0.07629,0.36563 0.08636,0.51816 0.03928,0.61349 -0.0059,1.25054 -0.207489,1.56457 -0.169355,0.26805 -0.609007,0.57648 -0.882666,0.56639 -0.273653,-0.0101 -0.64153,-0.12226 -0.57984,-0.51928 0.08184,-0.52826 0.159256,-1.0823 0.157012,-1.64645 0.05157,-0.0337 0.09421,-0.0707 0.151411,-0.0998 z m -0.952204,-1.10585 c -0.05947,-0.74023 -0.215339,-1.3571 -0.463198,-1.8573 -0.102069,-0.20188 -0.207489,-0.37461 -0.317408,-0.51704 0.247867,0.21422 0.448631,0.47553 0.600044,0.78172 0.170468,0.33535 0.294962,0.69201 0.37684,1.06548 0.06166,0.27815 0.09421,0.59219 0.114398,0.92192 -0.113278,0.0561 -0.2131,0.12225 -0.311793,0.18954 0.0067,-0.22767 0.0076,-0.42843 7.94e-4,-0.58432 z m 0.287126,1.73056 c -0.01455,0.1873 -0.02804,0.37348 -0.05156,0.57536 l -0.103177,0.81425 c -0.136837,-0.40264 -0.114403,-0.93763 0.15477,-1.38961 z m 4.389771,-1.25054 c 1.584761,-0.30058 3.304108,-1.25839 4.122853,-2.61995 -0.557416,2.04347 -2.276766,3.95349 -3.636094,4.87428 -1.034074,0.70098 -2.216203,1.37503 -2.803893,1.44569 -0.435168,0.0987 -1.039683,-0.0247 -1.511864,-0.28151 0.414981,0.11776 0.81425,0.0886 1.196706,-0.0998 0.38918,-0.19515 0.667321,-0.51256 0.837803,-0.94884 0.169352,-0.43741 0.216455,-0.95221 0.137953,-1.54215 -0.02918,-0.21758 -0.09197,-0.44077 -0.153659,-0.66508 0.650513,-0.0549 1.285306,-0.0628 1.810195,-0.16263 z m -4.201351,9.08799 c 0.273659,0.13571 0.511432,0.29721 0.714428,0.48227 0.201882,0.18393 0.358907,0.38021 0.474422,0.58882 0.116644,0.20973 0.183938,0.42282 0.20076,0.64041 0.01455,0.21645 -0.02352,0.41833 -0.117761,0.60788 -0.112162,0.22544 -0.286001,0.38021 -0.520408,0.46096 -0.234411,0.083 -0.466569,0.0662 -0.693121,-0.0471 -0.265811,-0.13235 -0.403765,-0.34769 -0.414973,-0.64042 -0.122256,0.12562 -0.203009,0.23889 -0.264692,0.34769 -0.363384,-0.48228 -0.880427,-0.80752 -1.560092,-0.97464 0.360022,-0.62919 0.776124,-1.23259 1.220259,-1.82253 0.345442,0.0987 0.672933,0.21197 0.961178,0.35666 z m -0.932016,6.15623 c -0.11103,0.24787 -0.288242,0.42283 -0.494604,0.56302 0.18393,-0.18618 0.348798,-0.3746 0.495726,-0.56638 -7.94e-4,7.9e-4 -7.94e-4,0.003 -7.94e-4,0.003 z m -1.580277,0.12561 c -0.132339,0.14244 -0.301699,0.29049 -0.491241,0.43965 -0.202996,-0.12674 -0.385821,-0.27815 -0.531617,-0.48562 -0.192907,-0.27591 -0.320765,-0.5978 -0.38582,-0.96343 -0.05611,-0.30394 -0.0572,-0.62807 -0.02582,-0.9679 0.3746,-0.52377 0.702091,-1.07221 1.012767,-1.60159 0.31628,-0.53723 0.870326,-0.30955 1.206794,-0.0527 0.337589,0.25572 0.564144,1.05876 0.506947,1.54775 -0.06839,0.57536 -0.639289,1.38288 -1.292035,2.08386 z m -3.444306,1.93805 c -1.6946668,0.48452 -3.0954998,0.48452 -4.4952038,-0.10654 0.577606,0.0415 1.308859,-0.1402 2.246484,-0.44077 0.7525678,-0.24226 1.9290738,-1.0139 3.0416628,-1.98852 0.324128,-0.28488 0.604523,-0.60341 0.868087,-0.93202 0.03928,0.58882 0.185055,1.12267 0.453115,1.59149 0.137946,0.24226 0.311785,0.4419 0.49684,0.62919 -0.7234,0.50021 -1.677844,0.97913 -2.610985,1.24717 z m -4.9830828,-0.66396 c 1.360458,-0.81873 2.319388,-2.53921 2.619965,-4.12397 0.08748,-0.45423 0.104304,-0.99257 0.14356,-1.54998 0.157015,0.037 0.316283,0.0875 0.469927,0.10878 0.5899468,0.0797 1.1047408,0.0314 1.5421478,-0.13907 0.436282,-0.16936 0.753686,-0.44974 0.948838,-0.83669 0.238895,-0.48563 0.232164,-0.99482 -0.02246,-1.53204 0.08185,-0.0123 0.165991,-0.0179 0.246745,-0.0303 0.318521,0.48788 0.480028,1.17988 0.371237,1.66327 -0.06956,0.5877 -0.744718,1.77094 -1.446811,2.80389 -0.918554,1.35821 -2.8285728,3.07868 -4.8731748,3.6361 z m 0.792943,-7.19928 c -0.934257,-0.64713 -1.506254,-1.34587 -1.782156,-2.28573 0.215339,0.30506 0.604522,0.59554 1.136139,0.94211 0.413858,0.26581 1.232588,0.52377 2.133206,0.68414 -0.09982,0.33535 -0.17721,0.70322 -0.217588,1.11932 l -0.02019,0.18842 c -0.426188,-0.16262 -0.870321,-0.38469 -1.249413,-0.64826 z m 1.423257,-3.13139 c 0.607888,-0.33086 1.2819438,-1.02735 2.1130158,-1.20904 0.723405,-0.1559 1.230352,0.42059 1.278577,0.85799 0.03137,0.2703 -0.107669,0.59331 -0.30394,0.85575 -0.04938,-0.0112 -0.09534,-0.037 -0.145809,-0.046 -0.494607,-0.083 -0.977992,-0.0191 -1.441196,0.18954 -0.3319858,0.14805 -0.5977938,0.39031 -0.8321938,0.67407 -1.054272,0.0953 -2.68501,-0.15702 -3.795352,-0.9466 0.963414,0.34432 2.213956,0.12112 3.126898,-0.37572 z m 2.0154428,1.97955 c -0.226555,0.0269 -0.438526,0.0437 -0.647139,0.0595 0.591058,-0.57087 1.475967,-0.55405 1.950384,-0.25011 0.01008,0.007 0.01908,0.0168 0.02801,0.0235 z m -1.0116478,0.56527 c 0.5327408,-0.007 1.0576318,-0.0785 1.5578398,-0.15702 0.397034,-0.0617 0.509196,0.30731 0.51929,0.57985 0.01008,0.27365 -0.29722,0.71443 -0.566391,0.88491 -0.314036,0.20188 -0.949957,0.24562 -1.5645758,0.20636 -0.09981,-0.007 -0.22207,-0.0336 -0.339831,-0.0572 0.06283,-0.50245 0.172725,-1.00042 0.393668,-1.4569 z m -0.774994,-0.48227 c -0.377965,-0.0157 -0.731252,-0.0516 -1.045297,-0.12001 -0.373475,-0.083 -0.731253,-0.20749 -1.066599,-0.37684 -0.306186,-0.15253 -0.567502,-0.35218 -0.781724,-0.60116 0.142435,0.10991 0.315158,0.21534 0.51704,0.31628 0.500211,0.24787 1.117071,0.40489 1.857299,0.4632 0.170471,0.009 0.391422,0.008 0.648258,-7.9e-4 -0.05047,0.0942 -0.08412,0.21534 -0.128977,0.31964 z m 5.1715008,0.0404 c 0.480031,-7.9e-4 0.928651,0.0415 1.361575,0.10431 -0.231042,0.24786 -0.455358,0.49909 -0.658357,0.75592 -0.474417,0.60901 -0.855745,1.22811 -1.141744,1.86067 -0.185057,0.41386 -0.32077,0.82211 -0.412736,1.22474 -0.410488,0.62247 -0.815369,1.18661 -1.212398,1.65991 -0.466574,0.55629 -0.933146,1.01837 -1.400836,1.38848 -0.467691,0.36675 -0.9678958,0.67294 -1.5006428,0.91183 -0.484513,0.21647 -0.980239,0.33199 -1.488305,0.34545 0.270293,-0.0617 0.565267,-0.16599 0.888275,-0.30843 0.788453,-0.35778 1.5825148,-0.94548 2.3799428,-1.77431 0.398158,-0.43852 0.957813,-1.18661 1.676733,-2.23862 0.769382,-1.19446 1.330167,-2.08498 1.684576,-2.67605 -0.120002,-0.43068 -0.215339,-0.72677 -0.288234,-0.88714 -0.0583,-0.13011 -0.135713,-0.23553 -0.204129,-0.35442 0.106553,-0.003 0.20973,-0.0124 0.31628,-0.0124 z M 27.503124,130.5527 c -0.205245,-1.0251 -0.54732,-1.91674 -1.030706,-2.67155 -0.486759,-0.75144 -1.091281,-1.29091 -1.807958,-1.61392 -0.683027,-0.30619 -1.304367,-0.38806 -1.868512,-0.24562 -0.560781,0.14356 -0.962294,0.47666 -1.197827,1.00491 -0.186176,0.41498 -0.202996,0.81425 -0.04374,1.19334 0.15702,0.38021 0.458716,0.68191 0.912945,0.90622 -0.174961,-0.49573 -0.151413,-0.98809 0.06729,-1.47821 0.213101,-0.46994 0.520404,-0.80416 0.92978,-1.00156 0.412724,-0.19738 0.809755,-0.20748 1.200058,-0.0326 0.435168,0.19291 0.716677,0.54059 0.843415,1.03632 0.126738,0.49909 0.06956,1.01725 -0.173847,1.55672 -0.309547,0.69312 -0.88378,1.30213 -1.715982,1.81805 -0.831075,0.51703 -1.733926,0.82771 -2.70183,0.93649 l -1.317826,0.14357 c -0.05493,-0.12899 -0.09309,-0.25572 -0.157022,-0.3847 -0.320762,-0.63704 -0.732383,-1.2124 -1.23372,-1.72831 -0.505818,-0.51257 -1.055378,-0.92866 -1.650926,-1.2483 -0.594429,-0.31516 -1.178761,-0.50919 -1.751875,-0.57649 -0.575361,-0.0628 -1.090158,0.0179 -1.543267,0.24339 -0.431798,0.21534 -0.726768,0.49348 -0.88491,0.83219 -0.158139,0.33758 -0.155892,0.67518 0.01236,1.00716 0.130098,0.26244 0.323006,0.43404 0.576474,0.50919 0.254598,0.0763 0.528257,0.0494 0.824344,-0.0852 -0.318513,-0.1144 -0.554043,-0.32862 -0.707697,-0.63817 -0.149169,-0.29722 -0.190669,-0.58658 -0.122248,-0.87145 0.07066,-0.28712 0.226555,-0.489 0.474417,-0.61237 0.273658,-0.13683 0.561903,-0.13683 0.861358,0.003 0.299456,0.13907 0.533856,0.37908 0.705456,0.72116 0.219829,0.43741 0.28824,0.97239 0.205246,1.59822 -0.08075,0.62471 -0.293849,1.20343 -0.634802,1.73056 l -0.652743,1.00155 c -0.551807,0.82771 -0.677423,1.54439 -0.376841,2.1433 0.146918,0.29273 0.361135,0.52265 0.641522,0.68191 0.282634,0.16151 0.595548,0.23665 0.945473,0.2288 0.348808,-0.009 0.697616,-0.0965 1.045295,-0.27367 0.0482,-0.0225 0.1144,-0.0616 0.191788,-0.11215 0.07511,0.1144 0.133467,0.23328 0.226555,0.34095 0.107667,0.12562 0.241136,0.2288 0.367874,0.33871 -0.03592,0.41498 -0.05493,0.82098 -0.04265,1.2068 0.0168,0.53049 0.07848,1.03183 0.18169,1.50625 -0.136832,0.14468 -0.278149,0.27927 -0.413854,0.43404 -0.02019,0.0235 -0.04038,0.0527 -0.06057,0.0763 -0.02463,0.0213 -0.05274,0.0404 -0.07739,0.0617 -0.233278,0.20525 -0.444135,0.41499 -0.656111,0.62696 -0.472173,-0.10207 -0.971273,-0.16375 -1.497277,-0.18057 -0.269177,-0.008 -0.54396,-0.004 -0.825466,0.0101 -0.153657,-0.20188 -0.318524,-0.38805 -0.505828,-0.54956 -0.132339,-0.11439 -0.275902,-0.18954 -0.416094,-0.27478 0.153649,-0.32525 0.237765,-0.6505 0.245621,-0.97464 0.0076,-0.35104 -0.06729,-0.66396 -0.22768,-0.94434 -0.160385,-0.28151 -0.3903,-0.49574 -0.68303,-0.64265 -0.59891,-0.30059 -1.315582,-0.17497 -2.1432958,0.37684 l -1.001549,0.65274 c -0.527129,0.33984 -1.105855,0.55517 -1.730563,0.63593 -0.625832,0.0818 -1.160814,0.0135 -1.598221,-0.20749 -0.342077,-0.16936 -0.582088,-0.40376 -0.721159,-0.70434 -0.1402,-0.29945 -0.1402,-0.58658 -0.0034,-0.86248 0.124494,-0.24562 0.325249,-0.40263 0.612375,-0.47329 0.284869,-0.0673 0.574231,-0.0258 0.871448,0.12113 0.309552,0.15477 0.523764,0.3903 0.638159,0.70881 0.134591,-0.29721 0.161507,-0.56974 0.08525,-0.82321 -0.07403,-0.2546 -0.246748,-0.44639 -0.509193,-0.57873 -0.331976,-0.16711 -0.669568,-0.17048 -1.007158,-0.0123 -0.338714,0.15925 -0.61573,0.45423 -0.832191,0.88491 -0.225433,0.45423 -0.306184,0.96902 -0.243382,1.54438 0.06729,0.57312 0.261321,1.15857 0.576487,1.75188 0.31964,0.59554 0.735735,1.14399 1.248291,1.64981 0.515916,0.50358 1.091274,0.91407 1.728316,1.23371 0.191789,0.0953 0.379087,0.16038 0.56751,0.23329 l -0.111032,1.02734 c -0.108791,0.96903 -0.419468,1.87076 -0.936498,2.70296 -0.517041,0.83219 -1.124929,1.40755 -1.818053,1.71598 -0.540586,0.24338 -1.05987,0.30058 -1.556715,0.17272 -0.495734,-0.12561 -0.843415,-0.40712 -1.037447,-0.84228 -0.174964,-0.39031 -0.163743,-0.78847 0.03255,-1.20008 0.197398,-0.40937 0.531614,-0.71779 1.002673,-0.92865 0.488995,-0.22095 0.982485,-0.24338 1.475973,-0.0696 -0.223198,-0.4531 -0.523775,-0.75593 -0.903981,-0.91183 -0.379087,-0.16037 -0.779484,-0.14243 -1.194459,0.0448 -0.527134,0.23441 -0.860234,0.6348 -1.003789,1.19558 -0.142447,0.56415 -0.06166,1.18662 0.244491,1.86964 0.324138,0.71668 0.861359,1.32007 1.615045,1.80907 0.754812,0.48115 1.646452,0.82548 2.671551,1.02847 1.02847,0.20188 2.095074,0.24114 3.2065358,0.12225 1.11034,-0.12449 2.170213,-0.41049 3.180741,-0.8636 0.598914,-0.26805 1.121558,-0.58321 1.606069,-0.9208 0.0076,0.003 0.01116,0.009 0.01789,0.0124 0.557418,0.24899 1.10586,0.29833 1.641961,0.13907 0.538348,-0.1559 0.914075,-0.4789 1.129414,-0.96342 0.149161,-0.32974 0.163751,-0.64377 0.04037,-0.94772 -0.122245,-0.30281 -0.338714,-0.52713 -0.654994,-0.66957 -0.009,-0.003 -0.02019,-0.006 -0.02918,-0.0101 0.03255,-0.0807 0.07293,-0.15925 0.09981,-0.24225 0.148042,-0.45535 0.177207,-0.895 0.107667,-1.31895 0.255714,0.0841 0.519287,0.0953 0.792948,-0.0225 0.3331,-0.13907 0.586568,-0.38694 0.761531,-0.7391 0.186185,-0.37236 0.243385,-0.76715 0.170482,-1.1855 -0.06956,-0.41945 -0.264689,-0.812 -0.575358,-1.18212 -0.314036,-0.36786 -0.718923,-0.67742 -1.218012,-0.92753 -0.161506,-0.0797 -0.333105,-0.1458 -0.506946,-0.21197 0.07739,-0.0998 0.146923,-0.20412 0.227676,-0.30282 0.04147,-0.0505 0.08524,-0.092 0.127857,-0.14132 0.05047,-0.0437 0.09085,-0.0875 0.142436,-0.12897 0.02352,-0.0179 0.0482,-0.0347 0.07175,-0.0538 0.06839,0.18954 0.141313,0.3746 0.228795,0.54844 0.247862,0.49909 0.557409,0.90398 0.926407,1.21801 0.370112,0.31067 0.762662,0.50582 1.181,0.57536 0.420584,0.0729 0.815371,0.0157 1.185484,-0.17048 0.35329,-0.17496 0.601154,-0.42843 0.740224,-0.76153 0.141322,-0.33199 0.133472,-0.65163 -0.01908,-0.95557 -0.02804,-0.0561 -0.06839,-0.0931 -0.103187,-0.13795 0.532738,0.16823 1.09352,0.16823 1.678971,-0.0225 0.08075,-0.0258 0.161505,-0.0662 0.241139,-0.0987 0.0034,0.009 0.0059,0.0213 0.01011,0.0303 0.143555,0.31516 0.367863,0.5305 0.669568,0.65386 0.30394,0.12226 0.617976,0.10768 0.947713,-0.0404 0.48564,-0.21646 0.807522,-0.59218 0.963425,-1.12828 0.160375,-0.53835 0.111032,-1.08455 -0.139081,-1.64196 -0.0034,-0.008 -0.0076,-0.0124 -0.01116,-0.0191 0.336468,-0.48339 0.652745,-1.00604 0.920805,-1.60607 0.451983,-1.01165 0.73686,-2.06928 0.862473,-3.18073 0.120007,-1.1126 0.08075,-2.1792 -0.121129,-3.20767"
       style="fill:#d09c10;fill-opacity:1;fill-rule:nonzero;stroke:none;stroke-width:0.112;stroke-dasharray:none" />
  </g>
</svg>
