<svg width="75" height="16" viewBox="0 0 75 16" fill="none" xmlns="http://www.w3.org/2000/svg">
<path d="M5.50278 11.7263C5.25411 10.7597 5.15388 9.78881 4.97146 8.81433C5.10062 8.66885 5.22433 8.52242 5.33965 8.37531C5.5141 8.70572 5.64955 9.03448 5.73133 9.34736C6.01229 10.4213 6.05045 11.5481 6.279 12.6333C6.37293 13.0803 6.5327 13.54 6.75244 13.9707C6.19261 13.3005 5.7003 12.4916 5.50278 11.7263ZM4.34958 9.01561C4.36468 8.98928 4.37684 8.96059 4.39109 8.93388C4.39151 8.9447 4.39193 8.95569 4.39235 8.96697C4.37768 8.98286 4.36468 8.99976 4.34958 9.01561ZM1.71482 10.4204C1.02918 10.3253 0.13807 9.69118 0.445032 8.87052C0.640867 8.34713 1.38605 8.25571 1.73746 8.6356C1.85698 8.76401 1.97942 8.91996 1.99578 9.1028C2.03981 9.58173 1.66156 9.68397 1.54121 9.52C1.52863 9.42615 1.48878 9.32933 1.41708 9.24579C1.24892 9.04824 0.982215 9.00056 0.821185 9.13798C0.660156 9.27511 0.666029 9.54684 0.834187 9.7436C0.874864 9.79141 0.920992 9.8291 0.970056 9.85842C1.54037 10.2699 2.19874 9.67986 2.38283 9.09655C2.5728 8.49441 2.12452 8.09422 1.61208 7.99987C2.12452 7.90568 2.5728 7.50517 2.38283 6.90332C2.19874 6.32001 1.54037 5.72998 0.970056 6.14178C0.920992 6.1711 0.874864 6.20896 0.834187 6.25631C0.666029 6.45336 0.660156 6.7248 0.821185 6.86189C0.982215 6.99931 1.24892 6.95117 1.41708 6.75445C1.48878 6.67104 1.52863 6.57459 1.54121 6.47974C1.66156 6.31623 2.03981 6.41864 1.99578 6.89711C1.97942 7.08024 1.85698 7.23586 1.73746 7.3646C1.38605 7.74449 0.640867 7.65273 0.445032 7.12939C0.13807 6.30822 1.02918 5.67463 1.71482 5.5799C3.09069 5.38868 4.08623 6.73185 4.31729 7.99987C4.08623 9.26856 3.09069 10.6121 1.71482 10.4204ZM4.39235 7.0334C4.39193 7.04422 4.39151 7.05516 4.39109 7.06649C4.37684 7.03931 4.36468 7.01113 4.34958 6.98425C4.36468 7.00015 4.37768 7.017 4.39235 7.0334ZM4.88005 8.36189C4.85153 8.2415 4.81883 8.12077 4.78109 7.99987C4.81883 7.87914 4.85153 7.75841 4.88005 7.63802C4.96602 7.75757 5.04653 7.8783 5.12243 7.99987C5.04653 8.12156 4.96602 8.24229 4.88005 8.36189ZM5.50278 4.27363C5.7003 3.50833 6.19261 2.69982 6.75244 2.02929C6.5327 2.45996 6.37293 2.91956 6.279 3.36617C6.05045 4.45186 6.01229 5.57906 5.73133 6.65255C5.64955 6.96543 5.5141 7.29499 5.33965 7.62506C5.22433 7.47783 5.10062 7.33105 4.97146 7.18638C5.15388 6.2114 5.25411 5.23981 5.50278 4.27363ZM10.2192 13.1709C9.55787 12.9088 8.53634 13.3588 8.80682 14.2155C8.99008 14.7954 9.643 15.3843 10.2116 14.9841C10.2662 14.954 10.3169 14.9134 10.3609 14.8609C10.5203 14.6688 10.5228 14.4072 10.3655 14.2771C10.2087 14.1459 9.95206 14.1962 9.79229 14.3879C9.73106 14.4613 9.69373 14.5451 9.67864 14.6277C9.49832 14.7733 9.14859 14.7212 9.19388 14.2218C9.21065 14.039 9.3331 13.883 9.45261 13.7546C9.80403 13.3752 10.5488 13.4661 10.7446 13.9895C11.0516 14.8105 10.1609 15.4459 9.47484 15.5398C7.86161 15.7591 6.90843 14.0519 6.77634 12.6413C6.65473 11.3468 6.74237 10.0804 6.12258 8.84116C5.98587 8.56729 5.81436 8.28473 5.616 7.99987C5.81436 7.71564 5.98587 7.43342 6.12258 7.1592C6.74237 5.91949 6.65473 4.65356 6.77634 3.35862C6.90843 1.94835 7.86161 0.24077 9.47484 0.460508C10.1609 0.553604 11.0516 1.18892 10.7446 2.01042C10.5488 2.53376 9.80403 2.6256 9.45261 2.24567C9.3331 2.11693 9.21065 1.96093 9.19388 1.77768C9.14859 1.27908 9.49832 1.22666 9.67864 1.37217C9.69373 1.4552 9.73106 1.53865 9.79229 1.61245C9.95206 1.8041 10.2087 1.854 10.3655 1.72274C10.5228 1.59274 10.5203 1.3315 10.3609 1.13943C10.3169 1.08702 10.2662 1.04592 10.2116 1.01572C9.643 0.615666 8.99008 1.20443 8.80682 1.78439C8.53634 2.64112 9.55787 3.09149 10.2192 2.8294C10.7736 2.60924 11.2604 1.91397 11.1812 1.30591C11.0587 0.364899 10.212 -0.082962 9.32387 0.0126486C8.7913 0.0692606 8.2558 0.289417 7.85239 0.594283C6.65515 1.42165 5.4533 2.72876 4.97986 3.93522C4.52025 5.10855 4.44057 5.86003 4.4087 6.60571C4.09545 6.30709 3.75914 6.01975 3.39682 5.75733C2.9758 5.45116 2.41387 5.19033 1.86579 5.13162C0.977608 5.03601 0.130945 5.48345 0.00849518 6.42484C-0.0707614 7.0329 0.416518 7.72826 0.970895 7.94842C1.03002 7.97186 1.09292 7.98775 1.15666 7.99987C1.09292 8.01216 1.03002 8.02851 0.970895 8.05145C0.416518 8.27211 -0.0707614 8.9673 0.00849518 9.57502C0.130945 10.5165 0.977608 10.9643 1.86579 10.8683C2.41387 10.8092 2.9758 10.5487 3.39682 10.2425C3.75914 9.97965 4.09545 9.69248 4.4087 9.39386C4.44057 10.1403 4.52025 10.8917 4.97986 12.0651C5.4533 13.2712 6.65515 14.5795 7.85239 15.4056C8.2558 15.7104 8.7913 15.9303 9.32387 15.9873C10.212 16.0833 11.0587 15.6349 11.1812 14.694C11.2604 14.0863 10.7736 13.3911 10.2192 13.1709Z" fill="#C89B3A"/>
<path d="M72.6646 10.4204C71.2887 10.6121 70.2928 9.26856 70.0613 7.99987C70.2928 6.73185 71.2887 5.38868 72.6646 5.5799C73.3502 5.67463 74.2413 6.30822 73.9339 7.12939C73.7381 7.65273 72.9929 7.74449 72.6415 7.3646C72.522 7.23586 72.4 7.08024 72.3836 6.89711C72.3392 6.41864 72.7178 6.31623 72.8382 6.47974C72.8504 6.57459 72.8906 6.67104 72.9619 6.75445C73.1305 6.95117 73.3968 6.99931 73.5574 6.86189C73.7184 6.7248 73.713 6.45336 73.5448 6.25631C73.5041 6.20896 73.458 6.1711 73.4089 6.14178C72.8382 5.72998 72.1802 6.32001 71.9961 6.90332C71.8062 7.50517 72.2545 7.90568 72.7669 7.99987C72.2545 8.09422 71.8062 8.49441 71.9961 9.09655C72.1802 9.67986 72.8382 10.2699 73.4089 9.85842C73.458 9.8291 73.5041 9.79141 73.5448 9.7436C73.713 9.54684 73.7184 9.27511 73.5574 9.13798C73.3968 9.00056 73.1305 9.04824 72.9619 9.24579C72.8906 9.32933 72.8504 9.42615 72.8382 9.52C72.7178 9.68397 72.3392 9.58173 72.3836 9.1028C72.4 8.91996 72.522 8.76401 72.6415 8.6356C72.9929 8.25571 73.7381 8.34713 73.9339 8.87052C74.2413 9.69118 73.3502 10.3253 72.6646 10.4204ZM69.9862 8.96697C69.9866 8.95569 69.9871 8.9447 69.9875 8.93388C70.0017 8.96059 70.0139 8.98928 70.029 9.01561C70.0139 8.99976 70.0009 8.98286 69.9862 8.96697ZM68.8766 11.7263C68.6791 12.4916 68.186 13.3005 67.6266 13.9707C67.8463 13.54 68.0056 13.0803 68.1 12.6333C68.3285 11.5481 68.3663 10.4213 68.6481 9.34736C68.7299 9.03448 68.8649 8.70521 69.0393 8.37531C69.1547 8.52208 69.2784 8.66835 69.4071 8.81382C69.2247 9.78881 69.1245 10.7597 68.8766 11.7263ZM68.6481 6.65255C68.3663 5.57906 68.3285 4.45186 68.1 3.36617C68.0056 2.91956 67.8463 2.45996 67.6266 2.02929C68.186 2.69982 68.6791 3.50833 68.8766 4.27363C69.1245 5.23981 69.2247 6.2119 69.4071 7.18638C69.2784 7.33152 69.1547 7.47783 69.0393 7.62506C68.8649 7.29499 68.7299 6.96543 68.6481 6.65255ZM69.2566 7.99987C69.332 7.8783 69.413 7.75757 69.4989 7.63802C69.527 7.75841 69.5597 7.87914 69.5979 7.99987C69.5597 8.12106 69.527 8.2415 69.4989 8.36189C69.413 8.2428 69.332 8.1219 69.2566 7.99987ZM70.029 6.98425C70.0139 7.01113 70.0017 7.03931 69.9875 7.06649C69.9871 7.05516 69.9866 7.04422 69.9862 7.0334C70.0009 7.017 70.0139 7.00015 70.029 6.98425ZM73.4081 8.05145C73.349 8.02851 73.2861 8.01216 73.2223 7.99987C73.2861 7.98775 73.349 7.97186 73.4081 7.94842C73.9625 7.72826 74.4502 7.0329 74.3705 6.42484C74.2476 5.48345 73.401 5.03601 72.5128 5.13162C71.9651 5.19033 71.4032 5.45116 70.9822 5.75733C70.6203 6.01975 70.2831 6.30739 69.9699 6.60604C69.9384 5.86036 69.8587 5.10897 69.3991 3.93522C68.9257 2.72876 67.7234 1.42165 66.5266 0.594283C66.1228 0.289417 65.5881 0.0692606 65.0555 0.0126486C64.1669 -0.082962 63.3211 0.364899 63.1982 1.30591C63.1186 1.91397 63.6059 2.60924 64.1598 2.8294C64.8215 3.09149 65.8427 2.64112 65.5726 1.78439C65.3889 1.20443 64.7364 0.615666 64.1678 1.01572C64.1128 1.04592 64.0621 1.08702 64.0181 1.13943C63.8583 1.3315 63.8566 1.59274 64.0139 1.72274C64.1703 1.854 64.4274 1.8041 64.5863 1.61245C64.6479 1.53865 64.6852 1.4552 64.7003 1.37217C64.8811 1.22666 65.2308 1.27908 65.1851 1.77768C65.1688 1.96093 65.0459 2.11693 64.9272 2.24567C64.5758 2.6256 63.8302 2.53376 63.6348 2.01042C63.3274 1.18892 64.2185 0.553604 64.9042 0.460508C66.5178 0.24077 67.4701 1.94835 67.6026 3.35862C67.7243 4.65356 67.6366 5.91949 68.2564 7.1592C68.3931 7.43342 68.5646 7.71564 68.763 7.99987C68.5646 8.28473 68.3931 8.56729 68.2564 8.84116C67.6366 10.0804 67.7243 11.3468 67.6026 12.6413C67.4701 14.0519 66.5178 15.7591 64.9042 15.5398C64.2185 15.4459 63.3274 14.8105 63.6348 13.9895C63.8302 13.4661 64.5758 13.3752 64.9272 13.7546C65.0459 13.883 65.1688 14.039 65.1851 14.2218C65.2308 14.7212 64.8811 14.7733 64.7003 14.6277C64.6852 14.5451 64.6479 14.4613 64.5863 14.3879C64.4274 14.1962 64.1703 14.1459 64.0139 14.2771C63.8566 14.4072 63.8583 14.6688 64.0181 14.8609C64.0621 14.9134 64.1128 14.954 64.1678 14.9841C64.7364 15.3843 65.3889 14.7954 65.5726 14.2155C65.8427 13.3588 64.8215 12.9088 64.1598 13.1709C63.6059 13.3911 63.1186 14.0863 63.1982 14.694C63.3211 15.6349 64.1669 16.0833 65.0555 15.9873C65.5881 15.9303 66.1228 15.7104 66.5266 15.4056C67.7234 14.5795 68.9257 13.2712 69.3991 12.0651C69.8587 10.8917 69.9384 10.1398 69.9699 9.39336C70.2831 9.69248 70.6203 9.97965 70.9822 10.2425C71.4032 10.5487 71.9651 10.8092 72.5128 10.8683C73.401 10.9643 74.2476 10.5165 74.3705 9.57502C74.4502 8.9673 73.9625 8.27211 73.4081 8.05145Z" fill="#C89B3A"/>
</svg>
