<svg width="40" height="40" viewBox="0 0 40 40" fill="none" xmlns="http://www.w3.org/2000/svg">
<path d="M17.5352 26.7097C19.1142 25.5175 21.1143 24.8041 23.0724 24.4132C23.3084 25.0506 23.5117 25.6998 23.6638 26.3621C21.6218 26.3451 19.5706 26.4788 17.5352 26.7097ZM12.4007 27.4756C12.4623 27.1464 12.52 26.8185 12.5751 26.4933C12.7312 25.5857 12.8689 24.6677 12.9935 23.7457C14.806 22.0998 15.9286 19.7417 16.4886 17.2275C17.8513 17.8531 19.1181 18.6715 20.1975 19.6931C21.2165 20.7685 22.0323 22.0302 22.6553 23.3876C20.1398 23.9476 17.7804 25.0716 16.1345 26.8828C15.2125 27.0074 14.2918 27.1464 13.3843 27.3012C13.059 27.3563 12.7312 27.4153 12.4007 27.4756ZM15.4617 16.8131C15.0695 18.7685 14.3561 20.7646 13.1666 22.3424C13.3974 20.3109 13.5312 18.261 13.5154 16.2229C14.1777 16.3737 14.8256 16.5757 15.4617 16.8131ZM8.65763 34.6508C7.64515 36.0935 4.57887 39.3513 2.33489 38.0962C2.13947 38.003 1.8916 37.7551 1.78012 37.5427C0.593215 35.1413 3.78541 32.2337 5.22544 31.2186C6.88318 30.0567 8.82683 29.5268 10.7744 29.1019C10.3495 31.0508 9.82093 32.9957 8.65763 34.6508ZM37.0648 29.9937C34.4195 27.5713 30.2567 26.8277 26.8114 26.5129C26.0088 26.4395 25.2009 26.4015 24.3904 26.3805C24.2763 25.6592 24.1098 24.9509 23.8947 24.2585C24.2842 24.1968 24.6698 24.1457 25.0449 24.1077C27.7335 23.8336 30.5846 24.2008 33.0437 25.3392C35.4765 26.4658 37.0805 28.7254 38.5848 30.8514C39.5356 32.1983 39.1632 30.2507 38.9612 29.9504C36.4864 26.2847 33.6968 23.806 29.2102 23.1279C27.4436 22.8617 25.4632 22.8814 23.5235 23.2093C22.9661 21.8151 22.2015 20.5286 21.1785 19.4846C20.9896 19.259 20.5949 18.8564 20.4061 18.7095C19.3385 17.6642 18.0532 16.8944 16.6722 16.337C16.9975 14.4025 17.0158 12.4274 16.7483 10.6648C16.0715 6.17811 13.5915 3.38988 9.92719 0.917702C9.62685 0.713108 7.67923 0.341934 9.02745 1.29277C11.1534 2.79444 13.4131 4.401 14.5371 6.83252C15.6768 9.29159 16.044 12.1415 15.7686 14.8327C15.7318 15.2025 15.6807 15.5816 15.6204 15.9632C14.9266 15.7481 14.2171 15.5842 13.4958 15.4727C13.4748 14.6662 13.4367 13.8635 13.3633 13.0648C13.0485 9.61947 12.3062 5.4568 9.88256 2.81413C8.14481 0.915073 4.75463 -1.22136 2.29032 0.846874C-0.168749 2.91511 0.507955 6.55453 3.27522 7.95652C5.37232 9.01753 8.01234 7.68637 7.9048 5.21812C7.82349 3.34661 5.57429 2.18328 3.96639 3.09609C3.87196 3.14592 3.78014 3.20233 3.69096 3.27315C3.64243 3.31119 3.60701 3.34789 3.57947 3.3833C3.10471 3.86069 3.00503 4.56237 3.38012 5.01614C3.78275 5.50402 4.57362 5.51582 5.14937 5.04368C5.5756 4.6922 5.76055 4.17019 5.66481 3.72821C6.17105 3.97871 6.58282 4.57283 6.6038 5.02267C6.61954 5.41481 6.62086 5.82269 6.48053 6.19515C5.77887 8.08765 3.4116 7.43715 2.59584 5.97351C1.10073 3.29149 3.21489 -0.447613 6.44774 1.40029C10.6642 3.81215 11.8642 9.23388 12.1174 13.7481C12.1475 14.2727 12.137 14.7999 12.1501 15.3245C10.7665 15.2314 9.38288 15.2944 8.08449 15.5383C3.59391 16.3829 0.650914 19.663 0.00172033 24.1706C-0.0481167 24.5155 1.00108 24.3555 1.04305 24.067C1.62666 20.0053 4.22998 16.3593 8.57368 15.9042C9.75534 15.7796 10.9646 15.8189 12.1633 15.9829C12.1921 18.6164 12.0334 21.2538 11.6846 23.869C11.6584 23.8887 11.6374 23.9149 11.6111 23.9332C10.2301 24.9667 6.77828 26.0697 5.70022 24.5169C5.24382 23.8585 5.09035 22.9089 5.48249 22.1548C6.04513 21.0689 7.81825 20.6794 8.70483 21.4007C8.47925 21.6525 8.3599 22.0525 8.40974 22.484C8.48712 23.1752 8.97109 23.688 9.48782 23.6276C10.0059 23.5699 10.3613 22.9614 10.2852 22.2703C10.2695 22.1483 10.2393 22.0342 10.2026 21.9266C9.80779 20.4512 7.93105 19.6616 6.4202 20.0485C5.00247 20.4105 3.93228 21.8493 4.21819 23.4808C4.84508 27.0573 8.98552 26.2362 11.5508 24.7975C11.4039 25.7811 11.2465 26.7634 11.0537 27.7366C8.14484 28.3464 5.24639 29.292 3.15323 31.4849C1.58992 33.1242 -0.311708 36.1315 1.26865 38.3152C1.33292 38.4083 1.45354 38.5093 1.55977 38.6103C3.74473 40.1893 6.7533 38.2863 8.39136 36.7217C10.5842 34.6312 11.5324 31.7327 12.1396 28.8238C13.1141 28.631 14.0964 28.4723 15.08 28.3267C13.64 30.892 12.8203 35.0325 16.3955 35.6594C18.0283 35.9466 19.4684 34.8724 19.829 33.456C20.2159 31.9491 19.4264 30.0697 17.9509 29.6737C17.8434 29.6383 17.7293 29.6081 17.606 29.5937C16.9162 29.515 16.3076 29.8704 16.2486 30.3885C16.1896 30.9065 16.7011 31.3904 17.3922 31.4691C17.8237 31.5189 18.225 31.397 18.4781 31.1727C19.1968 32.0593 18.81 33.8337 17.724 34.3951C16.9699 34.7859 16.0178 34.6351 15.362 34.1773C13.8053 33.0967 14.9095 29.6474 15.943 28.2664C15.9627 28.2402 15.9876 28.2192 16.0086 28.193C18.6263 27.8441 21.2677 27.6854 23.9038 27.7143C24.0678 28.9156 24.1084 30.1274 23.9838 31.313C23.5274 35.6594 19.8828 38.2614 15.8197 38.8463C15.5338 38.887 15.3752 39.9362 15.7175 39.8863C20.2251 39.2385 23.5078 36.2955 24.3511 31.8036C24.595 30.5078 24.6488 29.1189 24.5452 27.7274C25.0737 27.7392 25.6022 27.73 26.1308 27.7589C30.6436 28.012 36.0641 29.2159 38.4773 33.4311C40.3252 36.66 36.586 38.7781 33.9027 37.2804C32.4417 36.4646 31.7899 34.0973 33.6811 33.3957C34.0562 33.258 34.4627 33.258 34.8549 33.275C35.3034 33.2947 35.8975 33.7065 36.1493 34.2128C35.7074 34.117 35.1854 34.302 34.8339 34.7269C34.3604 35.304 34.3722 36.0948 34.8614 36.4974C35.3152 36.8712 36.0156 36.7715 36.4943 36.2981C36.5297 36.2692 36.5664 36.2338 36.6031 36.1853C36.6739 36.0987 36.7329 36.0043 36.7815 35.9099C37.693 34.3033 36.5297 32.0527 34.6608 31.9714C32.1925 31.8639 30.8588 34.5052 31.9198 36.601C33.3218 39.3709 36.9624 40.0477 39.0307 37.586C41.1002 35.1243 38.9612 31.7327 37.0648 29.9937Z" fill="#C89B3A"/>
</svg>
