<svg width="75" height="76" viewBox="0 0 75 76" fill="none" xmlns="http://www.w3.org/2000/svg">
<path d="M74.5471 11.6078C74.4843 11.7887 74.3926 11.9577 74.2686 12.1089C74.1437 12.2618 73.99 12.384 73.8032 12.4792C73.5178 12.6244 73.2206 12.6601 72.9157 12.5862C72.6091 12.508 72.3509 12.3331 72.1386 12.0579C71.9815 12.6567 71.7293 13.0448 71.3768 13.2265C71.1747 13.3267 70.9666 13.3726 70.7484 13.3599C70.5301 13.3446 70.3297 13.2766 70.1496 13.1535C69.9696 13.0261 69.8235 12.8588 69.7131 12.6414C69.5908 12.401 69.5339 12.1072 69.545 11.7607C69.483 11.8201 69.4515 11.8499 69.449 11.855L69.1755 12.2201C69.1229 12.2915 69.0201 12.3688 68.8706 12.446C68.5055 12.6312 68.1241 12.6592 67.7318 12.5301C67.3352 12.3993 67.0413 12.1412 66.8434 11.7573C66.6727 11.4244 66.6354 11.0991 66.7322 10.7823C66.8298 10.4664 67.0277 10.1394 67.3207 9.80653C67.584 9.79209 67.8209 9.84644 68.0282 9.97383C68.3585 10.1845 68.6031 10.4452 68.7602 10.7552C68.8299 10.8902 68.852 11.0244 68.8282 11.162C68.8027 11.2995 68.7399 11.3955 68.632 11.449C68.5768 11.477 68.508 11.4711 68.4248 11.4371C68.345 11.3989 68.2872 11.3496 68.2558 11.286C68.2286 11.2333 68.2243 11.1569 68.243 11.0575L68.0689 10.9445C67.9857 11.0176 67.9356 11.0957 67.9254 11.1705C67.9127 11.2435 67.9322 11.3293 67.9857 11.4354C68.0494 11.5603 68.1539 11.6392 68.294 11.6758C68.4358 11.714 68.5768 11.6987 68.7212 11.6248C68.9106 11.5271 69.0243 11.3853 69.0694 11.1976C69.1127 11.0091 69.0796 10.8053 68.9675 10.5828C68.88 10.4104 68.7764 10.2745 68.6617 10.1683C68.5462 10.0622 68.3585 9.93986 68.0953 9.80228C68.4927 9.85154 68.835 9.90674 69.128 9.97213C69.4184 10.0367 69.6673 10.1114 69.8685 10.193C70.0673 10.277 70.2592 10.3874 70.446 10.5233C70.7484 10.7484 70.9794 11.0176 71.1382 11.3293C71.2282 11.5042 71.2656 11.6571 71.252 11.7836C71.2401 11.9153 71.1772 12.0078 71.066 12.0656C71.0023 12.097 70.9335 12.1055 70.863 12.0877C70.7934 12.069 70.7441 12.0325 70.7135 11.9739C70.6813 11.9119 70.6847 11.8524 70.7237 11.8023L70.4936 11.7463C70.4656 11.8651 70.4825 11.9866 70.5454 12.1055C70.6091 12.2312 70.6983 12.3093 70.8155 12.3416C70.931 12.3713 71.0507 12.3543 71.1687 12.2932C71.2919 12.2312 71.3836 12.1471 71.4422 12.046C71.5033 11.9424 71.528 11.8235 71.5212 11.6944C71.5127 11.5645 71.4677 11.4218 71.3896 11.2647C71.2749 11.049 71.1467 10.869 71.0006 10.728C70.8528 10.5879 70.6031 10.4078 70.249 10.1862C70.4019 10.2057 70.6439 10.2711 70.9734 10.3789C71.1042 10.4273 71.2265 10.469 71.3454 10.5063C71.5925 10.5862 71.8583 10.6787 72.1454 10.784C72.3917 10.8588 72.7042 10.9913 73.0779 11.1823L73.1119 11.1271C72.9225 10.9964 72.7356 10.8817 72.5479 10.7883C72.1564 10.5981 71.7904 10.4477 71.4482 10.3373C71.2299 10.2702 70.9046 10.1649 70.4732 10.0256C70.891 9.96959 71.1704 9.90419 71.3063 9.83455C71.5441 9.71311 71.7072 9.56449 71.7947 9.39124C71.883 9.21799 71.8847 9.04899 71.7964 8.87574C71.7242 8.73646 71.6214 8.64219 71.4864 8.59378C71.3522 8.54452 71.218 8.55726 71.0821 8.6252C70.9267 8.70673 70.835 8.82308 70.8112 8.9785L71.0065 9.06853C71.0252 8.94538 71.0685 8.8698 71.1356 8.83328C71.1781 8.8112 71.2316 8.8044 71.2953 8.81035C71.3598 8.81544 71.4235 8.83497 71.4864 8.86809C71.528 8.88762 71.5569 8.91566 71.5747 8.95048C71.6358 9.07192 71.6358 9.18827 71.5747 9.29867C71.5127 9.41163 71.3955 9.51268 71.2223 9.60186C70.9879 9.72075 70.6931 9.79634 70.3373 9.82861C70.136 9.8405 69.9721 9.84051 69.849 9.83116C69.7241 9.82182 69.4694 9.78021 69.0838 9.70547C68.8256 9.66301 68.5428 9.62734 68.2379 9.59422C68.3696 9.54326 68.502 9.48466 68.6405 9.41332C68.8715 9.29612 69.032 9.14665 69.1237 8.96746C69.218 8.78656 69.218 8.60907 69.128 8.43158C69.0863 8.35175 69.0261 8.28465 68.9488 8.23709C68.8715 8.18868 68.7891 8.15981 68.6974 8.15386C68.6057 8.14877 68.519 8.17 68.429 8.21416C68.3076 8.27701 68.2209 8.39506 68.1725 8.56831L68.3271 8.61756C68.3798 8.52074 68.4358 8.4579 68.4927 8.42818C68.5598 8.39505 68.6379 8.39081 68.728 8.41458C68.8197 8.43921 68.8842 8.48337 68.9173 8.55047C68.9734 8.65662 68.9445 8.78827 68.8375 8.94114C68.7288 9.09485 68.5734 9.22224 68.3713 9.32669C68.1403 9.44304 67.7844 9.52797 67.297 9.58062C67.0727 9.14325 66.9971 8.74156 67.0693 8.37722C67.1424 8.01204 67.4031 7.71479 67.8439 7.48973C68.0868 7.36404 68.3415 7.30035 68.6082 7.2978C68.8715 7.29355 69.111 7.35046 69.319 7.46426C69.528 7.58146 69.6859 7.74367 69.7929 7.95344C69.8447 8.05705 69.8847 8.1683 69.9169 8.29909C69.9475 8.42308 69.9806 8.60058 70.0155 8.82988C70.0163 8.83837 70.0188 8.85281 70.0231 8.87319C70.029 8.89272 70.0316 8.9233 70.0367 8.95897C70.2541 8.44856 70.5556 8.09441 70.9428 7.89569C71.1416 7.79462 71.3428 7.75301 71.5518 7.7683C71.7598 7.78443 71.9518 7.85068 72.1233 7.96363C72.2974 8.07573 72.4333 8.22944 72.5327 8.42478C72.6371 8.6286 72.6821 8.84771 72.6686 9.08551C72.6558 9.3233 72.5819 9.56534 72.4435 9.81842C72.4622 9.80738 72.4758 9.79974 72.4843 9.79379C72.4919 9.7887 72.4987 9.7836 72.5038 9.77596C72.711 9.67065 72.9675 9.64007 73.2698 9.68763C73.8533 9.76067 74.2567 10.018 74.4826 10.4622C74.5709 10.6346 74.6202 10.8197 74.6261 11.0244C74.6371 11.2307 74.6091 11.4218 74.5471 11.6078ZM65.9364 9.77936C65.556 9.88297 65.1976 10.0214 64.8638 10.193C64.7356 10.2583 64.6201 10.3305 64.5054 10.4036C64.5784 10.2881 64.6515 10.1734 64.716 10.0452C64.8876 9.71057 65.026 9.35218 65.1305 8.97256C65.2324 8.59209 65.2969 8.21161 65.3199 7.83114C65.4022 7.89908 65.4702 7.94409 65.5194 7.96787C65.7717 8.09781 66.0349 8.15641 66.3101 8.14706C66.5352 8.13772 66.7466 8.06554 66.9504 7.95768C66.8426 8.16235 66.7713 8.37467 66.7611 8.59973C66.7526 8.87404 66.8112 9.13646 66.9402 9.39039C66.9657 9.4388 67.0107 9.50675 67.0778 9.58913C66.6965 9.6129 66.3169 9.67575 65.9364 9.77936ZM64.1258 8.1768C63.8107 8.27361 63.4846 8.23624 63.1508 8.06384C62.767 7.86936 62.5088 7.57297 62.3788 7.17721C62.2498 6.78485 62.2769 6.40353 62.4629 6.03834C62.5402 5.88887 62.6167 5.7878 62.6897 5.7326L63.054 5.45914C63.0583 5.45744 63.0888 5.42603 63.1474 5.36488C62.8018 5.37592 62.5088 5.31817 62.2668 5.19333C62.051 5.08462 61.8812 4.93854 61.7564 4.75934C61.6315 4.5793 61.5636 4.37887 61.55 4.16061C61.5364 3.9432 61.5822 3.73429 61.6825 3.53131C61.8642 3.17802 62.2523 2.92664 62.8502 2.76952C62.5767 2.55806 62.4018 2.29904 62.3237 1.9933C62.2489 1.68842 62.2846 1.39116 62.4307 1.10496C62.5249 0.918967 62.6481 0.765251 62.7984 0.63956C62.9513 0.516417 63.1186 0.424694 63.3012 0.361849C63.4863 0.300702 63.6782 0.270983 63.8846 0.282873C64.0884 0.288818 64.2753 0.338919 64.4468 0.426394C64.8901 0.653997 65.1483 1.05655 65.2205 1.63915C65.2689 1.94064 65.2392 2.19796 65.133 2.40519C65.1262 2.41028 65.1211 2.41707 65.1143 2.42387C65.1092 2.43236 65.1016 2.44595 65.0914 2.46548C65.3436 2.3262 65.5865 2.25317 65.8226 2.23958C66.0604 2.22599 66.2804 2.27186 66.4842 2.37547C66.6787 2.47484 66.8332 2.61071 66.9453 2.7848C67.0591 2.95805 67.1245 3.14744 67.1407 3.35721C67.1568 3.56528 67.1144 3.76742 67.0124 3.96529C66.8146 4.35341 66.4613 4.65489 65.95 4.8723C65.9857 4.87655 66.0154 4.87994 66.0349 4.88588C66.0553 4.89013 66.0698 4.89184 66.0791 4.89354C66.3067 4.92751 66.4851 4.96147 66.6107 4.99119C66.7398 5.02431 66.8519 5.06338 66.9547 5.11603C67.1653 5.22219 67.3267 5.38101 67.4447 5.58823C67.5585 5.79715 67.6137 6.03834 67.6103 6.30161C67.6086 6.56743 67.5449 6.82051 67.4192 7.06425C67.1933 7.50587 66.897 7.76659 66.5335 7.83878C66.1666 7.91267 65.7657 7.83624 65.3275 7.61203C65.3801 7.12456 65.4659 6.76786 65.5823 6.53771C65.6876 6.33644 65.8133 6.17932 65.9687 6.07232C66.1207 5.96531 66.2524 5.93558 66.3577 5.99163C66.4248 6.02475 66.4698 6.0893 66.4936 6.18102C66.519 6.2719 66.5148 6.35002 66.4808 6.41626C66.4494 6.47231 66.3874 6.52922 66.2914 6.58187L66.3398 6.73644C66.5139 6.68803 66.632 6.60055 66.6931 6.47911C66.739 6.38993 66.7594 6.30332 66.7543 6.2116C66.7492 6.11903 66.7211 6.03834 66.6719 5.96106C66.6235 5.88377 66.5581 5.82348 66.4766 5.78101C66.2991 5.69014 66.1224 5.69015 65.9424 5.78611C65.7623 5.87699 65.6129 6.03834 65.4948 6.26849C65.4252 6.40607 65.3666 6.53856 65.3131 6.67189C65.2816 6.36446 65.2451 6.0825 65.2035 5.82433C65.1288 5.43961 65.088 5.18483 65.077 5.05914C65.0676 4.93684 65.0676 4.77294 65.0795 4.57166C65.1118 4.21497 65.1882 3.91943 65.3063 3.68588C65.3954 3.51263 65.4974 3.39542 65.6095 3.33513C65.7207 3.27313 65.8379 3.27313 65.9585 3.33513C65.9925 3.35211 66.0214 3.38269 66.0417 3.4226C66.0749 3.48545 66.0927 3.54829 66.0978 3.61284C66.1046 3.67568 66.0969 3.73005 66.0757 3.77336C66.04 3.84045 65.9627 3.88292 65.8405 3.90245L65.9313 4.09691C66.0859 4.07398 66.2014 3.98312 66.2829 3.82685C66.3509 3.69012 66.3636 3.55849 66.3152 3.4226C66.2659 3.28672 66.1725 3.18482 66.0324 3.11178C65.8608 3.02431 65.6901 3.02601 65.5169 3.11518C65.3445 3.20181 65.1959 3.36571 65.0744 3.60096C65.0048 3.73854 64.9394 4.01623 64.8833 4.43577C64.7432 4.00349 64.6387 3.67738 64.5717 3.45997C64.4613 3.11856 64.3109 2.75253 64.1215 2.36102C64.0273 2.17333 63.9126 1.98566 63.7827 1.79627L63.7266 1.83108C63.9177 2.20476 64.0502 2.51644 64.1258 2.76357C64.2303 3.04893 64.3228 3.31646 64.4027 3.56359C64.44 3.68249 64.4816 3.80562 64.53 3.93471C64.6371 4.26508 64.7033 4.50712 64.7211 4.66084C64.5012 4.30669 64.3203 4.05615 64.181 3.90838C64.0409 3.764 63.8608 3.63493 63.6426 3.52028C63.4863 3.44215 63.3436 3.39543 63.2137 3.38779C63.0846 3.381 62.9674 3.40562 62.8638 3.46677C62.761 3.52537 62.6778 3.61708 62.6158 3.74023C62.5538 3.85827 62.5377 3.97803 62.5665 4.09353C62.5988 4.20988 62.6778 4.2999 62.8035 4.36444C62.9232 4.42729 63.0438 4.44341 63.1619 4.41454L63.1067 4.18354C63.0566 4.22431 62.998 4.22686 62.9351 4.19544C62.8757 4.16402 62.8383 4.11561 62.8222 4.04512C62.8035 3.97463 62.812 3.90668 62.8425 3.84298C62.9011 3.73173 62.9946 3.66974 63.1254 3.65615C63.2527 3.64341 63.4039 3.67909 63.578 3.76996C63.8906 3.92962 64.1598 4.16061 64.3857 4.4621C64.5224 4.65064 64.6328 4.84003 64.7152 5.04046C64.7967 5.24088 64.8723 5.48972 64.936 5.78101C65.0014 6.07401 65.0583 6.41627 65.1067 6.81457C64.9691 6.55045 64.8468 6.36276 64.7407 6.24726C64.6354 6.13261 64.4978 6.02985 64.3271 5.94068C64.1046 5.82857 63.8982 5.79544 63.7114 5.83876C63.5245 5.88377 63.381 5.99843 63.285 6.18696C63.2111 6.33134 63.1941 6.47232 63.2324 6.615C63.2689 6.75598 63.3496 6.86043 63.4744 6.92243C63.578 6.97678 63.6655 6.99547 63.7385 6.98358C63.8141 6.97338 63.8906 6.92242 63.9644 6.84089L63.8515 6.6668C63.7513 6.68294 63.6748 6.67954 63.6222 6.65236C63.5602 6.62179 63.5092 6.56489 63.4719 6.48421C63.437 6.40098 63.4311 6.33134 63.46 6.27699C63.5126 6.16913 63.6103 6.10628 63.747 6.08166C63.8838 6.05618 64.0188 6.07911 64.153 6.14875C64.463 6.30587 64.7245 6.55045 64.9343 6.88082C65.0617 7.08804 65.1186 7.32498 65.1016 7.58825C64.7695 7.8821 64.4417 8.07998 64.1258 8.1768ZM74.6991 10.2881C74.4596 9.82012 74.063 9.54326 73.511 9.46174C73.2274 9.40993 72.9862 9.41502 72.7883 9.47447L72.8002 9.387C72.869 9.12458 72.9004 8.91565 72.8928 8.75514C72.8877 8.59548 72.841 8.43327 72.7569 8.26681C72.638 8.03496 72.4766 7.84897 72.2719 7.71224C72.0681 7.57296 71.8448 7.50248 71.6036 7.49398C71.3632 7.48804 71.1229 7.54579 70.8843 7.66724C70.7025 7.75981 70.5513 7.86935 70.4341 7.98825C70.3169 8.1063 70.2159 8.26172 70.1284 8.44941C70.1284 8.23454 70.0902 8.04771 70.0112 7.89909C69.8745 7.62902 69.6825 7.4167 69.4371 7.25534C69.1908 7.09737 68.9157 7.01585 68.6125 7.00651C68.3093 6.99886 68.0086 7.07105 67.7088 7.22391C67.6817 7.23835 67.663 7.25704 67.6375 7.27148C67.6519 7.24515 67.6715 7.22647 67.6851 7.19929C67.8379 6.90035 67.9093 6.59886 67.9016 6.29567C67.8923 5.99333 67.8116 5.71818 67.6528 5.47274C67.4931 5.2273 67.28 5.03452 67.0107 4.89694C66.8613 4.8188 66.6736 4.78058 66.4587 4.78058C66.6473 4.69225 66.8018 4.5912 66.9199 4.4757C67.0413 4.35766 67.1483 4.20563 67.2409 4.02559C67.364 3.78525 67.4218 3.54576 67.4141 3.30541C67.4065 3.06422 67.3352 2.84001 67.1967 2.63788C67.06 2.43236 66.8732 2.271 66.6422 2.15296C66.4757 2.06718 66.3135 2.02046 66.153 2.01537C65.9942 2.00772 65.7836 2.03915 65.5211 2.10964L65.4328 2.11984C65.4939 1.92281 65.4982 1.68247 65.4473 1.39712C65.3649 0.844247 65.0889 0.448491 64.6209 0.209848C64.3356 0.0620757 64.0349 -0.00162253 63.7207 0.0153628C63.409 0.0298003 63.1152 0.123219 62.8459 0.290524C62.5759 0.45613 62.3695 0.682031 62.226 0.965685C61.9398 1.5211 62.0154 2.07483 62.4536 2.6243C61.9695 2.76698 61.6281 3.03279 61.4294 3.42515C61.3105 3.65615 61.2612 3.90075 61.2816 4.15553C61.3037 4.40946 61.3869 4.64639 61.5338 4.8638C61.6799 5.08121 61.8701 5.25022 62.1079 5.37251C62.2438 5.44385 62.4256 5.49737 62.6523 5.53558C62.496 5.63835 62.344 5.83197 62.1954 6.12582C62.0587 6.39589 62.006 6.67784 62.0425 6.97338C62.0782 7.26553 62.1903 7.5356 62.3763 7.78444C62.564 8.03242 62.8052 8.23624 63.0999 8.38486C63.4099 8.54368 63.7504 8.57595 64.1148 8.48338C64.4816 8.39081 64.8052 8.21161 65.0846 7.94919L65.0702 8.06639C64.9895 8.71268 64.8281 9.27065 64.5886 9.74454C64.4553 10.0036 64.3075 10.2363 64.1411 10.4486C63.9772 10.6592 63.7912 10.852 63.5865 11.0227C63.2018 11.3395 62.8426 11.539 62.4995 11.618C62.1589 11.697 61.8319 11.6579 61.522 11.4974C61.223 11.3463 61.0183 11.1085 60.9096 10.7849C60.8001 10.4639 60.8222 10.153 60.9733 9.85494C61.06 9.68678 61.1831 9.5475 61.3393 9.44134C61.4982 9.33519 61.6706 9.2681 61.854 9.24347C62.0374 9.21799 62.2073 9.24771 62.361 9.32584C62.4952 9.39379 62.6082 9.49146 62.7016 9.6163C62.7941 9.74454 62.8493 9.87787 62.8697 10.0222C62.8893 10.1632 62.8706 10.2889 62.812 10.4002C62.7466 10.5301 62.6506 10.621 62.5215 10.6728C62.3942 10.7237 62.2786 10.722 62.181 10.6711C62.0536 10.6082 61.9772 10.5148 61.9423 10.3942C61.9118 10.2745 61.9228 10.1369 61.9822 9.97723L61.7088 9.93562C61.6553 10.0783 61.6332 10.2116 61.64 10.3373C61.6468 10.4656 61.6799 10.5743 61.741 10.6694C61.8013 10.7628 61.8905 10.8409 62.0069 10.8995C62.198 10.9989 62.3992 11.0091 62.6107 10.9361C62.8239 10.863 62.9818 10.7271 63.0829 10.5267C63.1619 10.3721 63.1873 10.2014 63.1619 10.0154C63.1372 9.82776 63.0668 9.65366 62.9496 9.49485C62.8324 9.33179 62.6795 9.2078 62.4952 9.11183C62.3457 9.03539 62.1869 8.99463 62.0205 8.98784C61.8515 8.97935 61.6859 9.00738 61.5228 9.06768C61.3606 9.12797 61.2111 9.21799 61.0786 9.33519C60.9462 9.45408 60.8374 9.59421 60.7508 9.76322C60.6328 9.99592 60.5818 10.2431 60.5979 10.5063C60.6149 10.7687 60.6931 11.0125 60.834 11.2308C60.9733 11.4524 61.161 11.6248 61.3954 11.7445C61.5661 11.8303 61.7623 11.883 61.9865 11.8949C62.209 11.9102 62.4417 11.8881 62.6846 11.8252C62.9275 11.7632 63.1542 11.6707 63.3623 11.5467C63.2383 11.7539 63.1457 11.9815 63.0829 12.2252C63.0217 12.4673 62.9988 12.7 63.0132 12.9216C63.0251 13.1475 63.0769 13.3429 63.1644 13.5127C63.2833 13.7488 63.4557 13.9348 63.6782 14.0749C63.8956 14.2159 64.1402 14.2932 64.4027 14.3119C64.6668 14.3263 64.9139 14.2771 65.1458 14.1573C65.3148 14.0715 65.4549 13.9637 65.5729 13.8303C65.6918 13.6979 65.7802 13.5484 65.8413 13.3862C65.9016 13.2223 65.9296 13.0575 65.9211 12.8885C65.9143 12.7221 65.8744 12.5632 65.7971 12.4138C65.702 12.2295 65.578 12.0758 65.415 11.9594C65.2553 11.8422 65.0812 11.7709 64.8927 11.7463C64.7067 11.7216 64.5368 11.7463 64.3823 11.8252C64.1827 11.9263 64.0451 12.0851 63.9721 12.2983C63.8982 12.5106 63.9101 12.711 64.0086 12.9021C64.0681 13.0193 64.1462 13.1076 64.2396 13.1679C64.3339 13.2282 64.4443 13.2622 64.5717 13.2698C64.6973 13.2766 64.8315 13.252 64.9725 13.1993L64.9317 12.9259C64.7721 12.9862 64.6345 12.9981 64.5131 12.9658C64.3925 12.9318 64.2999 12.8554 64.2371 12.728C64.1861 12.6295 64.1852 12.5157 64.2362 12.3874C64.288 12.2584 64.3797 12.1607 64.5071 12.0953C64.6184 12.0384 64.7449 12.0197 64.8867 12.0384C65.0311 12.0588 65.1644 12.114 65.2918 12.2074C65.4175 12.3017 65.5152 12.4138 65.5831 12.5488C65.6621 12.7025 65.6901 12.8715 65.6655 13.055C65.64 13.2384 65.5738 13.4117 65.4668 13.5696C65.3606 13.7259 65.2213 13.849 65.054 13.9348C64.7559 14.0868 64.4443 14.1081 64.1232 13.9994C63.8005 13.8906 63.5636 13.6851 63.4107 13.3862C63.2511 13.0779 63.212 12.7509 63.2918 12.4087C63.3699 12.0673 63.5687 11.7072 63.8863 11.3225C64.057 11.1161 64.2498 10.931 64.4595 10.7671C64.6719 10.6023 64.9054 10.4537 65.1644 10.3212C65.6383 10.08 66.1963 9.91948 66.8417 9.83795L66.9606 9.82436C66.6965 10.1038 66.519 10.4256 66.4265 10.7934C66.3339 11.1586 66.3653 11.4983 66.5241 11.8091C66.6736 12.1029 66.8766 12.3433 67.1246 12.5335C67.3734 12.7195 67.6435 12.8308 67.9356 12.8673C68.2303 12.9038 68.5123 12.8503 68.7832 12.7136C69.0762 12.5649 69.2715 12.4121 69.3726 12.2567C69.4133 12.4826 69.4651 12.6643 69.5356 12.801C69.6579 13.0388 69.8286 13.2282 70.0452 13.3751C70.2626 13.5212 70.4995 13.6053 70.7535 13.6265C71.0082 13.6486 71.252 13.5985 71.4838 13.4788C71.877 13.2809 72.1429 12.9403 72.2838 12.4554C72.8342 12.8936 73.387 12.9683 73.9433 12.6838C74.227 12.5395 74.4512 12.3331 74.6193 12.0639C74.7858 11.7938 74.8783 11.5 74.8945 11.1883C74.9106 10.8741 74.8452 10.5726 74.6991 10.2881Z" fill="#64471C"/>
<path d="M8.95924 9.76665C8.57962 9.66304 8.19915 9.5985 7.81698 9.57727C7.88577 9.49489 7.92995 9.42695 7.95542 9.37684C8.08451 9.12461 8.14395 8.86303 8.13376 8.58617C8.12442 8.36027 8.05308 8.14965 7.94607 7.94667C8.14905 8.05368 8.36052 8.12587 8.58557 8.13437C8.86158 8.14456 9.12401 8.0851 9.37709 7.95516C9.4255 7.93053 9.49343 7.88637 9.57666 7.81758C9.59789 8.19975 9.66243 8.58108 9.76604 8.95985C9.86965 9.33947 10.0081 9.69871 10.1779 10.0342C10.2433 10.1599 10.3155 10.2745 10.3877 10.3883C10.2731 10.3161 10.1593 10.2439 10.0327 10.1794C9.69811 10.0087 9.33886 9.87111 8.95924 9.76665ZM8.16349 10.7705C8.26116 11.0856 8.22293 11.4125 8.05138 11.7446C7.8552 12.1285 7.55966 12.3875 7.16475 12.5174C6.77154 12.6465 6.39023 12.6202 6.02505 12.4325C5.87558 12.3561 5.77366 12.2805 5.7193 12.2066L5.44669 11.8423C5.44414 11.8389 5.41271 11.8074 5.35071 11.7488C5.3626 12.0936 5.30486 12.3892 5.18171 12.6287C5.07131 12.8452 4.92609 13.0142 4.74605 13.1391C4.56685 13.2639 4.36557 13.3319 4.14731 13.3472C3.9299 13.3599 3.72014 13.314 3.51887 13.2138C3.16642 13.0329 2.91334 12.6448 2.75623 12.0461C2.54476 12.3187 2.28572 12.4953 1.98084 12.5735C1.6751 12.6465 1.37701 12.6125 1.09251 12.4656C0.905671 12.3714 0.751955 12.249 0.626264 12.097C0.50312 11.945 0.411397 11.7769 0.347702 11.5951C0.286555 11.41 0.258536 11.218 0.269577 11.0117C0.275521 10.8087 0.325622 10.6227 0.412247 10.4503C0.639001 10.0053 1.04325 9.74881 1.62585 9.67578C1.92819 9.62907 2.18467 9.65709 2.39189 9.7624C2.39698 9.77005 2.40378 9.77599 2.41142 9.78193C2.41991 9.78873 2.43265 9.79467 2.45303 9.80486C2.31375 9.55263 2.23901 9.30974 2.22712 9.07365C2.21353 8.8367 2.25855 8.61674 2.36216 8.41207C2.46237 8.21759 2.59911 8.06303 2.77151 7.95177C2.94391 7.83797 3.13499 7.77342 3.34391 7.75644C3.55283 7.7403 3.7541 7.78107 3.95198 7.88383C4.34009 8.08086 4.64075 8.435 4.85816 8.94541C4.86325 8.91059 4.86664 8.88087 4.87174 8.86133C4.87598 8.8401 4.87852 8.82651 4.88022 8.81802C4.91504 8.58957 4.94817 8.41207 4.97875 8.28553C5.01102 8.15644 5.05008 8.0435 5.10274 7.94243C5.20889 7.73181 5.36771 7.56875 5.57663 7.45241C5.7847 7.3386 6.02334 7.28171 6.28746 7.2851C6.55413 7.2885 6.80806 7.35134 7.05095 7.47703C7.49341 7.70293 7.7533 7.99933 7.82633 8.36366C7.89852 8.73055 7.82377 9.13055 7.59872 9.56877C7.11124 9.51611 6.75456 9.43034 6.5244 9.31569C6.32313 9.20953 6.16602 9.08299 6.05816 8.92758C5.95115 8.77556 5.92313 8.64392 5.97833 8.53946C6.01145 8.47152 6.07515 8.42651 6.16772 8.40358C6.25774 8.3781 6.33587 8.3815 6.40297 8.41632C6.46072 8.44689 6.51591 8.50889 6.56942 8.6057L6.72314 8.55645C6.67473 8.3832 6.5881 8.266 6.46581 8.2023C6.37664 8.15814 6.29 8.13606 6.19743 8.14116C6.10656 8.1471 6.02334 8.17598 5.94775 8.22608C5.86877 8.27194 5.81018 8.33904 5.76772 8.41887C5.6777 8.59637 5.67768 8.77386 5.77195 8.95475C5.86367 9.1331 6.02335 9.28257 6.25519 9.40231C6.39362 9.4728 6.52611 9.5297 6.6586 9.58321C6.35201 9.61463 6.07006 9.65115 5.81188 9.69192C5.42631 9.76665 5.17068 9.80912 5.04584 9.81931C4.9227 9.82865 4.75964 9.82865 4.55836 9.81676C4.20167 9.78448 3.90781 9.70891 3.67257 9.58916C3.50017 9.50084 3.38213 9.39977 3.32098 9.28767C3.25983 9.17641 3.25983 9.05836 3.32098 8.93777C3.33797 8.90465 3.36769 8.87493 3.40931 8.85539C3.47215 8.82312 3.53585 8.80443 3.59954 8.79849C3.66324 8.79169 3.71673 8.79934 3.76004 8.82142C3.82714 8.85539 3.8696 8.93437 3.88913 9.05497L4.08447 8.96579C4.06069 8.81038 3.96982 8.69487 3.81356 8.61334C3.67683 8.54455 3.54349 8.53181 3.40931 8.58107C3.27427 8.62948 3.17065 8.72376 3.09846 8.86473C3.01099 9.03544 3.01269 9.20613 3.10101 9.37853C3.18849 9.55178 3.35155 9.7004 3.58934 9.82355C3.72437 9.89234 4.00379 9.95689 4.42247 10.0138C3.9902 10.1531 3.66493 10.2575 3.44667 10.3238C3.10526 10.435 2.73924 10.5853 2.34773 10.7756C2.16004 10.869 1.97234 10.9828 1.78295 11.1136L1.81779 11.1705C2.19146 10.9777 2.50484 10.8469 2.75113 10.7722C3.03648 10.6652 3.30229 10.5726 3.55028 10.4936C3.66917 10.4571 3.79148 10.4155 3.92142 10.3654C4.25178 10.2592 4.4938 10.193 4.64667 10.1751C4.29338 10.3943 4.04201 10.576 3.89508 10.7144C3.74986 10.8563 3.61992 11.0355 3.50696 11.2537C3.42883 11.41 3.38297 11.5527 3.37447 11.6817C3.36683 11.8108 3.39147 11.9297 3.45347 12.0325C3.51207 12.1344 3.60379 12.2202 3.72693 12.2813C3.84498 12.3416 3.96472 12.3586 4.08022 12.3297C4.19657 12.2975 4.28573 12.2202 4.35028 12.0928C4.41312 11.973 4.42927 11.8524 4.40209 11.7327L4.17109 11.7887C4.21101 11.8423 4.2144 11.8983 4.18128 11.9612C4.1507 12.0206 4.10229 12.058 4.03265 12.0741C3.96216 12.0928 3.89423 12.0851 3.82969 12.0537C3.71844 11.9951 3.65559 11.9034 3.6437 11.7709C3.63012 11.6444 3.66747 11.4915 3.75664 11.3174C3.91546 11.0057 4.14732 10.7365 4.44966 10.5098C4.63649 10.3747 4.82843 10.2635 5.02801 10.1819C5.22844 10.0996 5.47642 10.024 5.76772 9.96113C6.06071 9.89488 6.40296 9.83799 6.80042 9.79043C6.53714 9.92632 6.34861 10.0495 6.23396 10.1556C6.12016 10.2601 6.01654 10.3985 5.92822 10.5692C5.81527 10.7917 5.783 10.9972 5.82546 11.1849C5.87132 11.3726 5.98428 11.5153 6.17452 11.6113C6.31889 11.6843 6.4607 11.7013 6.60168 11.6648C6.74266 11.6282 6.84628 11.5467 6.90912 11.4219C6.96348 11.3174 6.98216 11.2308 6.97027 11.1569C6.96008 11.083 6.90913 11.0057 6.8276 10.931L6.65349 11.0439C6.67048 11.145 6.66624 11.2214 6.63991 11.2749C6.60849 11.3369 6.55074 11.3871 6.47091 11.4244C6.38768 11.4584 6.31888 11.4652 6.26452 11.4371C6.15582 11.3828 6.09299 11.286 6.06836 11.1501C6.04373 11.0125 6.0658 10.8766 6.13543 10.745C6.29255 10.4333 6.53715 10.1717 6.86836 9.96283C7.07558 9.83459 7.31168 9.77769 7.57581 9.79382C7.8688 10.1267 8.06667 10.4546 8.16349 10.7705ZM7.4518 5.57723C7.56899 5.36916 7.73036 5.21034 7.94097 5.10419C8.04288 5.05153 8.15584 5.01332 8.28493 4.9802C8.40977 4.94792 8.58812 4.91479 8.81742 4.88167C8.82591 4.87997 8.8395 4.87659 8.85988 4.87404C8.88027 4.86809 8.90999 4.86555 8.94481 4.85876C8.4344 4.64219 8.08026 4.33984 7.88238 3.95343C7.78132 3.7547 7.73885 3.55343 7.75499 3.34451C7.77113 3.13729 7.83652 2.94451 7.95032 2.77211C8.06158 2.59971 8.21614 2.46297 8.41147 2.36361C8.61529 2.25915 8.83526 2.21498 9.0722 2.22772C9.30999 2.23961 9.55289 2.31435 9.80428 2.45363C9.79409 2.43325 9.78644 2.42136 9.78134 2.41202C9.77455 2.40353 9.77031 2.39758 9.76266 2.39334C9.65735 2.18612 9.62678 1.92964 9.67519 1.6256C9.74737 1.04385 10.0047 0.639601 10.448 0.413697C10.6204 0.325373 10.8073 0.276971 11.0111 0.271026C11.2183 0.259136 11.4094 0.287156 11.5945 0.349152C11.7763 0.411998 11.9453 0.50457 12.0964 0.627713C12.2485 0.753405 12.3707 0.907968 12.465 1.09226C12.6111 1.37846 12.6468 1.6757 12.572 1.98059C12.4947 2.28717 12.3189 2.54536 12.0455 2.75683C12.6425 2.91394 13.0315 3.16702 13.2132 3.52031C13.3134 3.72159 13.3593 3.92965 13.3457 4.14876C13.3313 4.36617 13.2642 4.5666 13.1385 4.7475C13.0145 4.92669 12.8446 5.07276 12.6281 5.18316C12.3877 5.30546 12.0939 5.3632 11.7474 5.35131C11.8068 5.41416 11.8374 5.44559 11.8408 5.44729L12.2051 5.7216C12.279 5.77426 12.3546 5.87702 12.4327 6.02649C12.6187 6.39167 12.6459 6.77299 12.516 7.1645C12.386 7.56111 12.1279 7.85495 11.744 8.05198C11.4102 8.22438 11.085 8.26176 10.769 8.16494C10.4531 8.06642 10.1261 7.86939 9.79323 7.57724C9.77709 7.31227 9.83314 7.07618 9.96223 6.86896C10.1711 6.5386 10.4327 6.29316 10.7435 6.13604C10.876 6.0664 11.0119 6.04432 11.1486 6.0681C11.2862 6.09443 11.3822 6.15728 11.4357 6.26343C11.4646 6.32033 11.4586 6.38912 11.4238 6.47065C11.3856 6.55218 11.3355 6.60993 11.2735 6.6422C11.2208 6.66853 11.1436 6.67193 11.0442 6.65409L10.9312 6.82735C11.0051 6.91058 11.0816 6.96068 11.1563 6.97002C11.2302 6.98361 11.3168 6.96323 11.4213 6.91057C11.5461 6.84773 11.6268 6.74412 11.6633 6.60229C11.7007 6.46131 11.6837 6.32033 11.6106 6.17511C11.5138 5.98487 11.372 5.87107 11.1843 5.82776C10.9966 5.78445 10.792 5.81756 10.5686 5.92882C10.3979 6.01799 10.2603 6.12075 10.155 6.2354C10.0489 6.35005 9.92655 6.53859 9.78812 6.80102C9.83823 6.40356 9.89429 6.06131 9.96053 5.76917C10.0234 5.47702 10.0981 5.22819 10.1805 5.02776C10.2637 4.82903 10.3724 4.63794 10.51 4.45026C10.7351 4.14877 11.0051 3.9169 11.3168 3.75724C11.4909 3.66807 11.6438 3.63156 11.7703 3.6443C11.902 3.65619 11.9945 3.71903 12.0523 3.83029C12.0846 3.89483 12.0922 3.96276 12.0744 4.0324C12.0565 4.10204 12.0192 4.15215 11.9606 4.18272C11.8977 4.215 11.84 4.20991 11.789 4.17169L11.7338 4.40269C11.8519 4.43072 11.9724 4.41457 12.0922 4.35088C12.2179 4.28718 12.2969 4.19802 12.3291 4.08082C12.3572 3.96532 12.3419 3.84558 12.2807 3.72753C12.2179 3.60439 12.1347 3.51267 12.0319 3.45407C11.9291 3.39292 11.8111 3.36828 11.682 3.37507C11.5512 3.38442 11.4094 3.42858 11.2531 3.50671C11.0348 3.62136 10.8557 3.75046 10.7147 3.89653C10.5754 4.0443 10.3945 4.29313 10.1737 4.64812C10.1924 4.49525 10.2586 4.25323 10.3656 3.92116C10.414 3.79208 10.4565 3.67147 10.4922 3.55173C10.5728 3.30374 10.6646 3.03793 10.7699 2.75173C10.8455 2.50459 10.9779 2.19291 11.169 1.81838L11.1138 1.78355C10.9831 1.97294 10.8676 2.15979 10.775 2.34918C10.5839 2.73984 10.4344 3.10671 10.3232 3.44812C10.2569 3.66638 10.1516 3.9908 10.0123 4.42307C9.95629 4.00439 9.89175 3.72497 9.82126 3.58994C9.69981 3.35299 9.55035 3.18824 9.37879 3.10246C9.20469 3.01414 9.03569 3.01159 8.86413 3.10076C8.72316 3.1721 8.62973 3.27487 8.58132 3.40991C8.53206 3.54494 8.54396 3.67742 8.61276 3.81331C8.69344 3.96957 8.80978 4.06129 8.96434 4.08507L9.05522 3.88973C8.93292 3.8702 8.85564 3.82688 8.81997 3.76064C8.79874 3.71733 8.79109 3.66468 8.79704 3.60014C8.80213 3.5356 8.82081 3.4736 8.85393 3.40991C8.87432 3.36829 8.90319 3.33941 8.93801 3.32073C9.05861 3.26128 9.17496 3.26128 9.28622 3.32073C9.39832 3.38357 9.50024 3.49991 9.58856 3.67232C9.70746 3.90841 9.78473 4.20312 9.81531 4.55981C9.82805 4.76109 9.82805 4.9233 9.81871 5.04729C9.80767 5.17043 9.76605 5.42691 9.69217 5.81163C9.6497 6.07066 9.61318 6.35346 9.58176 6.65834C9.5291 6.52756 9.47136 6.39337 9.40088 6.25579C9.28283 6.02479 9.13336 5.86429 8.95416 5.77172C8.77327 5.6783 8.59577 5.6783 8.41827 5.76917C8.33759 5.81078 8.27134 5.86937 8.22464 5.94835C8.17538 6.02478 8.1465 6.10802 8.14056 6.19889C8.13546 6.29061 8.15669 6.37809 8.2017 6.46641C8.26455 6.58955 8.38174 6.67532 8.55584 6.72373L8.60425 6.57087C8.50744 6.51651 8.44544 6.46131 8.41487 6.40356C8.3809 6.33647 8.37666 6.25749 8.40214 6.16832C8.42592 6.0766 8.47092 6.0129 8.53801 5.97808C8.64247 5.92373 8.77496 5.9526 8.92698 6.05961C9.08155 6.16747 9.20809 6.32288 9.3134 6.52585C9.42975 6.756 9.51467 7.11185 9.56818 7.59933C9.12911 7.82353 8.72909 7.90082 8.36306 7.82608C7.99957 7.75475 7.70148 7.49402 7.47558 7.05155C7.35074 6.80866 7.28704 6.55388 7.28449 6.28976C7.28195 6.02479 7.33714 5.78615 7.4518 5.57723ZM14.1449 9.75051C14.0582 9.58151 13.9495 9.43969 13.8179 9.32334C13.6846 9.20444 13.5359 9.11611 13.3729 9.05327C13.209 8.99467 13.0442 8.96749 12.8752 8.97598C12.7088 8.98193 12.5499 9.02185 12.4013 9.09913C12.2162 9.19425 12.0633 9.31909 11.9461 9.4813C11.8281 9.64011 11.7576 9.81505 11.7338 10.0053C11.7083 10.1896 11.7338 10.3594 11.8128 10.5148C11.9138 10.7127 12.0718 10.852 12.285 10.9242C12.4964 10.9972 12.6977 10.987 12.8888 10.8868C13.006 10.8282 13.0952 10.7501 13.1546 10.6575C13.2158 10.5633 13.2497 10.4537 13.2557 10.3255C13.2625 10.1989 13.2395 10.0656 13.1852 9.92376L12.9126 9.96623C12.9729 10.1233 12.9839 10.2618 12.9525 10.3832C12.9185 10.5021 12.8421 10.5964 12.7147 10.6592C12.617 10.711 12.5015 10.7119 12.3742 10.6609C12.2451 10.6083 12.1482 10.5165 12.0828 10.3892C12.0251 10.2771 12.0056 10.1497 12.0259 10.0087C12.0463 9.86432 12.1015 9.73183 12.1941 9.60274C12.2884 9.4796 12.4013 9.38023 12.5347 9.31399C12.6892 9.23416 12.8582 9.20613 13.0417 9.23076C13.2251 9.25624 13.3975 9.32333 13.5563 9.43034C13.7134 9.53734 13.8357 9.67578 13.9215 9.84224C14.0735 10.1412 14.0939 10.452 13.9852 10.7739C13.8765 11.0958 13.6718 11.3327 13.3737 11.4856C13.0637 11.6444 12.7376 11.6843 12.3962 11.6045C12.054 11.5272 11.6939 11.3276 11.3092 11.0091C11.1036 10.8384 10.9185 10.6456 10.7537 10.4367C10.589 10.2244 10.4404 9.99086 10.307 9.73183C10.0675 9.25879 9.90704 8.69827 9.82466 8.05538L9.81106 7.93563C10.0896 8.19975 10.4132 8.3781 10.7801 8.46982C11.1453 8.56239 11.4858 8.53097 11.7958 8.37131C12.0896 8.22268 12.3308 8.02057 12.5194 7.77343C12.7062 7.5229 12.8175 7.25198 12.8531 6.96068C12.8896 6.66513 12.837 6.38488 12.7003 6.11311C12.5516 5.82012 12.3988 5.62478 12.2434 5.52372C12.4701 5.48295 12.6519 5.43285 12.7869 5.36066C13.0255 5.23837 13.2158 5.06767 13.3618 4.85111C13.5088 4.63284 13.592 4.39759 13.6132 4.14196C13.6344 3.88633 13.5843 3.64431 13.4671 3.41246C13.2676 3.0201 12.9262 2.75341 12.4421 2.61073C12.8803 2.06211 12.9559 1.50924 12.6697 0.953818C12.5262 0.669314 12.3189 0.444261 12.0497 0.276956C11.7805 0.111349 11.4858 0.0187812 11.175 0.00264517C10.8608 -0.0143401 10.561 0.0510566 10.2748 0.19713C9.80681 0.434924 9.52995 0.834078 9.44757 1.38525C9.39746 1.66891 9.40257 1.91095 9.46287 2.10798L9.37454 2.09695C9.11297 2.02731 8.90236 1.99503 8.74185 2.00437C8.58303 2.00861 8.41997 2.05533 8.25352 2.14026C8.02252 2.25746 7.83568 2.42051 7.6998 2.62434C7.55967 2.82816 7.48917 3.05235 7.48153 3.2927C7.47388 3.53304 7.53164 3.77338 7.65478 4.01202C7.7465 4.19376 7.85521 4.34579 7.97581 4.46214C8.09385 4.57933 8.24841 4.67956 8.43695 4.76788C8.22039 4.76788 8.03525 4.80609 7.88578 4.88422C7.61571 5.02095 7.40254 5.21373 7.24203 5.45917C7.08407 5.70631 7.00254 5.98148 6.9932 6.28382C6.98641 6.587 7.05775 6.88849 7.21147 7.18743C7.22506 7.21376 7.24372 7.23329 7.25816 7.25877C7.23268 7.24518 7.21401 7.22565 7.18684 7.21122C6.8862 7.06005 6.58554 6.98701 6.28321 6.9955C5.98002 7.00314 5.70486 7.08467 5.45857 7.24348C5.21314 7.40314 5.0212 7.61546 4.88362 7.88638C4.80549 8.035 4.76728 8.22269 4.76728 8.43755C4.67896 8.24901 4.57874 8.09445 4.46239 7.97556C4.34434 7.85496 4.19317 7.74625 4.01142 7.65538C3.77193 7.53139 3.53244 7.47448 3.2921 7.48298C3.05091 7.48977 2.82756 7.5611 2.62374 7.70038C2.41906 7.83627 2.25771 8.02396 2.13881 8.25411C2.05473 8.42056 2.00717 8.58447 2.00292 8.74328C1.99443 8.90295 2.02586 9.11357 2.0955 9.37429L2.10738 9.46431C1.9095 9.40401 1.66831 9.39892 1.3838 9.44818C0.832629 9.53141 0.435174 9.80742 0.196531 10.2762C0.0496078 10.5616 -0.0149388 10.8614 0.00289574 11.1747C0.0173332 11.4873 0.109901 11.7811 0.277207 12.0512C0.443663 12.3204 0.668714 12.5268 0.952368 12.6694C1.50864 12.9556 2.06066 12.8801 2.61099 12.4427C2.75281 12.9276 3.01865 13.2682 3.41186 13.4677C3.64371 13.5849 3.88743 13.6359 4.14136 13.6147C4.39614 13.5917 4.6331 13.5085 4.85051 13.3633C5.06792 13.2164 5.23777 13.0261 5.36007 12.7875C5.4314 12.6525 5.48235 12.4707 5.52227 12.2431C5.62418 12.3994 5.81866 12.5531 6.1125 12.7009C6.38427 12.8376 6.66539 12.8902 6.96009 12.8537C7.25224 12.8189 7.52229 12.7068 7.77112 12.52C8.01911 12.3331 8.22209 12.0911 8.37156 11.7964C8.53037 11.4856 8.56263 11.1467 8.46836 10.7807C8.37664 10.4138 8.19916 10.0902 7.93504 9.81167L8.05393 9.8261C8.69937 9.90678 9.25734 10.0681 9.73123 10.3076C9.98941 10.441 10.2238 10.5896 10.4353 10.7543C10.6459 10.92 10.8378 11.1051 11.0094 11.3106C11.327 11.6945 11.5257 12.0537 11.6047 12.3977C11.6837 12.7374 11.6446 13.0643 11.485 13.3743C11.3321 13.6733 11.0952 13.8779 10.7716 13.9866C10.4506 14.0945 10.1397 14.075 9.84079 13.9221C9.67348 13.8355 9.53505 13.7149 9.42889 13.5569C9.32188 13.3981 9.2548 13.2266 9.23017 13.0431C9.20469 12.8588 9.23442 12.6898 9.3117 12.5353C9.38049 12.4028 9.47815 12.2898 9.60299 12.1955C9.73123 12.103 9.86457 12.0478 10.0089 12.0274C10.1499 12.007 10.2765 12.0257 10.3886 12.0851C10.5151 12.1497 10.6077 12.2457 10.6595 12.3756C10.7104 12.5021 10.7096 12.6176 10.6578 12.7153C10.5949 12.8427 10.5015 12.9183 10.3818 12.9531C10.2612 12.9845 10.1236 12.9743 9.96393 12.9132L9.92232 13.1875C10.0641 13.2401 10.1983 13.2639 10.324 13.2571C10.4514 13.2503 10.5618 13.2164 10.6561 13.1552C10.7495 13.0958 10.8276 13.0066 10.8871 12.8903C10.9865 12.6975 10.9966 12.4979 10.9228 12.2856C10.8506 12.0724 10.713 11.9153 10.5134 11.8134C10.3588 11.7327 10.1881 11.7089 10.003 11.7327C9.81445 11.759 9.63951 11.8295 9.4807 11.9467C9.31849 12.0639 9.1945 12.2168 9.09768 12.4028C9.02125 12.5522 8.98134 12.7094 8.97454 12.8758C8.96605 13.0448 8.99322 13.2104 9.05437 13.3743C9.11552 13.5374 9.20383 13.6852 9.32273 13.8176C9.44078 13.9501 9.58091 14.058 9.75076 14.1455C9.98176 14.2644 10.2289 14.3153 10.4922 14.2983C10.7554 14.2822 11 14.2024 11.2183 14.0614C11.4391 13.9221 11.6115 13.7361 11.7313 13.5009C11.8179 13.331 11.8697 13.134 11.8824 12.9098C11.8969 12.6881 11.8739 12.4554 11.8128 12.2134C11.7491 11.9696 11.6582 11.742 11.5334 11.5348C11.7406 11.6588 11.9673 11.7505 12.2119 11.8134C12.4548 11.8745 12.6875 11.8983 12.9092 11.883C13.1334 11.872 13.3296 11.8185 13.5003 11.7327C13.7347 11.613 13.9215 11.4406 14.0616 11.218C14.2018 11.0006 14.2807 10.7552 14.2977 10.4936C14.3139 10.2303 14.2629 9.98236 14.1449 9.75051Z" fill="#64471C"/>
<path d="M74.4826 65.5378C74.2567 65.9811 73.8533 66.2376 73.2698 66.3106C72.9675 66.3607 72.711 66.331 72.5038 66.2248C72.4987 66.2172 72.4919 66.2129 72.4843 66.2045C72.4758 66.1994 72.4622 66.1917 72.4435 66.1832C72.5819 66.4338 72.6558 66.6775 72.6686 66.9136C72.6821 67.1522 72.6371 67.3705 72.5327 67.576C72.4333 67.7705 72.2974 67.9251 72.1233 68.0372C71.9518 68.1501 71.7598 68.2155 71.5518 68.2316C71.3428 68.2486 71.1416 68.2062 70.9428 68.1043C70.5556 67.9055 70.2541 67.5514 70.0367 67.0427C70.0316 67.0775 70.029 67.1064 70.0231 67.1268C70.0188 67.1471 70.0163 67.1616 70.0155 67.1701C69.9806 67.3985 69.9475 67.576 69.9169 67.7009C69.8847 67.8299 69.8447 67.9446 69.7929 68.0457C69.6859 68.2563 69.528 68.4176 69.319 68.5348C69.111 68.6495 68.8715 68.7055 68.6082 68.703C68.3415 68.6996 68.0868 68.6367 67.8439 68.5102C67.4031 68.2843 67.1424 67.9879 67.0693 67.6244C66.9971 67.2584 67.0727 66.8567 67.297 66.4185C67.7844 66.472 68.1403 66.556 68.3713 66.6732C68.5734 66.7786 68.7288 66.9051 68.8375 67.0588C68.9445 67.2125 68.9734 67.3442 68.9173 67.4486C68.8842 67.5149 68.8197 67.5607 68.728 67.5854C68.6379 67.6091 68.5598 67.6057 68.4927 67.5718C68.4358 67.5421 68.3798 67.4775 68.3271 67.3815L68.1725 67.4316C68.2209 67.6049 68.3076 67.7221 68.429 67.7849C68.519 67.83 68.6057 67.8512 68.6974 67.8452C68.7891 67.8401 68.8715 67.8121 68.9488 67.7629C69.0261 67.7145 69.0863 67.6491 69.128 67.5675C69.218 67.3909 69.218 67.2134 69.1237 67.0325C69.032 66.8533 68.8715 66.7038 68.6405 66.5866C68.502 66.5161 68.3696 66.4584 68.2379 66.4049C68.5428 66.3743 68.8256 66.3361 69.0838 66.2945C69.4694 66.2197 69.7241 66.179 69.849 66.1679C69.9721 66.1586 70.136 66.1586 70.3373 66.1705C70.6931 66.2019 70.9879 66.2792 71.2223 66.3981C71.3955 66.4864 71.5127 66.5883 71.5747 66.7004C71.6358 66.8134 71.6358 66.928 71.5747 67.0486C71.5569 67.0834 71.528 67.1123 71.4864 67.1336C71.4235 67.1667 71.3598 67.1854 71.2953 67.1888C71.2316 67.1947 71.1781 67.1888 71.1356 67.1667C71.0685 67.1319 71.0252 67.0537 71.0065 66.9314L70.8112 67.0223C70.835 67.1769 70.9267 67.2932 71.0821 67.3739C71.218 67.4418 71.3522 67.4546 71.4864 67.4053C71.6214 67.3578 71.7242 67.2643 71.7964 67.1225C71.8847 66.951 71.883 66.782 71.7947 66.6087C71.7072 66.4355 71.5441 66.286 71.3063 66.1645C71.1704 66.0949 70.891 66.0304 70.4732 65.9743C70.9046 65.835 71.2299 65.7306 71.4482 65.6635C71.7904 65.5531 72.1564 65.4019 72.5479 65.2125C72.7356 65.1199 72.9225 65.0036 73.1119 64.8728L73.0779 64.8185C72.7042 65.0095 72.3917 65.1412 72.1454 65.2168C71.8583 65.3221 71.5925 65.4138 71.3454 65.4936C71.2265 65.5293 71.1042 65.5717 70.9734 65.6202C70.6439 65.728 70.4019 65.7934 70.249 65.8129C70.6031 65.593 70.8528 65.4121 71.0006 65.2728C71.1467 65.1318 71.2749 64.9526 71.3896 64.7344C71.4677 64.5773 71.5127 64.4354 71.5212 64.3046C71.528 64.1764 71.5033 64.0584 71.4422 63.9556C71.3836 63.8528 71.2919 63.7679 71.1687 63.7068C71.0507 63.6456 70.931 63.6286 70.8155 63.6567C70.6983 63.6898 70.6091 63.7679 70.5454 63.8953C70.4825 64.0134 70.4656 64.1356 70.4936 64.252L70.7237 64.1976C70.6847 64.1475 70.6813 64.0889 70.7135 64.0252C70.7441 63.9675 70.7934 63.931 70.863 63.9123C70.9335 63.8953 71.0023 63.9021 71.066 63.9335C71.1772 63.9913 71.2401 64.0847 71.252 64.2155C71.2656 64.3437 71.2282 64.4966 71.1382 64.6698C70.9794 64.9824 70.7484 65.2507 70.446 65.4775C70.2592 65.6142 70.0673 65.7238 69.8685 65.8062C69.6673 65.8877 69.4184 65.9624 69.128 66.0261C68.835 66.0924 68.4927 66.1501 68.0953 66.1985C68.3585 66.0601 68.5462 65.9386 68.6617 65.8325C68.7764 65.7272 68.88 65.5887 68.9675 65.4189C69.0796 65.1955 69.1127 64.9909 69.0694 64.8032C69.0243 64.6155 68.9106 64.4728 68.7212 64.3768C68.5768 64.3021 68.4358 64.286 68.294 64.3225C68.1539 64.3599 68.0494 64.4414 67.9857 64.5662C67.9322 64.6698 67.9127 64.7565 67.9254 64.8295C67.9356 64.9051 67.9857 64.9824 68.0689 65.0563L68.243 64.9433C68.2243 64.8431 68.2286 64.7658 68.2558 64.7148C68.2872 64.6503 68.345 64.601 68.4248 64.5628C68.508 64.528 68.5768 64.5221 68.632 64.5509C68.7399 64.6044 68.8027 64.7013 68.8282 64.838C68.852 64.9747 68.8299 65.1098 68.7602 65.2431C68.6031 65.5548 68.3585 65.8155 68.0282 66.0244C67.8209 66.1526 67.584 66.2095 67.3207 66.1934C67.0277 65.8597 66.8298 65.5327 66.7322 65.2168C66.6354 64.9025 66.6727 64.5739 66.8434 64.2427C67.0413 63.8579 67.3352 63.6006 67.7318 63.4698C68.1241 63.3416 68.5055 63.3671 68.8706 63.5539C69.0201 63.632 69.1229 63.7076 69.1755 63.7807L69.449 64.1458C69.4515 64.1492 69.483 64.1798 69.545 64.2393C69.5339 63.8928 69.5908 63.5989 69.7131 63.3586C69.8235 63.142 69.9696 62.973 70.1496 62.8465C70.3297 62.7233 70.5301 62.6554 70.7484 62.6401C70.9666 62.6265 71.1747 62.6732 71.3768 62.7726C71.7293 62.9552 71.9815 63.3433 72.1386 63.9412C72.3509 63.6686 72.6091 63.4919 72.9157 63.4146C73.2206 63.3399 73.5178 63.3747 73.8032 63.5216C73.99 63.6167 74.1437 63.7382 74.2686 63.8911C74.3926 64.0414 74.4843 64.2104 74.5471 64.3938C74.6091 64.5773 74.6371 64.7683 74.6261 64.9764C74.6202 65.1794 74.5709 65.3654 74.4826 65.5378ZM67.4447 70.4109C67.3267 70.6198 67.1653 70.7778 66.9547 70.8839C66.8519 70.9357 66.7398 70.9756 66.6107 71.0087C66.4851 71.0385 66.3067 71.0724 66.0791 71.1064C66.0698 71.1081 66.0553 71.1107 66.0349 71.1132C66.0154 71.1209 65.9857 71.1226 65.95 71.1276C66.4613 71.3451 66.8146 71.6474 67.0124 72.0338C67.1144 72.2317 67.1568 72.4338 67.1407 72.6419C67.1245 72.8508 67.0591 73.0436 66.9453 73.2143C66.8332 73.3875 66.6787 73.5234 66.4842 73.6245C66.2804 73.7289 66.0604 73.7731 65.8226 73.7604C65.5865 73.7468 65.3436 73.672 65.0914 73.5336C65.1016 73.5531 65.1092 73.5667 65.1143 73.5761C65.1211 73.5829 65.1262 73.5897 65.133 73.5956C65.2392 73.8037 65.2689 74.0585 65.2205 74.3608C65.1483 74.9442 64.8901 75.3476 64.4468 75.5744C64.2753 75.661 64.0884 75.712 63.8846 75.7171C63.6782 75.7281 63.4863 75.6992 63.3012 75.6381C63.1186 75.5752 62.9513 75.4835 62.7984 75.3595C62.6481 75.2347 62.5249 75.0801 62.4307 74.895C62.2846 74.6096 62.2489 74.3124 62.3237 74.0075C62.4018 73.7001 62.5767 73.4419 62.8502 73.2296C62.2523 73.0725 61.8642 72.8202 61.6825 72.4678C61.5822 72.2657 61.5364 72.0584 61.55 71.8393C61.5636 71.6211 61.6315 71.4198 61.7564 71.2406C61.8812 71.0606 62.051 70.9162 62.2668 70.8049C62.5088 70.6818 62.8018 70.6249 63.1474 70.6368C63.0888 70.5739 63.0583 70.5425 63.054 70.5408L62.6897 70.2673C62.6167 70.2138 62.5402 70.1119 62.4629 69.9633C62.2769 69.5964 62.2498 69.216 62.3788 68.8219C62.5088 68.4261 62.767 68.1323 63.1508 67.9344C63.4846 67.7637 63.8107 67.7255 64.1258 67.824C64.4417 67.9208 64.7695 68.1187 65.1016 68.4109C65.1186 68.675 65.0617 68.9119 64.9343 69.1191C64.7245 69.4495 64.463 69.6932 64.153 69.8521C64.0188 69.92 63.8838 69.9438 63.747 69.9183C63.6103 69.8937 63.5126 69.8308 63.46 69.723C63.4311 69.6678 63.437 69.5981 63.4719 69.5174C63.5092 69.4359 63.5602 69.3799 63.6222 69.3467C63.6748 69.3204 63.7513 69.3162 63.8515 69.334L63.9644 69.159C63.8906 69.0767 63.8141 69.0274 63.7385 69.0164C63.6655 69.0045 63.578 69.0249 63.4744 69.0767C63.3496 69.1387 63.2689 69.244 63.2324 69.385C63.1941 69.5268 63.2111 69.6678 63.285 69.813C63.381 70.0032 63.5245 70.1162 63.7114 70.1612C63.8982 70.2036 64.1046 70.1705 64.3271 70.0576C64.4978 69.9701 64.6354 69.8665 64.7407 69.7527C64.8468 69.638 64.9691 69.4495 65.1067 69.1854C65.0583 69.5837 65.0014 69.9268 64.936 70.2189C64.8723 70.5111 64.7967 70.7582 64.7152 70.9595C64.6328 71.1582 64.5224 71.3502 64.3857 71.5378C64.1598 71.8393 63.8906 72.0712 63.578 72.2291C63.4039 72.32 63.2527 72.3565 63.1254 72.3438C62.9946 72.3302 62.9011 72.2691 62.8425 72.1561C62.812 72.0933 62.8035 72.0253 62.8222 71.954C62.8383 71.8852 62.8757 71.8359 62.9351 71.8037C62.998 71.7722 63.0566 71.7765 63.1067 71.8164L63.1619 71.5837C63.0438 71.5565 62.9232 71.5744 62.8035 71.6372C62.6778 71.7001 62.5988 71.7892 62.5665 71.9056C62.5377 72.0219 62.5538 72.1417 62.6158 72.2606C62.6778 72.382 62.761 72.4737 62.8638 72.5332C62.9674 72.5952 63.0846 72.619 63.2137 72.6113C63.3436 72.6037 63.4863 72.5595 63.6426 72.4797C63.8608 72.3667 64.0409 72.2376 64.181 72.0916C64.3203 71.9455 64.5012 71.6941 64.7211 71.34C64.7033 71.4928 64.6371 71.7349 64.53 72.0652C64.4816 72.1943 64.44 72.3175 64.4027 72.4364C64.3228 72.6835 64.2303 72.9502 64.1258 73.2364C64.0502 73.4827 63.9177 73.7952 63.7266 74.1689L63.7827 74.2028C63.9126 74.0143 64.0273 73.8266 64.1215 73.6389C64.3109 73.2457 64.4613 72.8831 64.5717 72.5391C64.6387 72.3209 64.7432 71.9956 64.8833 71.5633C64.9394 71.9829 65.0048 72.2623 65.0744 72.3981C65.1959 72.6359 65.3445 72.7981 65.5169 72.8856C65.6901 72.9739 65.8608 72.9756 66.0324 72.8873C66.1725 72.8151 66.2659 72.7115 66.3152 72.5773C66.3636 72.4432 66.3509 72.309 66.2829 72.1731C66.2014 72.0168 66.0859 71.9277 65.9313 71.9013L65.8405 72.0975C65.9627 72.1162 66.04 72.1587 66.0757 72.2266C66.0969 72.2708 66.1046 72.3234 66.0978 72.3863C66.0927 72.4525 66.0749 72.5145 66.0417 72.5773C66.0214 72.619 65.9925 72.6487 65.9585 72.6657C65.8379 72.7268 65.7207 72.7268 65.6095 72.6657C65.4974 72.6037 65.3954 72.4865 65.3063 72.3141C65.1882 72.0788 65.1118 71.785 65.0795 71.4283C65.0676 71.227 65.0676 71.0639 65.077 70.94C65.088 70.816 65.1288 70.5612 65.2035 70.1748C65.2451 69.9166 65.2816 69.6346 65.3131 69.3289C65.3666 69.4605 65.4252 69.593 65.4948 69.7315C65.6129 69.9633 65.7623 70.1247 65.9424 70.2155C66.1224 70.3081 66.2991 70.3081 66.4766 70.2189C66.5581 70.1765 66.6235 70.1179 66.6719 70.0389C66.7211 69.9633 66.7492 69.8801 66.7543 69.7884C66.7594 69.6966 66.739 69.61 66.6931 69.5208C66.632 69.3985 66.5139 69.3119 66.3398 69.2635L66.2914 69.4181C66.3874 69.4707 66.4494 69.5268 66.4808 69.5837C66.5148 69.6499 66.519 69.7298 66.4936 69.8198C66.4698 69.9107 66.4248 69.9752 66.3577 70.01C66.2524 70.0635 66.1207 70.0363 65.9687 69.9285C65.8133 69.8198 65.6876 69.6644 65.5823 69.4622C65.4659 69.2321 65.3801 68.8754 65.3275 68.3896C65.7657 68.1637 66.1666 68.089 66.5335 68.1603C66.897 68.2333 67.1933 68.4941 67.4192 68.9348C67.5449 69.1786 67.6086 69.4334 67.6103 69.7C67.6137 69.9633 67.5585 70.2019 67.4447 70.4109ZM64.716 65.9539C64.6515 65.8274 64.5784 65.7119 64.5063 65.5972C64.6209 65.6694 64.7364 65.7425 64.8638 65.8079C65.1976 65.9794 65.556 66.117 65.9364 66.2206C66.3169 66.3242 66.6965 66.3887 67.0778 66.4108C67.0107 66.4941 66.9657 66.5611 66.9402 66.6096C66.8112 66.8635 66.7526 67.1251 66.7611 67.4011C66.7713 67.6261 66.8426 67.8367 66.9496 68.0406C66.7458 67.9327 66.5352 67.8614 66.3101 67.852C66.0349 67.8435 65.7717 67.903 65.5194 68.0312C65.4702 68.0559 65.4022 68.1026 65.3199 68.1688C65.2969 67.7875 65.2324 67.407 65.1305 67.0265C65.026 66.6469 64.8876 66.2894 64.716 65.9539ZM74.6193 63.9369C74.4512 63.6669 74.227 63.4605 73.9433 63.3153C73.387 63.0308 72.8342 63.1063 72.2838 63.5446C72.1429 63.0613 71.877 62.7182 71.4838 62.5195C71.252 62.4015 71.0082 62.3513 70.7535 62.3734C70.4995 62.3947 70.2626 62.4779 70.0452 62.624C69.8286 62.7709 69.6579 62.9603 69.5356 63.1989C69.4651 63.3348 69.4133 63.5174 69.3726 63.7433C69.2715 63.5879 69.0762 63.435 68.7832 63.2872C68.5123 63.1505 68.2303 63.097 67.9356 63.1335C67.6435 63.1683 67.3734 63.2813 67.1246 63.4664C66.8766 63.655 66.6736 63.897 66.5241 64.1908C66.3653 64.5008 66.3339 64.8414 66.4265 65.2066C66.519 65.5734 66.6965 65.8962 66.9606 66.1764L66.8417 66.1628C66.1963 66.0805 65.6383 65.9191 65.1644 65.6788C64.9054 65.5463 64.6719 65.3977 64.4595 65.2329C64.2498 65.0681 64.057 64.883 63.8863 64.6766C63.5687 64.2936 63.3699 63.9335 63.2918 63.5904C63.212 63.2499 63.2511 62.9221 63.4107 62.6138C63.5636 62.314 63.8005 62.1093 64.1232 61.9997C64.4443 61.891 64.7559 61.9123 65.054 62.0643C65.2213 62.1509 65.3606 62.2732 65.4668 62.4295C65.5738 62.5891 65.64 62.7615 65.6655 62.9433C65.6901 63.1276 65.6621 63.2974 65.5831 63.452C65.5152 63.5862 65.4175 63.6983 65.2918 63.7925C65.1644 63.8851 65.0311 63.9412 64.8867 63.9607C64.7449 63.9802 64.6184 63.9624 64.5071 63.9029C64.3797 63.8384 64.288 63.7416 64.2362 63.6133C64.1852 63.486 64.1861 63.3696 64.2371 63.2719C64.2999 63.1454 64.3925 63.0681 64.5131 63.035C64.6345 63.0036 64.7721 63.0138 64.9317 63.0732L64.9725 62.7998C64.8315 62.7471 64.6973 62.725 64.5717 62.7301C64.4443 62.7378 64.3339 62.7709 64.2396 62.8312C64.1462 62.8923 64.0681 62.9798 64.0086 63.0978C63.9101 63.2906 63.8982 63.4902 63.9721 63.7025C64.0451 63.914 64.1827 64.0728 64.3823 64.1747C64.5368 64.252 64.7067 64.2792 64.8927 64.252C65.0812 64.2291 65.2553 64.1577 65.415 64.0405C65.578 63.9242 65.702 63.7696 65.7971 63.5862C65.8744 63.4367 65.9143 63.277 65.9211 63.1114C65.9296 62.9416 65.9016 62.7777 65.8413 62.6138C65.7802 62.4507 65.6918 62.3029 65.5729 62.1688C65.4549 62.0371 65.3148 61.9284 65.1458 61.8426C64.9139 61.7229 64.6668 61.6728 64.4027 61.6881C64.1402 61.7059 63.8956 61.784 63.6782 61.925C63.4557 62.0643 63.2833 62.252 63.1644 62.4855C63.0769 62.6579 63.0251 62.8533 63.0132 63.0783C62.9988 63.2983 63.0217 63.5327 63.0829 63.7764C63.1457 64.0184 63.2383 64.2477 63.3623 64.4533C63.1542 64.3284 62.9275 64.2359 62.6846 64.1747C62.4417 64.1127 62.209 64.0898 61.9865 64.1042C61.7623 64.1161 61.5661 64.1688 61.3954 64.2537C61.161 64.3751 60.9733 64.5475 60.834 64.7684C60.6931 64.9875 60.6149 65.2312 60.5979 65.4936C60.5818 65.7586 60.6328 66.0057 60.7508 66.2359C60.8374 66.4057 60.9462 66.5467 61.0786 66.6639C61.2111 66.782 61.3606 66.8711 61.5228 66.9314C61.6859 66.9926 61.8515 67.0206 62.0205 67.0121C62.1869 67.0062 62.3457 66.9645 62.4952 66.8881C62.6795 66.7938 62.8324 66.669 62.9496 66.5068C63.0668 66.3471 63.1372 66.1722 63.1619 65.9836C63.1873 65.7977 63.1619 65.6278 63.0829 65.4732C62.9818 65.2745 62.8239 65.1361 62.6107 65.0639C62.3992 64.9909 62.198 65.001 62.0069 65.1004C61.8905 65.1599 61.8013 65.2363 61.741 65.3314C61.6799 65.4248 61.6468 65.5361 61.64 65.6626C61.6332 65.7883 61.6553 65.9225 61.7088 66.0635L61.9822 66.0236C61.9228 65.863 61.9118 65.7255 61.9423 65.6049C61.9772 65.4843 62.0536 65.3917 62.181 65.3289C62.2786 65.2779 62.3942 65.2762 62.5215 65.3272C62.6506 65.3798 62.7466 65.4715 62.812 65.5981C62.8706 65.7093 62.8893 65.8367 62.8697 65.9786C62.8493 66.1221 62.7941 66.2546 62.7016 66.3837C62.6082 66.5093 62.4952 66.607 62.361 66.6741C62.2073 66.7531 62.0374 66.782 61.854 66.7556C61.6706 66.7318 61.4982 66.6648 61.3393 66.5569C61.1831 66.4516 61.06 66.3123 60.9733 66.145C60.8222 65.8469 60.8001 65.5361 60.9096 65.2142C61.0183 64.8906 61.223 64.6545 61.522 64.5017C61.8319 64.342 62.1589 64.3038 62.4995 64.3836C62.8426 64.4609 63.2018 64.6596 63.5865 64.9781C63.7912 65.148 63.9772 65.3408 64.1411 65.5514C64.3075 65.7637 64.4553 65.9955 64.5886 66.2546C64.8281 66.7293 64.9895 67.2881 65.0702 67.9327L65.0846 68.0516C64.8052 67.7875 64.4816 67.6091 64.1148 67.5183C63.7504 67.424 63.4099 67.4571 63.0999 67.6159C62.8052 67.7654 62.564 67.9675 62.3763 68.2155C62.1903 68.4652 62.0782 68.7361 62.0425 69.0274C62.006 69.3213 62.0587 69.6032 62.1954 69.8741C62.344 70.1671 62.496 70.3633 62.6523 70.4635C62.4256 70.5043 62.2438 70.5552 62.1079 70.6257C61.8701 70.7497 61.6799 70.9187 61.5338 71.1361C61.3869 71.3536 61.3037 71.5905 61.2816 71.8444C61.2612 72.1001 61.3105 72.3438 61.4294 72.5756C61.6281 72.968 61.9695 73.2347 62.4536 73.3757C62.0154 73.9243 61.9398 74.478 62.226 75.0343C62.3695 75.3179 62.5759 75.543 62.8459 75.7111C63.1152 75.8767 63.409 75.9685 63.7207 75.9846C64.0349 76.0016 64.3356 75.937 64.6209 75.7901C65.0889 75.5506 65.3649 75.154 65.4473 74.6028C65.4982 74.3192 65.4939 74.0771 65.4328 73.8784L65.5211 73.8912C65.7836 73.9608 65.9942 73.9914 66.153 73.9829C66.3135 73.9795 66.4757 73.9328 66.6422 73.8478C66.8732 73.7289 67.06 73.5676 67.1967 73.3629C67.3352 73.1599 67.4065 72.9357 67.4141 72.6945C67.4218 72.455 67.364 72.2139 67.2409 71.9752C67.1483 71.7926 67.0413 71.6423 66.9199 71.5242C66.8018 71.4079 66.6473 71.3068 66.4587 71.2194C66.6736 71.2194 66.8613 71.1811 67.0107 71.103C67.28 70.9663 67.4931 70.7735 67.6528 70.5272C67.8116 70.2818 67.8923 70.0066 67.9016 69.7026C67.9093 69.4002 67.8379 69.1005 67.6851 68.8007C67.6706 68.7735 67.6519 68.754 67.6367 68.7285C67.663 68.7429 67.6817 68.7616 67.7088 68.776C68.0086 68.928 68.3093 68.9994 68.6125 68.9934C68.9157 68.9833 69.1908 68.9017 69.4371 68.7446C69.6825 68.5849 69.8745 68.3709 70.0112 68.1026C70.0902 67.9531 70.1284 67.7654 70.1284 67.5497C70.2159 67.7391 70.3169 67.8936 70.4341 68.0117C70.5513 68.1323 70.7025 68.2401 70.8843 68.3319C71.1229 68.4559 71.3632 68.5128 71.6036 68.5051C71.8448 68.4975 72.0681 68.4261 72.2719 68.2877C72.4766 68.1501 72.638 67.9641 72.7569 67.7323C72.841 67.5675 72.8877 67.4036 72.8928 67.2448C72.9004 67.0834 72.869 66.8745 72.8002 66.613L72.7883 66.5238C72.9862 66.5849 73.2274 66.5892 73.511 66.5382C74.063 66.4567 74.4596 66.179 74.6991 65.7119C74.8452 65.4257 74.9106 65.1267 74.8945 64.8117C74.8783 64.5 74.7858 64.2061 74.6193 63.9369Z" fill="#64471C"/>
<path d="M10.1779 65.9658C10.0081 66.3021 9.86965 66.6588 9.76604 67.0393C9.66243 67.4189 9.59789 67.7994 9.57666 68.1816C9.49343 68.1136 9.4255 68.0695 9.37709 68.044C9.12401 67.9149 8.86158 67.8554 8.58557 67.8648C8.36052 67.875 8.1482 67.9463 7.94437 68.055C8.05308 67.8512 8.12442 67.6397 8.13376 67.413C8.14395 67.1378 8.08451 66.8745 7.95542 66.6232C7.92995 66.5731 7.88577 66.5068 7.81698 66.4227C8.19915 66.4007 8.57962 66.3361 8.95924 66.2333C9.33886 66.128 9.69811 65.9905 10.0327 65.8198C10.1593 65.7552 10.2731 65.683 10.3877 65.6108C10.3155 65.7255 10.2433 65.8401 10.1779 65.9658ZM10.769 67.8351C11.085 67.7391 11.4102 67.7756 11.744 67.9472C12.1279 68.1442 12.386 68.4389 12.516 68.8346C12.6459 69.2287 12.6187 69.6083 12.4327 69.9744C12.3546 70.1247 12.279 70.2257 12.2051 70.2801L11.8408 70.5519C11.8374 70.5536 11.8068 70.5858 11.7474 70.6487C12.0939 70.6368 12.3877 70.6945 12.6281 70.8177C12.8446 70.9272 13.0145 71.0733 13.1385 71.2542C13.2642 71.4325 13.3313 71.6338 13.3457 71.8521C13.3593 72.0703 13.3134 72.2793 13.2132 72.4797C13.0315 72.833 12.6425 73.0852 12.0455 73.2423C12.3189 73.4546 12.4947 73.7137 12.572 74.0186C12.6468 74.3234 12.6111 74.6215 12.465 74.9069C12.3707 75.0937 12.2485 75.2483 12.0964 75.3731C11.9453 75.4954 11.7763 75.588 11.5945 75.6508C11.4094 75.712 11.2183 75.7409 11.0111 75.7298C10.8073 75.7239 10.6204 75.6746 10.448 75.588C10.0047 75.3595 9.74737 74.9561 9.67519 74.3727C9.62678 74.0704 9.65735 73.8139 9.76266 73.6067C9.77031 73.6007 9.77455 73.5956 9.78134 73.588C9.78644 73.5795 9.79409 73.5651 9.80428 73.5464C9.55289 73.6856 9.30999 73.7604 9.0722 73.7714C8.83526 73.785 8.61529 73.74 8.41147 73.6364C8.21614 73.5362 8.06158 73.4003 7.95032 73.227C7.83652 73.0546 7.77113 72.8644 7.75499 72.6555C7.73885 72.4466 7.78132 72.2444 7.88238 72.0466C8.08026 71.6593 8.4344 71.3587 8.94481 71.1412C8.90999 71.1353 8.88027 71.1328 8.85988 71.1268C8.8395 71.1226 8.82591 71.1209 8.81742 71.1192C8.58812 71.0843 8.40977 71.0512 8.28493 71.0198C8.15584 70.9884 8.04288 70.9493 7.94097 70.8975C7.73036 70.7905 7.56899 70.6317 7.4518 70.4228C7.33714 70.2139 7.28195 69.9752 7.28449 69.7111C7.28704 69.4461 7.35074 69.1913 7.47558 68.9476C7.70148 68.5051 7.99957 68.2453 8.36306 68.1731C8.72909 68.1009 9.12911 68.1756 9.56818 68.4007C9.51467 68.8873 9.42975 69.244 9.3134 69.4758C9.20809 69.6763 9.08155 69.8325 8.92698 69.9404C8.77496 70.0482 8.64247 70.0763 8.53801 70.0202C8.47092 69.9862 8.42592 69.9234 8.40214 69.8308C8.37666 69.7408 8.3809 69.6635 8.41487 69.5964C8.44544 69.5387 8.50744 69.4826 8.60425 69.4291L8.55584 69.2754C8.38174 69.3247 8.26455 69.4113 8.2017 69.5336C8.15669 69.6236 8.13546 69.7077 8.14056 69.8011C8.1465 69.8937 8.17538 69.9752 8.22464 70.0516C8.27134 70.1289 8.33759 70.1892 8.41827 70.2325C8.59577 70.3217 8.77327 70.3217 8.95416 70.2274C9.13336 70.1357 9.28283 69.9752 9.40088 69.7425C9.47136 69.6066 9.5291 69.4724 9.58176 69.3417C9.61318 69.6482 9.6497 69.9285 9.69217 70.1875C9.76605 70.5722 9.80767 70.8287 9.81871 70.9519C9.82805 71.0767 9.82805 71.2398 9.81531 71.441C9.78473 71.7977 9.70746 72.0916 9.58856 72.3268C9.50024 72.4984 9.39832 72.6173 9.28622 72.6776C9.17496 72.7404 9.05861 72.7404 8.93801 72.6776C8.90319 72.6606 8.87432 72.6309 8.85393 72.5909C8.82081 72.5281 8.80213 72.4627 8.79704 72.3982C8.79109 72.3362 8.79874 72.2827 8.81997 72.2393C8.85564 72.1731 8.93292 72.1289 9.05522 72.1094L8.96434 71.9158C8.80978 71.9387 8.69344 72.0296 8.61276 72.185C8.54396 72.3226 8.53206 72.4551 8.58132 72.5909C8.62973 72.7243 8.72316 72.8279 8.86413 72.9009C9.03569 72.9876 9.20469 72.9859 9.37879 72.8975C9.55035 72.8118 9.69981 72.647 9.82126 72.4101C9.89175 72.275 9.95629 71.9956 10.0123 71.5761C10.1516 72.0083 10.2569 72.3336 10.3232 72.5527C10.4344 72.8941 10.5839 73.2602 10.775 73.6525C10.8676 73.8394 10.9831 74.0271 11.1138 74.2164L11.169 74.1816C10.9779 73.8071 10.8455 73.4946 10.7699 73.2474C10.6646 72.9621 10.5728 72.6954 10.4922 72.4483C10.4565 72.3302 10.414 72.2088 10.3656 72.078C10.2586 71.7468 10.1924 71.5064 10.1737 71.3519C10.3945 71.7069 10.5754 71.9574 10.7147 72.1052C10.8557 72.2495 11.0348 72.3795 11.2531 72.4933C11.4094 72.5706 11.5512 72.6156 11.682 72.6241C11.8111 72.6326 11.9291 72.6071 12.0319 72.5468C12.1347 72.4865 12.2179 72.3948 12.2807 72.2716C12.3419 72.1544 12.3572 72.0338 12.3291 71.9183C12.2969 71.8028 12.2179 71.712 12.0922 71.6483C11.9724 71.5854 11.8519 71.5693 11.7338 71.5973L11.789 71.8275C11.84 71.7892 11.8977 71.785 11.9606 71.8181C12.0192 71.8478 12.0565 71.8971 12.0744 71.9659C12.0922 72.0372 12.0846 72.1052 12.0523 72.1697C11.9945 72.281 11.902 72.3438 11.7703 72.3557C11.6438 72.3693 11.4909 72.3319 11.3168 72.2419C11.0051 72.0831 10.7351 71.8521 10.51 71.5489C10.3724 71.3621 10.2637 71.171 10.1805 70.9722C10.0981 70.7701 10.0234 70.5221 9.96053 70.2325C9.89429 69.9387 9.83823 69.5964 9.78812 69.1981C9.92655 69.4605 10.0489 69.6499 10.155 69.7646C10.2603 69.8801 10.3979 69.9837 10.5686 70.0712C10.792 70.1841 10.9966 70.2156 11.1843 70.1731C11.372 70.1281 11.5138 70.0143 11.6106 69.8257C11.6837 69.6814 11.7007 69.5387 11.6633 69.3977C11.6268 69.2559 11.5461 69.1523 11.4213 69.0894C11.3168 69.0351 11.2302 69.0164 11.1563 69.0291C11.0816 69.041 11.0051 69.0894 10.9312 69.1718L11.0442 69.3451C11.1436 69.3289 11.2208 69.3332 11.2735 69.3595C11.3355 69.3909 11.3856 69.4487 11.4238 69.5276C11.4586 69.6109 11.4646 69.6814 11.4357 69.7366C11.3822 69.8427 11.2862 69.9064 11.1486 69.931C11.0119 69.9548 10.876 69.9327 10.7435 69.864C10.4327 69.7051 10.1711 69.4606 9.96223 69.131C9.83314 68.9238 9.77709 68.6877 9.79323 68.4244C10.1261 68.1306 10.4531 67.9327 10.769 67.8351ZM7.05095 68.5221C6.80806 68.6478 6.55413 68.7107 6.28746 68.714C6.02334 68.7174 5.7847 68.6614 5.57663 68.5467C5.36771 68.4295 5.20889 68.269 5.10274 68.0584C5.05008 67.9565 5.01102 67.8436 4.97875 67.7145C4.94817 67.5896 4.91504 67.4121 4.88022 67.182C4.87852 67.1735 4.87598 67.1582 4.87174 67.1395C4.86664 67.1183 4.86325 67.0894 4.85816 67.0537C4.64075 67.565 4.34009 67.9183 3.95198 68.117C3.7541 68.2181 3.55283 68.2597 3.34391 68.2436C3.13499 68.2266 2.94391 68.162 2.77151 68.0474C2.59911 67.9361 2.46237 67.7841 2.36216 67.5879C2.25855 67.3841 2.21353 67.1641 2.22712 66.928C2.23901 66.6894 2.31375 66.4457 2.45303 66.1951C2.43265 66.2036 2.41991 66.213 2.41142 66.2181C2.40378 66.2249 2.39698 66.2299 2.39189 66.2376C2.18467 66.342 1.92819 66.3726 1.62585 66.3242C1.04325 66.252 0.639001 65.9947 0.412247 65.5505C0.325622 65.3781 0.275521 65.1913 0.269577 64.9875C0.258536 64.7811 0.286555 64.59 0.347702 64.4049C0.411397 64.2223 0.50312 64.0541 0.626264 63.9021C0.751955 63.7518 0.905671 63.6287 1.09251 63.5344C1.37701 63.3883 1.6751 63.3526 1.98084 63.4274C2.28572 63.5047 2.54476 63.6805 2.75623 63.9539C2.91334 63.3569 3.16642 62.9688 3.51887 62.7862C3.72014 62.686 3.9299 62.6401 4.14731 62.6528C4.36557 62.6673 4.56685 62.7344 4.74605 62.8601C4.92609 62.9849 5.07131 63.1548 5.18171 63.3705C5.30486 63.6117 5.3626 63.9055 5.35071 64.252C5.41271 64.1917 5.44414 64.1611 5.44669 64.1577L5.7193 63.7943C5.77366 63.7204 5.87558 63.6456 6.02505 63.5675C6.39023 63.3798 6.77154 63.3535 7.16475 63.4817C7.55966 63.6134 7.8552 63.8707 8.05138 64.2537C8.22293 64.5883 8.26116 64.9144 8.16349 65.2312C8.06667 65.5446 7.8688 65.8733 7.57581 66.2045C7.31168 66.2215 7.07558 66.1646 6.86836 66.0372C6.53715 65.8282 6.29255 65.5675 6.13543 65.2558C6.0658 65.1234 6.04373 64.9875 6.06836 64.8499C6.09299 64.7149 6.15582 64.6172 6.26452 64.5628C6.31888 64.5348 6.38768 64.5399 6.47091 64.5739C6.55074 64.6129 6.60849 64.6639 6.63991 64.7259C6.66624 64.7786 6.67048 64.8541 6.65349 64.9561L6.8276 65.0682C6.90913 64.9943 6.96008 64.9178 6.97027 64.8431C6.98216 64.7684 6.96348 64.6817 6.90912 64.5773C6.84628 64.4533 6.74266 64.3718 6.60168 64.3352C6.4607 64.2979 6.31889 64.3149 6.17452 64.3887C5.98428 64.4847 5.87132 64.6274 5.82546 64.8142C5.783 65.0019 5.81527 65.2074 5.92822 65.4316C6.01654 65.6006 6.12016 65.7382 6.23396 65.8444C6.34861 65.9497 6.53714 66.0728 6.80042 66.2113C6.40296 66.1629 6.06071 66.1051 5.76772 66.0389C5.47642 65.976 5.22844 65.9013 5.02801 65.8181C4.82843 65.7365 4.63649 65.6261 4.44966 65.4902C4.14732 65.2643 3.91546 64.9943 3.75664 64.6817C3.66747 64.5085 3.63012 64.3556 3.6437 64.2291C3.65559 64.0983 3.71844 64.0049 3.82969 63.9454C3.89423 63.914 3.96216 63.9072 4.03265 63.925C4.10229 63.9429 4.1507 63.9802 4.18128 64.038C4.2144 64.1017 4.21101 64.1594 4.17109 64.2104L4.40209 64.2664C4.42927 64.1476 4.41312 64.027 4.35028 63.9072C4.28573 63.7807 4.19657 63.7025 4.08022 63.6703C3.96472 63.6422 3.84498 63.6567 3.72693 63.7187C3.60379 63.7807 3.51207 63.8639 3.45347 63.9675C3.39147 64.0711 3.36683 64.1875 3.37447 64.3174C3.38297 64.4482 3.42883 64.59 3.50696 64.7471C3.61992 64.9637 3.74986 65.1429 3.89508 65.2847C4.04201 65.4248 4.29338 65.6049 4.64667 65.8257C4.4938 65.8079 4.25178 65.7399 3.92142 65.6338C3.79148 65.5845 3.66917 65.5429 3.55028 65.5064C3.30229 65.4257 3.03648 65.334 2.75113 65.2295C2.50484 65.1539 2.19146 65.0223 1.81779 64.8295L1.78295 64.8856C1.97234 65.0164 2.16004 65.1319 2.34773 65.2244C2.73924 65.4138 3.10526 65.5641 3.44667 65.6754C3.66493 65.7433 3.9902 65.8469 4.42247 65.9871C4.00379 66.0431 3.72437 66.1077 3.58934 66.1773C3.35155 66.2996 3.18849 66.4482 3.10101 66.6215C3.01269 66.7956 3.01099 66.9646 3.09846 67.1353C3.17065 67.2754 3.27427 67.3688 3.40931 67.4189C3.54349 67.4673 3.67683 67.4546 3.81356 67.3875C3.96982 67.306 4.06069 67.1896 4.08447 67.0359L3.88913 66.9433C3.8696 67.0656 3.82714 67.1438 3.76004 67.1803C3.71673 67.1998 3.66324 67.2083 3.59954 67.2015C3.53585 67.1964 3.47215 67.1786 3.40931 67.1455C3.36769 67.1242 3.33797 67.0954 3.32098 67.0622C3.25983 66.9416 3.25983 66.8244 3.32098 66.7123C3.38213 66.6002 3.50017 66.5 3.67257 66.4108C3.90781 66.2919 4.20167 66.2147 4.55836 66.1849C4.75964 66.1705 4.9227 66.1705 5.04584 66.1807C5.17068 66.1917 5.42631 66.2333 5.81188 66.3072C6.07006 66.3488 6.35201 66.3854 6.6586 66.4168C6.52611 66.4694 6.39362 66.528 6.25519 66.5977C6.02335 66.7174 5.86367 66.866 5.77195 67.0444C5.67768 67.2244 5.6777 67.4019 5.76772 67.5794C5.81018 67.661 5.86877 67.7272 5.94775 67.7739C6.02334 67.824 6.10656 67.852 6.19743 67.8588C6.29 67.8631 6.37664 67.8418 6.46581 67.7968C6.5881 67.7348 6.67473 67.6177 6.72314 67.4436L6.56942 67.396C6.51591 67.492 6.46072 67.5531 6.40297 67.5837C6.33587 67.6193 6.25774 67.6219 6.16772 67.5964C6.07515 67.5735 6.01145 67.5285 5.97833 67.4614C5.92313 67.3561 5.95115 67.2244 6.05816 67.0724C6.16602 66.9162 6.32313 66.7913 6.5244 66.686C6.75456 66.5697 7.11124 66.483 7.59872 66.4312C7.82377 66.8703 7.89852 67.2703 7.82633 67.6363C7.7533 67.9998 7.49341 68.2979 7.05095 68.5221ZM14.0616 64.7811C13.9215 64.5594 13.7347 64.387 13.5003 64.2673C13.3296 64.1815 13.1334 64.1297 12.9092 64.1161C12.6875 64.1025 12.4548 64.1246 12.2119 64.1866C11.9673 64.2495 11.7406 64.342 11.5334 64.466C11.6582 64.258 11.7491 64.0321 11.8128 63.7883C11.8739 63.5446 11.8969 63.3119 11.8824 63.0894C11.8697 62.866 11.8179 62.669 11.7313 62.5C11.6115 62.2639 11.4391 62.077 11.2183 61.9386C11 61.7976 10.7554 61.7195 10.4922 61.7017C10.2289 61.6847 9.98176 61.7365 9.75076 61.8537C9.58091 61.9412 9.44078 62.0499 9.32273 62.1815C9.20383 62.314 9.11552 62.4626 9.05437 62.6248C8.99322 62.7904 8.96605 62.9552 8.97454 63.1242C8.98134 63.2906 9.02125 63.4478 9.09768 63.5989C9.1945 63.7832 9.31849 63.9352 9.4807 64.0533C9.63951 64.1713 9.81445 64.241 10.003 64.2664C10.1881 64.2902 10.3588 64.2664 10.5134 64.1866C10.713 64.0847 10.8506 63.9284 10.9228 63.7136C10.9966 63.503 10.9865 63.3017 10.8871 63.1098C10.8276 62.9934 10.7495 62.9059 10.6561 62.8448C10.5618 62.7828 10.4514 62.7497 10.324 62.7429C10.1983 62.7361 10.0641 62.7599 9.92232 62.8134L9.96393 63.086C10.1236 63.0265 10.2612 63.0146 10.3818 63.0469C10.5015 63.0817 10.5949 63.1573 10.6578 63.2839C10.7096 63.3815 10.7104 63.4979 10.6595 63.6252C10.6077 63.7535 10.5151 63.8512 10.3886 63.9157C10.2765 63.9726 10.1499 63.993 10.0089 63.9726C9.86457 63.9539 9.73123 63.8979 9.60299 63.8044C9.47815 63.7119 9.38049 63.5989 9.3117 63.4647C9.23442 63.3102 9.20469 63.1412 9.23017 62.9569C9.2548 62.7726 9.32188 62.6019 9.42889 62.4439C9.53505 62.2851 9.67348 62.1645 9.84079 62.077C10.1397 61.925 10.4506 61.9055 10.7716 62.0133C11.0952 62.1229 11.3321 62.3276 11.485 62.6248C11.6446 62.9357 11.6837 63.2618 11.6047 63.6032C11.5257 63.9454 11.327 64.3047 11.0094 64.6885C10.8378 64.8949 10.6459 65.08 10.4353 65.2457C10.2238 65.4113 9.98941 65.5599 9.73123 65.6924C9.25734 65.9327 8.69937 66.0924 8.05393 66.173L7.93504 66.1892C8.19916 65.9098 8.37664 65.5862 8.46836 65.2185C8.56263 64.8533 8.53037 64.5144 8.37156 64.2028C8.22209 63.9098 8.01911 63.6686 7.77112 63.4792C7.52229 63.2923 7.25224 63.1811 6.96009 63.1463C6.66539 63.1097 6.38427 63.1616 6.1125 63.2983C5.81866 63.4461 5.62418 63.6006 5.52227 63.7569C5.48235 63.5293 5.4314 63.3484 5.36007 63.2125C5.23777 62.9739 5.06792 62.7828 4.85051 62.6367C4.6331 62.4906 4.39614 62.4074 4.14136 62.3853C3.88743 62.3632 3.64371 62.4142 3.41186 62.5339C3.01865 62.731 2.75281 63.0732 2.61099 63.5573C2.06066 63.1191 1.50864 63.0435 0.952368 63.3297C0.668714 63.4732 0.443663 63.6805 0.277207 63.9497C0.109901 64.2189 0.0173332 64.5127 0.00289574 64.8244C-0.0149388 65.1378 0.0496078 65.4384 0.196531 65.7255C0.435174 66.1917 0.832629 66.4686 1.3838 66.5518C1.66831 66.6011 1.9095 66.596 2.10738 66.5365L2.0955 66.624C2.02586 66.8864 1.99443 67.097 2.00292 67.2567C2.00717 67.4172 2.05473 67.5786 2.13881 67.7459C2.25771 67.9769 2.41906 68.1637 2.62374 68.2996C2.82756 68.4389 3.05091 68.5102 3.2921 68.517C3.53244 68.5255 3.77193 68.4669 4.01142 68.3446C4.19317 68.2521 4.34434 68.1442 4.46239 68.0244C4.57874 67.9055 4.67896 67.7518 4.76728 67.5616C4.76728 67.779 4.80549 67.9642 4.88362 68.1136C5.0212 68.3837 5.21314 68.5968 5.45857 68.7557C5.70486 68.9153 5.98002 68.9968 6.28321 69.0062C6.58554 69.0138 6.8862 68.9417 7.18684 68.7879C7.21401 68.7743 7.23268 68.7548 7.25816 68.7412C7.24457 68.7667 7.22506 68.7845 7.21147 68.8126C7.05775 69.1124 6.98641 69.413 6.9932 69.7162C7.00254 70.0202 7.08407 70.2945 7.24203 70.5408C7.40254 70.7871 7.61571 70.9782 7.88578 71.1149C8.03525 71.1939 8.22039 71.2321 8.43695 71.2321C8.24841 71.3196 8.09385 71.4198 7.97581 71.5379C7.85521 71.6551 7.7465 71.8054 7.65478 71.9871C7.53164 72.2266 7.47388 72.467 7.48153 72.7073C7.48917 72.9476 7.55967 73.171 7.6998 73.3757C7.83568 73.5795 8.02252 73.7417 8.25352 73.8614C8.41997 73.9447 8.58303 73.9914 8.74185 73.9956C8.90236 74.0041 9.11297 73.9744 9.37454 73.9039L9.46287 73.8912C9.40257 74.0899 9.39746 74.3311 9.44757 74.6156C9.52995 75.1668 9.80681 75.5651 10.2748 75.8037C10.561 75.9498 10.8608 76.0143 11.175 75.9973C11.4858 75.9812 11.7805 75.8895 12.0497 75.7222C12.3189 75.5549 12.5262 75.3307 12.6697 75.0453C12.9559 74.4916 12.8803 73.9379 12.4421 73.3876C12.9262 73.2457 13.2676 72.9808 13.4671 72.5867C13.5843 72.3557 13.6344 72.112 13.6132 71.858C13.592 71.6033 13.5088 71.3663 13.3618 71.148C13.2158 70.9323 13.0255 70.7616 12.7869 70.6385C12.6519 70.5671 12.4701 70.5153 12.2434 70.4763C12.3988 70.3744 12.5516 70.1807 12.7003 69.8869C12.837 69.6151 12.8896 69.334 12.8531 69.041C12.8175 68.7463 12.7062 68.4771 12.5194 68.2266C12.3308 67.9794 12.0896 67.7773 11.7958 67.6278C11.4858 67.4707 11.1453 67.4368 10.7801 67.5302C10.4132 67.6219 10.0896 67.7994 9.81106 68.0644L9.82466 67.9455C9.90704 67.3 10.0675 66.7404 10.307 66.269C10.4404 66.0091 10.589 65.7747 10.7537 65.5633C10.9185 65.3535 11.1036 65.1616 11.3092 64.9909C11.6939 64.6724 12.054 64.4728 12.3962 64.3955C12.7376 64.3157 13.0637 64.3556 13.3737 64.5144C13.6718 64.6673 13.8765 64.9034 13.9852 65.2261C14.0939 65.548 14.0735 65.8597 13.9215 66.1569C13.8357 66.3259 13.7134 66.4635 13.5563 66.5714C13.3975 66.6775 13.2251 66.7438 13.0417 66.7692C12.8582 66.7956 12.6892 66.765 12.5347 66.6877C12.4013 66.6198 12.2884 66.5212 12.1941 66.3956C12.1015 66.269 12.0463 66.1348 12.0259 65.9905C12.0056 65.8486 12.0251 65.7221 12.0828 65.6108C12.1482 65.4834 12.2451 65.3917 12.3742 65.3391C12.5015 65.289 12.617 65.289 12.7147 65.3408C12.8421 65.4045 12.9185 65.4962 12.9525 65.6176C12.9839 65.7374 12.9729 65.8767 12.9126 66.0355L13.1852 66.0771C13.2395 65.9344 13.2625 65.8011 13.2557 65.6754C13.2497 65.548 13.2158 65.4384 13.1546 65.3442C13.0952 65.2482 13.006 65.1718 12.8888 65.1123C12.6977 65.0121 12.4964 65.0019 12.285 65.0767C12.0718 65.148 11.9138 65.2856 11.8128 65.486C11.7338 65.6397 11.7083 65.8096 11.7338 65.9956C11.7576 66.1849 11.8281 66.3607 11.9461 66.5179C12.0633 66.6809 12.2162 66.8049 12.4013 66.9017C12.5499 66.9765 12.7088 67.0172 12.8752 67.024C13.0442 67.0325 13.209 67.0062 13.3729 66.945C13.5359 66.883 13.6846 66.7956 13.8179 66.6758C13.9495 66.5586 14.0582 66.4168 14.1449 66.2495C14.2629 66.0176 14.3139 65.7705 14.2977 65.5064C14.2807 65.2431 14.2018 64.9994 14.0616 64.7811Z" fill="#64471C"/>
<path d="M13.2939 6.77631H61.3674V5.91941H13.2939V6.77631Z" fill="#64471C"/>
<path d="M14.2833 8.5004H60.3763L60.8443 8.11314H13.8162L14.2833 8.5004Z" fill="#64471C"/>
<path d="M13.2939 69.1624H61.3674V70.0202H13.2939V69.1624Z" fill="#64471C"/>
<path d="M14.2833 67.4384H60.3763L60.8443 67.8257H13.8162L14.2833 67.4384Z" fill="#64471C"/>
<path d="M6.03017 61.9599V13.8881H5.17328V61.9599H6.03017Z" fill="#64471C"/>
<path d="M7.75416 60.9713V14.8775L7.36774 14.4112V61.4384L7.75416 60.9713Z" fill="#64471C"/>
<path d="M68.4163 61.9599V13.8881H69.2732V61.9599H68.4163Z" fill="#64471C"/>
<path d="M66.6923 60.9713V14.8775L67.0796 14.4112V61.4384L66.6923 60.9713Z" fill="#64471C"/>
</svg>
