<svg width="327" height="16" viewBox="0 0 327 16" fill="none" xmlns="http://www.w3.org/2000/svg">
<path d="M286.517 7.5142C291.213 4.84886 296.003 1.99685 301.285 0.86218C304.252 0.223513 307.355 0.732864 310.276 1.38086C313.243 2.03953 315.717 3.23951 317.517 5.79017C317.928 6.37151 318.208 7.01951 318.391 7.69017C311.433 7.64751 299.54 7.57953 286.517 7.5142ZM279.249 10.4768C276.661 11.8568 273.867 13.2675 270.955 13.9528C271.896 13.1155 272.579 11.9515 272.871 10.6688C273.029 9.96615 273.051 9.28081 272.967 8.62214C276.231 8.60881 279.503 8.59283 282.732 8.57683C281.573 9.21683 280.415 9.85416 279.249 10.4768ZM264.464 12.4968C264.157 11.7555 264.193 10.9022 264.496 10.1729C264.98 9.00886 266.709 8.89686 267.144 10.1142C267.281 10.4995 268.756 10.4448 268.593 9.99284C268.321 9.23151 267.689 8.81953 266.947 8.64753C268.435 8.6422 269.931 8.63551 271.433 8.62885C271.656 10.6115 270.959 12.6742 269.316 13.9422C269.101 14.1062 268.881 14.2342 268.656 14.3342C268.628 14.3369 268.6 14.3435 268.572 14.3462C268.279 14.3688 268.144 14.4329 268.1 14.5089C266.611 14.8542 265.081 13.9875 264.464 12.4968ZM223.14 14.1035C224.171 13.2582 224.913 12.0288 225.223 10.6688C225.373 10.0048 225.404 9.35685 225.336 8.73151H235.32C234.256 9.31818 233.192 9.90483 232.12 10.4768C229.331 11.9648 226.299 13.4929 223.14 14.1035ZM216.816 12.4968C216.508 11.7555 216.544 10.9022 216.847 10.1729C217.331 9.00886 219.061 8.89686 219.495 10.1142C219.632 10.4995 221.105 10.4448 220.945 9.99284C220.708 9.32751 220.188 8.93952 219.569 8.73151H223.8C223.987 10.6835 223.28 12.6969 221.665 13.9422C219.881 15.3182 217.604 14.4008 216.816 12.4968ZM205.509 5.46218C208.775 3.71818 212.351 1.86085 216.097 1.53152C218.797 2.21818 221.065 3.41551 222.74 5.79017C223.077 6.26884 223.313 6.79686 223.495 7.33952H202.065C203.211 6.70886 204.356 6.07818 205.509 5.46218ZM183.876 14.8089C182.731 15.0822 181.585 15.1915 180.44 15.1941C185.4 14.1075 190.028 11.1902 194.409 8.73151H197.371C193.069 11.1795 188.676 13.6702 183.876 14.8089ZM167.483 10.4501C167.072 9.92613 166.779 9.33951 166.56 8.73151H187.671C186.607 9.31818 185.543 9.90483 184.471 10.4768C181.223 12.2102 177.645 14.0035 173.921 14.3301C171.369 13.6981 169.207 12.6475 167.483 10.4501ZM177.219 14.9515C176.737 14.8848 176.257 14.8022 175.776 14.7142C180.707 13.8782 185.253 11.1288 189.571 8.73151H192.247C191.092 9.37018 189.941 10.0128 188.781 10.6382C185.233 12.5502 181.315 14.6301 177.231 14.9501C177.225 14.9501 177.224 14.9515 177.219 14.9515ZM206.509 0.86218C207.737 0.59818 208.991 0.538179 210.243 0.595512C205.055 1.41551 200.235 4.34214 195.719 6.82214C195.404 6.99547 195.091 7.16619 194.777 7.33952H192.048C196.647 4.72486 201.343 1.97151 206.509 0.86218ZM199.84 7.33952H196.879C201.975 4.41552 207.649 0.928818 213.512 0.999484C213.541 0.999484 213.555 0.994145 213.58 0.994145C213.719 1.01815 213.856 1.04482 213.993 1.07149C209.049 1.92349 204.516 4.75419 200.191 7.14219C200.073 7.20753 199.957 7.27552 199.84 7.33952ZM254.159 0.86218C257.124 0.223513 260.227 0.732864 263.147 1.38086C266.116 2.03953 268.591 3.23951 270.388 5.79017C270.747 6.29951 270.993 6.86216 271.179 7.44349C259.592 7.39149 248.263 7.35286 239.693 7.34219C244.292 4.72753 248.989 1.97151 254.159 0.86218ZM160.063 9.86081C158.492 12.3661 155.857 13.5888 153.103 14.2742C153.071 14.2822 153.04 14.2888 153.008 14.2968C148.88 13.8768 144.933 11.6569 141.36 9.70619C140.768 9.38352 140.177 9.05685 139.587 8.73151H160.617C160.463 9.13018 160.281 9.51148 160.063 9.86081ZM143.947 15.0235C138.837 14.1728 134.096 11.3382 129.563 8.73151H133.193C137.645 11.1982 142.328 14.1208 147.38 15.1995C146.225 15.2555 145.072 15.2102 143.947 15.0235ZM103.888 7.33952C104.118 6.66219 104.432 6.01818 104.826 5.45951C106.446 3.16484 108.867 2.13814 111.458 1.49148C111.483 1.49548 111.507 1.50352 111.532 1.50619C115.754 1.83686 119.702 4.09951 123.348 6.09017C124.108 6.50484 124.864 6.92219 125.621 7.33952H103.888ZM107.842 10.0729C108.374 8.57686 110.361 9.51817 110.666 10.7568C110.828 11.4155 110.618 12.1702 110.37 12.7729C109.53 14.7995 106.934 14.9648 105.353 13.7435C103.766 12.5195 103.3 10.5928 103.556 8.73151H107.9C107.184 8.95952 106.572 9.38352 106.341 10.0342C106.234 10.3342 107.674 10.5409 107.842 10.0729ZM94.4125 10.4768C93.3406 9.90483 92.2766 9.31818 91.2125 8.73151C91.5677 8.73151 91.9209 8.73151 92.263 8.73151H102.051C101.916 9.98085 102.119 11.2715 102.777 12.5115C103.17 13.2529 103.72 13.8195 104.351 14.2515C100.846 13.7955 97.4829 12.1142 94.4125 10.4768ZM59.3886 10.1142C59.8223 8.89686 61.5537 9.00886 62.0359 10.1729C62.3386 10.9022 62.3755 11.7555 62.0677 12.4968C61.4505 13.9875 59.9219 14.8542 58.4318 14.5089C58.3886 14.4329 58.2542 14.3688 57.9605 14.3462C57.9329 14.3435 57.9042 14.3369 57.8761 14.3342C57.6521 14.2342 57.4313 14.1062 57.2177 13.9422C55.5729 12.6729 54.8755 10.6101 55.0995 8.62481C56.6053 8.63148 58.1062 8.63816 59.5995 8.64349C58.8505 8.81283 58.2119 9.22618 57.939 9.99284C57.7777 10.4448 59.2515 10.4995 59.3886 10.1142ZM43.7943 8.57416C47.0245 8.58882 50.299 8.60484 53.5666 8.61817C53.4813 9.27817 53.5021 9.96349 53.6625 10.6688C53.9537 11.9515 54.6354 13.1155 55.5777 13.9528C52.6662 13.2675 49.8714 11.8568 47.2838 10.4768C46.1157 9.85283 44.9547 9.21416 43.7943 8.57416ZM9.0146 5.79017C10.8141 3.23951 13.2886 2.03953 16.2573 1.38086C19.1781 0.732864 22.2802 0.223513 25.2458 0.86218C30.5302 1.99818 35.3223 4.8515 40.0203 7.51817C27.0553 7.58084 15.2119 7.64614 8.1422 7.68881C8.32394 7.01814 8.60527 6.37017 9.0146 5.79017ZM56.1427 5.79017C57.9438 3.23951 60.4162 2.03953 63.3849 1.38086C66.3062 0.732864 69.4083 0.223513 72.3734 0.86218C77.5438 1.97285 82.2427 4.72886 86.8427 7.34486C78.1599 7.35819 66.8687 7.39683 55.3526 7.44616C55.5359 6.86483 55.7833 6.30084 56.1427 5.79017ZM114.032 0.955474C114.126 0.980807 114.214 0.999516 114.283 0.998182C118.072 0.951515 121.933 2.67151 125.223 4.39017C127.055 5.34751 128.865 6.34086 130.673 7.33952H127.103C122.727 4.91419 118.124 2.04084 113.133 1.11817C113.433 1.0595 113.732 1.00614 114.032 0.955474ZM121.252 0.942192C126.239 2.01286 130.869 4.77152 135.337 7.33952H132.244C131.757 7.07152 131.269 6.80349 130.783 6.53549C126.439 4.15415 121.818 1.46482 116.855 0.630148C118.32 0.552814 119.789 0.627526 121.252 0.942192ZM149.693 14.9675C149.66 14.9622 149.628 14.9515 149.595 14.9488C145.6 14.6342 141.736 12.5235 138.272 10.6568C137.1 10.0248 135.939 9.37551 134.773 8.73151H137.795C142.057 11.0848 146.496 13.7662 151.34 14.6702C150.796 14.7822 150.247 14.8862 149.693 14.9675ZM324.764 7.73151C324.627 7.72885 322.86 7.71685 319.901 7.69818C319.245 5.43018 317.341 3.53152 315.313 2.33685C312.828 0.871521 309.491 0.470156 306.68 0.138156C303.331 -0.260511 300.208 0.226159 297.021 1.30749C293.649 2.45416 290.531 4.28751 287.417 5.99284C286.503 6.49418 285.592 6.99949 284.68 7.50482C280.736 7.48616 276.709 7.4675 272.7 7.44883C271.981 5.29017 270.14 3.48885 268.185 2.33685C265.7 0.871521 262.363 0.470156 259.552 0.138156C256.204 -0.260511 253.077 0.226159 249.893 1.30749C246.519 2.45416 243.403 4.28751 240.289 5.99284C239.475 6.43951 238.663 6.89016 237.849 7.34083C237.127 7.33949 236.423 7.33952 235.748 7.33952H225.011C224.267 5.23019 222.457 3.46885 220.537 2.33685C218.051 0.871521 214.715 0.470156 211.904 0.138156C208.555 -0.260511 205.429 0.226159 202.245 1.30749C198.871 2.45416 195.753 4.28751 192.64 5.99284C191.825 6.43951 191.015 6.89019 190.203 7.33952H166.216C165.996 5.45419 166.623 3.49816 168.104 2.17416C169.785 0.671492 172.331 1.06481 173.208 3.18881C173.484 3.85014 173.475 4.56219 173.307 5.24486C173.052 6.2822 171.097 7.44083 170.529 5.84349C170.38 5.42749 168.937 5.29418 169.08 5.69284C169.847 7.84751 173.52 7.6902 174.588 5.9782C175.245 4.92486 174.833 3.4475 174.219 2.4875C173.512 1.38084 172.067 0.868843 170.847 0.626177C167.884 0.0368433 165.447 2.24886 164.819 5.0142C164.636 5.81953 164.633 6.59686 164.764 7.33952H162.511C162.696 5.92619 162.455 4.46484 161.623 3.12618C160.167 0.78751 157.197 0.0248041 154.716 0.986137C152.156 1.97814 151.517 5.61016 154.076 6.94349C155.316 7.59016 157.705 7.42884 158.24 5.92618C158.372 5.55951 156.929 5.17416 156.773 5.61016C156.383 6.70749 154.836 6.94347 154.137 5.82214C153.756 5.20881 153.859 4.41948 154.004 3.75814C154.433 1.82081 156.917 0.580846 158.713 1.59551C160.78 2.76218 161.372 5.14619 160.991 7.33952H137.055C135.613 6.54486 134.173 5.74748 132.727 4.96081C129.439 3.17415 126.137 1.49947 122.494 0.555473C119.55 -0.207193 116.654 -0.0818157 113.692 0.367518C113.667 0.367518 113.642 0.366151 113.617 0.366151C113.45 0.367484 113.366 0.391477 113.312 0.424809C113.26 0.43281 113.209 0.439531 113.156 0.447531C112.435 0.566197 111.722 0.699511 111.018 0.85951C110.95 0.864843 110.9 0.878177 110.86 0.892843C108.598 1.42084 106.465 2.24883 104.676 3.84616C103.577 4.82883 102.787 6.03819 102.358 7.33952H92.263C91.1417 7.33952 89.9438 7.34086 88.6849 7.34219C87.8714 6.89153 87.0589 6.43951 86.2433 5.99284C83.1297 4.28751 80.0125 2.45416 76.639 1.30749C73.4542 0.226159 70.3281 -0.260511 66.9791 0.138156C64.1703 0.470156 60.8329 0.871521 58.3474 2.33685C56.3917 3.48885 54.5485 5.2928 53.8313 7.4528C49.8209 7.47147 45.7979 7.49019 41.8583 7.50886C40.9443 7.00219 40.0307 6.49551 39.1151 5.99284C36.0015 4.28751 32.8849 2.45416 29.5114 1.30749C26.3266 0.226159 23.1999 -0.260511 19.8515 0.138156C17.0406 0.470156 13.7047 0.871521 11.2187 2.33685C9.19007 3.53152 7.28807 5.42881 6.63234 7.69681C3.42812 7.71681 1.51042 7.72885 1.37031 7.73151C-0.45677 7.76085 -0.45677 8.29949 1.37031 8.34082C1.49896 8.34482 3.35886 8.35686 6.47807 8.37553C6.3526 9.11019 6.35474 9.87682 6.5338 10.6688C7.14167 13.3448 9.41514 15.5341 12.299 15.2301C13.5813 15.0955 15.2073 14.6342 15.9521 13.4702C16.5594 12.5169 17.0053 11.0262 16.3505 9.97553C15.3381 8.35153 11.5958 7.78884 10.811 9.99284C10.6495 10.4448 12.1234 10.4995 12.2599 10.1142C12.6947 8.89686 14.4261 9.00886 14.9083 10.1729C15.2105 10.9022 15.2469 11.7555 14.9395 12.4968C14.1505 14.4008 11.8719 15.3182 10.0886 13.9422C8.37914 12.6222 7.69434 10.4422 8.00674 8.38484C15.3947 8.42884 28.1166 8.49952 41.8849 8.56485C46.5943 11.1648 51.5729 14.2541 57.0223 14.8581C57.7521 15.1661 58.5562 15.3221 59.4266 15.2301C60.7099 15.0955 62.3354 14.6342 63.0802 13.4702C63.6881 12.5169 64.1338 11.0262 63.4786 9.97553C63.0662 9.31419 62.1963 8.84347 61.261 8.65013C71.7953 8.6928 81.7766 8.72348 89.3094 8.73015C94.0922 11.3861 99.1499 14.4995 104.705 14.9355C104.945 14.9542 105.202 14.8875 105.377 14.7915C106.759 15.3355 108.369 15.3328 109.806 14.7768C112.262 13.8248 113.246 10.2155 110.632 8.8528C110.537 8.80347 110.423 8.77018 110.316 8.73151H128.153C129.429 9.43551 130.703 10.1408 131.983 10.8355C135.179 12.5715 138.407 14.2702 141.949 15.1875C145.195 16.0275 148.257 15.9622 151.544 15.4235C154.629 14.9195 157.593 14.1595 159.968 12.0382C161 11.1168 161.755 9.96751 162.187 8.73151C163.361 8.73151 164.005 8.73151 164.005 8.73151C164.005 8.73151 164.421 8.73151 165.169 8.73151C165.945 10.5848 167.525 12.1449 169.217 13.2342C171.629 14.7875 174.861 15.2302 177.64 15.6235C181.009 16.1008 184.119 15.7782 187.361 14.7395C190.883 13.6115 194.113 11.7142 197.341 9.94486C198.075 9.54353 198.807 9.13685 199.539 8.73151H217.272C216.476 8.96485 215.764 9.39819 215.404 9.97553C214.749 11.0262 215.195 12.5169 215.804 13.4702C216.548 14.6342 218.176 15.0955 219.457 15.2301C220.261 15.3155 221.009 15.1902 221.696 14.9315C221.74 14.9328 221.784 14.9382 221.827 14.9355C227.381 14.4995 232.439 11.3862 237.221 8.73151C244.624 8.72751 254.633 8.69681 265.244 8.65547C264.319 8.85281 263.463 9.32086 263.053 9.97553C262.399 11.0262 262.845 12.5169 263.452 13.4702C264.197 14.6342 265.823 15.0955 267.105 15.2301C267.976 15.3221 268.78 15.1661 269.511 14.8581C274.959 14.2541 279.935 11.1675 284.641 8.56752C298.473 8.50085 311.259 8.4288 318.527 8.38347C318.84 10.4408 318.155 12.6222 316.444 13.9422C314.66 15.3182 312.381 14.4008 311.592 12.4968C311.285 11.7555 311.321 10.9022 311.624 10.1729C312.108 9.00886 313.839 8.89686 314.271 10.1142C314.409 10.4995 315.884 10.4448 315.723 9.99284C314.937 7.78884 311.196 8.35153 310.181 9.97553C309.527 11.0262 309.972 12.5169 310.581 13.4702C311.325 14.6342 312.952 15.0955 314.232 15.2301C317.117 15.5341 319.391 13.3448 320 10.6688C320.18 9.87682 320.18 9.11016 320.055 8.37416C322.931 8.35682 324.639 8.34349 324.764 8.34082C326.589 8.29949 326.589 7.76085 324.764 7.73151Z" fill="#C89B3A"/>
</svg>
