<svg width="142" height="17" viewBox="0 0 142 17" fill="none" xmlns="http://www.w3.org/2000/svg">
<path d="M138.015 8.10592C137.996 8.18186 137.964 8.2444 137.925 8.2929H140.837L138.015 8.10592ZM137.168 8.00189C137.063 8.00764 136.966 8.05742 136.88 8.15187C136.794 8.24568 136.751 8.34969 136.751 8.46456C136.751 8.52072 136.774 8.57304 136.821 8.62155C136.892 8.33373 137.007 8.12761 137.168 8.00189ZM137.338 8.12124C137.338 8.26865 137.287 8.40521 137.183 8.53221C137.08 8.65793 136.972 8.71982 136.859 8.71982C136.796 8.71982 136.744 8.69748 136.702 8.65154C136.658 8.60623 136.637 8.54625 136.637 8.47223C136.637 8.37331 136.662 8.27759 136.71 8.18569C136.76 8.09443 136.821 8.01849 136.897 7.9585C136.972 7.89851 137.05 7.86915 137.13 7.86915C137.195 7.86915 137.246 7.89149 137.283 7.93616C137.32 7.98019 137.338 8.0421 137.338 8.12124ZM137.684 7.90745L142 8.2278V8.30055L137.747 8.60623C137.527 8.85065 137.29 8.97253 137.036 8.97253C136.869 8.97253 136.722 8.90489 136.596 8.77024C136.719 8.84108 136.828 8.87745 136.92 8.87745C137.113 8.87745 137.281 8.78683 137.424 8.60623C137.567 8.42563 137.654 8.19207 137.684 7.90745ZM135.61 8.00189C135.504 8.00764 135.409 8.05742 135.324 8.15187C135.239 8.24568 135.196 8.34969 135.196 8.46456C135.196 8.52072 135.218 8.57304 135.264 8.62155C135.337 8.32863 135.452 8.12187 135.61 8.00189ZM135.779 8.12124C135.779 8.2661 135.728 8.40202 135.627 8.52965C135.525 8.65665 135.417 8.71982 135.301 8.71982C135.239 8.71982 135.185 8.69748 135.14 8.65154C135.094 8.60623 135.072 8.54625 135.072 8.47223C135.072 8.32992 135.125 8.19398 135.232 8.06379C135.338 7.93361 135.452 7.86915 135.572 7.86915C135.638 7.86915 135.689 7.89149 135.724 7.93616C135.761 7.98019 135.779 8.0421 135.779 8.12124ZM137.414 7.80789C137.308 7.74407 137.199 7.7128 137.089 7.7128C136.964 7.7128 136.846 7.75302 136.736 7.8347C136.628 7.91639 136.477 8.07975 136.288 8.32353C136.112 8.55263 135.954 8.71535 135.814 8.81235C135.676 8.90872 135.536 8.95722 135.396 8.95722C135.227 8.95722 135.087 8.89468 134.978 8.77024C135.093 8.83597 135.196 8.8698 135.286 8.8698C135.412 8.8698 135.523 8.83341 135.617 8.76258C135.714 8.69174 135.852 8.53667 136.035 8.30055C136.223 8.05103 136.393 7.87107 136.544 7.7613C136.694 7.65345 136.84 7.59857 136.983 7.59857C137.149 7.59857 137.292 7.66813 137.414 7.80789ZM134.056 8.00189C133.947 8.00764 133.851 8.05742 133.765 8.15187C133.68 8.24568 133.638 8.34969 133.638 8.46456C133.638 8.52072 133.661 8.57304 133.705 8.62155C133.778 8.33118 133.895 8.12506 134.056 8.00189ZM134.225 8.12124C134.225 8.2661 134.174 8.40202 134.072 8.52965C133.971 8.65665 133.865 8.71982 133.754 8.71982C133.687 8.71982 133.631 8.69812 133.587 8.65345C133.543 8.60942 133.521 8.5488 133.521 8.47223C133.521 8.32481 133.573 8.18695 133.679 8.05996C133.784 7.93297 133.896 7.86915 134.015 7.86915C134.084 7.86915 134.137 7.89085 134.172 7.9336C134.207 7.977 134.225 8.03955 134.225 8.12124ZM135.858 7.80789C135.751 7.74407 135.642 7.7128 135.535 7.7128C135.407 7.7128 135.287 7.75428 135.177 7.8366C135.066 7.9202 134.918 8.08167 134.733 8.32353C134.557 8.55263 134.4 8.71535 134.26 8.81235C134.122 8.90872 133.98 8.95722 133.837 8.95722C133.667 8.95722 133.528 8.89468 133.424 8.77024C133.534 8.83597 133.637 8.8698 133.731 8.8698C133.855 8.8698 133.964 8.83341 134.059 8.76258C134.155 8.69174 134.294 8.53667 134.477 8.30055C134.67 8.05103 134.841 7.87107 134.989 7.7613C135.136 7.65345 135.282 7.59857 135.426 7.59857C135.591 7.59857 135.736 7.66813 135.858 7.80789ZM132.775 8.2929C132.8 8.25206 132.818 8.22015 132.828 8.19526C132.838 8.17165 132.851 8.15187 132.867 8.13655L129.851 8.2929H132.775ZM132.953 7.95722C133.081 7.82704 133.202 7.73323 133.317 7.67452C133.43 7.61581 133.552 7.58645 133.683 7.58645C133.758 7.58645 133.823 7.5973 133.876 7.619C133.931 7.64069 133.989 7.67962 134.048 7.73514C133.955 7.70579 133.887 7.6892 133.845 7.6892C133.631 7.6892 133.446 7.78428 133.289 7.97382C133.133 8.16399 133.042 8.39946 133.02 8.68281L128.703 8.30055V8.2278L132.953 7.95722Z" fill="#C89B3A"/>
<path d="M1.16274 8.2929H4.07595C4.03574 8.2444 4.00512 8.18186 3.98533 8.10592L1.16274 8.2929ZM5.17868 8.62155C5.22654 8.57304 5.25016 8.52072 5.25016 8.46456C5.25016 8.34969 5.20678 8.24568 5.12063 8.15187C5.03384 8.05742 4.93746 8.00764 4.8328 8.00189C4.99362 8.12761 5.10848 8.33373 5.17868 8.62155ZM4.71729 7.93616C4.7543 7.89149 4.80474 7.86915 4.87047 7.86915C4.95024 7.86915 5.02873 7.89851 5.10339 7.9585C5.1787 8.01849 5.24059 8.09443 5.28973 8.18569C5.33887 8.27759 5.36312 8.37331 5.36312 8.47223C5.36312 8.54625 5.34207 8.60623 5.29868 8.65154C5.25656 8.69748 5.20421 8.71982 5.14104 8.71982C5.02872 8.71982 4.92023 8.65793 4.81812 8.53221C4.7141 8.40521 4.66307 8.26865 4.66307 8.12124C4.66307 8.0421 4.68155 7.98019 4.71729 7.93616ZM4.57626 8.60623C4.71921 8.78683 4.88769 8.87745 5.08105 8.87745C5.17295 8.87745 5.28142 8.84108 5.40459 8.77024C5.27887 8.90489 5.1321 8.97253 4.96426 8.97253C4.71091 8.97253 4.47351 8.85065 4.25334 8.60623L0 8.30055V8.2278L4.31654 7.90745C4.34653 8.19207 4.43395 8.42563 4.57626 8.60623ZM6.7371 8.62155C6.78241 8.57304 6.80471 8.52072 6.80471 8.46456C6.80471 8.34969 6.76197 8.24568 6.67646 8.15187C6.59158 8.05742 6.49586 8.00764 6.39056 8.00189C6.54883 8.12187 6.66435 8.32863 6.7371 8.62155ZM6.27571 7.93616C6.31208 7.89149 6.36311 7.86915 6.4282 7.86915C6.54882 7.86915 6.66241 7.93361 6.76835 8.06379C6.87556 8.19398 6.92917 8.32992 6.92917 8.47223C6.92917 8.54625 6.90684 8.60623 6.8609 8.65154C6.81559 8.69748 6.76196 8.71982 6.69942 8.71982C6.58392 8.71982 6.47544 8.65665 6.37333 8.52965C6.2725 8.40202 6.22146 8.2661 6.22146 8.12124C6.22146 8.0421 6.23933 7.98019 6.27571 7.93616ZM5.01661 7.59857C5.1602 7.59857 5.30633 7.65345 5.45694 7.7613C5.60818 7.87107 5.77728 8.05103 5.96554 8.30055C6.14805 8.53667 6.28719 8.69174 6.38355 8.76258C6.478 8.83341 6.58904 8.8698 6.71475 8.8698C6.80473 8.8698 6.90812 8.83597 7.02299 8.77024C6.91323 8.89468 6.77345 8.95722 6.60498 8.95722C6.46458 8.95722 6.32483 8.90872 6.18572 8.81235C6.04596 8.71535 5.88832 8.55263 5.71283 8.32353C5.52266 8.07975 5.37268 7.91639 5.26356 7.8347C5.15443 7.75302 5.03701 7.7128 4.91129 7.7128C4.80089 7.7128 4.69305 7.74407 4.58776 7.80789C4.70837 7.66813 4.85133 7.59857 5.01661 7.59857ZM8.29548 8.62155C8.34015 8.57304 8.36248 8.52072 8.36248 8.46456C8.36248 8.34969 8.32037 8.24568 8.2355 8.15187C8.14935 8.05742 8.05297 8.00764 7.94512 8.00189C8.10593 8.12506 8.22209 8.33118 8.29548 8.62155ZM7.82833 7.9336C7.86407 7.89085 7.91641 7.86915 7.98597 7.86915C8.10467 7.86915 8.21633 7.93297 8.32163 8.05996C8.42692 8.18695 8.47989 8.32481 8.47989 8.47223C8.47989 8.5488 8.45758 8.60942 8.41355 8.65345C8.37015 8.69812 8.31397 8.71982 8.24697 8.71982C8.13593 8.71982 8.02999 8.65665 7.92916 8.52965C7.82642 8.40202 7.77539 8.2661 7.77539 8.12124C7.77539 8.03955 7.79323 7.977 7.82833 7.9336ZM6.575 7.59857C6.71795 7.59857 6.86408 7.65345 7.01149 7.7613C7.15955 7.87107 7.33056 8.05103 7.52392 8.30055C7.70708 8.53667 7.8462 8.69174 7.94128 8.76258C8.03637 8.83341 8.1455 8.8698 8.26931 8.8698C8.36376 8.8698 8.46714 8.83597 8.57755 8.77024C8.47225 8.89468 8.33375 8.95722 8.16336 8.95722C8.02105 8.95722 7.87875 8.90872 7.74027 8.81235C7.60115 8.71535 7.44351 8.55263 7.26738 8.32353C7.08168 8.08167 6.93426 7.9202 6.82322 7.8366C6.71346 7.75428 6.59415 7.7128 6.46588 7.7128C6.35867 7.7128 6.25017 7.74407 6.14296 7.80789C6.26485 7.66813 6.40972 7.59857 6.575 7.59857ZM12.1493 8.2929L9.134 8.13655C9.14932 8.15187 9.16209 8.17165 9.1723 8.19526C9.18187 8.22015 9.19975 8.25206 9.22527 8.2929H12.1493ZM13.2974 8.2278V8.30055L8.98023 8.68281C8.95789 8.39946 8.86726 8.16399 8.71091 7.97382C8.55456 7.78428 8.36951 7.6892 8.15573 7.6892C8.11361 7.6892 8.04532 7.70579 7.95278 7.73514C8.01277 7.67962 8.06956 7.64069 8.12444 7.619C8.17805 7.5973 8.24252 7.58645 8.31782 7.58645C8.44865 7.58645 8.57054 7.61581 8.68477 7.67452C8.799 7.73323 8.91961 7.82704 9.04788 7.95722L13.2974 8.2278Z" fill="#C89B3A"/>
<path d="M71.0606 4.87747C71.1532 4.90236 71.2278 4.94001 71.2865 4.98851V1.4231L71.0606 4.87747ZM70.9362 5.91449C70.9426 6.0434 71.0019 6.16146 71.1155 6.26612C71.2297 6.37269 71.3548 6.42566 71.4933 6.42566C71.561 6.42566 71.6241 6.39629 71.6828 6.33758C71.3357 6.25207 71.0868 6.11168 70.9362 5.91449ZM71.0791 5.70772C71.2572 5.70772 71.4225 5.76962 71.5744 5.89598C71.7262 6.0217 71.8022 6.15379 71.8022 6.29228C71.8022 6.36949 71.7747 6.43267 71.7186 6.485C71.6643 6.53797 71.5916 6.56413 71.5035 6.56413C71.3829 6.56413 71.2674 6.53414 71.1576 6.47416C71.0472 6.41353 70.9553 6.33759 70.8832 6.24569C70.8111 6.1538 70.7754 6.05935 70.7754 5.95979C70.7754 5.88066 70.8015 5.81877 70.8552 5.77346C70.9094 5.72942 70.9834 5.70772 71.0791 5.70772ZM70.8207 5.28334L71.208 7.62939e-06H71.2948L71.6643 5.20484C71.9585 5.47479 72.1066 5.76516 72.1066 6.07531C72.1066 6.28079 72.0249 6.46011 71.8622 6.61455C71.9483 6.46331 71.9911 6.33185 71.9911 6.21889C71.9911 5.9815 71.8819 5.77601 71.6643 5.60116C71.4461 5.42566 71.1647 5.31971 70.8207 5.28334ZM70.9362 7.82131C70.9426 7.94958 71.0019 8.067 71.1155 8.17102C71.2297 8.27504 71.3548 8.32738 71.4933 8.32738C71.561 8.32738 71.6241 8.30058 71.6828 8.24506C71.3293 8.15571 71.0804 8.01467 70.9362 7.82131ZM71.0791 7.61327C71.254 7.61327 71.4186 7.67646 71.5718 7.80026C71.725 7.9247 71.8022 8.05744 71.8022 8.19911C71.8022 8.27505 71.7747 8.34205 71.7186 8.39757C71.6643 8.45245 71.5916 8.47926 71.5035 8.47926C71.3306 8.47926 71.1666 8.4148 71.0102 8.28398C70.8532 8.15379 70.7754 8.01467 70.7754 7.86789C70.7754 7.78749 70.8015 7.72559 70.8552 7.68092C70.9094 7.63624 70.9834 7.61327 71.0791 7.61327ZM70.7013 5.61456C70.6248 5.7441 70.5858 5.87556 70.5858 6.01149C70.5858 6.16401 70.635 6.30824 70.7339 6.44161C70.8315 6.57499 71.0281 6.75813 71.3229 6.9917C71.5992 7.20676 71.7964 7.40013 71.9126 7.56988C72.0294 7.74027 72.0881 7.91257 72.0881 8.0836C72.0881 8.29036 72.0128 8.45948 71.8622 8.59477C71.9419 8.4531 71.9821 8.32738 71.9821 8.21698C71.9821 8.06382 71.9387 7.92853 71.8526 7.81302C71.7671 7.6956 71.5814 7.52457 71.2948 7.30057C70.9949 7.0702 70.7779 6.86279 70.6458 6.67837C70.5137 6.49458 70.448 6.31462 70.448 6.13976C70.448 5.93683 70.5322 5.76261 70.7013 5.61456ZM70.9362 9.72367C70.9426 9.85577 71.0019 9.97384 71.1155 10.0785C71.2297 10.1825 71.3548 10.2342 71.4933 10.2342C71.561 10.2342 71.6241 10.2074 71.6828 10.1525C71.3325 10.0632 71.083 9.92023 70.9362 9.72367ZM71.0791 9.51627C71.254 9.51627 71.4186 9.5788 71.5718 9.70261C71.725 9.82705 71.8022 9.9566 71.8022 10.0925C71.8022 10.1761 71.7754 10.2431 71.7211 10.2974C71.6675 10.351 71.5948 10.3778 71.5035 10.3778C71.3248 10.3778 71.1595 10.3133 71.0051 10.1844C70.8519 10.0549 70.7754 9.91832 70.7754 9.77473C70.7754 9.68858 70.8015 9.62412 70.8532 9.58136C70.9056 9.53797 70.9809 9.51627 71.0791 9.51627ZM70.7013 7.51754C70.6248 7.64964 70.5858 7.78112 70.5858 7.91385C70.5858 8.07084 70.6356 8.21633 70.7358 8.35099C70.8354 8.48564 71.0306 8.66751 71.3229 8.89406C71.5992 9.1104 71.7964 9.30249 71.9126 9.47288C72.0294 9.64263 72.0881 9.81557 72.0881 9.9917C72.0881 10.1997 72.0128 10.3689 71.8622 10.4978C71.9419 10.3631 71.9821 10.2368 71.9821 10.12C71.9821 9.96936 71.9387 9.83535 71.8526 9.71856C71.7671 9.60242 71.5814 9.43204 71.2948 9.20741C70.9949 8.97193 70.7779 8.76261 70.6458 8.58201C70.5137 8.39949 70.448 8.22208 70.448 8.04722C70.448 7.84429 70.5322 7.66751 70.7013 7.51754ZM71.2865 11.2897C71.2374 11.2591 71.1978 11.238 71.1691 11.2253C71.1391 11.2131 71.1155 11.1978 71.0976 11.1793L71.2865 14.8692V11.2897ZM70.8813 11.0734C70.7243 10.9164 70.6107 10.7683 70.5399 10.6299C70.4691 10.4888 70.434 10.3395 70.434 10.18C70.434 10.0874 70.4474 10.0089 70.4735 9.94192C70.4991 9.87683 70.5463 9.80728 70.6133 9.73262C70.5769 9.84621 70.5584 9.92916 70.5584 9.98149C70.5584 10.2431 70.6733 10.4697 70.9017 10.6611C71.1308 10.8526 71.4154 10.9636 71.7562 10.9898L71.2948 16.2744H71.208L70.8813 11.0734Z" fill="#C89B3A"/>
<path d="M75.4467 4.22653C75.4793 4.28269 75.4978 4.33756 75.5029 4.39053L77.2482 2.64516L75.4467 4.22653ZM74.8788 4.67324C74.8188 4.73898 74.79 4.82575 74.7939 4.9336C74.7977 5.04082 74.8334 5.12825 74.9011 5.19526C74.9336 5.22908 74.9789 5.24504 75.037 5.24504C74.9087 5.03317 74.8564 4.84236 74.8788 4.67324ZM75.0491 4.64134C75.1366 4.72877 75.1863 4.8398 75.1997 4.97573C75.2125 5.11166 75.1851 5.21377 75.1168 5.28141C75.0798 5.31843 75.0345 5.33756 74.9821 5.33629C74.9298 5.33437 74.8813 5.31139 74.8373 5.26736C74.7786 5.20865 74.7377 5.13783 74.7128 5.0555C74.6879 4.97063 74.6803 4.88957 74.6905 4.8098C74.6994 4.7294 74.7281 4.6643 74.7766 4.61644C74.8162 4.57751 74.8596 4.55966 74.9075 4.56476C74.956 4.56987 75.0032 4.59475 75.0491 4.64134ZM75.1308 4.30694L77.9068 1.91128L77.9496 1.95339L75.5814 4.68153C75.5941 4.9585 75.5239 5.17292 75.3721 5.32481C75.2712 5.42436 75.1442 5.4735 74.9892 5.46839C75.1053 5.43712 75.1902 5.39372 75.2457 5.3382C75.3612 5.22142 75.4091 5.06762 75.388 4.87554C75.3669 4.68281 75.2814 4.49392 75.1308 4.30694ZM73.9451 5.60687C73.8845 5.67196 73.8564 5.75875 73.8615 5.86597C73.866 5.97254 73.9017 6.05933 73.97 6.12698C74.0026 6.16016 74.0472 6.17738 74.1027 6.17866C73.9738 5.96232 73.9209 5.77151 73.9451 5.60687ZM74.1155 5.57496C74.2017 5.66047 74.2514 5.77087 74.2668 5.9068C74.2802 6.04337 74.2527 6.14548 74.1838 6.21504C74.1455 6.25269 74.1002 6.27248 74.0466 6.2712C73.9923 6.2712 73.9432 6.24951 73.8992 6.20611C73.8156 6.12187 73.7664 6.00956 73.7543 5.86916C73.7415 5.72876 73.7715 5.62219 73.843 5.55072C73.8826 5.51051 73.926 5.49392 73.9738 5.49838C74.0223 5.50285 74.0696 5.52774 74.1155 5.57496ZM74.9094 4.41095C74.8086 4.43648 74.7256 4.48244 74.6592 4.54817C74.5846 4.62411 74.538 4.71792 74.5208 4.83215C74.5035 4.9451 74.5105 5.13081 74.5399 5.3899C74.5705 5.63049 74.5724 5.82066 74.5456 5.96169C74.5195 6.10209 74.464 6.21504 74.3797 6.29864C74.2789 6.39947 74.1595 6.44541 74.0191 6.43776C74.127 6.40776 74.2087 6.36628 74.2629 6.31204C74.3376 6.23738 74.3829 6.14994 74.3982 6.05039C74.4129 5.95147 74.4052 5.77726 74.3759 5.5271C74.3408 5.26737 74.3363 5.05996 74.3625 4.90553C74.3874 4.75046 74.4435 4.62921 74.5284 4.54433C74.628 4.44478 74.7549 4.40138 74.9094 4.41095ZM73.0134 6.53795C72.9515 6.60496 72.9234 6.69238 72.9279 6.79895C72.9324 6.90552 72.9681 6.99232 73.0364 7.06124C73.0696 7.09443 73.1136 7.11102 73.1691 7.1123C73.0415 6.89724 72.9898 6.70579 73.0134 6.53795ZM73.1844 6.50668C73.2706 6.59156 73.3204 6.70196 73.335 6.83852C73.3491 6.97509 73.3229 7.07592 73.2572 7.14229C73.2163 7.18249 73.1697 7.20291 73.1174 7.20291C73.0645 7.20291 73.0153 7.1793 72.97 7.13526C72.8838 7.04783 72.8341 6.93553 72.822 6.79705C72.8092 6.65857 72.8392 6.5539 72.9094 6.4837C72.9515 6.44095 72.9962 6.42308 73.0428 6.42691C73.09 6.43202 73.1366 6.45818 73.1844 6.50668ZM73.9789 5.34268C73.8762 5.36948 73.7926 5.41542 73.7282 5.47987C73.6522 5.55645 73.605 5.65282 73.5871 5.76705C73.5699 5.88192 73.5775 6.06762 73.6082 6.32097C73.6382 6.56155 73.6407 6.75174 73.6145 6.89277C73.5877 7.03381 73.5322 7.14739 73.4467 7.23163C73.344 7.33437 73.2246 7.38033 73.0874 7.36948C73.1934 7.34268 73.2744 7.30056 73.3312 7.24312C73.4052 7.16974 73.4486 7.08358 73.464 6.98467C73.4793 6.88511 73.4729 6.7109 73.4416 6.46074C73.4103 6.19718 73.4065 5.98913 73.4301 5.83597C73.4544 5.68282 73.5099 5.56347 73.5954 5.47732C73.6943 5.3784 73.8219 5.33374 73.9789 5.34268Z" fill="#C89B3A"/>
<path d="M77.2482 14.3937L75.5029 12.6477C75.4978 12.7007 75.4793 12.7562 75.4467 12.8124L77.2482 14.3937ZM75.037 11.7939C74.9789 11.7939 74.9336 11.8098 74.9011 11.843C74.8334 11.91 74.7977 11.9981 74.7939 12.1053C74.79 12.2138 74.8188 12.2999 74.8788 12.3657C74.8564 12.1965 74.9087 12.0057 75.037 11.7939ZM74.9075 12.4741C74.8596 12.4792 74.8162 12.462 74.7766 12.4218C74.7281 12.3746 74.6994 12.3095 74.6905 12.2297C74.6803 12.15 74.6879 12.0683 74.7128 11.984C74.7377 11.9004 74.7786 11.8296 74.8373 11.7715C74.8813 11.7275 74.9298 11.7045 74.9821 11.7032C75.0345 11.7013 75.0798 11.7198 75.1168 11.7575C75.1851 11.8251 75.2125 11.9272 75.1997 12.0632C75.1863 12.1991 75.1366 12.3108 75.0491 12.3982C75.0032 12.4442 74.956 12.469 74.9075 12.4741ZM75.388 12.164C75.4091 11.9706 75.3612 11.8168 75.2457 11.7007C75.1902 11.6452 75.1053 11.6018 74.9892 11.5699C75.1442 11.5654 75.2712 11.6139 75.3721 11.7141C75.5239 11.866 75.5941 12.0804 75.5814 12.3574L77.9496 15.0855L77.9068 15.1276L75.1308 12.7313C75.2814 12.5456 75.3669 12.3561 75.388 12.164ZM74.1027 10.8602C74.0472 10.8615 74.0026 10.8787 73.97 10.9113C73.9017 10.9789 73.866 11.0657 73.8615 11.1729C73.8564 11.2801 73.8845 11.3663 73.9451 11.432C73.9209 11.268 73.9738 11.0772 74.1027 10.8602ZM73.9738 11.5405C73.926 11.5456 73.8826 11.5284 73.843 11.4888C73.7715 11.4167 73.7415 11.3101 73.7543 11.1697C73.7664 11.0293 73.8156 10.9177 73.8992 10.8328C73.9432 10.7894 73.9923 10.7677 74.0466 10.7677C74.1002 10.7671 74.1455 10.7868 74.1838 10.8238C74.2527 10.8928 74.2802 10.9949 74.2668 11.1321C74.2514 11.268 74.2017 11.3784 74.1155 11.4633C74.0696 11.5105 74.0223 11.5367 73.9738 11.5405ZM74.5284 12.4946C74.4435 12.409 74.3874 12.2884 74.3625 12.134C74.3363 11.9796 74.3408 11.7715 74.3759 11.5118C74.4052 11.2623 74.4129 11.0874 74.3982 10.9885C74.3829 10.8889 74.3376 10.8015 74.2629 10.7268C74.2087 10.672 74.127 10.6311 74.0191 10.6011C74.1595 10.5935 74.2789 10.6394 74.3797 10.7402C74.464 10.8245 74.5195 10.9362 74.5456 11.0778C74.5724 11.2182 74.5705 11.4084 74.5399 11.649C74.5105 11.9081 74.5035 12.0944 74.5208 12.2074C74.538 12.321 74.5846 12.4148 74.6592 12.4907C74.7256 12.5565 74.8086 12.6024 74.9094 12.6279C74.7549 12.6375 74.628 12.5941 74.5284 12.4946ZM73.1691 9.92659C73.1136 9.92787 73.0696 9.9451 73.0364 9.97765C72.9681 10.0466 72.9324 10.1327 72.9279 10.2399C72.9234 10.3465 72.9515 10.4339 73.0134 10.5009C72.9898 10.3331 73.0415 10.141 73.1691 9.92659ZM73.0428 10.612C72.9962 10.6164 72.9515 10.5973 72.9094 10.5558C72.8392 10.485 72.8092 10.3803 72.822 10.2419C72.8341 10.1034 72.8838 9.99041 72.97 9.90299C73.0153 9.85895 73.0645 9.83534 73.1174 9.83534C73.1697 9.83534 73.2163 9.85639 73.2572 9.8966C73.3229 9.96297 73.3491 10.0638 73.335 10.2004C73.3204 10.3363 73.2706 10.4467 73.1844 10.5328C73.1366 10.5807 73.09 10.6069 73.0428 10.612ZM73.5954 11.5609C73.5099 11.4761 73.4544 11.3561 73.4301 11.2023C73.4065 11.0498 73.4103 10.8417 73.4416 10.5782C73.4729 10.328 73.4793 10.1538 73.464 10.0549C73.4486 9.95531 73.4052 9.86917 73.3312 9.79578C73.2744 9.73834 73.1934 9.69623 73.0874 9.66879C73.2246 9.65858 73.344 9.70452 73.4467 9.80726C73.5322 9.89214 73.5877 10.0051 73.6145 10.1461C73.6407 10.2872 73.6382 10.4773 73.6082 10.7179C73.5775 10.9719 73.5699 11.157 73.5871 11.2712C73.605 11.3861 73.6522 11.4824 73.7282 11.5597C73.7926 11.6228 73.8762 11.6694 73.9789 11.6969C73.8219 11.7051 73.6943 11.6605 73.5954 11.5609Z" fill="#C89B3A"/>
<path d="M65.2961 2.64516L67.0409 4.39053C67.046 4.33756 67.0651 4.28269 67.0976 4.22653L65.2961 2.64516ZM67.5086 5.24504C67.5661 5.24504 67.6107 5.22908 67.6439 5.19526C67.7109 5.12825 67.7466 5.04082 67.7505 4.9336C67.7543 4.82575 67.7262 4.73898 67.6656 4.67324C67.6886 4.84236 67.6356 5.03317 67.5086 5.24504ZM67.6369 4.56476C67.6841 4.55966 67.7288 4.57751 67.7677 4.61644C67.8156 4.6643 67.8449 4.7294 67.8545 4.8098C67.8641 4.88957 67.8564 4.97063 67.8315 5.0555C67.8073 5.13783 67.7651 5.20865 67.7064 5.26736C67.663 5.31139 67.6152 5.33437 67.5622 5.33629C67.5099 5.33756 67.4646 5.31843 67.4276 5.28141C67.3587 5.21377 67.3319 5.11166 67.3453 4.97573C67.358 4.8398 67.4078 4.72877 67.4946 4.64134C67.5418 4.59475 67.5884 4.56987 67.6369 4.56476ZM67.1564 4.87554C67.1359 5.06762 67.1831 5.22142 67.2993 5.3382C67.3542 5.39372 67.4397 5.43712 67.5558 5.46839C67.4008 5.4735 67.2731 5.42436 67.1717 5.32481C67.0198 5.17292 66.9502 4.9585 66.9624 4.68153L64.5941 1.95339L64.6381 1.91128L67.4135 4.30694C67.2629 4.49392 67.1774 4.68281 67.1564 4.87554ZM68.4423 6.17866C68.4971 6.17738 68.5418 6.16016 68.575 6.12698C68.6426 6.05933 68.679 5.97254 68.6835 5.86597C68.6873 5.75875 68.6605 5.67196 68.5999 5.60687C68.6241 5.77151 68.5712 5.96232 68.4423 6.17866ZM68.5705 5.49838C68.6184 5.49392 68.6618 5.51051 68.7013 5.55072C68.7728 5.62219 68.8028 5.72876 68.79 5.86916C68.7773 6.00956 68.7288 6.12187 68.6452 6.20611C68.6011 6.24951 68.5526 6.2712 68.4984 6.2712C68.4442 6.27248 68.3982 6.25269 68.3605 6.21504C68.291 6.14548 68.2635 6.04337 68.2782 5.9068C68.2923 5.77087 68.342 5.66047 68.4282 5.57496C68.4748 5.52774 68.522 5.50285 68.5705 5.49838ZM68.0159 4.54433C68.1015 4.62921 68.1563 4.75046 68.1825 4.90553C68.208 5.05996 68.2036 5.26737 68.1691 5.5271C68.1391 5.77726 68.1315 5.95147 68.1468 6.05039C68.1615 6.14994 68.2068 6.23738 68.2814 6.31204C68.3363 6.36628 68.4174 6.40776 68.5259 6.43776C68.3855 6.44541 68.2648 6.39947 68.1646 6.29864C68.0804 6.21504 68.0243 6.10209 67.9981 5.96169C67.9719 5.82066 67.9738 5.63049 68.0044 5.3899C68.0344 5.13081 68.0408 4.9451 68.023 4.83215C68.0057 4.71792 67.9598 4.62411 67.8851 4.54817C67.8188 4.48244 67.7352 4.43648 67.6343 4.41095C67.7888 4.40138 67.9164 4.44478 68.0159 4.54433ZM69.3759 7.1123C69.4314 7.11102 69.4754 7.09443 69.5086 7.06124C69.5763 6.99232 69.6126 6.90552 69.6165 6.79895C69.6209 6.69238 69.5922 6.60496 69.5316 6.53795C69.5552 6.70579 69.5029 6.89724 69.3759 7.1123ZM69.5016 6.42691C69.5476 6.42308 69.5922 6.44095 69.635 6.4837C69.7052 6.5539 69.7345 6.65857 69.7237 6.79705C69.7109 6.93553 69.6611 7.04783 69.5737 7.13526C69.529 7.1793 69.4805 7.20291 69.4276 7.20291C69.3746 7.20291 69.328 7.18249 69.2878 7.14229C69.2208 7.07592 69.1953 6.97509 69.2093 6.83852C69.2234 6.70196 69.2731 6.59156 69.3593 6.50668C69.4078 6.45818 69.455 6.43202 69.5016 6.42691ZM68.9496 5.47732C69.0344 5.56347 69.09 5.68282 69.1136 5.83597C69.1378 5.98913 69.134 6.19718 69.1028 6.46074C69.0721 6.7109 69.0651 6.88511 69.0804 6.98467C69.0951 7.08358 69.1391 7.16974 69.2138 7.24312C69.2699 7.30056 69.3516 7.34268 69.4569 7.36948C69.3197 7.38033 69.2004 7.33437 69.0976 7.23163C69.0121 7.14739 68.9566 7.03381 68.9298 6.89277C68.9036 6.75174 68.9056 6.56155 68.9355 6.32097C68.9668 6.06762 68.9745 5.88192 68.9566 5.76705C68.94 5.65282 68.8928 5.55645 68.8162 5.47987C68.7511 5.41542 68.6675 5.36948 68.5654 5.34268C68.7224 5.33374 68.8494 5.3784 68.9496 5.47732Z" fill="#C89B3A"/>
<path d="M67.0976 12.8124C67.0651 12.7562 67.046 12.7007 67.0409 12.6477L65.2961 14.3937L67.0976 12.8124ZM67.6656 12.3657C67.7262 12.2999 67.7543 12.2138 67.7505 12.1053C67.7466 11.9981 67.7109 11.91 67.6439 11.843C67.6107 11.8098 67.5661 11.7939 67.5086 11.7939C67.6356 12.0057 67.6886 12.1965 67.6656 12.3657ZM67.4946 12.3982C67.4078 12.3108 67.358 12.1991 67.3453 12.0632C67.3319 11.9272 67.3587 11.8251 67.4276 11.7575C67.4646 11.7198 67.5099 11.7013 67.5622 11.7032C67.6152 11.7045 67.663 11.7275 67.7064 11.7715C67.7651 11.8296 67.8073 11.9004 67.8315 11.984C67.8564 12.0683 67.8641 12.15 67.8545 12.2297C67.8449 12.3095 67.8156 12.3746 67.7677 12.4218C67.7288 12.462 67.6841 12.4792 67.6369 12.4741C67.5884 12.469 67.5418 12.4442 67.4946 12.3982ZM67.4135 12.7313L64.6381 15.1276L64.5941 15.0855L66.9624 12.3574C66.9502 12.0804 67.0198 11.866 67.1717 11.7141C67.2731 11.6139 67.4008 11.5654 67.5558 11.5699C67.4397 11.6018 67.3542 11.6452 67.2993 11.7007C67.1831 11.8168 67.1359 11.9706 67.1564 12.164C67.1774 12.3561 67.2629 12.5456 67.4135 12.7313ZM68.5999 11.432C68.6605 11.3663 68.6873 11.2801 68.6835 11.1729C68.679 11.0657 68.6426 10.9789 68.575 10.9113C68.5418 10.8787 68.4971 10.8615 68.4423 10.8602C68.5712 11.0772 68.6241 11.268 68.5999 11.432ZM68.4282 11.4633C68.342 11.3784 68.2923 11.268 68.2782 11.1321C68.2635 10.9949 68.291 10.8928 68.3605 10.8238C68.3982 10.7868 68.4442 10.7671 68.4984 10.7677C68.5526 10.7677 68.6011 10.7894 68.6452 10.8328C68.7288 10.9177 68.7773 11.0293 68.79 11.1697C68.8028 11.3101 68.7728 11.4167 68.7013 11.4888C68.6618 11.5284 68.6184 11.5456 68.5705 11.5405C68.522 11.5367 68.4748 11.5105 68.4282 11.4633ZM67.6343 12.6279C67.7352 12.6024 67.8188 12.5565 67.8851 12.4907C67.9598 12.4148 68.0057 12.321 68.023 12.2074C68.0408 12.0944 68.0344 11.9081 68.0044 11.649C67.9738 11.4084 67.9719 11.2182 67.9981 11.0778C68.0243 10.9362 68.0804 10.8245 68.1646 10.7402C68.2648 10.6394 68.3855 10.5935 68.5259 10.6011C68.4174 10.6311 68.3363 10.672 68.2814 10.7268C68.2068 10.8015 68.1615 10.8889 68.1468 10.9885C68.1315 11.0874 68.1391 11.2623 68.1691 11.5118C68.2036 11.7715 68.208 11.9796 68.1825 12.134C68.1563 12.2884 68.1015 12.409 68.0159 12.4946C67.9164 12.5941 67.7888 12.6375 67.6343 12.6279ZM69.5316 10.5009C69.5922 10.4339 69.6209 10.3465 69.6165 10.2399C69.6126 10.1327 69.5763 10.0466 69.5086 9.97765C69.4754 9.9451 69.4314 9.92787 69.3759 9.92659C69.5029 10.141 69.5552 10.3331 69.5316 10.5009ZM69.3593 10.5328C69.2731 10.4467 69.2234 10.3363 69.2093 10.2004C69.1953 10.0638 69.2208 9.96297 69.2878 9.8966C69.328 9.85639 69.3746 9.83534 69.4276 9.83534C69.4805 9.83534 69.529 9.85895 69.5737 9.90299C69.6611 9.99041 69.7109 10.1034 69.7237 10.2419C69.7345 10.3803 69.7052 10.485 69.635 10.5558C69.5922 10.5973 69.5476 10.6164 69.5016 10.612C69.455 10.6069 69.4078 10.5807 69.3593 10.5328ZM68.5654 11.6969C68.6675 11.6694 68.7511 11.6228 68.8162 11.5597C68.8928 11.4824 68.94 11.3861 68.9566 11.2712C68.9745 11.157 68.9668 10.9719 68.9355 10.7179C68.9056 10.4773 68.9036 10.2872 68.9298 10.1461C68.9566 10.0051 69.0121 9.89214 69.0976 9.80726C69.2004 9.70452 69.3197 9.65858 69.4569 9.66879C69.3516 9.69623 69.2699 9.73834 69.2138 9.79578C69.1391 9.86917 69.0951 9.95531 69.0804 10.0549C69.0651 10.1538 69.0721 10.328 69.1028 10.5782C69.134 10.8417 69.1378 11.0498 69.1136 11.2023C69.09 11.3561 69.0344 11.4761 68.9496 11.5609C68.8494 11.6605 68.7224 11.7051 68.5654 11.6969Z" fill="#C89B3A"/>
<path d="M73.2246 8.64263C81.0038 11.7033 90.0574 10.4875 98.1066 9.35609C103.241 8.63369 108.278 7.77537 113.479 7.70453C117.974 7.64391 122.458 8.13337 126.915 8.67198C127.288 8.71729 128.559 8.0887 127.801 7.99744C119.407 6.98085 111.198 6.68156 102.814 8.00638C93.7345 9.44033 83.2208 11.5105 74.3625 8.02681C73.9962 7.88258 72.7096 8.44097 73.2246 8.64263Z" fill="#C89B3A"/>
<path d="M74.0357 8.48818C83.0166 4.95468 93.8736 7.24951 103.055 8.75749C111.068 10.074 119.038 9.58518 127.052 8.61262C127.405 8.56923 128.585 7.94511 127.665 8.05679C123.195 8.59922 118.729 9.05678 114.22 9.05295C108.712 9.04784 103.354 8.00573 97.9259 7.2259C90.0051 6.08806 81.1851 5.1774 73.5527 8.18122C72.6184 8.54817 73.5067 8.69622 74.0357 8.48818Z" fill="#C89B3A"/>
<path d="M68.5118 8.10721C59.7983 11.5348 49.2438 9.44671 40.3095 7.99744C31.94 6.64007 23.7007 6.99107 15.3216 8.00639C14.6905 8.08297 14.1123 8.78239 15.097 8.66306C19.5578 8.12317 24.0153 7.69433 28.5118 7.70454C33.7109 7.71602 38.7798 8.61647 43.9055 9.3644C52.0389 10.5514 61.1787 11.6535 69.0351 8.56286C69.9604 8.19911 69.0989 7.87491 68.5118 8.10721Z" fill="#C89B3A"/>
<path d="M69.4371 8.097C61.8921 5.12763 53.1761 6.16592 45.3535 7.24187C39.9745 7.98022 34.7128 8.98468 29.2623 9.05296C24.7543 9.10976 20.2572 8.60816 15.7888 8.06509C15.4582 8.02488 14.2642 8.55966 14.6299 8.60433C22.746 9.58902 30.6835 9.97256 38.8002 8.74218C48.194 7.31781 58.9196 4.9566 68.1098 8.57306C68.4971 8.72494 69.5641 8.14677 69.4371 8.097Z" fill="#C89B3A"/>
</svg>
