<svg width="125" height="124" viewBox="0 0 125 124" fill="none" xmlns="http://www.w3.org/2000/svg">
<path d="M76.3298 71.7149C77.5559 65.6416 79.7865 59.442 83.5056 54.5426C82.788 60.8523 82.3699 67.2191 82.4232 73.5533C80.3525 73.0805 78.3226 72.4527 76.3298 71.7149ZM61.5274 62.7639C58.3455 59.4216 55.7949 55.5005 53.8431 51.2818C61.7077 49.5413 69.0844 46.0482 74.2346 40.4192C77.1172 40.036 79.9874 39.604 82.8208 39.119C83.846 38.9437 84.8711 38.7643 85.8962 38.5768C85.7158 39.5999 85.5395 40.6188 85.3632 41.6297C84.8711 44.4543 84.4406 47.3036 84.047 50.169C78.3843 55.2885 74.8742 62.613 73.1234 70.4268C68.863 68.4825 64.9021 65.9392 61.5274 62.7639ZM50.6899 42.0373C57.0743 42.0902 63.4955 41.6745 69.8512 40.9572C64.9143 44.6623 58.6652 46.8757 52.5433 48.0944C51.8011 46.1134 51.1696 44.0957 50.6899 42.0373ZM97.607 16.2808C100.777 11.7972 110.364 1.67241 117.379 5.5691C117.99 5.8585 118.757 6.62468 119.11 7.28907C122.825 14.7523 112.848 23.793 108.33 26.9438C103.155 30.5592 97.0781 32.2019 90.9849 33.5226C92.3216 27.4656 93.97 21.4207 97.607 16.2808ZM114.431 99.2405C107.883 95.947 99.6246 100.084 99.9608 107.755C100.211 113.572 107.247 117.179 112.279 114.35C112.574 114.191 112.865 114.016 113.135 113.796C113.279 113.682 113.394 113.563 113.488 113.453C114.968 111.97 115.28 109.789 114.111 108.383C112.857 106.863 110.38 106.826 108.58 108.293C107.247 109.386 106.665 111.004 106.968 112.386C105.382 111.603 104.094 109.756 104.028 108.358C103.983 107.144 103.983 105.876 104.414 104.71C106.608 98.8328 114.009 100.858 116.555 105.403C121.242 113.739 114.624 125.364 104.525 119.612C91.3457 112.117 87.5814 95.2702 86.7941 81.2446C86.7039 79.6142 86.7326 77.9715 86.6916 76.3371C91.0176 76.6305 95.3395 76.435 99.399 75.6769C113.447 73.056 122.648 62.8576 124.67 48.8483C124.822 47.7804 121.545 48.2695 121.418 49.1703C119.589 61.7938 111.454 73.1253 97.8695 74.5397C94.175 74.9269 90.3945 74.8046 86.6508 74.2951C86.5606 66.1104 87.0566 57.9175 88.1432 49.7899C88.2293 49.7287 88.295 49.6473 88.3811 49.5821C92.6988 46.3743 103.483 42.9423 106.858 47.7724C108.281 49.8185 108.764 52.7736 107.538 55.1132C105.775 58.4882 100.235 59.6987 97.4635 57.4569C98.1606 56.6743 98.542 55.4353 98.3821 54.0902C98.1443 51.9422 96.6311 50.3524 95.0114 50.5358C93.3877 50.7193 92.2806 52.6065 92.5225 54.7546C92.5676 55.1377 92.6661 55.4883 92.7768 55.8225C94.011 60.4081 99.8827 62.8618 104.598 61.6593C109.035 60.5384 112.381 56.063 111.487 50.9924C109.531 39.877 96.5819 42.4286 88.5615 46.9C89.0207 43.843 89.5129 40.79 90.1197 37.7656C99.2104 35.8702 108.268 32.9314 114.808 26.1162C119.704 21.0212 125.654 11.675 120.713 4.88843C120.512 4.60311 120.127 4.28916 119.799 3.9753C112.967 -0.936317 103.565 4.97807 98.4395 9.84077C91.5754 16.338 88.6189 25.3501 86.7245 34.3907C83.6737 34.9899 80.6025 35.479 77.5231 35.9355C82.0254 27.9669 84.5923 15.0907 73.4145 13.1424C68.3094 12.2538 63.8194 15.5839 62.6795 19.9901C61.4698 24.6775 63.9384 30.5185 68.5514 31.7413C68.8877 31.8554 69.2485 31.9492 69.6258 31.9941C71.7867 32.2386 73.6851 31.134 73.8778 29.524C74.0623 27.9139 72.459 26.4099 70.2981 26.1694C68.9532 26.0104 67.6944 26.3895 66.9112 27.0865C64.6601 24.327 65.8696 18.8161 69.273 17.0716C71.6184 15.8528 74.5914 16.3257 76.658 17.7482C81.5088 21.1069 78.0562 31.8268 74.8292 36.1189C74.7718 36.2004 74.6857 36.2698 74.6242 36.3513C66.4397 37.4315 58.1855 37.9245 49.9395 37.8348C49.4269 34.1012 49.304 30.3309 49.6894 26.6502C51.1123 13.1423 62.5033 5.05553 75.2146 3.2417C76.1126 3.11127 76.6087 -0.149538 75.5344 0.0053509C61.4412 2.01891 51.182 11.1655 48.5454 25.1259C47.7868 29.153 47.6145 33.4736 47.9425 37.7942C46.286 37.7576 44.6295 37.7861 42.9812 37.6923C28.8716 36.9097 11.9203 33.1719 4.37961 20.0675C-1.40611 10.0323 10.2883 3.45352 18.6737 8.10428C23.2457 10.6396 25.2877 17.997 19.3708 20.1736C18.2063 20.6097 16.9269 20.6096 15.7009 20.5525C14.2985 20.4914 12.441 19.2115 11.6537 17.6382C13.0396 17.9357 14.6676 17.3609 15.7665 16.0362C17.2427 14.2468 17.2058 11.7891 15.6804 10.5378C14.2617 9.37609 12.0761 9.6818 10.5753 11.1573C10.4687 11.2511 10.3539 11.357 10.2349 11.5078C10.0094 11.7809 9.83315 12.0703 9.67734 12.3638C6.82754 17.357 10.4606 24.3513 16.3119 24.6041C24.033 24.9383 28.1866 16.7292 24.8776 10.2157C20.4901 1.60715 9.11152 -0.492108 2.64513 7.15453C-3.81715 14.8052 2.86236 25.346 8.79979 30.7468C17.0622 38.2793 30.0688 40.5862 40.8489 41.5686C43.3583 41.7968 45.8882 41.915 48.4222 41.9843C48.7831 44.2221 49.3039 46.4232 49.9763 48.5713C48.7585 48.7628 47.549 48.9217 46.3762 49.0439C37.9662 49.8958 29.0519 48.7588 21.3554 45.2167C13.7655 41.7154 8.73824 34.6923 4.04324 28.085C1.07043 23.8989 2.2227 29.9518 2.86237 30.8893C10.5958 42.2777 19.3217 49.9856 33.3451 52.0888C38.8725 52.9163 45.064 52.8591 51.1286 51.8361C52.8754 56.1689 55.2702 60.1674 58.4603 63.412C59.0549 64.113 60.285 65.3644 60.8795 65.821C64.2132 69.0696 68.2356 71.4582 72.5533 73.1905C71.5364 79.2026 71.479 85.3451 72.3073 90.8233C74.4313 104.767 82.1812 113.433 93.642 121.12C94.581 121.752 100.666 122.906 96.463 119.955C89.808 115.284 82.743 110.286 79.2208 102.738C75.6534 95.0909 74.5094 86.2338 75.3664 77.8697C75.4853 76.7203 75.6451 75.5424 75.8337 74.3522C78.0069 75.0247 80.2253 75.5342 82.4765 75.8807C82.5462 78.3834 82.6651 80.8819 82.8947 83.3642C83.8788 94.0761 86.2038 107.005 93.7773 115.227C99.2145 121.121 109.81 127.765 117.515 121.337C125.203 114.909 123.091 103.598 114.431 99.2405Z" fill="#C89B3A"/>
</svg>
