<svg width="125" height="124" viewBox="0 0 125 124" fill="none" xmlns="http://www.w3.org/2000/svg">
<path d="M63.1479 62.7639C59.7732 65.9392 55.8123 68.4825 51.5519 70.4268C49.801 62.613 46.2911 55.2845 40.6243 50.169C40.2348 47.3036 39.8042 44.4543 39.3163 41.6297C39.1441 40.6188 38.9636 39.5999 38.7709 38.5768C39.8042 38.7643 40.8293 38.9437 41.8462 39.119C44.6837 39.604 47.5622 40.036 50.4489 40.4192C55.595 46.0482 62.9675 49.5413 70.8322 51.2818C68.8845 55.5005 66.3339 59.4216 63.1479 62.7639ZM42.2563 73.5491C42.3055 67.215 41.8872 60.8441 41.1655 54.5344C44.8846 59.4338 47.1152 65.6375 48.3413 71.7149C46.3525 72.4527 44.327 73.0804 42.2563 73.5491ZM73.9854 42.0373C73.5097 44.0957 72.8743 46.1134 72.1362 48.0944C66.0142 46.8757 59.761 44.6623 54.8241 40.9572C61.1879 41.6745 67.601 42.0902 73.9854 42.0373ZM16.3374 26.9438C11.8352 23.793 1.8547 14.7523 5.56559 7.28907C5.91413 6.62468 6.6891 5.8585 7.30007 5.5691C14.3159 1.67241 23.9027 11.7972 27.0682 16.2808C30.7053 21.4207 32.3579 27.4656 33.6864 33.5226C27.5973 32.2019 21.5204 30.5592 16.3374 26.9438ZM120.636 28.085C115.933 34.6923 110.918 41.7154 103.312 45.2167C95.6234 48.7588 86.7092 49.8958 78.3033 49.0439C77.1305 48.9217 75.925 48.7628 74.7072 48.5713C75.3796 46.4232 75.9003 44.2221 76.257 41.9843C78.7911 41.915 81.317 41.7968 83.8264 41.5686C94.5983 40.5862 107.613 38.2793 115.884 30.7468C121.813 25.346 128.501 14.8052 122.03 7.15453C115.564 -0.492108 104.181 1.60715 99.7977 10.2157C96.4805 16.7292 100.651 24.9383 108.368 24.6041C114.211 24.3513 117.848 17.357 114.998 12.3638C114.846 12.0703 114.662 11.7809 114.44 11.5078C114.326 11.357 114.211 11.2511 114.1 11.1573C112.603 9.6818 110.414 9.37609 108.995 10.5378C107.465 11.7891 107.429 14.2468 108.909 16.0362C110.008 17.3609 111.64 17.9357 113.022 17.6382C112.234 19.2115 110.377 20.4914 108.974 20.5525C107.748 20.6096 106.477 20.6097 105.304 20.1736C99.3916 17.997 101.43 10.6396 105.997 8.10428C114.387 3.45352 126.077 10.0323 120.3 20.0675C112.755 33.1719 95.8079 36.9097 81.6983 37.6923C80.0459 37.7861 78.3934 37.7576 76.741 37.7942C77.0649 33.4736 76.8968 29.153 76.1341 25.1259C73.4975 11.1655 63.2341 2.01891 49.1409 0.0053509C48.0707 -0.149538 48.5668 3.11127 49.4607 3.2417C62.1638 5.05553 73.5589 13.1423 74.9859 26.6502C75.3754 30.3309 75.2484 34.1012 74.7358 37.8348C66.4939 37.9245 58.2356 37.4315 50.0511 36.3513C49.9896 36.2698 49.9076 36.2004 49.8461 36.1189C46.6149 31.8268 43.1625 21.1069 48.0297 17.7482C50.0799 16.3257 53.0568 15.8528 55.4145 17.0716C58.8097 18.8161 60.0193 24.327 57.7723 27.0865C56.9809 26.3895 55.7262 26.0104 54.3772 26.1694C52.2163 26.4099 50.617 27.9139 50.8015 29.524C50.986 31.134 52.8887 32.2386 55.0455 31.9941C55.4309 31.9492 55.7876 31.8554 56.1239 31.7413C60.7369 30.5185 63.2055 24.6775 61.9958 19.9901C60.8682 15.5839 56.3659 12.2538 51.2608 13.1424C40.0789 15.0907 42.6458 27.9669 47.1522 35.9355C44.0727 35.479 41.0014 34.9899 37.9548 34.3907C36.0563 25.3501 33.0917 16.338 26.2357 9.84077C21.1143 4.97807 11.708 -0.936317 4.87665 3.9753C4.54451 4.28916 4.16738 4.60311 3.96646 4.88843C-0.974561 11.675 4.97092 21.0212 9.85864 26.1162C16.4029 32.9314 25.465 35.8702 34.5597 37.7656C35.1625 40.79 35.6546 43.843 36.1138 46.9C28.0934 42.4286 15.1482 39.877 13.1882 50.9924C12.2943 56.063 15.6403 60.5384 20.0729 61.6593C24.7966 62.8618 30.6642 60.4081 31.8985 55.8225C32.0133 55.4883 32.1077 55.1377 32.157 54.7546C32.3948 52.6065 31.2835 50.7193 29.6639 50.5358C28.0483 50.3524 26.5351 51.9422 26.2932 54.0902C26.1374 55.4353 26.5105 56.6743 27.2158 57.4569C24.4439 59.6987 18.9002 58.4882 17.1411 55.1132C15.9151 52.7736 16.3949 49.8185 17.8218 47.7724C21.1924 42.9423 31.9847 46.3743 36.3024 49.5821C36.3844 49.6432 36.4501 49.7206 36.5321 49.7817C37.6228 57.9093 38.1189 66.1063 38.0287 74.2951C34.2809 74.8046 30.5003 74.9269 26.8058 74.5397C13.2251 73.1253 5.08579 61.7938 3.2611 49.1703C3.12989 48.2695 -0.150438 47.7804 0.00537866 48.8483C2.03509 62.8576 11.2364 73.056 25.2763 75.6769C29.3357 76.435 33.6617 76.6305 37.9877 76.3371C37.9467 77.9715 37.9795 79.6142 37.8851 81.2446C37.0938 95.2702 33.3419 112.117 20.159 119.612C10.0514 125.364 3.44145 113.739 8.11595 105.403C10.6664 100.858 18.0678 98.8328 20.2615 104.71C20.7002 105.876 20.6961 107.144 20.6469 108.358C20.5813 109.756 19.2939 111.603 17.7111 112.386C18.0105 111.004 17.4322 109.386 16.0996 108.293C14.2995 106.826 11.8268 106.863 10.568 108.383C9.39528 109.789 9.70692 111.97 11.1913 113.453C11.2774 113.563 11.3881 113.682 11.5399 113.796C11.8187 114.016 12.1058 114.191 12.401 114.35C17.4281 117.179 24.4603 113.572 24.7145 107.755C25.0507 100.084 16.7966 95.947 10.24 99.2405C1.58813 103.598 -0.527598 114.909 7.16072 121.337C14.8654 127.765 25.4649 121.121 30.898 115.227C38.4756 107.005 40.7965 94.0761 41.7806 83.3642C42.0102 80.8819 42.1292 78.3834 42.1948 75.8807C44.45 75.5342 46.6683 75.0247 48.8374 74.3522C49.026 75.5424 49.1859 76.7203 49.3007 77.8697C50.1618 86.2338 49.0138 95.0909 45.4505 102.738C41.9365 110.286 34.8713 115.284 28.2245 119.955C24.0093 122.906 30.0985 121.752 31.0375 121.12C42.4942 113.433 50.248 104.767 52.3638 90.8233C53.2003 85.3451 53.1429 79.2026 52.1259 73.1905C56.4437 71.4582 60.4622 69.0696 63.8 65.821C64.3904 65.3644 65.6245 64.113 66.215 63.412C69.4133 60.1674 71.804 56.1689 73.5467 51.8361C79.6113 52.8591 85.8029 52.9163 91.3261 52.0888C105.354 49.9856 114.075 42.2777 121.813 30.8893C122.444 29.9518 123.609 23.8989 120.636 28.085Z" fill="#C89B3A"/>
</svg>
