<svg xmlns="http://www.w3.org/2000/svg" viewBox="0 0 182.09 68.17" data-guides="{&quot;vertical&quot;:[],&quot;horizontal&quot;:[]}"><defs/><path fill="rgb(216, 178, 98)" stroke="none" fill-opacity="1" stroke-width="1" stroke-opacity="1" id="tSvgac12406c3f" title="Path 2" d="M173.2694 58.1407C173.9133 58.1407 174.4387 58.6647 174.4387 59.31C174.4387 59.9553 173.9133 60.4793 173.2694 60.4793C172.624 60.4793 172.1 59.9553 172.1 59.31C172.1 58.6647 172.624 58.1407 173.2694 58.1407ZM173.2694 60.926C174.16 60.926 174.884 60.2007 174.884 59.31C174.884 58.4193 174.16 57.694 173.2694 57.694C172.3787 57.694 171.6534 58.4193 171.6534 59.31C171.6534 60.2007 172.3787 60.926 173.2694 60.926Z"/><path fill="rgb(216, 178, 98)" stroke="none" fill-opacity="1" stroke-width="1" stroke-opacity="1" id="tSvg19621c52a4" title="Path 3" d="M177.3426 61.0126C177.6666 62.8313 178.5053 64.3513 179.2746 65.4259C178.1626 64.7006 176.608 63.9046 174.7893 63.582C174.9827 63.0886 175.2973 62.0126 174.912 60.9926C175.88 61.3913 176.8787 61.1633 177.3426 61.0126ZM180.7866 67.1713C180.8884 67.0633 180.9902 66.9553 181.0919 66.8473C181.0799 66.8339 181.0413 66.7966 180.9746 66.7353C180.4506 66.2233 178.2106 63.8713 177.74 60.6766C177.7258 60.5784 177.7115 60.4802 177.6973 60.382C177.6071 60.4233 177.5169 60.4647 177.4266 60.506C177.352 60.5407 175.5773 61.3326 174.3 60.054C174.1951 60.1593 174.0902 60.2647 173.9853 60.37C175.26 61.6446 174.2827 63.6366 174.2733 63.6566C174.2271 63.7486 174.1809 63.8406 174.1347 63.9326C174.2365 63.9477 174.3382 63.9628 174.44 63.9779C177.636 64.4473 180.1173 66.5593 180.6666 67.0579C180.7319 67.1219 180.7746 67.1593 180.7866 67.1713Z"/><path fill="rgb(216, 178, 98)" stroke="none" fill-opacity="1" stroke-width="1" stroke-opacity="1" id="tSvg97f3819fae" title="Path 4" d="M159.8548 53.6594C159.9873 53.6314 160.1197 53.6034 160.2521 53.5754C160.3815 53.5394 160.5081 53.4941 160.6361 53.4541C160.7615 53.4061 160.8828 53.3474 161.0041 53.2954C161.1219 53.2336 161.2397 53.1718 161.3575 53.1101C161.4681 53.0381 161.5788 52.9661 161.6895 52.8941C161.7921 52.8114 161.8948 52.7287 161.9975 52.6461C162.0912 52.5541 162.185 52.4621 162.2788 52.3701C162.3628 52.2701 162.4468 52.1701 162.5308 52.0701C162.6063 51.9634 162.6819 51.8567 162.7575 51.7501C162.8215 51.6372 162.8855 51.5243 162.9495 51.4114C163.0028 51.2927 163.0601 51.1767 163.1108 51.0567C163.1526 50.9341 163.1943 50.8114 163.2361 50.6887C163.2668 50.5634 163.3015 50.4381 163.3295 50.3128C163.3472 50.1848 163.365 50.0568 163.3828 49.9288C163.3886 49.7994 163.3943 49.6701 163.4001 49.5408C163.4055 49.4208 163.5014 49.3234 163.6228 49.3181C163.7521 49.3123 163.8814 49.3065 164.0108 49.3008C164.1388 49.2825 164.2668 49.2643 164.3948 49.2461C164.5214 49.2194 164.6468 49.1848 164.7734 49.1541C164.8957 49.1119 165.0179 49.0697 165.1401 49.0274C165.2601 48.9794 165.3761 48.9208 165.4948 48.8688C165.6077 48.8039 165.7205 48.739 165.8334 48.6741C165.9401 48.599 166.0468 48.5239 166.1534 48.4488C166.2534 48.3648 166.3534 48.2808 166.4534 48.1968C166.545 48.103 166.6365 48.0092 166.7281 47.9154C166.8112 47.8123 166.8943 47.7092 166.9774 47.6061C167.0494 47.4954 167.1214 47.3848 167.1934 47.2741C167.2552 47.1568 167.317 47.0394 167.3787 46.9221C167.4307 46.7995 167.4894 46.6781 167.5374 46.5528C167.5761 46.4261 167.6214 46.2981 167.6587 46.1688C167.6867 46.0368 167.7147 45.9048 167.7427 45.7728C167.7592 45.6506 167.7756 45.5284 167.7921 45.4061C167.6347 45.5248 167.4787 45.6448 167.3201 45.7595C167.0254 45.9355 166.7361 46.1221 166.4388 46.2901C166.1281 46.4368 165.8241 46.5968 165.5081 46.7328C165.1854 46.8488 164.8668 46.9768 164.5401 47.0808C164.2081 47.1648 163.8774 47.2608 163.5428 47.3341C163.2028 47.3848 162.8641 47.4434 162.5241 47.4874C162.2166 47.5034 161.909 47.5194 161.6015 47.5354C161.585 47.8434 161.5686 48.1514 161.5521 48.4594C161.5081 48.7994 161.4495 49.1381 161.3975 49.4781C161.3268 49.8128 161.2295 50.1434 161.1468 50.4754C161.0428 50.8021 160.9135 51.1221 160.7975 51.4447C160.6615 51.7594 160.5015 52.0634 160.3548 52.3741C160.1868 52.6714 160.0002 52.9607 159.8242 53.2541C159.7135 53.4087 159.5988 53.5581 159.4842 53.7101C159.6077 53.6932 159.7313 53.6763 159.8548 53.6594ZM152.1229 57.7527C152.4589 57.706 152.7936 57.6447 153.1282 57.5913C153.4575 57.5153 153.7829 57.4167 154.1109 57.3313C154.4322 57.2247 154.7442 57.094 155.0602 56.9767C155.3695 56.8394 155.6682 56.682 155.9735 56.5354C156.2669 56.3687 156.5509 56.1834 156.8375 56.0087C157.1108 55.8114 157.3775 55.602 157.6468 55.3994C157.8948 55.1714 158.1428 54.9434 158.3908 54.7154C158.6153 54.4638 158.8397 54.2123 159.0642 53.9607C159.2628 53.6887 159.4695 53.4221 159.6642 53.1474C159.8348 52.8581 160.0161 52.5741 160.1801 52.2794C160.3228 51.9754 160.4775 51.6754 160.6108 51.3661C160.7215 51.0487 160.8468 50.7367 160.9468 50.4154C161.0268 50.0888 161.1188 49.7648 161.1895 49.4368C161.2375 49.1034 161.2935 48.7714 161.3348 48.4381C161.3512 48.1021 161.3677 47.7661 161.3841 47.4301C161.3868 47.3714 161.4348 47.3221 161.4948 47.3194C161.8304 47.303 162.1659 47.2866 162.5015 47.2701C162.8348 47.2288 163.1668 47.1728 163.5001 47.1248C163.8294 47.0554 164.1534 46.9634 164.4801 46.8821C164.8001 46.7821 165.1134 46.6568 165.4321 46.5461C165.7401 46.4128 166.0401 46.2581 166.3441 46.1155C166.6388 45.9528 166.9227 45.7701 167.2121 45.5995C167.4832 45.3995 167.7543 45.1995 168.0254 44.9995C168.2765 44.7755 168.5276 44.5515 168.7787 44.3275C169.0072 44.079 169.2356 43.8306 169.4641 43.5821C169.6667 43.3128 169.8761 43.0475 170.0734 42.7742C170.248 42.4862 170.4334 42.2022 170.6014 41.9088C170.7467 41.6048 170.904 41.3048 171.0414 40.9968C171.1587 40.6795 171.2894 40.3675 171.396 40.0462C171.4814 39.7182 171.58 39.3942 171.656 39.0635C171.7094 38.7302 171.772 38.3955 171.8187 38.0595C171.8405 37.7204 171.8623 37.3813 171.884 37.0422C171.8707 37.3818 171.8574 37.7213 171.844 38.0609C171.8067 38.3982 171.7534 38.7355 171.7094 39.0742C171.6414 39.4075 171.552 39.7369 171.4734 40.0702C171.376 40.3955 171.252 40.7142 171.1414 41.0382C171.0094 41.3528 170.8534 41.6582 170.7107 41.9675C170.5467 42.2675 170.3627 42.5568 170.1894 42.8528C169.9947 43.1315 169.7854 43.4048 169.5841 43.6808C169.3561 43.9364 169.1281 44.1919 168.9001 44.4475C168.6481 44.6795 168.3961 44.9115 168.1441 45.1435C168.0281 45.2301 167.9121 45.3141 167.7974 45.4021C167.8014 45.527 167.8054 45.6519 167.8094 45.7768C167.7979 45.915 167.7863 46.0532 167.7747 46.1915C167.7534 46.3288 167.7227 46.4648 167.6974 46.6021C167.6641 46.7368 167.6187 46.8701 167.5787 47.0048C167.5307 47.1368 167.4694 47.2634 167.4147 47.3928C167.3494 47.5181 167.2774 47.6394 167.2107 47.7634C167.1303 47.8799 167.0499 47.9963 166.9694 48.1128C166.8779 48.2212 166.7863 48.3297 166.6948 48.4381C166.593 48.5377 166.4912 48.6372 166.3894 48.7368C166.2765 48.8239 166.1636 48.911 166.0508 48.9981C165.9294 49.0741 165.8094 49.1541 165.6854 49.2261C165.5574 49.2901 165.4321 49.3581 165.3001 49.4168C165.0361 49.5288 164.7601 49.6114 164.4801 49.6728C164.3379 49.695 164.1957 49.7172 164.0534 49.7394C163.9801 49.7434 163.9068 49.7474 163.8334 49.7514C163.8294 49.8243 163.8254 49.8972 163.8214 49.9701C163.7997 50.1123 163.7779 50.2545 163.7561 50.3967C163.7241 50.5367 163.6841 50.6754 163.6494 50.8141C163.6054 50.9514 163.5521 51.0847 163.5001 51.2181C163.4414 51.3501 163.3721 51.4754 163.3095 51.6034C163.2361 51.7274 163.1575 51.8474 163.0815 51.9674C162.9943 52.0803 162.9072 52.1932 162.8201 52.3061C162.7206 52.4083 162.621 52.5105 162.5215 52.6127C162.413 52.7043 162.3046 52.7958 162.1961 52.8874C162.0792 52.9674 161.9624 53.0474 161.8455 53.1274C161.7228 53.1954 161.6015 53.2687 161.4761 53.3314C161.3455 53.3874 161.2201 53.4487 161.0881 53.4967C160.9521 53.5367 160.8201 53.5807 160.6841 53.6154C160.5481 53.6407 160.4108 53.6714 160.2748 53.6914C160.137 53.7034 159.9993 53.7154 159.8615 53.7274C159.7344 53.7234 159.6073 53.7194 159.4802 53.7154C159.3895 53.8367 159.2988 53.958 159.2082 54.0794C158.9762 54.3318 158.7442 54.5843 158.5122 54.8367C158.2566 55.0647 158.0011 55.2927 157.7455 55.5207C157.4695 55.722 157.1975 55.93 156.9162 56.126C156.6215 56.298 156.3322 56.482 156.0335 56.646C155.7229 56.79 155.4175 56.946 155.1029 57.0767C154.7789 57.1873 154.4602 57.3113 154.1335 57.4087C153.8015 57.4873 153.4722 57.5767 153.1389 57.6447C152.8002 57.6887 152.4642 57.742 152.1256 57.7807C151.786 57.7931 151.4465 57.8056 151.1069 57.818C151.4456 57.7962 151.7842 57.7745 152.1229 57.7527Z"/><path fill="rgb(216, 178, 98)" stroke="none" fill-opacity="1" stroke-width="1" stroke-opacity="1" id="tSvg7aa67537b8" title="Path 5" d="M143.383 64.6913C144.8376 64.6913 145.4803 63.5713 146.1016 62.4886C146.7403 61.374 147.3429 60.3207 148.7896 60.3207C150.0056 60.3207 150.9962 61.31 150.9962 62.526C150.9962 63.474 150.2229 64.2459 149.2763 64.2459C148.5416 64.2459 147.9443 63.6486 147.9443 62.914C147.9443 62.3526 148.4016 61.894 148.9643 61.894C149.0883 61.894 149.1869 61.794 149.1869 61.6713C149.1869 61.5473 149.0883 61.4473 148.9643 61.4473C148.1563 61.4473 147.4989 62.106 147.4989 62.914C147.4989 63.894 148.2949 64.6913 149.2763 64.6913C150.4696 64.6913 151.4416 63.7206 151.4416 62.526C151.4416 61.0646 150.2522 59.8753 148.7896 59.8753C147.0843 59.8753 146.3563 61.1446 145.715 62.2673C145.1056 63.3286 144.5803 64.2459 143.383 64.2459C142.6883 64.2459 142.1243 63.682 142.1243 62.9873C142.1243 62.458 142.5563 62.026 143.087 62.026C143.487 62.026 143.811 62.3513 143.811 62.75C143.811 63.046 143.571 63.286 143.2763 63.286C143.1536 63.286 143.0536 63.386 143.0536 63.5086C143.0536 63.6326 143.1536 63.7326 143.2763 63.7326C143.8176 63.7326 144.2576 63.2913 144.2576 62.75C144.2576 62.1046 143.731 61.5793 143.087 61.5793C142.311 61.5793 141.6777 62.2113 141.6777 62.9873C141.6777 63.9273 142.4443 64.6913 143.383 64.6913Z"/><path fill="rgb(216, 178, 98)" stroke="none" fill-opacity="1" stroke-width="1" stroke-opacity="1" id="tSvg6073ec0f99" title="Path 6" d="M139.6363 62.9486C140.0777 62.9486 140.435 63.306 140.435 63.7473C140.435 64.1873 140.0777 64.5446 139.6363 64.5446C139.1964 64.5446 138.839 64.1873 138.839 63.7473C138.839 63.306 139.1964 62.9486 139.6363 62.9486Z"/><path fill="rgb(216, 178, 98)" stroke="none" fill-opacity="1" stroke-width="1" stroke-opacity="1" id="tSvg14bd627bec4" title="Path 7" d="M136.903 63.1566C137.287 63.1566 137.5977 63.4673 137.5977 63.8513C137.5977 64.2339 137.287 64.5446 136.903 64.5446C136.5204 64.5446 136.2097 64.2339 136.2097 63.8513C136.2097 63.4673 136.5204 63.1566 136.903 63.1566Z"/><path fill="rgb(216, 178, 98)" stroke="none" fill-opacity="1" stroke-width="1" stroke-opacity="1" id="tSvg277e583639" title="Path 8" d="M134.3791 63.3646C134.7044 63.3646 134.9684 63.6286 134.9684 63.9553C134.9684 64.2806 134.7044 64.5446 134.3791 64.5446C134.0524 64.5446 133.7871 64.2806 133.7871 63.9553C133.7871 63.6286 134.0524 63.3646 134.3791 63.3646Z"/><path fill="rgb(216, 178, 98)" stroke="none" fill-opacity="1" stroke-width="1" stroke-opacity="1" id="tSvgd8e14411da" title="Path 9" d="M132.0591 63.5726C132.3298 63.5726 132.5471 63.79 132.5471 64.0579C132.5471 64.3273 132.3298 64.5446 132.0591 64.5446C131.7911 64.5446 131.5738 64.3273 131.5738 64.0579C131.5738 63.79 131.7911 63.5726 132.0591 63.5726Z"/><path fill="rgb(216, 178, 98)" stroke="none" fill-opacity="1" stroke-width="1" stroke-opacity="1" id="tSvg5ef41727a6" title="Path 10" d="M130.0151 63.8353C125.0356 63.9095 120.0561 63.9837 115.0766 64.0579C120.0561 64.1326 125.0356 64.2073 130.0151 64.2819C130.1378 64.2833 130.2391 64.1846 130.2418 64.0619C130.2431 63.938 130.1444 63.8366 130.0151 63.8353Z"/><path fill="rgb(216, 178, 98)" stroke="none" fill-opacity="1" stroke-width="1" stroke-opacity="1" id="tSvg1829f9227c6" title="Path 11" d="M153.8335 58.3593C155.1109 58.3593 156.1509 59.398 156.1509 60.6753C156.1509 61.65 155.4095 62.4446 154.4629 62.5513C154.4082 62.5646 154.3509 62.5726 154.2909 62.5726C154.2855 62.5726 154.2802 62.5713 154.2762 62.57C154.2682 62.5713 154.2602 62.5726 154.2522 62.5726C154.2362 62.5726 154.2229 62.5673 154.2082 62.5633C153.8229 62.5206 153.5215 62.198 153.5215 61.802C153.5215 61.3766 153.8669 61.0313 154.2909 61.0313C154.7175 61.0313 155.0615 61.3766 155.0615 61.802C155.0615 61.83 155.0562 61.8566 155.0549 61.8833C155.4442 61.6233 155.7042 61.1793 155.7042 60.6753C155.7042 59.6447 154.8655 58.8047 153.8335 58.8047C152.5149 58.8047 151.4416 59.8793 151.4416 61.198C151.4416 62.8793 152.8082 64.2459 154.4882 64.2459C157.2882 64.2459 158.5428 62.0566 159.8708 59.7393C161.3201 57.21 162.8188 54.594 166.4281 54.594C169.5067 54.594 172.012 57.0994 172.012 60.1793C172.012 62.6673 169.9881 64.6913 167.5001 64.6913C165.4854 64.6913 163.8454 63.0513 163.8454 61.0366C163.8454 59.422 165.1414 58.1073 166.7481 58.0727C166.7588 58.0713 166.7694 58.0687 166.7801 58.0687C166.7841 58.0687 166.7881 58.07 166.7921 58.07C166.7988 58.07 166.8068 58.0687 166.8134 58.0687C166.8254 58.0687 166.8334 58.074 166.8454 58.0753C167.3787 58.1087 167.8014 58.5473 167.8014 59.0887C167.8014 59.6527 167.3441 60.1087 166.7801 60.1087C166.2174 60.1087 165.7614 59.6527 165.7614 59.0887C165.7614 58.9553 165.7881 58.8287 165.8334 58.7127C164.9294 59.0953 164.2908 59.9927 164.2908 61.0366C164.2908 62.806 165.7294 64.2459 167.5001 64.2459C169.7414 64.2459 171.5654 62.422 171.5654 60.1793C171.5654 57.346 169.2614 55.0407 166.4281 55.0407C163.0775 55.0407 161.6441 57.542 160.2575 59.962C158.9255 62.2873 157.5468 64.6913 154.4882 64.6913C152.5616 64.6913 150.9962 63.1246 150.9962 61.198C150.9962 59.6327 152.2696 58.3593 153.8335 58.3593Z"/><path fill="rgb(216, 178, 98)" stroke="none" fill-opacity="1" stroke-width="1" stroke-opacity="1" id="tSvgee185af941" title="Path 12" d="M176.6093 37.3582C177.8026 37.3582 178.7746 36.3876 178.7746 35.1929C178.7746 34.2129 177.976 33.4156 176.9973 33.4156C176.188 33.4156 175.5307 34.0742 175.5307 34.8822C175.5307 35.0062 175.6293 35.1049 175.7533 35.1049C175.8773 35.1049 175.976 35.0062 175.976 34.8822C175.976 34.3196 176.4347 33.8622 176.9973 33.8622C177.7306 33.8622 178.328 34.4596 178.328 35.1929C178.328 36.1409 177.556 36.9129 176.6093 36.9129C175.392 36.9129 174.4027 35.9236 174.4027 34.7076C174.4027 33.2609 175.4547 32.6583 176.5693 32.0196C177.6533 31.3983 178.7746 30.7556 178.7746 29.2996C178.7746 28.361 178.0093 27.597 177.0693 27.597C176.2933 27.597 175.6627 28.2276 175.6627 29.005C175.6627 29.6503 176.1867 30.1756 176.8333 30.1756C177.3746 30.1756 177.8146 29.7356 177.8146 29.1943C177.8146 29.0703 177.7146 28.9703 177.5906 28.9703C177.468 28.9703 177.368 29.0703 177.368 29.1943C177.368 29.489 177.128 29.729 176.8333 29.729C176.4333 29.729 176.108 29.405 176.108 29.005C176.108 28.4743 176.54 28.0423 177.0693 28.0423C177.764 28.0423 178.328 28.6063 178.328 29.2996C178.328 30.4983 177.4106 31.0236 176.348 31.6316C175.2267 32.2743 173.956 33.0023 173.956 34.7076C173.956 36.1689 175.1467 37.3582 176.6093 37.3582"/><path fill="rgb(216, 178, 98)" stroke="none" fill-opacity="1" stroke-width="1" stroke-opacity="1" id="tSvg1407d99d055" title="Path 13" d="M177.032 25.5543C177.032 25.9943 177.3893 26.353 177.8293 26.353C178.2706 26.353 178.6266 25.9943 178.6266 25.5543C178.6266 25.1143 178.2706 24.757 177.8293 24.757C177.3893 24.757 177.032 25.1143 177.032 25.5543Z"/><path fill="rgb(216, 178, 98)" stroke="none" fill-opacity="1" stroke-width="1" stroke-opacity="1" id="tSvg185ee7f98f7" title="Path 14" d="M177.2386 22.821C177.2386 23.205 177.5506 23.5157 177.9333 23.5157C178.316 23.5157 178.6266 23.205 178.6266 22.821C178.6266 22.4384 178.316 22.1277 177.9333 22.1277C177.5506 22.1277 177.2386 22.4384 177.2386 22.821Z"/><path fill="rgb(216, 178, 98)" stroke="none" fill-opacity="1" stroke-width="1" stroke-opacity="1" id="tSvg79ffd5683c" title="Path 15" d="M177.4466 20.2957C177.4466 20.6224 177.712 20.8864 178.0373 20.8864C178.3626 20.8864 178.6266 20.6224 178.6266 20.2957C178.6266 19.969 178.3626 19.7064 178.0373 19.7064C177.712 19.7064 177.4466 19.969 177.4466 20.2957Z"/><path fill="rgb(216, 178, 98)" stroke="none" fill-opacity="1" stroke-width="1" stroke-opacity="1" id="tSvgf1cac77bf3" title="Path 16" d="M177.6546 17.9784C177.6546 18.2464 177.872 18.4651 178.1413 18.4651C178.4093 18.4651 178.6266 18.2464 178.6266 17.9784C178.6266 17.7091 178.4093 17.4917 178.1413 17.4917C177.872 17.4917 177.6546 17.7091 177.6546 17.9784Z"/><path fill="rgb(216, 178, 98)" stroke="none" fill-opacity="1" stroke-width="1" stroke-opacity="1" id="tSvg2407ed127c" title="Path 17" d="M178.364 15.9398C178.2897 10.9602 178.2155 5.9807 178.1413 1.0012C178.0666 5.9807 177.992 10.9602 177.9173 15.9398C177.916 16.0624 178.0133 16.1638 178.1373 16.1651C178.2613 16.1678 178.3613 16.0691 178.364 15.9398Z"/><path fill="rgb(216, 178, 98)" stroke="none" fill-opacity="1" stroke-width="1" stroke-opacity="1" id="tSvgd8df85a4c0" title="Path 18" d="M173.8213 45.7888C176.1387 44.4608 178.328 43.2062 178.328 40.4062C178.328 38.7262 176.96 37.3582 175.28 37.3582C173.9613 37.3582 172.888 38.4329 172.888 39.7515C172.888 40.7835 173.7253 41.6222 174.7573 41.6222C175.2613 41.6222 175.7053 41.3635 175.9653 40.9728C175.5493 41.0182 175.1707 40.7222 175.1187 40.3048C175.0653 39.8835 175.364 39.4982 175.7853 39.4435C176.208 39.3902 176.5933 39.6889 176.6467 40.1115C176.648 40.1195 176.6467 40.1275 176.648 40.1355C176.6493 40.1475 176.6547 40.1582 176.6547 40.1702C176.6547 40.1875 176.6507 40.2022 176.6507 40.2195C176.6493 40.2635 176.6453 40.3062 176.6373 40.3488C176.5467 41.3102 175.7427 42.0688 174.7573 42.0688C173.48 42.0688 172.4414 41.0288 172.4414 39.7515C172.4414 38.1875 173.716 36.9129 175.28 36.9129C177.2066 36.9129 178.7746 38.4795 178.7746 40.4062C178.7746 43.4648 176.3693 44.8421 174.044 46.1755C171.624 47.5621 169.1214 48.9954 169.1214 52.3461C169.1214 55.1794 171.428 57.4847 174.2613 57.4847C176.5027 57.4847 178.328 55.6594 178.328 53.4181C178.328 51.6487 176.8893 50.2088 175.1187 50.2088C174.0453 50.2088 173.1267 50.8861 172.7654 51.8341C172.8894 51.7807 173.0267 51.7487 173.1707 51.7487C173.7347 51.7487 174.192 52.2061 174.192 52.7701C174.192 53.3327 173.7347 53.79 173.1707 53.79C172.608 53.79 172.152 53.3327 172.152 52.7701C172.152 52.7607 172.1534 52.7541 172.1534 52.7447C172.1534 52.7407 172.1507 52.7367 172.1507 52.7314C172.1507 51.0941 173.4827 49.7634 175.1187 49.7634C177.1346 49.7634 178.7746 51.4021 178.7746 53.4181C178.7746 55.906 176.7493 57.93 174.2613 57.93C171.1814 57.93 168.6761 55.4247 168.6761 52.3461C168.6761 48.7368 171.292 47.2381 173.8213 45.7888Z"/><path fill="rgb(216, 178, 98)" stroke="none" fill-opacity="1" stroke-width="1" stroke-opacity="1" id="tSvg2c6871d46" title="Path 19" d="M10.0349 59.3487C10.0349 59.9927 9.5096 60.518 8.8643 60.518C8.2203 60.518 7.6963 59.9927 7.6963 59.3487C7.6963 58.7033 8.2203 58.1793 8.8643 58.1793C9.5096 58.1793 10.0349 58.7033 10.0349 59.3487ZM7.2496 59.3487C7.2496 60.2393 7.9736 60.9633 8.8643 60.9633C9.7563 60.9633 10.4803 60.2393 10.4803 59.3487C10.4803 58.458 9.7563 57.7327 8.8643 57.7327C7.9736 57.7327 7.2496 58.458 7.2496 59.3487Z"/><path fill="rgb(216, 178, 98)" stroke="none" fill-opacity="1" stroke-width="1" stroke-opacity="1" id="tSvgabd0344b8b" title="Path 20" d="M7.163 63.422C5.343 63.746 3.8243 64.5846 2.7484 65.3539C3.475 64.2419 4.271 62.686 4.5923 60.87C5.087 61.0606 6.163 61.3766 7.1816 60.9913C6.783 61.9593 7.011 62.9566 7.163 63.422ZM1.003 66.8659C1.1119 66.9677 1.2208 67.0695 1.3297 67.1713C1.3404 67.1593 1.379 67.1193 1.4404 67.0539C1.951 66.5299 4.3043 64.2886 7.499 63.8193C7.5968 63.8051 7.6945 63.7908 7.7923 63.7766C7.751 63.6864 7.7096 63.5962 7.6683 63.506C7.6336 63.4313 6.8416 61.658 8.1203 60.3807C8.0154 60.2753 7.9105 60.17 7.8056 60.0647C6.531 61.338 4.539 60.362 4.5177 60.3513C4.4257 60.3055 4.3337 60.2598 4.2417 60.214C4.227 60.3158 4.2123 60.4175 4.1977 60.5193C3.727 63.7153 1.615 66.1979 1.1164 66.7446C1.0537 66.8113 1.015 66.8539 1.003 66.8659Z"/><path fill="rgb(216, 178, 98)" stroke="none" fill-opacity="1" stroke-width="1" stroke-opacity="1" id="tSvg16939339683" title="Path 21" d="M14.5149 45.9341C14.5429 46.0661 14.5709 46.1981 14.5989 46.3301C14.6349 46.4608 14.6802 46.5875 14.7216 46.7141C14.7696 46.8395 14.8282 46.9608 14.8802 47.0834C14.9416 47.2012 15.0029 47.319 15.0642 47.4368C15.1362 47.5474 15.2082 47.6581 15.2802 47.7688C15.3629 47.8714 15.4456 47.9741 15.5282 48.0768C15.6202 48.1705 15.7122 48.2643 15.8042 48.3581C15.9047 48.4421 16.0051 48.5261 16.1056 48.6101C16.2118 48.6852 16.318 48.7603 16.4242 48.8354C16.5371 48.9003 16.65 48.9652 16.7629 49.0301C16.8829 49.0821 16.9989 49.1394 17.1175 49.1888C17.2402 49.231 17.3629 49.2732 17.4855 49.3154C17.6122 49.3461 17.7362 49.3808 17.8629 49.4074C17.9909 49.4256 18.1189 49.4439 18.2469 49.4621C18.3762 49.4679 18.5055 49.4736 18.6349 49.4794C18.7535 49.4848 18.8522 49.5808 18.8575 49.7021C18.8633 49.8314 18.8691 49.9608 18.8749 50.0901C18.8931 50.2181 18.9113 50.3461 18.9295 50.4741C18.9549 50.6007 18.9909 50.7247 19.0202 50.8514C19.0624 50.9736 19.1046 51.0959 19.1469 51.2181C19.1962 51.3381 19.2535 51.4554 19.3069 51.5741C19.3717 51.687 19.4366 51.7998 19.5015 51.9127C19.5762 52.019 19.6509 52.1252 19.7255 52.2314C19.8095 52.3318 19.8935 52.4323 19.9775 52.5327C20.0717 52.6247 20.166 52.7167 20.2602 52.8087C20.3628 52.8909 20.4655 52.9732 20.5682 53.0554C20.6788 53.1278 20.7895 53.2003 20.9002 53.2727C21.018 53.3345 21.1357 53.3963 21.2535 53.4581C21.3762 53.5101 21.4975 53.5674 21.6215 53.6154C21.7482 53.6567 21.8762 53.7021 22.0055 53.7381C22.1375 53.766 22.2695 53.794 22.4015 53.822C22.5242 53.8385 22.6468 53.8549 22.7695 53.8714C22.6508 53.7141 22.5308 53.5581 22.4162 53.3981C22.2388 53.1034 22.0535 52.8154 21.8855 52.5167C21.7375 52.2074 21.5788 51.9021 21.4428 51.5874C21.3268 51.2647 21.1975 50.9461 21.0935 50.6194C21.0095 50.2874 20.9135 49.9568 20.8402 49.6208C20.7895 49.2821 20.7308 48.9434 20.6882 48.6034C20.6717 48.2954 20.6553 47.9874 20.6388 47.6794C20.3313 47.6634 20.0237 47.6474 19.7162 47.6314C19.3762 47.5874 19.0375 47.5288 18.6975 47.4781C18.3615 47.4048 18.0322 47.3088 17.6989 47.2248C17.3722 47.1208 17.0535 46.9928 16.7296 46.8768C16.4162 46.7408 16.1122 46.5808 15.8016 46.4341C15.5029 46.2661 15.2149 46.0795 14.9202 45.9021C14.7669 45.7928 14.6162 45.6768 14.4656 45.5635C14.482 45.687 14.4985 45.8106 14.5149 45.9341ZM10.4216 38.2022C10.4683 38.5395 10.5309 38.8729 10.5843 39.2075C10.6603 39.5369 10.7589 39.8622 10.8429 40.1888C10.9496 40.5102 11.0816 40.8235 11.1989 41.1395C11.3349 41.4488 11.4936 41.7488 11.6389 42.0528C11.8069 42.3462 11.9923 42.6288 12.1669 42.9168C12.3643 43.1902 12.5723 43.4568 12.7763 43.7261C13.0038 43.9741 13.2314 44.2221 13.4589 44.4701C13.7109 44.6946 13.9629 44.919 14.2149 45.1435C14.4869 45.3421 14.7522 45.5475 15.0269 45.7421C15.3176 45.9141 15.6016 46.0955 15.8949 46.2595C16.2002 46.4021 16.5002 46.5568 16.8082 46.6888C17.1255 46.7995 17.4389 46.9261 17.7602 47.0261C18.0855 47.1061 18.4095 47.1981 18.7389 47.2688C19.0709 47.3168 19.4029 47.3728 19.7362 47.4141C20.0722 47.4306 20.4082 47.447 20.7442 47.4634C20.8042 47.4648 20.8535 47.5141 20.8562 47.5741C20.8722 47.9101 20.8882 48.2461 20.9042 48.5821C20.9455 48.9154 21.0015 49.2474 21.0508 49.5794C21.1188 49.9088 21.2122 50.2328 21.2922 50.5594C21.3922 50.8807 21.5175 51.1927 21.6295 51.5101C21.7615 51.8194 21.9162 52.1194 22.0588 52.4234C22.2228 52.7167 22.4042 53.0021 22.5762 53.2914C22.7757 53.5625 22.9753 53.8336 23.1748 54.1047C23.3988 54.3563 23.6228 54.6078 23.8468 54.8594C24.0953 55.0874 24.3437 55.3154 24.5921 55.5434C24.8628 55.746 25.1268 55.9554 25.4001 56.1527C25.6895 56.3274 25.9721 56.5127 26.2668 56.6794C26.5695 56.826 26.8695 56.9834 27.1774 57.1207C27.4961 57.238 27.8081 57.3687 28.1294 57.4753C28.4561 57.5607 28.7801 57.6593 29.1121 57.734C29.4454 57.7887 29.7788 57.85 30.1148 57.8967C30.4539 57.9185 30.793 57.9402 31.1321 57.962C30.7925 57.9496 30.453 57.9371 30.1134 57.9247C29.7774 57.886 29.4401 57.8327 29.1014 57.7873C28.7681 57.7207 28.4388 57.6313 28.1054 57.5527C27.7788 57.454 27.4601 57.33 27.1361 57.2207C26.8228 57.0887 26.5175 56.9327 26.2068 56.79C25.9068 56.6247 25.6175 56.442 25.3228 56.2687C25.0428 56.074 24.7708 55.8647 24.4948 55.6634C24.2388 55.4354 23.9828 55.2074 23.7268 54.9794C23.4948 54.7269 23.2628 54.4745 23.0308 54.222C22.9455 54.1074 22.8602 53.9927 22.7748 53.878C22.649 53.8816 22.5233 53.8852 22.3975 53.8887C22.2593 53.8772 22.1211 53.8656 21.9828 53.854C21.8455 53.8314 21.7108 53.802 21.5722 53.7754C21.4388 53.7421 21.3055 53.6981 21.1695 53.6594C21.0388 53.6101 20.9122 53.5474 20.7815 53.4927C20.6575 53.4287 20.5362 53.3567 20.4122 53.2887C20.2953 53.2087 20.1784 53.1287 20.0615 53.0487C19.9531 52.9572 19.8446 52.8656 19.7362 52.7741C19.6371 52.6718 19.538 52.5696 19.4389 52.4674C19.3513 52.355 19.2637 52.2425 19.1762 52.1301C19.1015 52.0087 19.0215 51.8887 18.9482 51.7661C18.8855 51.6367 18.8175 51.5101 18.7589 51.3807C18.6455 51.1154 18.5629 50.8394 18.5015 50.5581C18.4798 50.4163 18.458 50.2745 18.4362 50.1328C18.4322 50.0594 18.4282 49.9861 18.4242 49.9128C18.3509 49.9088 18.2775 49.9048 18.2042 49.9008C18.0624 49.879 17.9206 49.8572 17.7789 49.8354C17.6375 49.8034 17.5002 49.7634 17.3602 49.7274C17.2242 49.6834 17.0909 49.6314 16.9562 49.5794C16.8255 49.5208 16.6989 49.4514 16.5709 49.3874C16.4469 49.3154 16.3282 49.2368 16.2069 49.1608C16.094 49.0732 15.9811 48.9857 15.8682 48.8981C15.766 48.799 15.6638 48.6999 15.5616 48.6008C15.47 48.4919 15.3785 48.383 15.2869 48.2741C15.2073 48.1577 15.1278 48.0412 15.0482 47.9248C14.9789 47.8008 14.9069 47.6794 14.8429 47.5541C14.7869 47.4248 14.7256 47.2981 14.6776 47.1674C14.6376 47.0314 14.5936 46.8995 14.5589 46.7635C14.5349 46.6261 14.5029 46.4915 14.4829 46.3541C14.4709 46.2159 14.4589 46.0777 14.4469 45.9395C14.4509 45.8123 14.4549 45.6852 14.4589 45.5581C14.3376 45.4675 14.2176 45.3781 14.0962 45.2875C13.8434 45.0555 13.5905 44.8235 13.3376 44.5915C13.11 44.3359 12.8825 44.0804 12.6549 43.8248C12.4523 43.5475 12.2456 43.2755 12.0496 42.9955C11.8763 42.7008 11.6936 42.4102 11.5283 42.1115C11.3856 41.8008 11.2283 41.4968 11.0976 41.1822C10.9883 40.8582 10.8643 40.5395 10.7656 40.2128C10.6883 39.8809 10.5976 39.5515 10.5309 39.2169C10.4856 38.8795 10.4323 38.5435 10.3936 38.2049C10.3812 37.8653 10.3687 37.5258 10.3563 37.1862C10.3781 37.5249 10.3998 37.8635 10.4216 38.2022Z"/><path fill="rgb(216, 178, 98)" stroke="none" fill-opacity="1" stroke-width="1" stroke-opacity="1" id="tSvg88f506f63" title="Path 22" d="M3.483 29.4623C3.483 30.9169 4.6043 31.5596 5.687 32.1809C6.8016 32.8196 7.8536 33.4222 7.8536 34.8689C7.8536 36.0849 6.8656 37.0742 5.6497 37.0742C4.7003 37.0742 3.9297 36.3022 3.9297 35.3542C3.9297 34.6209 4.527 34.0236 5.2603 34.0236C5.823 34.0236 6.2803 34.4809 6.2803 35.0436C6.2803 35.1662 6.3817 35.2662 6.503 35.2662C6.627 35.2662 6.727 35.1662 6.727 35.0436C6.727 34.2356 6.0683 33.5769 5.2603 33.5769C4.2803 33.5769 3.483 34.3742 3.483 35.3542C3.483 36.5489 4.4537 37.5209 5.6497 37.5209C7.111 37.5209 8.3003 36.3302 8.3003 34.8689C8.3003 33.1636 7.0296 32.4356 5.9083 31.7929C4.8457 31.1849 3.9297 30.6596 3.9297 29.4623C3.9297 28.769 4.4937 28.2036 5.187 28.2036C5.7177 28.2036 6.1497 28.6356 6.1497 29.165C6.1497 29.565 5.8243 29.8903 5.4243 29.8903C5.1283 29.8903 4.8897 29.6503 4.8897 29.3543C4.8897 29.2316 4.7883 29.1316 4.667 29.1316C4.543 29.1316 4.443 29.2316 4.443 29.3543C4.443 29.8956 4.8843 30.3356 5.4243 30.3356C6.0697 30.3356 6.595 29.8116 6.595 29.165C6.595 28.389 5.963 27.7583 5.187 27.7583C4.247 27.7583 3.483 28.5223 3.483 29.4623Z"/><path fill="rgb(216, 178, 98)" stroke="none" fill-opacity="1" stroke-width="1" stroke-opacity="1" id="tSvg638e8cf653" title="Path 23" d="M5.2257 25.7157C5.2257 26.157 4.8683 26.5143 4.4283 26.5143C3.987 26.5143 3.6297 26.157 3.6297 25.7157C3.6297 25.2757 3.987 24.9183 4.4283 24.9183C4.8683 24.9183 5.2257 25.2757 5.2257 25.7157Z"/><path fill="rgb(216, 178, 98)" stroke="none" fill-opacity="1" stroke-width="1" stroke-opacity="1" id="tSvg6e96d13f83" title="Path 24" d="M5.0177 22.9824C5.0177 23.3663 4.707 23.677 4.3243 23.677C3.9417 23.677 3.6297 23.3663 3.6297 22.9824C3.6297 22.5997 3.9417 22.289 4.3243 22.289C4.707 22.289 5.0177 22.5997 5.0177 22.9824Z"/><path fill="rgb(216, 178, 98)" stroke="none" fill-opacity="1" stroke-width="1" stroke-opacity="1" id="tSvg6e8f3ae1ac" title="Path 25" d="M4.811 20.457C4.811 20.7824 4.547 21.0477 4.2203 21.0477C3.8937 21.0477 3.6297 20.7824 3.6297 20.457C3.6297 20.1317 3.8937 19.8664 4.2203 19.8664C4.547 19.8664 4.811 20.1317 4.811 20.457Z"/><path fill="rgb(216, 178, 98)" stroke="none" fill-opacity="1" stroke-width="1" stroke-opacity="1" id="tSvgb83f69b5b1" title="Path 26" d="M4.603 18.1384C4.603 18.4077 4.3857 18.6251 4.1163 18.6251C3.847 18.6251 3.6297 18.4077 3.6297 18.1384C3.6297 17.8704 3.847 17.6531 4.1163 17.6531C4.3857 17.6531 4.603 17.8704 4.603 18.1384Z"/><path fill="rgb(216, 178, 98)" stroke="none" fill-opacity="1" stroke-width="1" stroke-opacity="1" id="tSvg65b5c6a25" title="Path 27" d="M4.339 16.0944C4.2648 11.1149 4.1906 6.1354 4.1163 1.1559C4.0417 6.1354 3.967 11.1149 3.8923 16.0944C3.891 16.2171 3.991 16.3184 4.1123 16.3211C4.2363 16.3224 4.3377 16.2237 4.339 16.0944Z"/><path fill="rgb(216, 178, 98)" stroke="none" fill-opacity="1" stroke-width="1" stroke-opacity="1" id="tSvg169da5b4e2" title="Path 28" d="M9.8163 39.9129C9.8163 41.1902 8.7776 42.2288 7.5003 42.2288C6.5256 42.2288 5.7297 41.4888 5.623 40.5422C5.611 40.4875 5.603 40.4302 5.603 40.3715C5.603 40.3648 5.6043 40.3595 5.6057 40.3542C5.6043 40.3462 5.603 40.3395 5.603 40.3315C5.603 40.3168 5.6083 40.3022 5.6123 40.2875C5.6537 39.9022 5.9763 39.6009 6.3737 39.6009C6.7976 39.6009 7.143 39.9449 7.143 40.3715C7.143 40.7968 6.7976 41.1408 6.3737 41.1408C6.3443 41.1408 6.319 41.1355 6.291 41.1328C6.5523 41.5235 6.9963 41.7835 7.5003 41.7835C8.531 41.7835 9.3696 40.9435 9.3696 39.9129C9.3696 38.5942 8.2963 37.5209 6.9763 37.5209C5.2963 37.5209 3.9297 38.8875 3.9297 40.5675C3.9297 43.3675 6.1177 44.6208 8.4363 45.9488C10.9643 47.3994 13.5802 48.8981 13.5802 52.5061C13.5802 55.586 11.0749 58.0913 7.9963 58.0913C5.507 58.0913 3.483 56.0674 3.483 53.5781C3.483 51.5634 5.123 49.9248 7.1376 49.9248C8.7523 49.9248 10.0669 51.2207 10.1029 52.8261C10.1043 52.8381 10.1069 52.8487 10.1069 52.8594C10.1069 52.8634 10.1056 52.8674 10.1056 52.8714C10.1056 52.8781 10.1069 52.8847 10.1069 52.8927C10.1069 52.9034 10.1016 52.9127 10.1003 52.9247C10.0656 53.4581 9.627 53.8807 9.0856 53.8807C8.5216 53.8807 8.0656 53.4234 8.0656 52.8594C8.0656 52.2967 8.5216 51.8394 9.0856 51.8394C9.2203 51.8394 9.3456 51.8674 9.4616 51.9127C9.079 51.0074 8.1816 50.3701 7.1376 50.3701C5.3697 50.3701 3.9297 51.8101 3.9297 53.5781C3.9297 55.822 5.7537 57.646 7.9963 57.646C10.8296 57.646 13.1349 55.3407 13.1349 52.5061C13.1349 49.1568 10.6323 47.7221 8.2136 46.3368C5.8883 45.0035 3.483 43.6261 3.483 40.5675C3.483 38.6409 5.051 37.0742 6.9763 37.0742C8.543 37.0742 9.8163 38.3475 9.8163 39.9129Z"/><path fill="rgb(216, 178, 98)" stroke="none" fill-opacity="1" stroke-width="1" stroke-opacity="1" id="tSvg4ce61902fa" title="Path 29" d="M30.8161 62.6873C30.8161 63.8806 31.7867 64.8526 32.9827 64.8526C33.9614 64.8526 34.7587 64.0553 34.7587 63.0753C34.7587 62.2673 34.1014 61.6086 33.2921 61.6086C33.1681 61.6086 33.0694 61.7086 33.0694 61.8326C33.0694 61.9553 33.1681 62.0553 33.2921 62.0553C33.8547 62.0553 34.3134 62.514 34.3134 63.0753C34.3134 63.81 33.7161 64.4073 32.9827 64.4073C32.0334 64.4073 31.2627 63.6353 31.2627 62.6873C31.2627 61.4713 32.2521 60.482 33.4681 60.482C34.9147 60.482 35.5174 61.5353 36.156 62.6486C36.7774 63.7326 37.4187 64.8526 38.8747 64.8526C39.8147 64.8526 40.5787 64.0886 40.5787 63.1486C40.5787 62.3726 39.9467 61.742 39.1693 61.742C38.5253 61.742 38 62.2673 38 62.9113C38 63.4526 38.4413 63.8926 38.9813 63.8926C39.1053 63.8926 39.204 63.794 39.204 63.67C39.204 63.5473 39.1053 63.4473 38.9813 63.4473C38.6853 63.4473 38.4453 63.2073 38.4453 62.9113C38.4453 62.5126 38.7707 62.1873 39.1693 62.1873C39.7013 62.1873 40.132 62.618 40.132 63.1486C40.132 63.842 39.568 64.4073 38.8747 64.4073C37.676 64.4073 37.152 63.49 36.5427 62.4273C35.9 61.306 35.172 60.0353 33.4681 60.0353C32.0054 60.0353 30.8161 61.2246 30.8161 62.6873Z"/><path fill="rgb(216, 178, 98)" stroke="none" fill-opacity="1" stroke-width="1" stroke-opacity="1" id="tSvga159414b03" title="Path 30" d="M42.62 63.11C42.18 63.11 41.8226 63.4673 41.8226 63.9086C41.8226 64.3486 42.18 64.7059 42.62 64.7059C43.06 64.7059 43.4186 64.3486 43.4186 63.9086C43.4186 63.4673 43.06 63.11 42.62 63.11Z"/><path fill="rgb(216, 178, 98)" stroke="none" fill-opacity="1" stroke-width="1" stroke-opacity="1" id="tSvg119b050cd7f" title="Path 31" d="M45.3533 63.318C44.9706 63.318 44.6599 63.6286 44.6599 64.0126C44.6599 64.3953 44.9706 64.7059 45.3533 64.7059C45.7359 64.7059 46.0479 64.3953 46.0479 64.0126C46.0479 63.6286 45.7359 63.318 45.3533 63.318Z"/><path fill="rgb(216, 178, 98)" stroke="none" fill-opacity="1" stroke-width="1" stroke-opacity="1" id="tSvgb2614e17ae" title="Path 32" d="M47.8799 63.526C47.5532 63.526 47.2879 63.79 47.2879 64.1153C47.2879 64.4419 47.5532 64.7059 47.8799 64.7059C48.2052 64.7059 48.4692 64.4419 48.4692 64.1153C48.4692 63.79 48.2052 63.526 47.8799 63.526Z"/><path fill="rgb(216, 178, 98)" stroke="none" fill-opacity="1" stroke-width="1" stroke-opacity="1" id="tSvgd6a4eaa42e" title="Path 33" d="M50.1972 63.734C49.9292 63.734 49.7106 63.9513 49.7106 64.2193C49.7106 64.4886 49.9292 64.7059 50.1972 64.7059C50.4652 64.7059 50.6826 64.4886 50.6826 64.2193C50.6826 63.9513 50.4652 63.734 50.1972 63.734Z"/><path fill="rgb(216, 178, 98)" stroke="none" fill-opacity="1" stroke-width="1" stroke-opacity="1" id="tSvg17ce3149c4d" title="Path 34" d="M52.2359 64.4419C57.2149 64.3677 62.194 64.2935 67.1731 64.2193C62.194 64.1451 57.2149 64.0708 52.2359 63.9966C52.1119 63.9953 52.0105 64.0939 52.0092 64.2166C52.0065 64.3393 52.1065 64.4406 52.2359 64.4419Z"/><path fill="rgb(216, 178, 98)" stroke="none" fill-opacity="1" stroke-width="1" stroke-opacity="1" id="tSvg16a1ce87717" title="Path 35" d="M22.3868 59.9007C23.7148 62.218 24.9695 64.4073 27.7694 64.4073C29.4481 64.4073 30.8161 63.0406 30.8161 61.3593C30.8161 60.0407 29.7414 58.966 28.4228 58.966C27.3908 58.966 26.5535 59.8047 26.5535 60.8366C26.5535 61.3406 26.8121 61.7846 27.2028 62.0446C27.1574 61.6286 27.4521 61.2513 27.8694 61.198C28.2908 61.1446 28.6761 61.4433 28.7308 61.8646C28.7841 62.2873 28.4854 62.6726 28.0628 62.726C28.0561 62.7273 28.0481 62.726 28.0401 62.7273C28.0268 62.7286 28.0161 62.734 28.0041 62.734C27.9881 62.734 27.9721 62.73 27.9561 62.7286C27.9121 62.7286 27.8694 62.7233 27.8268 62.7153C26.8641 62.6246 26.1068 61.822 26.1068 60.8366C26.1068 59.5593 27.1454 58.5207 28.4228 58.5207C29.9881 58.5207 31.2627 59.794 31.2627 61.3593C31.2627 63.286 29.6948 64.8526 27.7694 64.8526C24.7108 64.8526 23.3335 62.4486 22.0002 60.1233C20.6122 57.7033 19.1789 55.202 15.8296 55.202C12.9963 55.202 10.6909 57.5073 10.6909 60.3407C10.6909 62.582 12.5149 64.4073 14.7576 64.4073C16.5269 64.4073 17.9655 62.9673 17.9655 61.198C17.9655 60.1233 17.2882 59.206 16.3402 58.8433C16.3949 58.9687 16.4256 59.106 16.4256 59.25C16.4256 59.814 15.9696 60.27 15.4056 60.27C14.8416 60.27 14.3856 59.814 14.3856 59.25C14.3856 58.6873 14.8416 58.23 15.4056 58.23C15.4136 58.23 15.4216 58.2327 15.4296 58.2327C15.4349 58.2327 15.4389 58.23 15.4442 58.23C17.0802 58.23 18.4122 59.562 18.4122 61.198C18.4122 63.214 16.7735 64.8526 14.7576 64.8526C12.2696 64.8526 10.2443 62.8286 10.2443 60.3407C10.2443 57.2607 12.7496 54.7554 15.8296 54.7554C19.4389 54.7554 20.9375 57.3713 22.3868 59.9007Z"/></svg>