<svg xmlns="http://www.w3.org/2000/svg" viewBox="0 0 68.17 68.02" data-guides="{&quot;vertical&quot;:[],&quot;horizontal&quot;:[]}"><defs/><path fill="rgb(216, 178, 98)" stroke="none" fill-opacity="1" stroke-width="1" stroke-opacity="1" id="tSvg2c6871d46" title="Path 19" d="M10.0349 59.1887C10.0349 59.8327 9.5096 60.358 8.8643 60.358C8.2203 60.358 7.6963 59.8327 7.6963 59.1887C7.6963 58.5433 8.2203 58.0193 8.8643 58.0193C9.5096 58.0193 10.0349 58.5433 10.0349 59.1887ZM7.2496 59.1887C7.2496 60.0793 7.9736 60.8033 8.8643 60.8033C9.7563 60.8033 10.4803 60.0793 10.4803 59.1887C10.4803 58.298 9.7563 57.5727 8.8643 57.5727C7.9736 57.5727 7.2496 58.298 7.2496 59.1887Z"/><path fill="rgb(216, 178, 98)" stroke="none" fill-opacity="1" stroke-width="1" stroke-opacity="1" id="tSvgabd0344b8b" title="Path 20" d="M7.163 63.262C5.343 63.586 3.8243 64.4246 2.7484 65.1939C3.475 64.0819 4.271 62.526 4.5923 60.71C5.087 60.9006 6.163 61.2166 7.1816 60.8313C6.783 61.7993 7.011 62.7966 7.163 63.262ZM1.003 66.7059C1.1119 66.8077 1.2208 66.9095 1.3297 67.0113C1.3404 66.9993 1.379 66.9593 1.4404 66.8939C1.951 66.3699 4.3043 64.1286 7.499 63.6593C7.5968 63.6451 7.6945 63.6308 7.7923 63.6166C7.751 63.5264 7.7096 63.4362 7.6683 63.346C7.6336 63.2713 6.8416 61.498 8.1203 60.2207C8.0154 60.1153 7.9105 60.01 7.8056 59.9047C6.531 61.178 4.539 60.202 4.5177 60.1913C4.4257 60.1455 4.3337 60.0998 4.2417 60.054C4.227 60.1558 4.2123 60.2575 4.1977 60.3593C3.727 63.5553 1.615 66.0379 1.1164 66.5846C1.0537 66.6513 1.015 66.6939 1.003 66.7059Z"/><path fill="rgb(216, 178, 98)" stroke="none" fill-opacity="1" stroke-width="1" stroke-opacity="1" id="tSvg16939339683" title="Path 21" d="M14.5149 45.7741C14.5429 45.9061 14.5709 46.0381 14.5989 46.1701C14.6349 46.3008 14.6802 46.4275 14.7216 46.5541C14.7696 46.6795 14.8282 46.8008 14.8802 46.9234C14.9416 47.0412 15.0029 47.159 15.0642 47.2768C15.1362 47.3874 15.2082 47.4981 15.2802 47.6088C15.3629 47.7114 15.4456 47.8141 15.5282 47.9168C15.6202 48.0105 15.7122 48.1043 15.8042 48.1981C15.9047 48.2821 16.0051 48.3661 16.1056 48.4501C16.2118 48.5252 16.318 48.6003 16.4242 48.6754C16.5371 48.7403 16.65 48.8052 16.7629 48.8701C16.8829 48.9221 16.9989 48.9794 17.1175 49.0288C17.2402 49.071 17.3629 49.1132 17.4855 49.1554C17.6122 49.1861 17.7362 49.2208 17.8629 49.2474C17.9909 49.2656 18.1189 49.2839 18.2469 49.3021C18.3762 49.3079 18.5055 49.3136 18.6349 49.3194C18.7535 49.3248 18.8522 49.4208 18.8575 49.5421C18.8633 49.6714 18.8691 49.8008 18.8749 49.9301C18.8931 50.0581 18.9113 50.1861 18.9295 50.3141C18.9549 50.4407 18.9909 50.5647 19.0202 50.6914C19.0624 50.8136 19.1046 50.9359 19.1469 51.0581C19.1962 51.1781 19.2535 51.2954 19.3069 51.4141C19.3717 51.527 19.4366 51.6398 19.5015 51.7527C19.5762 51.859 19.6509 51.9652 19.7255 52.0714C19.8095 52.1718 19.8935 52.2723 19.9775 52.3727C20.0717 52.4647 20.166 52.5567 20.2602 52.6487C20.3628 52.7309 20.4655 52.8132 20.5682 52.8954C20.6788 52.9678 20.7895 53.0403 20.9002 53.1127C21.018 53.1745 21.1357 53.2363 21.2535 53.2981C21.3762 53.3501 21.4975 53.4074 21.6215 53.4554C21.7482 53.4967 21.8762 53.5421 22.0055 53.5781C22.1375 53.606 22.2695 53.634 22.4015 53.662C22.5242 53.6785 22.6468 53.6949 22.7695 53.7114C22.6508 53.5541 22.5308 53.3981 22.4162 53.2381C22.2388 52.9434 22.0535 52.6554 21.8855 52.3567C21.7375 52.0474 21.5788 51.7421 21.4428 51.4274C21.3268 51.1047 21.1975 50.7861 21.0935 50.4594C21.0095 50.1274 20.9135 49.7968 20.8402 49.4608C20.7895 49.1221 20.7308 48.7834 20.6882 48.4434C20.6717 48.1354 20.6553 47.8274 20.6388 47.5194C20.3313 47.5034 20.0237 47.4874 19.7162 47.4714C19.3762 47.4274 19.0375 47.3688 18.6975 47.3181C18.3615 47.2448 18.0322 47.1488 17.6989 47.0648C17.3722 46.9608 17.0535 46.8328 16.7296 46.7168C16.4162 46.5808 16.1122 46.4208 15.8016 46.2741C15.5029 46.1061 15.2149 45.9195 14.9202 45.7421C14.7669 45.6328 14.6162 45.5168 14.4656 45.4035C14.482 45.527 14.4985 45.6506 14.5149 45.7741ZM10.4216 38.0422C10.4683 38.3795 10.5309 38.7129 10.5843 39.0475C10.6603 39.3769 10.7589 39.7022 10.8429 40.0288C10.9496 40.3502 11.0816 40.6635 11.1989 40.9795C11.3349 41.2888 11.4936 41.5888 11.6389 41.8928C11.8069 42.1862 11.9923 42.4688 12.1669 42.7568C12.3643 43.0302 12.5723 43.2968 12.7763 43.5661C13.0038 43.8141 13.2314 44.0621 13.4589 44.3101C13.7109 44.5346 13.9629 44.759 14.2149 44.9835C14.4869 45.1821 14.7522 45.3875 15.0269 45.5821C15.3176 45.7541 15.6016 45.9355 15.8949 46.0995C16.2002 46.2421 16.5002 46.3968 16.8082 46.5288C17.1255 46.6395 17.4389 46.7661 17.7602 46.8661C18.0855 46.9461 18.4095 47.0381 18.7389 47.1088C19.0709 47.1568 19.4029 47.2128 19.7362 47.2541C20.0722 47.2706 20.4082 47.287 20.7442 47.3034C20.8042 47.3048 20.8535 47.3541 20.8562 47.4141C20.8722 47.7501 20.8882 48.0861 20.9042 48.4221C20.9455 48.7554 21.0015 49.0874 21.0508 49.4194C21.1188 49.7488 21.2122 50.0728 21.2922 50.3994C21.3922 50.7207 21.5175 51.0327 21.6295 51.3501C21.7615 51.6594 21.9162 51.9594 22.0588 52.2634C22.2228 52.5567 22.4042 52.8421 22.5762 53.1314C22.7757 53.4025 22.9753 53.6736 23.1748 53.9447C23.3988 54.1963 23.6228 54.4478 23.8468 54.6994C24.0953 54.9274 24.3437 55.1554 24.5921 55.3834C24.8628 55.586 25.1268 55.7954 25.4001 55.9927C25.6895 56.1674 25.9721 56.3527 26.2668 56.5194C26.5695 56.666 26.8695 56.8234 27.1774 56.9607C27.4961 57.078 27.8081 57.2087 28.1294 57.3153C28.4561 57.4007 28.7801 57.4993 29.1121 57.574C29.4454 57.6287 29.7788 57.69 30.1148 57.7367C30.4539 57.7585 30.793 57.7802 31.1321 57.802C30.7925 57.7896 30.453 57.7771 30.1134 57.7647C29.7774 57.726 29.4401 57.6727 29.1014 57.6273C28.7681 57.5607 28.4388 57.4713 28.1054 57.3927C27.7788 57.294 27.4601 57.17 27.1361 57.0607C26.8228 56.9287 26.5175 56.7727 26.2068 56.63C25.9068 56.4647 25.6175 56.282 25.3228 56.1087C25.0428 55.914 24.7708 55.7047 24.4948 55.5034C24.2388 55.2754 23.9828 55.0474 23.7268 54.8194C23.4948 54.5669 23.2628 54.3145 23.0308 54.062C22.9455 53.9474 22.8602 53.8327 22.7748 53.718C22.649 53.7216 22.5233 53.7252 22.3975 53.7287C22.2593 53.7172 22.1211 53.7056 21.9828 53.694C21.8455 53.6714 21.7108 53.642 21.5722 53.6154C21.4388 53.5821 21.3055 53.5381 21.1695 53.4994C21.0388 53.4501 20.9122 53.3874 20.7815 53.3327C20.6575 53.2687 20.5362 53.1967 20.4122 53.1287C20.2953 53.0487 20.1784 52.9687 20.0615 52.8887C19.9531 52.7972 19.8446 52.7056 19.7362 52.6141C19.6371 52.5118 19.538 52.4096 19.4389 52.3074C19.3513 52.195 19.2637 52.0825 19.1762 51.9701C19.1015 51.8487 19.0215 51.7287 18.9482 51.6061C18.8855 51.4767 18.8175 51.3501 18.7589 51.2207C18.6455 50.9554 18.5629 50.6794 18.5015 50.3981C18.4798 50.2563 18.458 50.1145 18.4362 49.9728C18.4322 49.8994 18.4282 49.8261 18.4242 49.7528C18.3509 49.7488 18.2775 49.7448 18.2042 49.7408C18.0624 49.719 17.9206 49.6972 17.7789 49.6754C17.6375 49.6434 17.5002 49.6034 17.3602 49.5674C17.2242 49.5234 17.0909 49.4714 16.9562 49.4194C16.8255 49.3608 16.6989 49.2914 16.5709 49.2274C16.4469 49.1554 16.3282 49.0768 16.2069 49.0008C16.094 48.9132 15.9811 48.8257 15.8682 48.7381C15.766 48.639 15.6638 48.5399 15.5616 48.4408C15.47 48.3319 15.3785 48.223 15.2869 48.1141C15.2073 47.9977 15.1278 47.8812 15.0482 47.7648C14.9789 47.6408 14.9069 47.5194 14.8429 47.3941C14.7869 47.2648 14.7256 47.1381 14.6776 47.0074C14.6376 46.8714 14.5936 46.7395 14.5589 46.6035C14.5349 46.4661 14.5029 46.3315 14.4829 46.1941C14.4709 46.0559 14.4589 45.9177 14.4469 45.7795C14.4509 45.6523 14.4549 45.5252 14.4589 45.3981C14.3376 45.3075 14.2176 45.2181 14.0962 45.1275C13.8434 44.8955 13.5905 44.6635 13.3376 44.4315C13.11 44.1759 12.8825 43.9204 12.6549 43.6648C12.4523 43.3875 12.2456 43.1155 12.0496 42.8355C11.8763 42.5408 11.6936 42.2502 11.5283 41.9515C11.3856 41.6408 11.2283 41.3368 11.0976 41.0222C10.9883 40.6982 10.8643 40.3795 10.7656 40.0528C10.6883 39.7209 10.5976 39.3915 10.5309 39.0569C10.4856 38.7195 10.4323 38.3835 10.3936 38.0449C10.3812 37.7053 10.3687 37.3658 10.3563 37.0262C10.3781 37.3649 10.3998 37.7035 10.4216 38.0422Z"/><path fill="rgb(216, 178, 98)" stroke="none" fill-opacity="1" stroke-width="1" stroke-opacity="1" id="tSvg88f506f63" title="Path 22" d="M3.483 29.3023C3.483 30.7569 4.6043 31.3996 5.687 32.0209C6.8016 32.6596 7.8536 33.2622 7.8536 34.7089C7.8536 35.9249 6.8656 36.9142 5.6497 36.9142C4.7003 36.9142 3.9297 36.1422 3.9297 35.1942C3.9297 34.4609 4.527 33.8636 5.2603 33.8636C5.823 33.8636 6.2803 34.3209 6.2803 34.8836C6.2803 35.0062 6.3817 35.1062 6.503 35.1062C6.627 35.1062 6.727 35.0062 6.727 34.8836C6.727 34.0756 6.0683 33.4169 5.2603 33.4169C4.2803 33.4169 3.483 34.2142 3.483 35.1942C3.483 36.3889 4.4537 37.3609 5.6497 37.3609C7.111 37.3609 8.3003 36.1702 8.3003 34.7089C8.3003 33.0036 7.0296 32.2756 5.9083 31.6329C4.8457 31.0249 3.9297 30.4996 3.9297 29.3023C3.9297 28.609 4.4937 28.0436 5.187 28.0436C5.7177 28.0436 6.1497 28.4756 6.1497 29.005C6.1497 29.405 5.8243 29.7303 5.4243 29.7303C5.1283 29.7303 4.8897 29.4903 4.8897 29.1943C4.8897 29.0716 4.7883 28.9716 4.667 28.9716C4.543 28.9716 4.443 29.0716 4.443 29.1943C4.443 29.7356 4.8843 30.1756 5.4243 30.1756C6.0697 30.1756 6.595 29.6516 6.595 29.005C6.595 28.229 5.963 27.5983 5.187 27.5983C4.247 27.5983 3.483 28.3623 3.483 29.3023Z"/><path fill="rgb(216, 178, 98)" stroke="none" fill-opacity="1" stroke-width="1" stroke-opacity="1" id="tSvg638e8cf653" title="Path 23" d="M5.2257 25.5557C5.2257 25.997 4.8683 26.3543 4.4283 26.3543C3.987 26.3543 3.6297 25.997 3.6297 25.5557C3.6297 25.1157 3.987 24.7583 4.4283 24.7583C4.8683 24.7583 5.2257 25.1157 5.2257 25.5557Z"/><path fill="rgb(216, 178, 98)" stroke="none" fill-opacity="1" stroke-width="1" stroke-opacity="1" id="tSvg6e96d13f83" title="Path 24" d="M5.0177 22.8224C5.0177 23.2063 4.707 23.517 4.3243 23.517C3.9417 23.517 3.6297 23.2063 3.6297 22.8224C3.6297 22.4397 3.9417 22.129 4.3243 22.129C4.707 22.129 5.0177 22.4397 5.0177 22.8224Z"/><path fill="rgb(216, 178, 98)" stroke="none" fill-opacity="1" stroke-width="1" stroke-opacity="1" id="tSvg6e8f3ae1ac" title="Path 25" d="M4.811 20.297C4.811 20.6224 4.547 20.8877 4.2203 20.8877C3.8937 20.8877 3.6297 20.6224 3.6297 20.297C3.6297 19.9717 3.8937 19.7064 4.2203 19.7064C4.547 19.7064 4.811 19.9717 4.811 20.297Z"/><path fill="rgb(216, 178, 98)" stroke="none" fill-opacity="1" stroke-width="1" stroke-opacity="1" id="tSvgb83f69b5b1" title="Path 26" d="M4.603 17.9784C4.603 18.2477 4.3857 18.4651 4.1163 18.4651C3.847 18.4651 3.6297 18.2477 3.6297 17.9784C3.6297 17.7104 3.847 17.4931 4.1163 17.4931C4.3857 17.4931 4.603 17.7104 4.603 17.9784Z"/><path fill="rgb(216, 178, 98)" stroke="none" fill-opacity="1" stroke-width="1" stroke-opacity="1" id="tSvg65b5c6a25" title="Path 27" d="M4.339 15.9344C4.2648 10.9549 4.1906 5.9754 4.1163 0.9959C4.0417 5.9754 3.967 10.9549 3.8923 15.9344C3.891 16.0571 3.991 16.1584 4.1123 16.1611C4.2363 16.1624 4.3377 16.0637 4.339 15.9344Z"/><path fill="rgb(216, 178, 98)" stroke="none" fill-opacity="1" stroke-width="1" stroke-opacity="1" id="tSvg169da5b4e2" title="Path 28" d="M9.8163 39.7529C9.8163 41.0302 8.7776 42.0688 7.5003 42.0688C6.5256 42.0688 5.7297 41.3288 5.623 40.3822C5.611 40.3275 5.603 40.2702 5.603 40.2115C5.603 40.2048 5.6043 40.1995 5.6057 40.1942C5.6043 40.1862 5.603 40.1795 5.603 40.1715C5.603 40.1568 5.6083 40.1422 5.6123 40.1275C5.6537 39.7422 5.9763 39.4409 6.3737 39.4409C6.7976 39.4409 7.143 39.7849 7.143 40.2115C7.143 40.6368 6.7976 40.9808 6.3737 40.9808C6.3443 40.9808 6.319 40.9755 6.291 40.9728C6.5523 41.3635 6.9963 41.6235 7.5003 41.6235C8.531 41.6235 9.3696 40.7835 9.3696 39.7529C9.3696 38.4342 8.2963 37.3609 6.9763 37.3609C5.2963 37.3609 3.9297 38.7275 3.9297 40.4075C3.9297 43.2075 6.1177 44.4608 8.4363 45.7888C10.9643 47.2394 13.5802 48.7381 13.5802 52.3461C13.5802 55.426 11.0749 57.9313 7.9963 57.9313C5.507 57.9313 3.483 55.9074 3.483 53.4181C3.483 51.4034 5.123 49.7648 7.1376 49.7648C8.7523 49.7648 10.0669 51.0607 10.1029 52.6661C10.1043 52.6781 10.1069 52.6887 10.1069 52.6994C10.1069 52.7034 10.1056 52.7074 10.1056 52.7114C10.1056 52.7181 10.1069 52.7247 10.1069 52.7327C10.1069 52.7434 10.1016 52.7527 10.1003 52.7647C10.0656 53.2981 9.627 53.7207 9.0856 53.7207C8.5216 53.7207 8.0656 53.2634 8.0656 52.6994C8.0656 52.1367 8.5216 51.6794 9.0856 51.6794C9.2203 51.6794 9.3456 51.7074 9.4616 51.7527C9.079 50.8474 8.1816 50.2101 7.1376 50.2101C5.3697 50.2101 3.9297 51.6501 3.9297 53.4181C3.9297 55.662 5.7537 57.486 7.9963 57.486C10.8296 57.486 13.1349 55.1807 13.1349 52.3461C13.1349 48.9968 10.6323 47.5621 8.2136 46.1768C5.8883 44.8435 3.483 43.4661 3.483 40.4075C3.483 38.4809 5.051 36.9142 6.9763 36.9142C8.543 36.9142 9.8163 38.1875 9.8163 39.7529Z"/><path fill="rgb(216, 178, 98)" stroke="none" fill-opacity="1" stroke-width="1" stroke-opacity="1" id="tSvg4ce61902fa" title="Path 29" d="M30.8161 62.5273C30.8161 63.7206 31.7867 64.6926 32.9827 64.6926C33.9614 64.6926 34.7587 63.8953 34.7587 62.9153C34.7587 62.1073 34.1014 61.4486 33.2921 61.4486C33.1681 61.4486 33.0694 61.5486 33.0694 61.6726C33.0694 61.7953 33.1681 61.8953 33.2921 61.8953C33.8547 61.8953 34.3134 62.354 34.3134 62.9153C34.3134 63.65 33.7161 64.2473 32.9827 64.2473C32.0334 64.2473 31.2627 63.4753 31.2627 62.5273C31.2627 61.3113 32.2521 60.322 33.4681 60.322C34.9147 60.322 35.5174 61.3753 36.156 62.4886C36.7774 63.5726 37.4187 64.6926 38.8747 64.6926C39.8147 64.6926 40.5787 63.9286 40.5787 62.9886C40.5787 62.2126 39.9467 61.582 39.1693 61.582C38.5253 61.582 38 62.1073 38 62.7513C38 63.2926 38.4413 63.7326 38.9813 63.7326C39.1053 63.7326 39.204 63.634 39.204 63.51C39.204 63.3873 39.1053 63.2873 38.9813 63.2873C38.6853 63.2873 38.4453 63.0473 38.4453 62.7513C38.4453 62.3526 38.7707 62.0273 39.1693 62.0273C39.7013 62.0273 40.132 62.458 40.132 62.9886C40.132 63.682 39.568 64.2473 38.8747 64.2473C37.676 64.2473 37.152 63.33 36.5427 62.2673C35.9 61.146 35.172 59.8753 33.4681 59.8753C32.0054 59.8753 30.8161 61.0646 30.8161 62.5273Z"/><path fill="rgb(216, 178, 98)" stroke="none" fill-opacity="1" stroke-width="1" stroke-opacity="1" id="tSvga159414b03" title="Path 30" d="M42.62 62.95C42.18 62.95 41.8226 63.3073 41.8226 63.7486C41.8226 64.1886 42.18 64.5459 42.62 64.5459C43.06 64.5459 43.4186 64.1886 43.4186 63.7486C43.4186 63.3073 43.06 62.95 42.62 62.95Z"/><path fill="rgb(216, 178, 98)" stroke="none" fill-opacity="1" stroke-width="1" stroke-opacity="1" id="tSvg119b050cd7f" title="Path 31" d="M45.3533 63.158C44.9706 63.158 44.6599 63.4686 44.6599 63.8526C44.6599 64.2353 44.9706 64.5459 45.3533 64.5459C45.7359 64.5459 46.0479 64.2353 46.0479 63.8526C46.0479 63.4686 45.7359 63.158 45.3533 63.158Z"/><path fill="rgb(216, 178, 98)" stroke="none" fill-opacity="1" stroke-width="1" stroke-opacity="1" id="tSvgb2614e17ae" title="Path 32" d="M47.8799 63.366C47.5532 63.366 47.2879 63.63 47.2879 63.9553C47.2879 64.2819 47.5532 64.5459 47.8799 64.5459C48.2052 64.5459 48.4692 64.2819 48.4692 63.9553C48.4692 63.63 48.2052 63.366 47.8799 63.366Z"/><path fill="rgb(216, 178, 98)" stroke="none" fill-opacity="1" stroke-width="1" stroke-opacity="1" id="tSvgd6a4eaa42e" title="Path 33" d="M50.1972 63.574C49.9292 63.574 49.7106 63.7913 49.7106 64.0593C49.7106 64.3286 49.9292 64.5459 50.1972 64.5459C50.4652 64.5459 50.6826 64.3286 50.6826 64.0593C50.6826 63.7913 50.4652 63.574 50.1972 63.574Z"/><path fill="rgb(216, 178, 98)" stroke="none" fill-opacity="1" stroke-width="1" stroke-opacity="1" id="tSvg17ce3149c4d" title="Path 34" d="M52.2359 64.2819C57.2149 64.2077 62.194 64.1335 67.1731 64.0593C62.194 63.9851 57.2149 63.9108 52.2359 63.8366C52.1119 63.8353 52.0105 63.9339 52.0092 64.0566C52.0065 64.1793 52.1065 64.2806 52.2359 64.2819Z"/><path fill="rgb(216, 178, 98)" stroke="none" fill-opacity="1" stroke-width="1" stroke-opacity="1" id="tSvg16a1ce87717" title="Path 35" d="M22.3868 59.7407C23.7148 62.058 24.9695 64.2473 27.7694 64.2473C29.4481 64.2473 30.8161 62.8806 30.8161 61.1993C30.8161 59.8807 29.7414 58.806 28.4228 58.806C27.3908 58.806 26.5535 59.6447 26.5535 60.6766C26.5535 61.1806 26.8121 61.6246 27.2028 61.8846C27.1574 61.4686 27.4521 61.0913 27.8694 61.038C28.2908 60.9846 28.6761 61.2833 28.7308 61.7046C28.7841 62.1273 28.4854 62.5126 28.0628 62.566C28.0561 62.5673 28.0481 62.566 28.0401 62.5673C28.0268 62.5686 28.0161 62.574 28.0041 62.574C27.9881 62.574 27.9721 62.57 27.9561 62.5686C27.9121 62.5686 27.8694 62.5633 27.8268 62.5553C26.8641 62.4646 26.1068 61.662 26.1068 60.6766C26.1068 59.3993 27.1454 58.3607 28.4228 58.3607C29.9881 58.3607 31.2627 59.634 31.2627 61.1993C31.2627 63.126 29.6948 64.6926 27.7694 64.6926C24.7108 64.6926 23.3335 62.2886 22.0002 59.9633C20.6122 57.5433 19.1789 55.042 15.8296 55.042C12.9963 55.042 10.6909 57.3473 10.6909 60.1807C10.6909 62.422 12.5149 64.2473 14.7576 64.2473C16.5269 64.2473 17.9655 62.8073 17.9655 61.038C17.9655 59.9633 17.2882 59.046 16.3402 58.6833C16.3949 58.8087 16.4256 58.946 16.4256 59.09C16.4256 59.654 15.9696 60.11 15.4056 60.11C14.8416 60.11 14.3856 59.654 14.3856 59.09C14.3856 58.5273 14.8416 58.07 15.4056 58.07C15.4136 58.07 15.4216 58.0727 15.4296 58.0727C15.4349 58.0727 15.4389 58.07 15.4442 58.07C17.0802 58.07 18.4122 59.402 18.4122 61.038C18.4122 63.054 16.7735 64.6926 14.7576 64.6926C12.2696 64.6926 10.2443 62.6686 10.2443 60.1807C10.2443 57.1007 12.7496 54.5954 15.8296 54.5954C19.4389 54.5954 20.9375 57.2113 22.3868 59.7407Z"/></svg>