<svg width="243" height="58" viewBox="0 0 243 58" fill="none" xmlns="http://www.w3.org/2000/svg">
<g filter="url(#filter0_d_50_3)">
<path d="M21.1022 36.4444C20.3293 33.4402 20.0178 30.4228 19.4509 27.3942C19.8523 26.9421 20.2368 26.4869 20.5952 26.0298C21.1373 27.0566 21.5583 28.0784 21.8125 29.0508C22.6857 32.3884 22.8043 35.8905 23.5146 39.2633C23.8065 40.6526 24.3031 42.0811 24.986 43.4196C23.2461 41.3368 21.716 38.8229 21.1022 36.4444ZM17.5181 28.0197C17.565 27.9379 17.6028 27.8488 17.6471 27.7657C17.6484 27.7994 17.6497 27.8335 17.6511 27.8686C17.6054 27.918 17.565 27.9705 17.5181 28.0197ZM9.3295 32.3858C7.19861 32.0901 4.42911 30.1194 5.38312 27.5688C5.99176 25.9422 8.30772 25.6581 9.39988 26.8387C9.77132 27.2378 10.1519 27.7225 10.2027 28.2907C10.3395 29.7792 9.164 30.0969 8.78995 29.5874C8.75085 29.2957 8.62701 28.9947 8.40415 28.7351C7.88153 28.1211 7.05264 27.973 6.55217 28.4001C6.05171 28.8262 6.06996 29.6708 6.59258 30.2823C6.719 30.4309 6.86236 30.548 7.01485 30.6391C8.78733 31.918 10.8335 30.0842 11.4056 28.2713C11.996 26.3999 10.6028 25.1562 9.0102 24.8629C10.6028 24.5702 11.996 23.3254 11.4056 21.4549C10.8335 19.642 8.78733 17.8083 7.01485 19.0881C6.86236 19.1792 6.719 19.2969 6.59258 19.4441C6.06996 20.0565 6.05171 20.9001 6.55217 21.3262C7.05264 21.7532 7.88153 21.6036 8.40415 20.9923C8.62701 20.733 8.75085 20.4333 8.78995 20.1385C9.164 19.6303 10.3395 19.9486 10.2027 21.4356C10.1519 22.0048 9.77132 22.4884 9.39988 22.8886C8.30772 24.0692 5.99176 23.784 5.38312 22.1575C4.42911 19.6054 7.19861 17.6363 9.3295 17.3419C13.6056 16.7476 16.6996 20.922 17.4178 24.8629C16.6996 28.8059 13.6056 32.9815 9.3295 32.3858ZM17.6511 21.8592C17.6497 21.8928 17.6484 21.9268 17.6471 21.962C17.6028 21.8776 17.565 21.79 17.5181 21.7065C17.565 21.7559 17.6054 21.8082 17.6511 21.8592ZM19.1668 25.988C19.0781 25.6139 18.9765 25.2387 18.8592 24.8629C18.9765 24.4877 19.0781 24.1125 19.1668 23.7383C19.4339 24.1099 19.6842 24.4851 19.9201 24.8629C19.6842 25.2411 19.4339 25.6163 19.1668 25.988ZM21.1022 13.2821C21.716 10.9036 23.2461 8.39083 24.986 6.30686C24.3031 7.64534 23.8065 9.07375 23.5146 10.4618C22.8043 13.836 22.6857 17.3393 21.8125 20.6756C21.5583 21.6479 21.1373 22.6722 20.5952 23.698C20.2368 23.2404 19.8523 22.7843 19.4509 22.3347C20.0178 19.3045 20.3293 16.2849 21.1022 13.2821ZM35.7603 40.9341C33.705 40.1195 30.5302 41.5181 31.3708 44.1806C31.9404 45.9829 33.9696 47.8132 35.7369 46.5694C35.9063 46.4757 36.064 46.3494 36.2008 46.1865C36.6961 45.5893 36.7039 44.7763 36.2152 44.3721C35.7277 43.9643 34.9301 44.1207 34.4336 44.7163C34.2433 44.9443 34.1273 45.205 34.0804 45.4616C33.5199 45.9141 32.433 45.7523 32.5738 44.2C32.6259 43.6319 33.0065 43.1472 33.3779 42.748C34.4701 41.5689 36.7847 41.8515 37.3934 43.4781C38.3474 46.0297 35.5792 48.0045 33.447 48.2963C28.4332 48.9779 25.4708 43.6721 25.0603 39.2882C24.6823 35.2648 24.9547 31.3289 23.0284 27.4776C22.6036 26.6264 22.0705 25.7482 21.4541 24.8629C22.0705 23.9795 22.6036 23.1024 23.0284 22.2502C24.9547 18.3973 24.6823 14.4629 25.0603 10.4383C25.4708 6.05532 28.4332 0.748299 33.447 1.43123C35.5792 1.72056 38.3474 3.69506 37.3934 6.24821C36.7847 7.87473 34.4701 8.16015 33.3779 6.97936C33.0065 6.57925 32.6259 6.09442 32.5738 5.52488C32.433 3.97526 33.5199 3.81234 34.0804 4.26459C34.1273 4.52264 34.2433 4.78199 34.4336 5.01138C34.9301 5.60698 35.7277 5.76207 36.2152 5.35414C36.7039 4.95012 36.6961 4.13818 36.2008 3.54127C36.064 3.37836 35.9063 3.25063 35.7369 3.15679C33.9696 1.91344 31.9404 3.74328 31.3708 5.54574C30.5302 8.20837 33.705 9.6081 35.7603 8.79354C37.4833 8.10931 38.9964 5.94845 38.7501 4.05867C38.3695 1.13408 35.7382 -0.257835 32.9778 0.0393181C31.3226 0.215263 29.6583 0.89949 28.4045 1.84698C24.6836 4.41839 20.9484 8.48075 19.477 12.2303C18.0486 15.8769 17.8009 18.2125 17.7019 20.53C16.7283 19.6019 15.6831 18.7089 14.557 17.8933C13.2485 16.9417 11.5021 16.1311 9.7987 15.9486C7.03832 15.6515 4.40696 17.0421 4.0264 19.9679C3.78008 21.8576 5.2945 24.0188 7.01746 24.703C7.20122 24.7759 7.39671 24.8252 7.59481 24.8629C7.39671 24.9011 7.20122 24.9519 7.01746 25.0232C5.2945 25.709 3.78008 27.8696 4.0264 29.7583C4.40696 32.6842 7.03832 34.076 9.7987 33.7777C11.5021 33.5939 13.2485 32.7845 14.557 31.8329C15.6831 31.0159 16.7283 30.1234 17.7019 29.1953C17.8009 31.5153 18.0486 33.8506 19.477 37.4972C20.9484 41.2457 24.6836 45.3119 28.4045 47.8792C29.6583 48.8267 31.3226 49.5099 32.9778 49.687C35.7382 49.9855 38.3695 48.592 38.7501 45.6678C38.9964 43.7789 37.4833 41.6183 35.7603 40.9341Z" fill="#C89B3A"/>
</g>
<g filter="url(#filter1_d_50_3)">
<path d="M232.943 32.3858C228.667 32.9815 225.572 28.8059 224.852 24.8629C225.572 20.922 228.667 16.7476 232.943 17.3419C235.074 17.6363 237.844 19.6054 236.888 22.1575C236.28 23.784 233.964 24.0692 232.872 22.8886C232.5 22.4884 232.121 22.0048 232.07 21.4356C231.932 19.9486 233.109 19.6303 233.483 20.1385C233.521 20.4333 233.646 20.733 233.867 20.9923C234.391 21.6036 235.219 21.7532 235.718 21.3262C236.218 20.9001 236.201 20.0565 235.679 19.4441C235.552 19.2969 235.409 19.1792 235.257 19.0881C233.483 17.8083 231.438 19.642 230.866 21.4549C230.275 23.3254 231.669 24.5702 233.261 24.8629C231.669 25.1562 230.275 26.3999 230.866 28.2713C231.438 30.0842 233.483 31.918 235.257 30.6391C235.409 30.548 235.552 30.4309 235.679 30.2823C236.201 29.6708 236.218 28.8262 235.718 28.4001C235.219 27.973 234.391 28.1211 233.867 28.7351C233.646 28.9947 233.521 29.2957 233.483 29.5874C233.109 30.0969 231.932 29.7792 232.07 28.2907C232.121 27.7225 232.5 27.2378 232.872 26.8387C233.964 25.6581 236.28 25.9422 236.888 27.5688C237.844 30.1194 235.074 32.0901 232.943 32.3858ZM224.619 27.8686C224.62 27.8335 224.622 27.7994 224.623 27.7657C224.667 27.8488 224.705 27.9379 224.752 28.0197C224.705 27.9705 224.665 27.918 224.619 27.8686ZM221.171 36.4444C220.557 38.8229 219.024 41.3368 217.285 43.4196C217.968 42.0811 218.464 40.6526 218.757 39.2633C219.467 35.8905 219.584 32.3884 220.46 29.0508C220.714 28.0784 221.134 27.0551 221.676 26.0298C222.035 26.4859 222.419 26.9405 222.819 27.3926C222.252 30.4228 221.941 33.4402 221.171 36.4444ZM220.46 20.6756C219.584 17.3393 219.467 13.836 218.757 10.4618C218.464 9.07375 217.968 7.64534 217.285 6.30686C219.024 8.39083 220.557 10.9036 221.171 13.2821C221.941 16.2849 222.252 19.3061 222.819 22.3347C222.419 22.7857 222.035 23.2404 221.676 23.698C221.134 22.6722 220.714 21.6479 220.46 20.6756ZM222.351 24.8629C222.586 24.4851 222.837 24.1099 223.105 23.7383C223.192 24.1125 223.294 24.4877 223.412 24.8629C223.294 25.2396 223.192 25.6139 223.105 25.988C222.837 25.6179 222.586 25.2422 222.351 24.8629ZM224.752 21.7065C224.705 21.79 224.667 21.8776 224.623 21.962C224.622 21.9268 224.62 21.8928 224.619 21.8592C224.665 21.8082 224.705 21.7559 224.752 21.7065ZM235.254 25.0232C235.07 24.9519 234.875 24.9011 234.677 24.8629C234.875 24.8252 235.07 24.7759 235.254 24.703C236.977 24.0188 238.493 21.8576 238.245 19.9679C237.863 17.0421 235.232 15.6515 232.471 15.9486C230.769 16.1311 229.023 16.9417 227.714 17.8933C226.59 18.7089 225.542 19.6028 224.568 20.531C224.47 18.2135 224.223 15.8783 222.794 12.2303C221.323 8.48075 217.587 4.41839 213.867 1.84698C212.612 0.89949 210.95 0.215263 209.295 0.0393181C206.533 -0.257835 203.905 1.13408 203.523 4.05867C203.275 5.94845 204.789 8.10931 206.511 8.79354C208.568 9.6081 211.741 8.20837 210.902 5.54574C210.331 3.74328 208.303 1.91344 206.536 3.15679C206.365 3.25063 206.207 3.37836 206.071 3.54127C205.574 4.13818 205.569 4.95012 206.058 5.35414C206.544 5.76207 207.343 5.60698 207.837 5.01138C208.028 4.78199 208.144 4.52264 208.191 4.26459C208.753 3.81234 209.84 3.97526 209.698 5.52488C209.647 6.09442 209.265 6.57925 208.896 6.97936C207.804 8.16015 205.487 7.87473 204.879 6.24821C203.924 3.69506 206.694 1.72056 208.824 1.43123C213.84 0.748299 216.799 6.05532 217.211 10.4383C217.589 14.4629 217.317 18.3973 219.243 22.2502C219.668 23.1024 220.201 23.9795 220.817 24.8629C220.201 25.7482 219.668 26.6264 219.243 27.4776C217.317 31.3289 217.589 35.2648 217.211 39.2882C216.799 43.6721 213.84 48.9779 208.824 48.2963C206.694 48.0045 203.924 46.0297 204.879 43.4781C205.487 41.8515 207.804 41.5689 208.896 42.748C209.265 43.1472 209.647 43.6319 209.698 44.2C209.84 45.7523 208.753 45.9141 208.191 45.4616C208.144 45.205 208.028 44.9443 207.837 44.7163C207.343 44.1207 206.544 43.9643 206.058 44.3721C205.569 44.7763 205.574 45.5893 206.071 46.1865C206.207 46.3494 206.365 46.4757 206.536 46.5694C208.303 47.8132 210.331 45.9829 210.902 44.1806C211.741 41.5181 208.568 40.1195 206.511 40.9341C204.789 41.6183 203.275 43.7789 203.523 45.6678C203.905 48.592 206.533 49.9855 209.295 49.687C210.95 49.5099 212.612 48.8267 213.867 47.8792C217.587 45.3119 221.323 41.2457 222.794 37.4972C224.223 33.8506 224.47 31.5138 224.568 29.1938C225.542 30.1234 226.59 31.0159 227.714 31.8329C229.023 32.7845 230.769 33.5939 232.471 33.7777C235.232 34.076 237.863 32.6842 238.245 29.7583C238.493 27.8696 236.977 25.709 235.254 25.0232Z" fill="#C89B3A"/>
</g>
<g filter="url(#filter2_d_50_3)">
<path d="M45.1573 31.1159C45.8573 31.1159 46.4156 30.9325 46.8323 30.5659C47.2656 30.1825 47.5823 29.6909 47.7823 29.0909C47.9823 28.4909 48.0823 27.8575 48.0823 27.1909C48.0823 25.8242 47.7073 24.7992 46.9573 24.1159C46.2239 23.4325 45.1989 23.0909 43.8823 23.0909C43.8156 23.0909 43.7823 23.0409 43.7823 22.9409C43.7823 22.8409 43.8156 22.7909 43.8823 22.7909C45.1489 22.7909 46.0823 22.4659 46.6823 21.8159C47.2823 21.1659 47.5823 20.2909 47.5823 19.1909C47.5823 18.0575 47.3573 17.1825 46.9073 16.5659C46.4573 15.9492 45.8239 15.6409 45.0073 15.6409C44.4573 15.6409 43.9073 15.8159 43.3573 16.1659C42.8239 16.5159 42.3406 17.0075 41.9073 17.6409C41.4906 18.2742 41.1739 19.0242 40.9573 19.8909C40.9406 19.9409 40.8906 19.9575 40.8073 19.9409C40.7239 19.9242 40.6823 19.8992 40.6823 19.8659L41.0323 16.5659C41.0656 16.3659 41.0989 16.2325 41.1323 16.1659C41.1656 16.0992 41.2573 16.0409 41.4073 15.9909C42.0906 15.7575 42.7656 15.5909 43.4323 15.4909C44.0989 15.3742 44.7239 15.3159 45.3073 15.3159C46.4073 15.3159 47.3073 15.4742 48.0073 15.7909C48.7239 16.1075 49.2489 16.5242 49.5823 17.0409C49.9323 17.5409 50.1073 18.0909 50.1073 18.6909C50.1073 19.2742 49.9573 19.8242 49.6573 20.3409C49.3573 20.8409 48.9656 21.2825 48.4823 21.6659C48.0156 22.0492 47.5073 22.3575 46.9573 22.5909C46.4239 22.8242 45.9156 22.9575 45.4323 22.9909L45.7823 22.7909C46.7489 22.7909 47.6073 22.9575 48.3573 23.2909C49.1073 23.6075 49.6989 24.0659 50.1323 24.6659C50.5656 25.2492 50.7823 25.9492 50.7823 26.7659C50.7823 27.6825 50.4989 28.4992 49.9323 29.2159C49.3823 29.9325 48.6406 30.4992 47.7073 30.9159C46.7739 31.3159 45.7406 31.5159 44.6073 31.5159C43.9073 31.5159 43.2156 31.4325 42.5323 31.2659C41.8489 31.1159 41.3156 30.8825 40.9323 30.5659C40.7823 30.4825 40.6906 30.4075 40.6573 30.3409C40.6239 30.2742 40.5989 30.1575 40.5823 29.9909L40.2823 26.8159C40.2823 26.7825 40.3239 26.7575 40.4073 26.7409C40.5073 26.7242 40.5656 26.7409 40.5823 26.7909C40.7323 27.6909 41.0406 28.4659 41.5073 29.1159C41.9739 29.7492 42.5239 30.2409 43.1573 30.5909C43.8073 30.9409 44.4739 31.1159 45.1573 31.1159ZM57.4897 23.4659L57.8647 22.8159H63.0147L63.1897 23.4659H57.4897ZM69.8647 30.9159C69.9314 30.9159 69.9647 30.9659 69.9647 31.0659C69.9647 31.1659 69.9314 31.2159 69.8647 31.2159C69.3647 31.2159 68.848 31.1992 68.3147 31.1659C67.798 31.1325 67.298 31.1159 66.8147 31.1159C66.2647 31.1159 65.7814 31.1325 65.3647 31.1659C64.9647 31.1992 64.5147 31.2159 64.0147 31.2159C63.948 31.2159 63.9147 31.1659 63.9147 31.0659C63.9147 30.9659 63.948 30.9159 64.0147 30.9159C64.7647 30.9159 65.2147 30.7825 65.3647 30.5159C65.5147 30.2492 65.3897 29.7242 64.9897 28.9409L59.7647 18.3159L60.7897 16.6409L55.8397 27.7909C55.4064 28.8075 55.3897 29.5825 55.7897 30.1159C56.2064 30.6492 56.9064 30.9159 57.8897 30.9159C57.973 30.9159 58.0147 30.9659 58.0147 31.0659C58.0147 31.1659 57.973 31.2159 57.8897 31.2159C57.3897 31.2159 56.9314 31.1992 56.5147 31.1659C56.098 31.1325 55.573 31.1159 54.9397 31.1159C54.3064 31.1159 53.798 31.1325 53.4147 31.1659C53.048 31.1992 52.5897 31.2159 52.0397 31.2159C51.973 31.2159 51.9397 31.1659 51.9397 31.0659C51.9397 30.9659 51.973 30.9159 52.0397 30.9159C52.4897 30.9159 52.873 30.8242 53.1897 30.6409C53.523 30.4575 53.848 30.1242 54.1647 29.6409C54.4814 29.1409 54.8314 28.4492 55.2147 27.5659L60.5897 15.4409C60.623 15.3909 60.698 15.3659 60.8147 15.3659C60.9314 15.3659 60.998 15.3909 61.0147 15.4409L67.1397 27.7909C67.523 28.5909 67.8647 29.2242 68.1647 29.6909C68.4647 30.1409 68.748 30.4575 69.0147 30.6409C69.2814 30.8242 69.5647 30.9159 69.8647 30.9159ZM87.7131 30.9159C87.7631 30.9159 87.7881 30.9659 87.7881 31.0659C87.7881 31.1659 87.7631 31.2159 87.7131 31.2159C87.2965 31.2159 86.8215 31.2075 86.2881 31.1909C85.7548 31.1742 85.1965 31.1659 84.6131 31.1659C83.9631 31.1659 83.3631 31.1742 82.8131 31.1909C82.2631 31.2075 81.7631 31.2159 81.3131 31.2159C81.2631 31.2159 81.2381 31.1659 81.2381 31.0659C81.2381 30.9659 81.2631 30.9159 81.3131 30.9159C81.8798 30.9159 82.3048 30.8742 82.5881 30.7909C82.8881 30.7075 83.0798 30.5409 83.1631 30.2909C83.2631 30.0409 83.3131 29.6742 83.3131 29.1909V17.8409C83.3131 17.3242 83.2881 16.9575 83.2381 16.7409C83.1881 16.5242 83.0631 16.3992 82.8631 16.3659C82.6631 16.3159 82.3131 16.2909 81.8131 16.2909H76.6881C76.1715 16.2909 75.7965 16.3159 75.5631 16.3659C75.3465 16.4159 75.2131 16.5492 75.1631 16.7659C75.1131 16.9825 75.0881 17.3409 75.0881 17.8409V29.1909C75.0881 29.6742 75.1298 30.0409 75.2131 30.2909C75.3131 30.5409 75.5048 30.7075 75.7881 30.7909C76.0881 30.8742 76.5215 30.9159 77.0881 30.9159C77.1381 30.9159 77.1631 30.9659 77.1631 31.0659C77.1631 31.1659 77.1381 31.2159 77.0881 31.2159C76.6381 31.2159 76.1381 31.2075 75.5881 31.1909C75.0381 31.1742 74.4298 31.1659 73.7631 31.1659C73.1798 31.1659 72.6215 31.1742 72.0881 31.1909C71.5548 31.2075 71.0798 31.2159 70.6631 31.2159C70.6298 31.2159 70.6131 31.1659 70.6131 31.0659C70.6131 30.9659 70.6298 30.9159 70.6631 30.9159C71.2465 30.9159 71.6798 30.8742 71.9631 30.7909C72.2465 30.7075 72.4381 30.5409 72.5381 30.2909C72.6548 30.0409 72.7131 29.6742 72.7131 29.1909V17.9159C72.7131 17.1992 72.5881 16.6825 72.3381 16.3659C72.1048 16.0492 71.5548 15.8909 70.6881 15.8909C70.6548 15.8909 70.6381 15.8409 70.6381 15.7409C70.6381 15.6409 70.6548 15.5909 70.6881 15.5909C70.9881 15.5909 71.5631 15.5992 72.4131 15.6159C73.2798 15.6325 74.3131 15.6492 75.5131 15.6659C76.7298 15.6659 77.9881 15.6659 79.2881 15.6659C80.3381 15.6659 81.3381 15.6659 82.2881 15.6659C83.2548 15.6492 84.1298 15.6409 84.9131 15.6409C85.6965 15.6242 86.3298 15.6159 86.8131 15.6159C87.3131 15.5992 87.6131 15.5909 87.7131 15.5909C87.7631 15.5909 87.7881 15.6409 87.7881 15.7409C87.7881 15.8409 87.7631 15.8909 87.7131 15.8909C86.8631 15.8909 86.3131 16.0492 86.0631 16.3659C85.8131 16.6825 85.6881 17.1992 85.6881 17.9159V29.1909C85.6881 29.6742 85.7381 30.0409 85.8381 30.2909C85.9381 30.5409 86.1298 30.7075 86.4131 30.7909C86.7131 30.8742 87.1465 30.9159 87.7131 30.9159ZM92.7143 29.4409L92.2393 28.9909L103.239 17.2659L103.689 17.6909L92.7143 29.4409ZM89.3643 31.2159C89.331 31.2159 89.3143 31.1659 89.3143 31.0659C89.3143 30.9659 89.331 30.9159 89.3643 30.9159C89.9476 30.9159 90.381 30.8742 90.6643 30.7909C90.9476 30.7075 91.1393 30.5409 91.2393 30.2909C91.356 30.0409 91.4143 29.6742 91.4143 29.1909V17.6159C91.4143 17.1325 91.3643 16.7742 91.2643 16.5409C91.1643 16.2909 90.9726 16.1242 90.6893 16.0409C90.406 15.9409 89.9726 15.8909 89.3893 15.8909C89.356 15.8909 89.3393 15.8409 89.3393 15.7409C89.3393 15.6409 89.356 15.5909 89.3893 15.5909C89.8226 15.5909 90.306 15.6075 90.8393 15.6409C91.3726 15.6575 91.931 15.6659 92.5143 15.6659C93.231 15.6659 93.8643 15.6575 94.4143 15.6409C94.9643 15.6075 95.456 15.5909 95.8893 15.5909C95.9226 15.5909 95.9393 15.6409 95.9393 15.7409C95.9393 15.8409 95.9226 15.8909 95.8893 15.8909C95.306 15.8909 94.856 15.9409 94.5393 16.0409C94.2393 16.1409 94.0393 16.3159 93.9393 16.5659C93.8393 16.8159 93.7893 17.1825 93.7893 17.6659V29.1909C93.7893 29.6742 93.8393 30.0409 93.9393 30.2909C94.0393 30.5409 94.2393 30.7075 94.5393 30.7909C94.856 30.8742 95.306 30.9159 95.8893 30.9159C95.9226 30.9159 95.9393 30.9659 95.9393 31.0659C95.9393 31.1659 95.9226 31.2159 95.8893 31.2159C95.4393 31.2159 94.9393 31.2075 94.3893 31.1909C93.856 31.1742 93.231 31.1659 92.5143 31.1659C91.931 31.1659 91.3643 31.1742 90.8143 31.1909C90.2643 31.2075 89.781 31.2159 89.3643 31.2159ZM99.9643 31.2159C99.9143 31.2159 99.8893 31.1659 99.8893 31.0659C99.8893 30.9659 99.9143 30.9159 99.9643 30.9159C100.581 30.9159 101.039 30.8742 101.339 30.7909C101.639 30.7075 101.839 30.5409 101.939 30.2909C102.039 30.0409 102.089 29.6742 102.089 29.1909V17.6659C102.089 17.1825 102.039 16.8159 101.939 16.5659C101.839 16.3159 101.639 16.1409 101.339 16.0409C101.039 15.9409 100.581 15.8909 99.9643 15.8909C99.9143 15.8909 99.8893 15.8409 99.8893 15.7409C99.8893 15.6409 99.9143 15.5909 99.9643 15.5909C100.381 15.5909 100.856 15.6075 101.389 15.6409C101.939 15.6575 102.573 15.6659 103.289 15.6659C103.873 15.6659 104.448 15.6575 105.014 15.6409C105.581 15.6075 106.073 15.5909 106.489 15.5909C106.539 15.5909 106.564 15.6409 106.564 15.7409C106.564 15.8409 106.539 15.8909 106.489 15.8909C105.923 15.8909 105.489 15.9409 105.189 16.0409C104.906 16.1242 104.714 16.2909 104.614 16.5409C104.514 16.7742 104.464 17.1325 104.464 17.6159V29.1909C104.464 29.6742 104.514 30.0409 104.614 30.2909C104.714 30.5409 104.906 30.7075 105.189 30.7909C105.489 30.8742 105.923 30.9159 106.489 30.9159C106.539 30.9159 106.564 30.9659 106.564 31.0659C106.564 31.1659 106.539 31.2159 106.489 31.2159C106.073 31.2159 105.581 31.2075 105.014 31.1909C104.448 31.1742 103.873 31.1659 103.289 31.1659C102.573 31.1659 101.939 31.1742 101.389 31.1909C100.856 31.2075 100.381 31.2159 99.9643 31.2159ZM117.789 15.3159C118.506 15.3159 119.273 15.3825 120.089 15.5159C120.906 15.6325 121.556 15.8159 122.039 16.0659C122.189 16.1159 122.281 16.1825 122.314 16.2659C122.364 16.3325 122.398 16.4575 122.414 16.6409L122.714 19.8909C122.714 19.9242 122.673 19.9575 122.589 19.9909C122.523 20.0075 122.473 19.9825 122.439 19.9159C121.956 18.6159 121.223 17.6242 120.239 16.9409C119.273 16.2575 118.131 15.9159 116.814 15.9159C115.631 15.9159 114.623 16.1992 113.789 16.7659C112.973 17.3325 112.339 18.1242 111.889 19.1409C111.456 20.1409 111.239 21.3075 111.239 22.6409C111.239 23.8075 111.398 24.8992 111.714 25.9159C112.031 26.9325 112.473 27.8242 113.039 28.5909C113.606 29.3575 114.273 29.9575 115.039 30.3909C115.806 30.8242 116.639 31.0409 117.539 31.0409C118.639 31.0409 119.614 30.7075 120.464 30.0409C121.331 29.3575 122.064 28.2909 122.664 26.8409C122.698 26.7742 122.756 26.7575 122.839 26.7909C122.923 26.8075 122.964 26.8325 122.964 26.8659L122.589 30.0659C122.556 30.2659 122.514 30.3992 122.464 30.4659C122.431 30.5159 122.339 30.5742 122.189 30.6409C121.423 30.9409 120.648 31.1575 119.864 31.2909C119.081 31.4409 118.314 31.5159 117.564 31.5159C115.964 31.5159 114.589 31.2742 113.439 30.7909C112.289 30.2909 111.356 29.6409 110.639 28.8409C109.923 28.0242 109.389 27.1325 109.039 26.1659C108.706 25.1992 108.539 24.2492 108.539 23.3159C108.539 22.0992 108.789 20.9992 109.289 20.0159C109.806 19.0325 110.498 18.1909 111.364 17.4909C112.231 16.7909 113.214 16.2575 114.314 15.8909C115.431 15.5075 116.589 15.3159 117.789 15.3159ZM129.438 23.4659L129.813 22.8159H134.963L135.138 23.4659H129.438ZM141.813 30.9159C141.88 30.9159 141.913 30.9659 141.913 31.0659C141.913 31.1659 141.88 31.2159 141.813 31.2159C141.313 31.2159 140.796 31.1992 140.263 31.1659C139.746 31.1325 139.246 31.1159 138.763 31.1159C138.213 31.1159 137.73 31.1325 137.313 31.1659C136.913 31.1992 136.463 31.2159 135.963 31.2159C135.896 31.2159 135.863 31.1659 135.863 31.0659C135.863 30.9659 135.896 30.9159 135.963 30.9159C136.713 30.9159 137.163 30.7825 137.313 30.5159C137.463 30.2492 137.338 29.7242 136.938 28.9409L131.713 18.3159L132.738 16.6409L127.788 27.7909C127.355 28.8075 127.338 29.5825 127.738 30.1159C128.155 30.6492 128.855 30.9159 129.838 30.9159C129.921 30.9159 129.963 30.9659 129.963 31.0659C129.963 31.1659 129.921 31.2159 129.838 31.2159C129.338 31.2159 128.88 31.1992 128.463 31.1659C128.046 31.1325 127.521 31.1159 126.888 31.1159C126.255 31.1159 125.746 31.1325 125.363 31.1659C124.996 31.1992 124.538 31.2159 123.988 31.2159C123.921 31.2159 123.888 31.1659 123.888 31.0659C123.888 30.9659 123.921 30.9159 123.988 30.9159C124.438 30.9159 124.821 30.8242 125.138 30.6409C125.471 30.4575 125.796 30.1242 126.113 29.6409C126.43 29.1409 126.78 28.4492 127.163 27.5659L132.538 15.4409C132.571 15.3909 132.646 15.3659 132.763 15.3659C132.88 15.3659 132.946 15.3909 132.963 15.4409L139.088 27.7909C139.471 28.5909 139.813 29.2242 140.113 29.6909C140.413 30.1409 140.696 30.4575 140.963 30.6409C141.23 30.8242 141.513 30.9159 141.813 30.9159ZM145.304 16.1159C144.287 16.1159 143.454 16.4325 142.804 17.0659C142.17 17.6992 141.67 18.6325 141.304 19.8659C141.304 19.9159 141.254 19.9409 141.154 19.9409C141.07 19.9242 141.029 19.8992 141.029 19.8659C141.062 19.6325 141.095 19.3159 141.129 18.9159C141.162 18.4992 141.195 18.0492 141.229 17.5659C141.279 17.0825 141.312 16.6159 141.329 16.1659C141.362 15.6992 141.379 15.3242 141.379 15.0409C141.379 14.9575 141.42 14.9159 141.504 14.9159C141.604 14.9159 141.654 14.9575 141.654 15.0409C141.654 15.2075 141.737 15.3325 141.904 15.4159C142.087 15.4825 142.287 15.5325 142.504 15.5659C142.72 15.5825 142.904 15.5909 143.054 15.5909C144.487 15.6409 146.162 15.6659 148.079 15.6659C149.262 15.6659 150.195 15.6575 150.879 15.6409C151.579 15.6075 152.254 15.5909 152.904 15.5909C153.504 15.5909 153.954 15.5575 154.254 15.4909C154.57 15.4075 154.77 15.2325 154.854 14.9659C154.87 14.8992 154.92 14.8659 155.004 14.8659C155.087 14.8659 155.129 14.8992 155.129 14.9659C155.112 15.2325 155.087 15.5992 155.054 16.0659C155.02 16.5159 154.995 16.9992 154.979 17.5159C154.962 18.0159 154.945 18.4825 154.929 18.9159C154.912 19.3325 154.904 19.6492 154.904 19.8659C154.904 19.8992 154.854 19.9159 154.754 19.9159C154.67 19.9159 154.62 19.8992 154.604 19.8659C154.42 18.5492 154.02 17.5992 153.404 17.0159C152.787 16.4159 151.962 16.1159 150.929 16.1159C150.479 16.1159 150.137 16.1575 149.904 16.2409C149.67 16.3242 149.512 16.4825 149.429 16.7159C149.345 16.9325 149.304 17.2492 149.304 17.6659V29.1909C149.304 29.6742 149.354 30.0409 149.454 30.2909C149.57 30.5409 149.779 30.7075 150.079 30.7909C150.395 30.8742 150.87 30.9159 151.504 30.9159C151.554 30.9159 151.579 30.9659 151.579 31.0659C151.579 31.1659 151.554 31.2159 151.504 31.2159C151.054 31.2159 150.537 31.2075 149.954 31.1909C149.387 31.1742 148.762 31.1659 148.079 31.1659C147.429 31.1659 146.82 31.1742 146.254 31.1909C145.687 31.2075 145.162 31.2159 144.679 31.2159C144.645 31.2159 144.629 31.1659 144.629 31.0659C144.629 30.9659 144.645 30.9159 144.679 30.9159C145.312 30.9159 145.787 30.8742 146.104 30.7909C146.42 30.7075 146.629 30.5409 146.729 30.2909C146.845 30.0409 146.904 29.6742 146.904 29.1909V17.6159C146.904 17.1992 146.862 16.8909 146.779 16.6909C146.712 16.4742 146.562 16.3242 146.329 16.2409C146.095 16.1575 145.754 16.1159 145.304 16.1159ZM163.87 31.3159C163.586 31.3159 163.228 31.2992 162.795 31.2659C162.378 31.2492 161.936 31.2325 161.47 31.2159C161.003 31.1825 160.545 31.1659 160.095 31.1659C159.611 31.1659 159.095 31.1742 158.545 31.1909C157.995 31.2075 157.511 31.2159 157.095 31.2159C157.045 31.2159 157.02 31.1659 157.02 31.0659C157.02 30.9659 157.045 30.9159 157.095 30.9159C157.628 30.8992 158.028 30.8575 158.295 30.7909C158.578 30.7242 158.77 30.5742 158.87 30.3409C158.97 30.0909 159.02 29.7075 159.02 29.1909V17.6159C159.02 17.0992 158.97 16.7242 158.87 16.4909C158.786 16.2575 158.603 16.1075 158.32 16.0409C158.053 15.9575 157.653 15.9075 157.12 15.8909C157.086 15.8909 157.07 15.8409 157.07 15.7409C157.07 15.6409 157.086 15.5909 157.12 15.5909C157.553 15.5909 158.011 15.6075 158.495 15.6409C158.978 15.6575 159.545 15.6659 160.195 15.6659C160.845 15.6659 161.453 15.6575 162.02 15.6409C162.586 15.6075 163.086 15.5909 163.52 15.5909C163.553 15.5909 163.57 15.6409 163.57 15.7409C163.57 15.8409 163.553 15.8909 163.52 15.8909C162.953 15.9075 162.511 15.9575 162.195 16.0409C161.895 16.1242 161.686 16.2825 161.57 16.5159C161.47 16.7492 161.42 17.1325 161.42 17.6659V29.1909C161.42 29.5075 161.461 29.7825 161.545 30.0159C161.645 30.2492 161.836 30.4325 162.12 30.5659C162.403 30.6825 162.836 30.7409 163.42 30.7409C164.653 30.7409 165.52 30.4325 166.02 29.8159C166.536 29.1825 166.795 28.2325 166.795 26.9659C166.795 26.0492 166.67 25.2992 166.42 24.7159C166.186 24.1325 165.803 23.7075 165.27 23.4409C164.753 23.1575 164.078 23.0159 163.245 23.0159C162.828 23.0159 162.378 23.0492 161.895 23.1159C161.411 23.1825 160.911 23.2742 160.395 23.3909L160.295 22.8409C160.895 22.6909 161.52 22.5825 162.17 22.5159C162.82 22.4325 163.436 22.3909 164.02 22.3909C165.12 22.3909 166.061 22.5409 166.845 22.8409C167.645 23.1242 168.253 23.5659 168.67 24.1659C169.103 24.7659 169.32 25.5409 169.32 26.4909C169.32 27.4575 169.086 28.3075 168.62 29.0409C168.153 29.7575 167.511 30.3159 166.695 30.7159C165.878 31.1159 164.936 31.3159 163.87 31.3159ZM180.68 15.3159C181.397 15.3159 182.163 15.3825 182.98 15.5159C183.797 15.6325 184.447 15.8159 184.93 16.0659C185.08 16.1159 185.172 16.1825 185.205 16.2659C185.255 16.3325 185.288 16.4575 185.305 16.6409L185.605 19.8909C185.605 19.9242 185.563 19.9575 185.48 19.9909C185.413 20.0075 185.363 19.9825 185.33 19.9159C184.847 18.6159 184.113 17.6242 183.13 16.9409C182.163 16.2575 181.022 15.9159 179.705 15.9159C178.522 15.9159 177.513 16.1992 176.68 16.7659C175.863 17.3325 175.23 18.1242 174.78 19.1409C174.347 20.1409 174.13 21.3075 174.13 22.6409C174.13 23.8075 174.288 24.8992 174.605 25.9159C174.922 26.9325 175.363 27.8242 175.93 28.5909C176.497 29.3575 177.163 29.9575 177.93 30.3909C178.697 30.8242 179.53 31.0409 180.43 31.0409C181.53 31.0409 182.505 30.7075 183.355 30.0409C184.222 29.3575 184.955 28.2909 185.555 26.8409C185.588 26.7742 185.647 26.7575 185.73 26.7909C185.813 26.8075 185.855 26.8325 185.855 26.8659L185.48 30.0659C185.447 30.2659 185.405 30.3992 185.355 30.4659C185.322 30.5159 185.23 30.5742 185.08 30.6409C184.313 30.9409 183.538 31.1575 182.755 31.2909C181.972 31.4409 181.205 31.5159 180.455 31.5159C178.855 31.5159 177.48 31.2742 176.33 30.7909C175.18 30.2909 174.247 29.6409 173.53 28.8409C172.813 28.0242 172.28 27.1325 171.93 26.1659C171.597 25.1992 171.43 24.2492 171.43 23.3159C171.43 22.0992 171.68 20.9992 172.18 20.0159C172.697 19.0325 173.388 18.1909 174.255 17.4909C175.122 16.7909 176.105 16.2575 177.205 15.8909C178.322 15.5075 179.48 15.3159 180.68 15.3159ZM201.429 30.9159C201.462 30.9159 201.479 30.9659 201.479 31.0659C201.479 31.1659 201.462 31.2159 201.429 31.2159C200.979 31.2159 200.479 31.2075 199.929 31.1909C199.395 31.1742 198.82 31.1659 198.204 31.1659C197.587 31.1659 197.02 31.1742 196.504 31.1909C195.987 31.2075 195.52 31.2159 195.104 31.2159C195.054 31.2159 195.029 31.1659 195.029 31.0659C195.029 30.9659 195.054 30.9159 195.104 30.9159C195.654 30.9159 196.062 30.8742 196.329 30.7909C196.595 30.7075 196.77 30.5409 196.854 30.2909C196.954 30.0409 197.004 29.6742 197.004 29.1909V22.9909L197.829 23.1159C197.379 23.1159 196.97 23.1575 196.604 23.2409C196.237 23.3242 195.879 23.4992 195.529 23.7659C195.195 24.0325 194.829 24.4242 194.429 24.9409C194.045 25.4575 193.612 26.1492 193.129 27.0159C192.495 28.1159 191.995 28.9575 191.629 29.5409C191.279 30.1242 191.004 30.5325 190.804 30.7659C190.62 30.9992 190.462 31.1325 190.329 31.1659C190.212 31.1992 190.079 31.2159 189.929 31.2159H186.904C186.87 31.2159 186.854 31.1659 186.854 31.0659C186.854 30.9659 186.87 30.9159 186.904 30.9159C187.454 30.8992 187.912 30.7325 188.279 30.4159C188.662 30.0825 189.045 29.5909 189.429 28.9409C189.829 28.2909 190.329 27.4825 190.929 26.5159C191.479 25.5992 192.004 24.8992 192.504 24.4159C193.004 23.9325 193.537 23.5909 194.104 23.3909C194.687 23.1742 195.329 23.0409 196.029 22.9909L196.204 23.1659C194.254 23.1492 192.779 22.7992 191.779 22.1159C190.779 21.4325 190.279 20.5159 190.279 19.3659C190.279 18.5992 190.495 17.9325 190.929 17.3659C191.379 16.7825 191.979 16.3325 192.729 16.0159C193.495 15.6825 194.354 15.5159 195.304 15.5159C195.654 15.5159 196.12 15.5409 196.704 15.5909C197.287 15.6409 197.787 15.6659 198.204 15.6659C198.82 15.6659 199.395 15.6575 199.929 15.6409C200.462 15.6075 200.954 15.5909 201.404 15.5909C201.437 15.5909 201.454 15.6409 201.454 15.7409C201.454 15.8409 201.437 15.8909 201.404 15.8909C200.804 15.8909 200.362 15.9409 200.079 16.0409C199.795 16.1242 199.604 16.2909 199.504 16.5409C199.42 16.7742 199.379 17.1325 199.379 17.6159V29.1909C199.379 29.6742 199.42 30.0409 199.504 30.2909C199.604 30.5409 199.795 30.7075 200.079 30.7909C200.362 30.8742 200.812 30.9159 201.429 30.9159ZM192.754 18.7409C192.754 19.9075 193.062 20.8575 193.679 21.5909C194.295 22.3242 195.22 22.6909 196.454 22.6909C196.67 22.6909 196.92 22.6742 197.204 22.6409C197.487 22.6075 197.712 22.5659 197.879 22.5159L197.004 22.7909V17.6659C197.004 17.1825 196.912 16.8075 196.729 16.5409C196.562 16.2742 196.345 16.0909 196.079 15.9909C195.829 15.8909 195.562 15.8409 195.279 15.8409C193.595 15.8409 192.754 16.8075 192.754 18.7409Z" fill="#C89B3A"/>
</g>
<defs>
<filter id="filter0_d_50_3" x="0" y="0" width="42.7765" height="57.7266" filterUnits="userSpaceOnUse" color-interpolation-filters="sRGB">
<feFlood flood-opacity="0" result="BackgroundImageFix"/>
<feColorMatrix in="SourceAlpha" type="matrix" values="0 0 0 0 0 0 0 0 0 0 0 0 0 0 0 0 0 0 127 0" result="hardAlpha"/>
<feOffset dy="4"/>
<feGaussianBlur stdDeviation="2"/>
<feComposite in2="hardAlpha" operator="out"/>
<feColorMatrix type="matrix" values="0 0 0 0 0 0 0 0 0 0 0 0 0 0 0 0 0 0 0.25 0"/>
<feBlend mode="normal" in2="BackgroundImageFix" result="effect1_dropShadow_50_3"/>
<feBlend mode="normal" in="SourceGraphic" in2="effect1_dropShadow_50_3" result="shape"/>
</filter>
<filter id="filter1_d_50_3" x="199.496" y="0" width="42.7756" height="57.7266" filterUnits="userSpaceOnUse" color-interpolation-filters="sRGB">
<feFlood flood-opacity="0" result="BackgroundImageFix"/>
<feColorMatrix in="SourceAlpha" type="matrix" values="0 0 0 0 0 0 0 0 0 0 0 0 0 0 0 0 0 0 127 0" result="hardAlpha"/>
<feOffset dy="4"/>
<feGaussianBlur stdDeviation="2"/>
<feComposite in2="hardAlpha" operator="out"/>
<feColorMatrix type="matrix" values="0 0 0 0 0 0 0 0 0 0 0 0 0 0 0 0 0 0 0.25 0"/>
<feBlend mode="normal" in2="BackgroundImageFix" result="effect1_dropShadow_50_3"/>
<feBlend mode="normal" in="SourceGraphic" in2="effect1_dropShadow_50_3" result="shape"/>
</filter>
<filter id="filter2_d_50_3" x="36.2822" y="14.8659" width="169.196" height="24.65" filterUnits="userSpaceOnUse" color-interpolation-filters="sRGB">
<feFlood flood-opacity="0" result="BackgroundImageFix"/>
<feColorMatrix in="SourceAlpha" type="matrix" values="0 0 0 0 0 0 0 0 0 0 0 0 0 0 0 0 0 0 127 0" result="hardAlpha"/>
<feOffset dy="4"/>
<feGaussianBlur stdDeviation="2"/>
<feComposite in2="hardAlpha" operator="out"/>
<feColorMatrix type="matrix" values="0 0 0 0 0 0 0 0 0 0 0 0 0 0 0 0 0 0 0.25 0"/>
<feBlend mode="normal" in2="BackgroundImageFix" result="effect1_dropShadow_50_3"/>
<feBlend mode="normal" in="SourceGraphic" in2="effect1_dropShadow_50_3" result="shape"/>
</filter>
</defs>
</svg>
