<svg width="243" height="58" viewBox="0 0 243 58" fill="none" xmlns="http://www.w3.org/2000/svg">
<g filter="url(#filter0_d_50_2)">
<path d="M23.15 36.4444C22.2846 33.4402 21.9358 30.4228 21.3009 27.3942C21.7504 26.9421 22.1809 26.4869 22.5823 26.0298C23.1893 27.0566 23.6607 28.0784 23.9453 29.0508C24.9231 32.3884 25.0559 35.8905 25.8512 39.2633C26.1781 40.6526 26.7341 42.0811 27.4988 43.4196C25.5506 41.3368 23.8373 38.8229 23.15 36.4444ZM19.1367 28.0197C19.1893 27.9379 19.2316 27.8488 19.2812 27.7657C19.2827 27.7994 19.2841 27.8335 19.2856 27.8686C19.2345 27.918 19.1893 27.9705 19.1367 28.0197ZM9.96765 32.3858C7.58161 32.0901 4.48049 30.1194 5.54873 27.5688C6.23025 25.9422 8.82352 25.6581 10.0465 26.8387C10.4624 27.2378 10.8885 27.7225 10.9454 28.2907C11.0986 29.7792 9.78232 30.0969 9.36349 29.5874C9.31971 29.2957 9.18104 28.9947 8.93149 28.7351C8.3463 28.1211 7.41816 27.973 6.85777 28.4001C6.29738 28.8262 6.31781 29.6708 6.90301 30.2823C7.04457 30.4309 7.2051 30.548 7.37584 30.6391C9.36056 31.918 11.6517 30.0842 12.2924 28.2713C12.9535 26.3999 11.3934 25.1562 9.61011 24.8629C11.3934 24.5702 12.9535 23.3254 12.2924 21.4549C11.6517 19.642 9.36056 17.8083 7.37584 19.0881C7.2051 19.1792 7.04457 19.2969 6.90301 19.4441C6.31781 20.0565 6.29738 20.9001 6.85777 21.3262C7.41816 21.7532 8.3463 21.6036 8.93149 20.9923C9.18104 20.733 9.31971 20.4333 9.36349 20.1385C9.78232 19.6303 11.0986 19.9486 10.9454 21.4356C10.8885 22.0048 10.4624 22.4884 10.0465 22.8886C8.82352 24.0692 6.23025 23.784 5.54873 22.1575C4.48049 19.6054 7.58161 17.6363 9.96765 17.3419C14.7558 16.7476 18.2203 20.922 19.0244 24.8629C18.2203 28.8059 14.7558 32.9815 9.96765 32.3858ZM19.2856 21.8592C19.2841 21.8928 19.2827 21.9268 19.2812 21.962C19.2316 21.8776 19.1893 21.79 19.1367 21.7065C19.1893 21.7559 19.2345 21.8082 19.2856 21.8592ZM20.9828 25.988C20.8836 25.6139 20.7698 25.2387 20.6384 24.8629C20.7698 24.4877 20.8836 24.1125 20.9828 23.7383C21.282 24.1099 21.5622 24.4851 21.8263 24.8629C21.5622 25.2411 21.282 25.6163 20.9828 25.988ZM23.15 13.2821C23.8373 10.9036 25.5506 8.39083 27.4988 6.30686C26.7341 7.64534 26.1781 9.07375 25.8512 10.4618C25.0559 13.836 24.9231 17.3393 23.9453 20.6756C23.6607 21.6479 23.1893 22.6722 22.5823 23.698C22.1809 23.2404 21.7504 22.7843 21.3009 22.3347C21.9358 19.3045 22.2846 16.2849 23.15 13.2821ZM39.5633 40.9341C37.2619 40.1195 33.7069 41.5181 34.6482 44.1806C35.2859 45.9829 37.5581 47.8132 39.537 46.5694C39.7267 46.4757 39.9033 46.3494 40.0565 46.1865C40.611 45.5893 40.6198 44.7763 40.0726 44.3721C39.5268 43.9643 38.6337 44.1207 38.0776 44.7163C37.8646 44.9443 37.7347 45.205 37.6821 45.4616C37.0546 45.9141 35.8375 45.7523 35.9952 44.2C36.0535 43.6319 36.4796 43.1472 36.8956 42.748C38.1185 41.5689 40.7103 41.8515 41.3918 43.4781C42.4601 46.0297 39.3604 48.0045 36.9729 48.2963C31.3588 48.9779 28.0417 43.6721 27.582 39.2882C27.1588 35.2648 27.4638 31.3289 25.3069 27.4776C24.8311 26.6264 24.2342 25.7482 23.544 24.8629C24.2342 23.9795 24.8311 23.1024 25.3069 22.2502C27.4638 18.3973 27.1588 14.4629 27.582 10.4383C28.0417 6.05532 31.3588 0.748299 36.9729 1.43123C39.3604 1.72056 42.4601 3.69506 41.3918 6.24821C40.7103 7.87473 38.1185 8.16015 36.8956 6.97936C36.4796 6.57925 36.0535 6.09442 35.9952 5.52488C35.8375 3.97526 37.0546 3.81234 37.6821 4.26459C37.7347 4.52264 37.8646 4.78199 38.0776 5.01138C38.6337 5.60698 39.5268 5.76207 40.0726 5.35414C40.6198 4.95012 40.611 4.13818 40.0565 3.54127C39.9033 3.37836 39.7267 3.25063 39.537 3.15679C37.5581 1.91344 35.2859 3.74328 34.6482 5.54574C33.7069 8.20837 37.2619 9.6081 39.5633 8.79354C41.4925 8.10931 43.1868 5.94845 42.911 4.05867C42.4849 1.13408 39.5384 -0.257835 36.4475 0.0393181C34.5942 0.215263 32.7306 0.89949 31.3267 1.84698C27.1603 4.41839 22.9778 8.48075 21.3302 12.2303C19.7307 15.8769 19.4534 18.2125 19.3425 20.53C18.2524 19.6019 17.082 18.7089 15.8211 17.8933C14.3559 16.9417 12.4004 16.1311 10.493 15.9486C7.40212 15.6515 4.45569 17.0421 4.02956 19.9679C3.75375 21.8576 5.4495 24.0188 7.37876 24.703C7.58453 24.7759 7.80342 24.8252 8.02524 24.8629C7.80342 24.9011 7.58453 24.9519 7.37876 25.0232C5.4495 25.709 3.75375 27.8696 4.02956 29.7583C4.45569 32.6842 7.40212 34.076 10.493 33.7777C12.4004 33.5939 14.3559 32.7845 15.8211 31.8329C17.082 31.0159 18.2524 30.1234 19.3425 29.1953C19.4534 31.5153 19.7307 33.8506 21.3302 37.4972C22.9778 41.2457 27.1603 45.3119 31.3267 47.8792C32.7306 48.8267 34.5942 49.5099 36.4475 49.687C39.5384 49.9855 42.4849 48.592 42.911 45.6678C43.1868 43.7789 41.4925 41.6183 39.5633 40.9341Z" fill="#C89B3A"/>
</g>
<g filter="url(#filter1_d_50_2)">
<path d="M232.303 32.3858C227.515 32.9815 224.049 28.8059 223.244 24.8629C224.049 20.922 227.515 16.7476 232.303 17.3419C234.69 17.6363 237.791 19.6054 236.721 22.1575C236.039 23.784 233.446 24.0692 232.223 22.8886C231.807 22.4884 231.383 22.0048 231.326 21.4356C231.171 19.9486 232.489 19.6303 232.908 20.1385C232.95 20.4333 233.09 20.733 233.338 20.9923C233.925 21.6036 234.852 21.7532 235.41 21.3262C235.971 20.9001 235.952 20.0565 235.367 19.4441C235.225 19.2969 235.065 19.1792 234.894 19.0881C232.908 17.8083 230.618 19.642 229.977 21.4549C229.316 23.3254 230.876 24.5702 232.66 24.8629C230.876 25.1562 229.316 26.3999 229.977 28.2713C230.618 30.0842 232.908 31.918 234.894 30.6391C235.065 30.548 235.225 30.4309 235.367 30.2823C235.952 29.6708 235.971 28.8262 235.41 28.4001C234.852 27.973 233.925 28.1211 233.338 28.7351C233.09 28.9947 232.95 29.2957 232.908 29.5874C232.489 30.0969 231.171 29.7792 231.326 28.2907C231.383 27.7225 231.807 27.2378 232.223 26.8387C233.446 25.6581 236.039 25.9422 236.721 27.5688C237.791 30.1194 234.69 32.0901 232.303 32.3858ZM222.983 27.8686C222.984 27.8335 222.986 27.7994 222.987 27.7657C223.037 27.8488 223.079 27.9379 223.132 28.0197C223.079 27.9705 223.034 27.918 222.983 27.8686ZM219.121 36.4444C218.434 38.8229 216.718 41.3368 214.771 43.4196C215.536 42.0811 216.09 40.6526 216.419 39.2633C217.214 35.8905 217.345 32.3884 218.326 29.0508C218.61 28.0784 219.08 27.0551 219.687 26.0298C220.089 26.4859 220.519 26.9405 220.967 27.3926C220.332 30.4228 219.984 33.4402 219.121 36.4444ZM218.326 20.6756C217.345 17.3393 217.214 13.836 216.419 10.4618C216.09 9.07375 215.536 7.64534 214.771 6.30686C216.718 8.39083 218.434 10.9036 219.121 13.2821C219.984 16.2849 220.332 19.3061 220.967 22.3347C220.519 22.7857 220.089 23.2404 219.687 23.698C219.08 22.6722 218.61 21.6479 218.326 20.6756ZM220.443 24.8629C220.706 24.4851 220.988 24.1099 221.287 23.7383C221.385 24.1125 221.498 24.4877 221.631 24.8629C221.498 25.2396 221.385 25.6139 221.287 25.988C220.988 25.6179 220.706 25.2422 220.443 24.8629ZM223.132 21.7065C223.079 21.79 223.037 21.8776 222.987 21.962C222.986 21.9268 222.984 21.8928 222.983 21.8592C223.034 21.8082 223.079 21.7559 223.132 21.7065ZM234.891 25.0232C234.685 24.9519 234.466 24.9011 234.244 24.8629C234.466 24.8252 234.685 24.7759 234.891 24.703C236.82 24.0188 238.517 21.8576 238.24 19.9679C237.813 17.0421 234.866 15.6515 231.775 15.9486C229.869 16.1311 227.914 16.9417 226.449 17.8933C225.189 18.7089 224.016 19.6028 222.926 20.531C222.816 18.2135 222.539 15.8783 220.94 12.2303C219.292 8.48075 215.108 4.41839 210.943 1.84698C209.538 0.89949 207.677 0.215263 205.824 0.0393181C202.731 -0.257835 199.788 1.13408 199.36 4.05867C199.083 5.94845 200.779 8.10931 202.706 8.79354C205.009 9.6081 208.563 8.20837 207.623 5.54574C206.984 3.74328 204.713 1.91344 202.734 3.15679C202.543 3.25063 202.366 3.37836 202.213 3.54127C201.657 4.13818 201.651 4.95012 202.199 5.35414C202.743 5.76207 203.638 5.60698 204.191 5.01138C204.405 4.78199 204.535 4.52264 204.588 4.26459C205.217 3.81234 206.434 3.97526 206.275 5.52488C206.218 6.09442 205.79 6.57925 205.377 6.97936C204.154 8.16015 201.559 7.87473 200.879 6.24821C199.81 3.69506 202.911 1.72056 205.297 1.43123C210.912 0.748299 214.227 6.05532 214.688 10.4383C215.111 14.4629 214.806 18.3973 216.963 22.2502C217.439 23.1024 218.035 23.9795 218.726 24.8629C218.035 25.7482 217.439 26.6264 216.963 27.4776C214.806 31.3289 215.111 35.2648 214.688 39.2882C214.227 43.6721 210.912 48.9779 205.297 48.2963C202.911 48.0045 199.81 46.0297 200.879 43.4781C201.559 41.8515 204.154 41.5689 205.377 42.748C205.79 43.1472 206.218 43.6319 206.275 44.2C206.434 45.7523 205.217 45.9141 204.588 45.4616C204.535 45.205 204.405 44.9443 204.191 44.7163C203.638 44.1207 202.743 43.9643 202.199 44.3721C201.651 44.7763 201.657 45.5893 202.213 46.1865C202.366 46.3494 202.543 46.4757 202.734 46.5694C204.713 47.8132 206.984 45.9829 207.623 44.1806C208.563 41.5181 205.009 40.1195 202.706 40.9341C200.779 41.6183 199.083 43.7789 199.36 45.6678C199.788 48.592 202.731 49.9855 205.824 49.687C207.677 49.5099 209.538 48.8267 210.943 47.8792C215.108 45.3119 219.292 41.2457 220.94 37.4972C222.539 33.8506 222.816 31.5138 222.926 29.1938C224.016 30.1234 225.189 31.0159 226.449 31.8329C227.914 32.7845 229.869 33.5939 231.775 33.7777C234.866 34.076 237.813 32.6842 238.24 29.7583C238.517 27.8696 236.82 25.709 234.891 25.0232Z" fill="#C89B3A"/>
</g>
<g filter="url(#filter2_d_50_2)">
<path d="M70.5921 33.0001C70.5421 33.0001 70.5171 32.9501 70.5171 32.8501C70.5171 32.7501 70.5421 32.7001 70.5921 32.7001C71.1754 32.7001 71.6088 32.6584 71.8921 32.5751C72.1754 32.4917 72.3671 32.3251 72.4671 32.0751C72.5671 31.8251 72.6171 31.4584 72.6171 30.9751V19.4001C72.6171 18.9167 72.5671 18.5584 72.4671 18.3251C72.3838 18.0751 72.2088 17.9084 71.9421 17.8251C71.6754 17.7251 71.2671 17.6751 70.7171 17.6751C70.6671 17.6751 70.6421 17.6251 70.6421 17.5251C70.6421 17.4251 70.6671 17.3751 70.7171 17.3751H81.4921C81.6588 17.3751 81.7421 17.4501 81.7421 17.6001L81.7921 21.4751C81.7921 21.5251 81.7421 21.5584 81.6421 21.5751C81.5588 21.5751 81.5088 21.5501 81.4921 21.5001C81.2921 20.3334 80.8838 19.4667 80.2671 18.9001C79.6504 18.3167 78.8338 18.0251 77.8171 18.0251H76.6421C76.0254 18.0251 75.5921 18.1334 75.3421 18.3501C75.1088 18.5667 74.9921 18.9251 74.9921 19.4251V30.8751C74.9921 31.3751 75.0588 31.7584 75.1921 32.0251C75.3254 32.2751 75.5921 32.4501 75.9921 32.5501C76.3921 32.6501 76.9921 32.7001 77.7921 32.7001C77.8254 32.7001 77.8421 32.7501 77.8421 32.8501C77.8421 32.9501 77.8254 33.0001 77.7921 33.0001C77.2254 33.0001 76.6171 32.9917 75.9671 32.9751C75.3171 32.9584 74.5754 32.9501 73.7421 32.9501C73.1588 32.9501 72.5921 32.9584 72.0421 32.9751C71.4921 32.9917 71.0088 33.0001 70.5921 33.0001ZM86.3708 25.2501L86.7458 24.6001H91.8958L92.0708 25.2501H86.3708ZM98.7458 32.7001C98.8125 32.7001 98.8458 32.7501 98.8458 32.8501C98.8458 32.9501 98.8125 33.0001 98.7458 33.0001C98.2458 33.0001 97.7291 32.9834 97.1958 32.9501C96.6791 32.9167 96.1791 32.9001 95.6958 32.9001C95.1458 32.9001 94.6625 32.9167 94.2458 32.9501C93.8458 32.9834 93.3958 33.0001 92.8958 33.0001C92.8291 33.0001 92.7958 32.9501 92.7958 32.8501C92.7958 32.7501 92.8291 32.7001 92.8958 32.7001C93.6458 32.7001 94.0958 32.5667 94.2458 32.3001C94.3958 32.0334 94.2708 31.5084 93.8708 30.7251L88.6458 20.1001L89.6708 18.4251L84.7208 29.5751C84.2875 30.5917 84.2708 31.3667 84.6708 31.9001C85.0875 32.4334 85.7875 32.7001 86.7708 32.7001C86.8541 32.7001 86.8958 32.7501 86.8958 32.8501C86.8958 32.9501 86.8541 33.0001 86.7708 33.0001C86.2708 33.0001 85.8125 32.9834 85.3958 32.9501C84.9791 32.9167 84.4541 32.9001 83.8208 32.9001C83.1875 32.9001 82.6791 32.9167 82.2958 32.9501C81.9291 32.9834 81.4708 33.0001 80.9208 33.0001C80.8541 33.0001 80.8208 32.9501 80.8208 32.8501C80.8208 32.7501 80.8541 32.7001 80.9208 32.7001C81.3708 32.7001 81.7541 32.6084 82.0708 32.4251C82.4041 32.2417 82.7291 31.9084 83.0458 31.4251C83.3625 30.9251 83.7125 30.2334 84.0958 29.3501L89.4708 17.2251C89.5041 17.1751 89.5791 17.1501 89.6958 17.1501C89.8125 17.1501 89.8791 17.1751 89.8958 17.2251L96.0208 29.5751C96.4041 30.3751 96.7458 31.0084 97.0458 31.4751C97.3458 31.9251 97.6291 32.2417 97.8958 32.4251C98.1625 32.6084 98.4458 32.7001 98.7458 32.7001ZM100.344 33.3001C99.9276 33.3001 99.5859 33.2084 99.3192 33.0251C99.0526 32.8417 98.9192 32.5501 98.9192 32.1501C98.9192 31.7501 99.0442 31.4834 99.2942 31.3501C99.5442 31.2001 99.8192 31.1251 100.119 31.1251C100.203 31.1251 100.286 31.1251 100.369 31.1251C100.469 31.1251 100.561 31.1251 100.644 31.1251C101.228 31.1251 101.753 30.8917 102.219 30.4251C102.686 29.9584 103.086 29.3417 103.419 28.5751C103.769 27.7917 104.061 26.9167 104.294 25.9501C104.528 24.9834 104.703 23.9917 104.819 22.9751C104.936 21.9417 104.994 20.9417 104.994 19.9751C104.994 19.4584 104.928 19.0334 104.794 18.7001C104.661 18.3501 104.419 18.0917 104.069 17.9251C103.719 17.7584 103.203 17.6751 102.519 17.6751C102.469 17.6751 102.444 17.6251 102.444 17.5251C102.444 17.4251 102.469 17.3751 102.519 17.3751C102.619 17.3751 102.911 17.3751 103.394 17.3751C103.878 17.3751 104.478 17.3751 105.194 17.3751C105.928 17.3751 106.711 17.3751 107.544 17.3751C108.394 17.3751 109.236 17.3751 110.069 17.3751C110.919 17.3751 111.703 17.3751 112.419 17.3751C113.136 17.3751 113.719 17.3751 114.169 17.3751C114.619 17.3751 114.878 17.3751 114.944 17.3751C114.978 17.3751 114.994 17.4251 114.994 17.5251C114.994 17.6251 114.978 17.6751 114.944 17.6751C114.378 17.6751 113.944 17.7251 113.644 17.8251C113.344 17.9084 113.144 18.0751 113.044 18.3251C112.961 18.5584 112.919 18.9167 112.919 19.4001V30.9751C112.919 31.4584 112.961 31.8251 113.044 32.0751C113.144 32.3251 113.344 32.4917 113.644 32.5751C113.944 32.6584 114.378 32.7001 114.944 32.7001C114.978 32.7001 114.994 32.7501 114.994 32.8501C114.994 32.9501 114.978 33.0001 114.944 33.0001C114.528 33.0001 114.044 32.9917 113.494 32.9751C112.961 32.9584 112.403 32.9501 111.819 32.9501C111.186 32.9501 110.586 32.9584 110.019 32.9751C109.469 32.9917 108.969 33.0001 108.519 33.0001C108.469 33.0001 108.444 32.9501 108.444 32.8501C108.444 32.7501 108.469 32.7001 108.519 32.7001C109.103 32.7001 109.536 32.6584 109.819 32.5751C110.103 32.4917 110.286 32.3251 110.369 32.0751C110.469 31.8251 110.519 31.4584 110.519 30.9751V19.6251C110.519 19.1084 110.494 18.7417 110.444 18.5251C110.411 18.3084 110.286 18.1834 110.069 18.1501C109.869 18.1001 109.519 18.0751 109.019 18.0751H107.494C107.061 18.0751 106.703 18.1167 106.419 18.2001C106.153 18.2834 105.961 18.4584 105.844 18.7251C105.728 18.9751 105.669 19.3917 105.669 19.9751C105.669 20.6417 105.636 21.4334 105.569 22.3501C105.519 23.2667 105.419 24.2251 105.269 25.2251C105.119 26.2251 104.919 27.2001 104.669 28.1501C104.419 29.1001 104.086 29.9667 103.669 30.7501C103.269 31.5334 102.794 32.1584 102.244 32.6251C101.711 33.0751 101.078 33.3001 100.344 33.3001ZM127.661 33.0001H116.811C116.761 33.0001 116.736 32.9501 116.736 32.8501C116.736 32.7501 116.761 32.7001 116.811 32.7001C117.361 32.7001 117.769 32.6584 118.036 32.5751C118.303 32.4917 118.478 32.3251 118.561 32.0751C118.661 31.8251 118.711 31.4584 118.711 30.9751V19.4001C118.711 18.9167 118.661 18.5584 118.561 18.3251C118.478 18.0751 118.303 17.9084 118.036 17.8251C117.769 17.7251 117.361 17.6751 116.811 17.6751C116.761 17.6751 116.736 17.6251 116.736 17.5251C116.736 17.4251 116.761 17.3751 116.811 17.3751H127.211C127.378 17.3751 127.461 17.4501 127.461 17.6001L127.511 20.8501C127.511 20.8834 127.469 20.9084 127.386 20.9251C127.303 20.9251 127.244 20.9001 127.211 20.8501C127.028 19.9001 126.644 19.1917 126.061 18.7251C125.478 18.2584 124.711 18.0251 123.761 18.0251H122.736C122.319 18.0251 121.986 18.0751 121.736 18.1751C121.503 18.2584 121.336 18.4084 121.236 18.6251C121.136 18.8251 121.086 19.1001 121.086 19.4501V30.8751C121.086 31.2251 121.128 31.5167 121.211 31.7501C121.311 31.9667 121.461 32.1251 121.661 32.2251C121.861 32.3084 122.144 32.3501 122.511 32.3501H123.736C124.869 32.3501 125.786 32.0834 126.486 31.5501C127.186 31.0001 127.686 30.1917 127.986 29.1251C128.003 29.0751 128.053 29.0584 128.136 29.0751C128.236 29.0917 128.286 29.1167 128.286 29.1501C128.219 29.6167 128.161 30.1751 128.111 30.8251C128.061 31.4751 128.036 32.0751 128.036 32.6251C128.036 32.8751 127.911 33.0001 127.661 33.0001ZM126.261 27.3501C126.261 26.6501 126.028 26.1167 125.561 25.7501C125.094 25.3834 124.394 25.2001 123.461 25.2001H119.961V24.5501H123.486C124.419 24.5501 125.111 24.3917 125.561 24.0751C126.011 23.7584 126.236 23.3001 126.236 22.7001C126.236 22.6501 126.278 22.6251 126.361 22.6251C126.461 22.6251 126.511 22.6501 126.511 22.7001C126.511 23.2334 126.503 23.6501 126.486 23.9501C126.486 24.2501 126.486 24.5584 126.486 24.8751C126.486 25.2751 126.494 25.6751 126.511 26.0751C126.544 26.4584 126.561 26.8834 126.561 27.3501C126.561 27.3834 126.511 27.4001 126.411 27.4001C126.311 27.4001 126.261 27.3834 126.261 27.3501ZM134.633 30.8751C134.633 31.3751 134.691 31.7584 134.808 32.0251C134.924 32.2751 135.166 32.4501 135.533 32.5501C135.916 32.6501 136.483 32.7001 137.233 32.7001C137.283 32.7001 137.308 32.7501 137.308 32.8501C137.308 32.9501 137.283 33.0001 137.233 33.0001C136.699 33.0001 136.116 32.9917 135.483 32.9751C134.866 32.9584 134.191 32.9501 133.458 32.9501C132.874 32.9501 132.316 32.9584 131.783 32.9751C131.249 32.9917 130.774 33.0001 130.358 33.0001C130.308 33.0001 130.283 32.9501 130.283 32.8501C130.283 32.7501 130.308 32.7001 130.358 32.7001C130.908 32.7001 131.316 32.6584 131.583 32.5751C131.849 32.4917 132.024 32.3251 132.108 32.0751C132.208 31.8251 132.258 31.4584 132.258 30.9751V19.4001C132.258 18.9167 132.208 18.5584 132.108 18.3251C132.024 18.0751 131.849 17.9084 131.583 17.8251C131.316 17.7251 130.908 17.6751 130.358 17.6751C130.308 17.6751 130.283 17.6251 130.283 17.5251C130.283 17.4251 130.308 17.3751 130.358 17.3751C130.774 17.3751 131.241 17.3917 131.758 17.4251C132.291 17.4417 132.849 17.4501 133.433 17.4501C133.833 17.4501 134.349 17.4251 134.983 17.3751C135.633 17.3251 136.258 17.3001 136.858 17.3001C137.874 17.3001 138.774 17.4417 139.558 17.7251C140.358 17.9917 140.991 18.4251 141.458 19.0251C141.924 19.6251 142.174 20.4167 142.208 21.4001C142.224 22.2667 142.074 23.0167 141.758 23.6501C141.441 24.2834 141.008 24.8084 140.458 25.2251C139.924 25.6251 139.333 25.9334 138.683 26.1501C138.033 26.3501 137.383 26.4501 136.733 26.4501C136.549 26.4501 136.349 26.4417 136.133 26.4251C135.933 26.4084 135.733 26.3751 135.533 26.3251C135.483 26.3084 135.466 26.2501 135.483 26.1501C135.499 26.0334 135.541 25.9834 135.608 26.0001C135.741 26.0334 135.891 26.0584 136.058 26.0751C136.224 26.0917 136.366 26.1001 136.483 26.1001C137.033 26.1001 137.541 25.9501 138.008 25.6501C138.474 25.3501 138.849 24.8917 139.133 24.2751C139.433 23.6584 139.583 22.8834 139.583 21.9501C139.583 21.0667 139.441 20.3167 139.158 19.7001C138.874 19.0834 138.474 18.6167 137.958 18.3001C137.458 17.9667 136.841 17.8001 136.108 17.8001C135.724 17.8001 135.424 17.8417 135.208 17.9251C134.991 17.9917 134.841 18.1417 134.758 18.3751C134.674 18.6084 134.633 18.9667 134.633 19.4501V30.8751ZM155.053 33.0001H144.203C144.153 33.0001 144.128 32.9501 144.128 32.8501C144.128 32.7501 144.153 32.7001 144.203 32.7001C144.753 32.7001 145.162 32.6584 145.428 32.5751C145.695 32.4917 145.87 32.3251 145.953 32.0751C146.053 31.8251 146.103 31.4584 146.103 30.9751V19.4001C146.103 18.9167 146.053 18.5584 145.953 18.3251C145.87 18.0751 145.695 17.9084 145.428 17.8251C145.162 17.7251 144.753 17.6751 144.203 17.6751C144.153 17.6751 144.128 17.6251 144.128 17.5251C144.128 17.4251 144.153 17.3751 144.203 17.3751H154.603C154.77 17.3751 154.853 17.4501 154.853 17.6001L154.903 20.8501C154.903 20.8834 154.862 20.9084 154.778 20.9251C154.695 20.9251 154.637 20.9001 154.603 20.8501C154.42 19.9001 154.037 19.1917 153.453 18.7251C152.87 18.2584 152.103 18.0251 151.153 18.0251H150.128C149.712 18.0251 149.378 18.0751 149.128 18.1751C148.895 18.2584 148.728 18.4084 148.628 18.6251C148.528 18.8251 148.478 19.1001 148.478 19.4501V30.8751C148.478 31.2251 148.52 31.5167 148.603 31.7501C148.703 31.9667 148.853 32.1251 149.053 32.2251C149.253 32.3084 149.537 32.3501 149.903 32.3501H151.128C152.262 32.3501 153.178 32.0834 153.878 31.5501C154.578 31.0001 155.078 30.1917 155.378 29.1251C155.395 29.0751 155.445 29.0584 155.528 29.0751C155.628 29.0917 155.678 29.1167 155.678 29.1501C155.612 29.6167 155.553 30.1751 155.503 30.8251C155.453 31.4751 155.428 32.0751 155.428 32.6251C155.428 32.8751 155.303 33.0001 155.053 33.0001ZM153.653 27.3501C153.653 26.6501 153.42 26.1167 152.953 25.7501C152.487 25.3834 151.787 25.2001 150.853 25.2001H147.353V24.5501H150.878C151.812 24.5501 152.503 24.3917 152.953 24.0751C153.403 23.7584 153.628 23.3001 153.628 22.7001C153.628 22.6501 153.67 22.6251 153.753 22.6251C153.853 22.6251 153.903 22.6501 153.903 22.7001C153.903 23.2334 153.895 23.6501 153.878 23.9501C153.878 24.2501 153.878 24.5584 153.878 24.8751C153.878 25.2751 153.887 25.6751 153.903 26.0751C153.937 26.4584 153.953 26.8834 153.953 27.3501C153.953 27.3834 153.903 27.4001 153.803 27.4001C153.703 27.4001 153.653 27.3834 153.653 27.3501ZM171.325 32.7001C171.359 32.7001 171.375 32.7501 171.375 32.8501C171.375 32.9501 171.359 33.0001 171.325 33.0001C170.875 33.0001 170.375 32.9917 169.825 32.9751C169.292 32.9584 168.717 32.9501 168.1 32.9501C167.484 32.9501 166.917 32.9584 166.4 32.9751C165.884 32.9917 165.417 33.0001 165 33.0001C164.95 33.0001 164.925 32.9501 164.925 32.8501C164.925 32.7501 164.95 32.7001 165 32.7001C165.55 32.7001 165.959 32.6584 166.225 32.5751C166.492 32.4917 166.667 32.3251 166.75 32.0751C166.85 31.8251 166.9 31.4584 166.9 30.9751V24.7751L167.725 24.9001C167.275 24.9001 166.867 24.9417 166.5 25.0251C166.134 25.1084 165.775 25.2834 165.425 25.5501C165.092 25.8167 164.725 26.2084 164.325 26.7251C163.942 27.2417 163.509 27.9334 163.025 28.8001C162.392 29.9001 161.892 30.7417 161.525 31.3251C161.175 31.9084 160.9 32.3167 160.7 32.5501C160.517 32.7834 160.359 32.9167 160.225 32.9501C160.109 32.9834 159.975 33.0001 159.825 33.0001H156.8C156.767 33.0001 156.75 32.9501 156.75 32.8501C156.75 32.7501 156.767 32.7001 156.8 32.7001C157.35 32.6834 157.809 32.5167 158.175 32.2001C158.559 31.8667 158.942 31.3751 159.325 30.7251C159.725 30.0751 160.225 29.2667 160.825 28.3001C161.375 27.3834 161.9 26.6834 162.4 26.2001C162.9 25.7167 163.434 25.3751 164 25.1751C164.584 24.9584 165.225 24.8251 165.925 24.7751L166.1 24.9501C164.15 24.9334 162.675 24.5834 161.675 23.9001C160.675 23.2167 160.175 22.3001 160.175 21.1501C160.175 20.3834 160.392 19.7167 160.825 19.1501C161.275 18.5667 161.875 18.1167 162.625 17.8001C163.392 17.4667 164.25 17.3001 165.2 17.3001C165.55 17.3001 166.017 17.3251 166.6 17.3751C167.184 17.4251 167.684 17.4501 168.1 17.4501C168.717 17.4501 169.292 17.4417 169.825 17.4251C170.359 17.3917 170.85 17.3751 171.3 17.3751C171.334 17.3751 171.35 17.4251 171.35 17.5251C171.35 17.6251 171.334 17.6751 171.3 17.6751C170.7 17.6751 170.259 17.7251 169.975 17.8251C169.692 17.9084 169.5 18.0751 169.4 18.3251C169.317 18.5584 169.275 18.9167 169.275 19.4001V30.9751C169.275 31.4584 169.317 31.8251 169.4 32.0751C169.5 32.3251 169.692 32.4917 169.975 32.5751C170.259 32.6584 170.709 32.7001 171.325 32.7001ZM162.65 20.5251C162.65 21.6917 162.959 22.6417 163.575 23.3751C164.192 24.1084 165.117 24.4751 166.35 24.4751C166.567 24.4751 166.817 24.4584 167.1 24.4251C167.384 24.3917 167.609 24.3501 167.775 24.3001L166.9 24.5751V19.4501C166.9 18.9667 166.809 18.5917 166.625 18.3251C166.459 18.0584 166.242 17.8751 165.975 17.7751C165.725 17.6751 165.459 17.6251 165.175 17.6251C163.492 17.6251 162.65 18.5917 162.65 20.5251Z" fill="#C89B3A"/>
</g>
<defs>
<filter id="filter0_d_50_2" x="0" y="0" width="46.9406" height="57.7266" filterUnits="userSpaceOnUse" color-interpolation-filters="sRGB">
<feFlood flood-opacity="0" result="BackgroundImageFix"/>
<feColorMatrix in="SourceAlpha" type="matrix" values="0 0 0 0 0 0 0 0 0 0 0 0 0 0 0 0 0 0 127 0" result="hardAlpha"/>
<feOffset dy="4"/>
<feGaussianBlur stdDeviation="2"/>
<feComposite in2="hardAlpha" operator="out"/>
<feColorMatrix type="matrix" values="0 0 0 0 0 0 0 0 0 0 0 0 0 0 0 0 0 0 0.25 0"/>
<feBlend mode="normal" in2="BackgroundImageFix" result="effect1_dropShadow_50_2"/>
<feBlend mode="normal" in="SourceGraphic" in2="effect1_dropShadow_50_2" result="shape"/>
</filter>
<filter id="filter1_d_50_2" x="195.33" y="0" width="46.9397" height="57.7266" filterUnits="userSpaceOnUse" color-interpolation-filters="sRGB">
<feFlood flood-opacity="0" result="BackgroundImageFix"/>
<feColorMatrix in="SourceAlpha" type="matrix" values="0 0 0 0 0 0 0 0 0 0 0 0 0 0 0 0 0 0 127 0" result="hardAlpha"/>
<feOffset dy="4"/>
<feGaussianBlur stdDeviation="2"/>
<feComposite in2="hardAlpha" operator="out"/>
<feColorMatrix type="matrix" values="0 0 0 0 0 0 0 0 0 0 0 0 0 0 0 0 0 0 0.25 0"/>
<feBlend mode="normal" in2="BackgroundImageFix" result="effect1_dropShadow_50_2"/>
<feBlend mode="normal" in="SourceGraphic" in2="effect1_dropShadow_50_2" result="shape"/>
</filter>
<filter id="filter2_d_50_2" x="66.5171" y="17.1501" width="108.858" height="24.15" filterUnits="userSpaceOnUse" color-interpolation-filters="sRGB">
<feFlood flood-opacity="0" result="BackgroundImageFix"/>
<feColorMatrix in="SourceAlpha" type="matrix" values="0 0 0 0 0 0 0 0 0 0 0 0 0 0 0 0 0 0 127 0" result="hardAlpha"/>
<feOffset dy="4"/>
<feGaussianBlur stdDeviation="2"/>
<feComposite in2="hardAlpha" operator="out"/>
<feColorMatrix type="matrix" values="0 0 0 0 0 0 0 0 0 0 0 0 0 0 0 0 0 0 0.25 0"/>
<feBlend mode="normal" in2="BackgroundImageFix" result="effect1_dropShadow_50_2"/>
<feBlend mode="normal" in="SourceGraphic" in2="effect1_dropShadow_50_2" result="shape"/>
</filter>
</defs>
</svg>
