<?xml version="1.0" encoding="UTF-8" standalone="no"?>
<svg
   width="74.896889"
   height="75.999947"
   viewBox="0 0 74.896889 75.999947"
   fill="none"
   version="1.1"
   id="svg12"
   xml:space="preserve"
   xmlns="http://www.w3.org/2000/svg"
   xmlns:svg="http://www.w3.org/2000/svg"><defs
     id="defs12" /><path
     d="m 74.5471,11.607783 c -0.0628,0.1809 -0.1545,0.3499 -0.2785,0.5011 -0.1249,0.1529 -0.2786,0.2751 -0.4654,0.3703 -0.2854,0.1452 -0.5826,0.1809 -0.8875,0.107 -0.3066,-0.0782 -0.5648,-0.2531 -0.7771,-0.5283 -0.1571,0.5988 -0.4093,0.9869 -0.7618,1.1686 -0.2021,0.1002 -0.4102,0.1461 -0.6284,0.1334 -0.2183,-0.0153 -0.4187,-0.0833 -0.5988,-0.2064 -0.18,-0.1274 -0.3261,-0.2947 -0.4365,-0.5121 -0.1223,-0.2404 -0.1792,-0.5342 -0.1681,-0.8807 -0.062,0.0594 -0.0935,0.0892 -0.096,0.0943 l -0.2735,0.3651 c -0.0526,0.0714 -0.1554,0.1487 -0.3049,0.2259 -0.3651,0.1852 -0.7465,0.2132 -1.1388,0.0841 -0.3966,-0.1308 -0.6905,-0.3889 -0.8884,-0.7728 -0.1707,-0.3329 -0.208,-0.6582 -0.1112,-0.975 0.0976,-0.3159 0.2955,-0.6429 0.5885,-0.9757698 0.2633,-0.01444 0.5002,0.03991 0.7075,0.1673 0.3303,0.2106698 0.5749,0.4713698 0.732,0.7813698 0.0697,0.135 0.0918,0.2692 0.068,0.4068 -0.0255,0.1375 -0.0883,0.2335 -0.1962,0.287 -0.0552,0.028 -0.124,0.0221 -0.2072,-0.0119 -0.0798,-0.0382 -0.1376,-0.0875 -0.169,-0.1511 -0.0272,-0.0527 -0.0315,-0.1291 -0.0128,-0.2285 l -0.1741,-0.113 c -0.0832,0.0731 -0.1333,0.1512 -0.1435,0.226 -0.0127,0.073 0.0068,0.1588 0.0603,0.2649 0.0637,0.1249 0.1682,0.2038 0.3083,0.2404 0.1418,0.0382 0.2828,0.0229 0.4272,-0.051 0.1894,-0.0977 0.3031,-0.2395 0.3482,-0.4272 0.0433,-0.1885 0.0102,-0.3923 -0.1019,-0.6148 -0.0875,-0.1724 -0.1911,-0.3083 -0.3058,-0.4145 -0.1155,-0.1061 -0.3032,-0.2284398 -0.5664,-0.3660198 0.3974,0.04926 0.7397,0.10446 1.0327,0.16985 0.2904,0.06457 0.5393,0.1392698 0.7405,0.2208698 0.1988,0.084 0.3907,0.1944 0.5775,0.3303 0.3024,0.2251 0.5334,0.4943 0.6922,0.806 0.09,0.1749 0.1274,0.3278 0.1138,0.4543 -0.0119,0.1317 -0.0748,0.2242 -0.186,0.282 -0.0637,0.0314 -0.1325,0.0399 -0.203,0.0221 -0.0696,-0.0187 -0.1189,-0.0552 -0.1495,-0.1138 -0.0322,-0.062 -0.0288,-0.1215 0.0102,-0.1716 l -0.2301,-0.056 c -0.028,0.1188 -0.0111,0.2403 0.0518,0.3592 0.0637,0.1257 0.1529,0.2038 0.2701,0.2361 0.1155,0.0297 0.2352,0.0127 0.3532,-0.0484 0.1232,-0.062 0.2149,-0.1461 0.2735,-0.2472 0.0611,-0.1036 0.0858,-0.2225 0.079,-0.3516 -0.0085,-0.1299 -0.0535,-0.2726 -0.1316,-0.4297 -0.1147,-0.2157 -0.2429,-0.3957 -0.389,-0.5367 -0.1478,-0.1401 -0.3975,-0.3202 -0.7516,-0.5418 0.1529,0.0195 0.3949,0.0849 0.7244,0.1927 0.1308,0.0484 0.2531,0.0901 0.372,0.1274 0.2471,0.0799 0.5129,0.1724 0.8,0.2777 0.2463,0.0748 0.5588,0.2073 0.9325,0.3983 l 0.034,-0.0552 c -0.1894,-0.1307 -0.3763,-0.2454 -0.564,-0.3388 -0.3915,-0.1902 -0.7575,-0.3406 -1.0997,-0.451 -0.2183,-0.0671 -0.5436,-0.1724 -0.975,-0.3117 0.4178,-0.05601 0.6972,-0.1214098 0.8331,-0.1910498 0.2378,-0.12144 0.4009,-0.27006 0.4884,-0.44331 0.0883,-0.17325 0.09,-0.34225 0.0017,-0.5155 -0.0722,-0.13928 -0.175,-0.23355 -0.31,-0.28196 -0.1342,-0.04926 -0.2684,-0.03652 -0.4043,0.03142 -0.1554,0.08153 -0.2471,0.19788 -0.2709,0.3533 l 0.1953,0.09003 c 0.0187,-0.12315 0.062,-0.19873 0.1291,-0.23525 0.0425,-0.02208 0.096,-0.02888 0.1597,-0.02293 0.0645,0.00509 0.1282,0.02462 0.1911,0.05774 0.0416,0.01953 0.0705,0.04757 0.0883,0.08239 0.0611,0.12144 0.0611,0.23779 0,0.34819 -0.062,0.11296 -0.1792,0.21401 -0.3524,0.30319 -0.2344,0.11889 -0.5292,0.19448 -0.885,0.22675 -0.2013,0.01189 -0.3652,0.0119 -0.4883,0.00255 -0.1249,-0.00934 -0.3796,-0.05095 -0.7652,-0.12569 -0.2582,-0.04246 -0.541,-0.07813 -0.8459,-0.11125 0.1317,-0.05096 0.2641,-0.10956 0.4026,-0.1809 0.231,-0.1172 0.3915,-0.26667 0.4832,-0.44586 0.0943,-0.1809 0.0943,-0.35839 0.0043,-0.53588 -0.0417,-0.07983 -0.1019,-0.14693 -0.1792,-0.19449 -0.0773,-0.04841 -0.1597,-0.07728 -0.2514,-0.08323 -0.0917,-0.00509 -0.1784,0.01614 -0.2684,0.0603 -0.1214,0.06285 -0.2081,0.1809 -0.2565,0.35415 l 0.1546,0.04925 c 0.0527,-0.09682 0.1087,-0.15966 0.1656,-0.18938 0.0671,-0.03313 0.1452,-0.03737 0.2353,-0.0136 0.0917,0.02463 0.1562,0.06879 0.1893,0.13589 0.0561,0.10615 0.0272,0.2378 -0.0798,0.39067 -0.1087,0.15371 -0.2641,0.2811 -0.4662,0.38555 -0.231,0.11635 -0.5869,0.20128 -1.0743,0.25393 -0.2243,-0.43737 -0.2999,-0.83906 -0.2277,-1.2034 0.0731,-0.36518 0.3338,-0.66243 0.7746,-0.88749 0.2429,-0.12569 0.4976,-0.18938 0.7643,-0.19193 0.2633,-0.00425 0.5028,0.05266 0.7108,0.16646 0.209,0.1172 0.3669,0.27941 0.4739,0.48918 0.0518,0.10361 0.0918,0.21486 0.124,0.34565 0.0306,0.12399 0.0637,0.30149 0.0986,0.53079 8e-4,0.00849 0.0033,0.02293 0.0076,0.04331 0.0059,0.01953 0.0085,0.05011 0.0136,0.08578 0.2174,-0.51041 0.5189,-0.86456 0.9061,-1.06328 0.1988,-0.10107 0.4,-0.14268 0.609,-0.12739 0.208,0.01613 0.4,0.08238 0.5715,0.19533 0.1741,0.1121 0.31,0.26581 0.4094,0.46115 0.1044,0.20382 0.1494,0.42293 0.1359,0.66073 -0.0128,0.23779 -0.0867,0.47983 -0.2251,0.73291 0.0187,-0.01104 0.0323,-0.01868 0.0408,-0.02463 0.0076,-0.00509 0.0144,-0.01019 0.0195,-0.01783 0.2072,-0.10531 0.4637,-0.13589 0.766,-0.08833 0.5835,0.07304 0.9869,0.3303698 1.2128,0.7745698 0.0883,0.1724 0.1376,0.3575 0.1435,0.5622 0.011,0.2063 -0.017,0.3974 -0.079,0.5834 z M 65.9364,9.7793432 c -0.3804,0.10361 -0.7388,0.2420398 -1.0726,0.4136398 -0.1282,0.0653 -0.2437,0.1375 -0.3584,0.2106 0.073,-0.1155 0.1461,-0.2302 0.2106,-0.3584 0.1716,-0.3346298 0.31,-0.6930198 0.4145,-1.0726398 0.1019,-0.38047 0.1664,-0.76095 0.1894,-1.14142 0.0823,0.06794 0.1503,0.11295 0.1995,0.13673 0.2523,0.12994 0.5155,0.18854 0.7907,0.17919 0.2251,-0.00934 0.4365,-0.08152 0.6403,-0.18938 -0.1078,0.20467 -0.1791,0.41699 -0.1893,0.64205 -0.0085,0.27431 0.0501,0.53673 0.1791,0.79066 0.0255,0.04841 0.0705,0.11636 0.1376,0.19874 -0.3813,0.02377 -0.7609,0.08662 -1.1414,0.19023 z m -1.8106,-1.60256 c -0.3151,0.09681 -0.6412,0.05944 -0.975,-0.11296 -0.3838,-0.19448 -0.642,-0.49087 -0.772,-0.88663 -0.129,-0.39236 -0.1019,-0.77368 0.0841,-1.13887 0.0773,-0.14947 0.1538,-0.25054 0.2268,-0.30574 l 0.3643,-0.27346 c 0.0043,-0.0017 0.0348,-0.03311 0.0934,-0.09426 -0.3456,0.01104 -0.6386,-0.04671 -0.8806,-0.17155 -0.2158,-0.10871 -0.3856,-0.25479 -0.5104,-0.43399 -0.1249,-0.18004 -0.1928,-0.38047 -0.2064,-0.59873 -0.0136,-0.21741 0.0322,-0.42632 0.1325,-0.6293 0.1817,-0.35329 0.5698,-0.60467 1.1677,-0.76179 -0.2735,-0.21146 -0.4484,-0.47048 -0.5265,-0.77622 -0.0748,-0.30488 -0.0391,-0.60214 0.107,-0.88834 0.0942,-0.18599302 0.2174,-0.33970902 0.3677,-0.46540002 0.1529,-0.123143 0.3202,-0.214866 0.5028,-0.277711 0.1851,-0.061147 0.377,-0.090866 0.5834,-0.078976 0.2038,0.005945 0.3907,0.056046 0.5622,0.143521 0.4433,0.227603 0.7015,0.63015602 0.7737,1.21275602 0.0484,0.30149 0.0187,0.55881 -0.0875,0.76604 -0.0068,0.00509 -0.0119,0.01188 -0.0187,0.01868 -0.0051,0.00849 -0.0127,0.02208 -0.0229,0.04161 0.2522,-0.13928 0.4951,-0.21231 0.7312,-0.2259 0.2378,-0.01359 0.4578,0.03228 0.6616,0.13589 0.1945,0.09937 0.349,0.23524 0.4611,0.40933 0.1138,0.17325 0.1792,0.36264 0.1954,0.57241 0.0161,0.20807 -0.0263,0.41021 -0.1283,0.60808 -0.1978,0.38812 -0.5511,0.6896 -1.0624,0.90701 0.0357,0.00425 0.0654,0.00764 0.0849,0.01358 0.0204,0.00425 0.0349,0.00596 0.0442,0.00766 0.2276,0.03397 0.406,0.06793 0.5316,0.09765 0.1291,0.03312 0.2412,0.07219 0.344,0.12484 0.2106,0.10616 0.372,0.26498 0.49,0.4722 0.1138,0.20892 0.169,0.45011 0.1656,0.71338 -0.0017,0.26582 -0.0654,0.5189 -0.1911,0.76264 -0.2259,0.44162 -0.5222,0.70234 -0.8857,0.77453 -0.3669,0.07389 -0.7678,-0.00254 -1.206,-0.22675 0.0526,-0.48747 0.1384,-0.84417 0.2548,-1.07432 0.1053,-0.20127 0.231,-0.35839 0.3864,-0.46539 0.152,-0.10701 0.2837,-0.13674 0.389,-0.08069 0.0671,0.03312 0.1121,0.09767 0.1359,0.18939 0.0254,0.09088 0.0212,0.169 -0.0128,0.23524 -0.0314,0.05605 -0.0934,0.11296 -0.1894,0.16561 l 0.0484,0.15457 c 0.1741,-0.04841 0.2922,-0.13589 0.3533,-0.25733 0.0459,-0.08918 0.0663,-0.17579 0.0612,-0.26751 -0.0051,-0.09257 -0.0332,-0.17326 -0.0824,-0.25054 -0.0484,-0.07729 -0.1138,-0.13758 -0.1953,-0.18005 -0.1775,-0.09087 -0.3542,-0.09086 -0.5342,0.0051 -0.1801,0.09088 -0.3295,0.25223 -0.4476,0.48238 -0.0696,0.13758 -0.1282,0.27007 -0.1817,0.4034 -0.0315,-0.30743 -0.068,-0.58939 -0.1096,-0.84756 -0.0747,-0.38472 -0.1155,-0.6395 -0.1265,-0.76519 -0.0094,-0.1223 -0.0094,-0.2862 0.0025,-0.48748 0.0323,-0.35669 0.1087,-0.65223 0.2268,-0.88578 0.0891,-0.17325 0.1911,-0.29046 0.3032,-0.35075 0.1112,-0.062 0.2284,-0.062 0.349,0 0.034,0.01698 0.0629,0.04756 0.0832,0.08747 0.0332,0.06285 0.051,0.12569 0.0561,0.19024 0.0068,0.06284 -9e-4,0.11721 -0.0221,0.16052 -0.0357,0.06709 -0.113,0.10956 -0.2352,0.12909 l 0.0908,0.19446 c 0.1546,-0.02293 0.2701,-0.11379 0.3516,-0.27006 0.068,-0.13673 0.0807,-0.26836 0.0323,-0.40425 -0.0493,-0.13588 -0.1427,-0.23778 -0.2828,-0.31082 -0.1716,-0.08747 -0.3423,-0.08577 -0.5155,0.0034 -0.1724,0.08663 -0.321,0.25053 -0.4425,0.48578 -0.0696,0.13758 -0.135,0.41527 -0.1911,0.83481 -0.1401,-0.43228 -0.2446,-0.75839 -0.3116,-0.9758 -0.1104,-0.34141 -0.2608,-0.70744 -0.4502,-1.09895 -0.0942,-0.18769 -0.2089,-0.37536 -0.3388,-0.56475 l -0.0561,0.03481 c 0.1911,0.37368 0.3236,0.68536 0.3992,0.93249 0.1045,0.28536 0.197,0.55289 0.2769,0.80002 0.0373,0.1189 0.0789,0.24203 0.1273,0.37112 0.1071,0.33037 0.1733,0.57241 0.1911,0.72613 -0.2199,-0.35415 -0.4008,-0.60469 -0.5401,-0.75246 -0.1401,-0.14438 -0.3202,-0.27345 -0.5384,-0.3881 -0.1563,-0.07813 -0.299,-0.12485 -0.4289,-0.13249 -0.1291,-0.00679 -0.2463,0.01783 -0.3499,0.07898 -0.1028,0.0586 -0.186,0.15031 -0.248,0.27346 -0.062,0.11804 -0.0781,0.2378 -0.0493,0.3533 0.0323,0.11635 0.1113,0.20637 0.237,0.27091 0.1197,0.06285 0.2403,0.07897 0.3584,0.0501 l -0.0552,-0.231 c -0.0501,0.04077 -0.1087,0.04332 -0.1716,0.0119 -0.0594,-0.03142 -0.0968,-0.07983 -0.1129,-0.15032 -0.0187,-0.07049 -0.0102,-0.13844 0.0203,-0.20214 0.0586,-0.11125 0.1521,-0.17324 0.2829,-0.18683 0.1273,-0.01274 0.2785,0.02294 0.4526,0.11381 0.3126,0.15966 0.5818,0.39065 0.8077,0.69214 0.1367,0.18854 0.2471,0.37793 0.3295,0.57836 0.0815,0.20042 0.1571,0.44926 0.2208,0.74055 0.0654,0.293 0.1223,0.63526 0.1707,1.03356 -0.1376,-0.26412 -0.2599,-0.45181 -0.366,-0.56731 -0.1053,-0.11465 -0.2429,-0.21741 -0.4136,-0.30658 -0.2225,-0.11211 -0.4289,-0.14524 -0.6157,-0.10192 -0.1869,0.04501 -0.3304,0.15967 -0.4264,0.3482 -0.0739,0.14438 -0.0909,0.28536 -0.0526,0.42804 0.0365,0.14098 0.1172,0.24543 0.242,0.30743 0.1036,0.05435 0.1911,0.07304 0.2641,0.06115 0.0756,-0.0102 0.1521,-0.06116 0.2259,-0.14269 l -0.1129,-0.17409 c -0.1002,0.01614 -0.1767,0.01274 -0.2293,-0.01444 -0.062,-0.03057 -0.113,-0.08747 -0.1503,-0.16815 -0.0349,-0.08323 -0.0408,-0.15287 -0.0119,-0.20722 0.0526,-0.10786 0.1503,-0.17071 0.287,-0.19533 0.1368,-0.02548 0.2718,-0.00255 0.406,0.06709 0.31,0.15712 0.5715,0.4017 0.7813,0.73207 0.1274,0.20722 0.1843,0.44416 0.1673,0.70743 -0.3321,0.29385 -0.6599,0.49173 -0.9758,0.58855 z M 74.6991,10.288083 C 74.4596,9.8201032 74.063,9.5432432 73.511,9.4617232 c -0.2836,-0.05181 -0.5248,-0.04672 -0.7227,0.01273 l 0.0119,-0.08747 c 0.0688,-0.26242 0.1002,-0.47135 0.0926,-0.63186 -0.0051,-0.15966 -0.0518,-0.32187 -0.1359,-0.48833 -0.1189,-0.23185 -0.2803,-0.41784 -0.485,-0.55457 -0.2038,-0.13928 -0.4271,-0.20976 -0.6683,-0.21826 -0.2404,-0.00594 -0.4807,0.05181 -0.7193,0.17326 -0.1818,0.09257 -0.333,0.20211 -0.4502,0.32101 -0.1172,0.11805 -0.2182,0.27347 -0.3057,0.46116 0,-0.21487 -0.0382,-0.4017 -0.1172,-0.55032 -0.1367,-0.27007 -0.3287,-0.48239 -0.5741,-0.64375 -0.2463,-0.15797 -0.5214,-0.23949 -0.8246,-0.24883 -0.3032,-0.00765 -0.6039,0.06454 -0.9037,0.2174 -0.0271,0.01444 -0.0458,0.03313 -0.0713,0.04757 0.0144,-0.02633 0.034,-0.04501 0.0476,-0.07219 0.1528,-0.29894 0.2242,-0.60043 0.2165,-0.90362 -0.0093,-0.30234 -0.09,-0.57749 -0.2488,-0.82293 -0.1597,-0.24544 -0.3728,-0.43822 -0.6421,-0.5758 -0.1494,-0.07814 -0.3371,-0.11636 -0.552,-0.11636 0.1886,-0.08833 0.3431,-0.18938 0.4612,-0.30488 0.1214,-0.11804 0.2284,-0.27007 0.321,-0.45011 0.1231,-0.24034 0.1809,-0.47983 0.1732,-0.72018 -0.0076,-0.24119 -0.0789,-0.4654 -0.2174,-0.66753 -0.1367,-0.20552 -0.3235,-0.36688 -0.5545,-0.48492 -0.1665,-0.08578 -0.3287,-0.1325 -0.4892,-0.13759 -0.1588,-0.00765 -0.3694,0.02378 -0.6319,0.09427 l -0.0883,0.0102 c 0.0611,-0.19703 0.0654,-0.43737 0.0145,-0.72272 -0.0824,-0.55287302 -0.3584,-0.94862902 -0.8264,-1.18727202 -0.2853,-0.1477723 -0.586,-0.21147053 -0.9002,-0.1944852 -0.3117,0.0144375 -0.6055,0.1078562 -0.8748,0.2751612 -0.27,0.165606 -0.4764,0.391507 -0.6199,0.675161 -0.2862,0.55541502 -0.2106,1.10914502 0.2276,1.65861502 -0.4841,0.14268 -0.8255,0.40849 -1.0242,0.80085 -0.1189,0.231 -0.1682,0.4756 -0.1478,0.73038 0.0221,0.25393 0.1053,0.49086 0.2522,0.70827 0.1461,0.21741 0.3363,0.38642 0.5741,0.50871 0.1359,0.07134 0.3177,0.12486 0.5444,0.16307 -0.1563,0.10277 -0.3083,0.29639 -0.4569,0.59024 -0.1367,0.27007 -0.1894,0.55202 -0.1529,0.84756 0.0357,0.29215 0.1478,0.56222 0.3338,0.81106 0.1877,0.24798 0.4289,0.4518 0.7236,0.60042 0.31,0.15882 0.6505,0.19109 1.0149,0.09852 0.3668,-0.09257 0.6904,-0.27177 0.9698,-0.53419 l -0.0144,0.1172 c -0.0807,0.64629 -0.2421,1.20426 -0.4816,1.67815 -0.1333,0.2590598 -0.2811,0.4917598 -0.4475,0.7040598 -0.1639,0.2106 -0.3499,0.4034 -0.5546,0.5741 -0.3847,0.3168 -0.7439,0.5163 -1.087,0.5953 -0.3406,0.079 -0.6676,0.0399 -0.9775,-0.1206 -0.299,-0.1511 -0.5037,-0.3889 -0.6124,-0.7125 -0.1095,-0.321 -0.0874,-0.6319 0.0637,-0.9299598 0.0867,-0.16816 0.2098,-0.30744 0.366,-0.4136 0.1589,-0.10615 0.3313,-0.17324 0.5147,-0.19787 0.1834,-0.02548 0.3533,0.00424 0.507,0.08237 0.1342,0.06795 0.2472,0.16562 0.3406,0.29046 0.0925,0.12824 0.1477,0.26157 0.1681,0.4058998 0.0196,0.141 9e-4,0.2667 -0.0577,0.378 -0.0654,0.1299 -0.1614,0.2208 -0.2905,0.2726 -0.1273,0.0509 -0.2429,0.0492 -0.3405,-0.0017 -0.1274,-0.0629 -0.2038,-0.1563 -0.2387,-0.2769 -0.0305,-0.1197 -0.0195,-0.2573 0.0399,-0.4169698 l -0.2734,-0.04161 c -0.0535,0.1426798 -0.0756,0.2759798 -0.0688,0.4016798 0.0068,0.1283 0.0399,0.237 0.101,0.3321 0.0603,0.0934 0.1495,0.1715 0.2659,0.2301 0.1911,0.0994 0.3923,0.1096 0.6038,0.0366 0.2132,-0.0731 0.3711,-0.209 0.4722,-0.4094 0.079,-0.1546 0.1044,-0.3253 0.079,-0.5113 -0.0247,-0.1876398 -0.0951,-0.3617398 -0.2123,-0.5205498 -0.1172,-0.16306 -0.2701,-0.28705 -0.4544,-0.38302 -0.1495,-0.07644 -0.3083,-0.1172 -0.4747,-0.12399 -0.169,-0.00849 -0.3346,0.01954 -0.4977,0.07984 -0.1622,0.06029 -0.3117,0.15031 -0.4442,0.26751 -0.1324,0.11889 -0.2412,0.25902 -0.3278,0.42803 -0.118,0.2327 -0.169,0.4798798 -0.1529,0.7430798 0.017,0.2624 0.0952,0.5062 0.2361,0.7245 0.1393,0.2216 0.327,0.394 0.5614,0.5137 0.1707,0.0858 0.3669,0.1385 0.5911,0.1504 0.2225,0.0153 0.4552,-0.0068 0.6981,-0.0697 0.2429,-0.062 0.4696,-0.1545 0.6777,-0.2785 -0.124,0.2072 -0.2166,0.4348 -0.2794,0.6785 -0.0612,0.2421 -0.0841,0.4748 -0.0697,0.6964 0.0119,0.2259 0.0637,0.4213 0.1512,0.5911 0.1189,0.2361 0.2913,0.4221 0.5138,0.5622 0.2174,0.141 0.462,0.2183 0.7245,0.237 0.2641,0.0144 0.5112,-0.0348 0.7431,-0.1546 0.169,-0.0858 0.3091,-0.1936 0.4271,-0.327 0.1189,-0.1324 0.2073,-0.2819 0.2684,-0.4441 0.0603,-0.1639 0.0883,-0.3287 0.0798,-0.4977 -0.0068,-0.1664 -0.0467,-0.3253 -0.124,-0.4747 -0.0951,-0.1843 -0.2191,-0.338 -0.3821,-0.4544 -0.1597,-0.1172 -0.3338,-0.1885 -0.5223,-0.2131 -0.186,-0.0247 -0.3559,0 -0.5104,0.0789 -0.1996,0.1011 -0.3372,0.2599 -0.4102,0.4731 -0.0739,0.2123 -0.062,0.4127 0.0365,0.6038 0.0595,0.1172 0.1376,0.2055 0.231,0.2658 0.0943,0.0603 0.2047,0.0943 0.3321,0.1019 0.1256,0.0068 0.2598,-0.0178 0.4008,-0.0705 l -0.0408,-0.2734 c -0.1596,0.0603 -0.2972,0.0722 -0.4186,0.0399 -0.1206,-0.034 -0.2132,-0.1104 -0.276,-0.2378 -0.051,-0.0985 -0.0519,-0.2123 -9e-4,-0.3406 0.0518,-0.129 0.1435,-0.2267 0.2709,-0.2921 0.1113,-0.0569 0.2378,-0.0756 0.3796,-0.0569 0.1444,0.0204 0.2777,0.0756 0.4051,0.169 0.1257,0.0943 0.2234,0.2064 0.2913,0.3414 0.079,0.1537 0.107,0.3227 0.0824,0.5062 -0.0255,0.1834 -0.0917,0.3567 -0.1987,0.5146 -0.1062,0.1563 -0.2455,0.2794 -0.4128,0.3652 -0.2981,0.152 -0.6097,0.1733 -0.9308,0.0646 -0.3227,-0.1088 -0.5596,-0.3143 -0.7125,-0.6132 -0.1596,-0.3083 -0.1987,-0.6353 -0.1189,-0.9775 0.0781,-0.3414 0.2769,-0.7015 0.5945,-1.0862 0.1707,-0.2064 0.3635,-0.3915 0.5732,-0.5554 0.2124,-0.1648 0.4459,-0.3134 0.7049,-0.4459 0.4739,-0.2412 1.0319,-0.4017198 1.6773,-0.4832498 l 0.1189,-0.01359 c -0.2641,0.2794398 -0.4416,0.6012398 -0.5341,0.9690398 -0.0926,0.3652 -0.0612,0.7049 0.0976,1.0157 0.1495,0.2938 0.3525,0.5342 0.6005,0.7244 0.2488,0.186 0.5189,0.2973 0.811,0.3338 0.2947,0.0365 0.5767,-0.017 0.8476,-0.1537 0.293,-0.1487 0.4883,-0.3015 0.5894,-0.4569 0.0407,0.2259 0.0925,0.4076 0.163,0.5443 0.1223,0.2378 0.293,0.4272 0.5096,0.5741 0.2174,0.1461 0.4543,0.2302 0.7083,0.2514 0.2547,0.0221 0.4985,-0.028 0.7303,-0.1477 0.3932,-0.1979 0.6591,-0.5385 0.8,-1.0234 0.5504,0.4382 1.1032,0.5129 1.6595,0.2284 0.2837,-0.1443 0.5079,-0.3507 0.676,-0.6199 0.1665,-0.2701 0.259,-0.5639 0.2752,-0.8756 0.0161,-0.3142 -0.0493,-0.6157 -0.1954,-0.9002 z"
     fill="#64471C"
     id="path1"
     style="fill:#e3ae3d;fill-opacity:1" /><path
     d="m 8.95924,9.7666332 c -0.37962,-0.10361 -0.76009,-0.16815 -1.14226,-0.18938 0.06879,-0.08238 0.11297,-0.15032 0.13844,-0.20043 0.12909,-0.25223 0.18853,-0.51381 0.17834,-0.79067 -0.00934,-0.2259 -0.08068,-0.43652 -0.18769,-0.6395 0.20298,0.10701 0.41445,0.1792 0.6395,0.1877 0.27601,0.01019 0.53844,-0.04927 0.79152,-0.17921 0.04841,-0.02463 0.11634,-0.06879 0.19957,-0.13758 0.02123,0.38217 0.08577,0.7635 0.18938,1.14227 0.10361,0.37962 0.24206,0.73886 0.41186,1.0743498 0.0654,0.1257 0.1376,0.2403 0.2098,0.3541 -0.1146,-0.0722 -0.2284,-0.1444 -0.355,-0.2089 C 9.69811,10.008683 9.33886,9.8710932 8.95924,9.7666332 Z M 8.16349,10.770483 c 0.09767,0.3151 0.05944,0.642 -0.11211,0.9741 -0.19618,0.3839 -0.49172,0.6429 -0.88663,0.7728 -0.39321,0.1291 -0.77452,0.1028 -1.1397,-0.0849 -0.14947,-0.0764 -0.25139,-0.152 -0.30575,-0.2259 l -0.27261,-0.3643 c -0.00255,-0.0034 -0.03398,-0.0349 -0.09598,-0.0935 0.01189,0.3448 -0.04585,0.6404 -0.169,0.8799 -0.1104,0.2165 -0.25562,0.3855 -0.43566,0.5104 -0.1792,0.1248 -0.38048,0.1928 -0.59874,0.2081 -0.21741,0.0127 -0.42717,-0.0332 -0.62844,-0.1334 -0.35245,-0.1809 -0.60553,-0.569 -0.76264,-1.1677 -0.21147,0.2726 -0.47051,0.4492 -0.77539,0.5274 -0.30574,0.073 -0.60383,0.039 -0.88833,-0.1079 -0.18683901,-0.0942 -0.34055501,-0.2166 -0.46624601,-0.3686 -0.123144,-0.152 -0.214867,-0.3201 -0.278562,-0.5019 -0.061147,-0.1851 -0.089166,-0.3771 -0.078125,-0.5834 0.005944,-0.203 0.056045,-0.389 0.14267,-0.5614 0.226754,-0.445 0.63100301,-0.7014898 1.21360301,-0.7745198 0.30234,-0.04671 0.55882,-0.01869 0.76604,0.08662 0.00509,0.00765 0.01189,0.01359 0.01953,0.01953 0.00849,0.0068 0.02123,0.01274 0.04161,0.02293 -0.13928,-0.25223 -0.21402,-0.49512 -0.22591,-0.73121 -0.01359,-0.23695 0.03143,-0.45691 0.13504,-0.66158 0.10021,-0.19448 0.23695,-0.34904 0.40935,-0.4603 0.1724,-0.1138 0.36348,-0.17835 0.5724,-0.19533 0.20892,-0.01614 0.41019,0.02463 0.60807,0.12739 0.38811,0.19703 0.68877,0.55117 0.90618,1.06158 0.00509,-0.03482 0.00848,-0.06454 0.01358,-0.08408 0.00424,-0.02123 0.00678,-0.03482 0.00848,-0.04331 0.03482,-0.22845 0.06795,-0.40595 0.09853,-0.53249 0.03227,-0.12909 0.07133,-0.24203 0.12399,-0.3431 0.10615,-0.21062 0.26497,-0.37368 0.47389,-0.49002 0.20807,-0.11381 0.44671,-0.1707 0.71083,-0.16731 0.26667,0.0034 0.5206,0.06624 0.76349,0.19193 0.44246,0.2259 0.70235,0.5223 0.77538,0.88663 0.07219,0.36689 -0.00256,0.76689 -0.22761,1.20511 -0.48748,-0.05266 -0.84416,-0.13843 -1.07432,-0.25308 -0.20127,-0.10616 -0.35838,-0.2327 -0.46624,-0.38811 -0.10701,-0.15202 -0.13503,-0.28366 -0.07983,-0.38812 0.03312,-0.06794 0.09682,-0.11295 0.18939,-0.13588 0.09002,-0.02548 0.16815,-0.02208 0.23525,0.01274 0.05775,0.03057 0.11294,0.09257 0.16645,0.18938 l 0.15372,-0.04925 C 6.67473,8.3831832 6.5881,8.2659832 6.46581,8.2022832 6.37664,8.1581232 6.29,8.1360432 6.19743,8.1411432 c -0.09087,0.00594 -0.17409,0.03482 -0.24968,0.08492 -0.07898,0.04586 -0.13757,0.11296 -0.18003,0.19279 -0.09002,0.1775 -0.09004,0.35499 0.00423,0.53588 0.09172,0.17835 0.2514,0.32782 0.48324,0.44756 0.13843,0.07049 0.27092,0.12739 0.40341,0.1809 -0.30659,0.03142 -0.58854,0.06794 -0.84672,0.10871 -0.38557,0.07473 -0.6412,0.1172 -0.76604,0.12739 -0.12314,0.00934 -0.2862,0.00934 -0.48748,-0.00255 -0.35669,-0.03228 -0.65055,-0.10785 -0.88579,-0.2276 -0.1724,-0.08832 -0.29044,-0.18939 -0.35159,-0.30149 -0.06115,-0.11126 -0.06115,-0.22931 0,-0.3499 0.01699,-0.03312 0.04671,-0.06284 0.08833,-0.08238 0.06284,-0.03227 0.12654,-0.05096 0.19023,-0.0569 0.0637,-0.0068 0.11719,8.5e-4 0.1605,0.02293 0.0671,0.03397 0.10956,0.11295 0.12909,0.23355 l 0.19534,-0.08918 c -0.02378,-0.15541 -0.11465,-0.27092 -0.27091,-0.35245 -0.13673,-0.06879 -0.27007,-0.08153 -0.40425,-0.03227 -0.13504,0.04841 -0.23866,0.14269 -0.31085,0.28366 -0.08747,0.17071 -0.08577,0.3414 0.00255,0.5138 0.08748,0.17325 0.25054,0.32187 0.48833,0.44502 0.13503,0.06879 0.41445,0.13334 0.83313,0.1902498 -0.43227,0.1393 -0.75754,0.2437 -0.9758,0.31 -0.34141,0.1112 -0.70743,0.2615 -1.09894,0.4518 -0.18769,0.0934 -0.37539,0.2072 -0.56478,0.338 l 0.03484,0.0569 c 0.37367,-0.1928 0.68705,-0.3236 0.93334,-0.3983 0.28535,-0.107 0.55116,-0.1996 0.79915,-0.2786 0.11889,-0.0365 0.2412,-0.0781 0.37114,-0.1282 0.33036,-0.1062 0.57238,-0.1724 0.72525,-0.1903 -0.35329,0.2192 -0.60466,0.4009 -0.75159,0.5393 -0.14522,0.1419 -0.27516,0.3211 -0.38812,0.5393 -0.07813,0.1563 -0.12399,0.299 -0.13249,0.428 -0.00764,0.1291 0.017,0.248 0.079,0.3508 0.0586,0.1019 0.15032,0.1877 0.27346,0.2488 0.11805,0.0603 0.23779,0.0773 0.35329,0.0484 0.11635,-0.0322 0.20551,-0.1095 0.27006,-0.2369 0.06284,-0.1198 0.07899,-0.2404 0.05181,-0.3601 l -0.231,0.056 c 0.03992,0.0536 0.04331,0.1096 0.01019,0.1725 -0.03058,0.0594 -0.07899,0.0968 -0.14863,0.1129 -0.07049,0.0187 -0.13842,0.011 -0.20296,-0.0204 -0.11125,-0.0586 -0.1741,-0.1503 -0.18599,-0.2828 -0.01358,-0.1265 0.02377,-0.2794 0.11294,-0.4535 0.15882,-0.3117 0.39068,-0.5809 0.69302,-0.8076 0.18683,-0.1351 0.37877,-0.2463 0.57835,-0.3279 0.20043,-0.0823 0.44841,-0.1579 0.73971,-0.2207698 0.29299,-0.06625 0.63524,-0.12314 1.0327,-0.1707 -0.26328,0.13589 -0.45181,0.2590698 -0.56646,0.3651698 -0.1138,0.1045 -0.21742,0.2429 -0.30574,0.4136 -0.11295,0.2225 -0.14522,0.428 -0.10276,0.6157 0.04586,0.1877 0.15882,0.3304 0.34906,0.4264 0.14437,0.073 0.28618,0.09 0.42716,0.0535 0.14098,-0.0366 0.2446,-0.1181 0.30744,-0.2429 0.05436,-0.1045 0.07304,-0.1911 0.06115,-0.265 -0.01019,-0.0739 -0.06114,-0.1512 -0.14267,-0.2259 l -0.17411,0.1129 c 0.01699,0.1011 0.01275,0.1775 -0.01358,0.231 -0.03142,0.062 -0.08917,0.1122 -0.169,0.1495 -0.08323,0.034 -0.15203,0.0408 -0.20639,0.0127 -0.1087,-0.0543 -0.17153,-0.1511 -0.19616,-0.287 -0.02463,-0.1376 -0.00256,-0.2735 0.06707,-0.4051 0.15712,-0.3117 0.40172,-0.5733 0.73293,-0.7821698 0.20722,-0.12824 0.44332,-0.18514 0.70745,-0.16901 0.29299,0.3328798 0.49086,0.6607798 0.58768,0.9766798 z M 7.4518,5.5772132 c 0.11719,-0.20807 0.27856,-0.36689 0.48917,-0.47304 0.10191,-0.05266 0.21487,-0.09087 0.34396,-0.12399 0.12484,-0.03228 0.30319,-0.06541 0.53249,-0.09853 0.00849,-0.0017 0.02208,-0.00508 0.04246,-0.00763 0.02039,-0.00595 0.05011,-0.00849 0.08493,-0.01528 -0.51041,-0.21657 -0.86455,-0.51892 -1.06243,-0.90533 -0.10106,-0.19873 -0.14353,-0.4 -0.12739,-0.60892 0.01614,-0.20722 0.08153,-0.4 0.19533,-0.5724 0.11126,-0.1724 0.26582,-0.30914 0.46115,-0.4085 0.20382,-0.10446 0.42379,-0.14863 0.66073,-0.13589 0.23779,0.01189 0.48069,0.08663 0.73208,0.22591 -0.01019,-0.02038 -0.01784,-0.03227 -0.02294,-0.04161 -0.00679,-0.00849 -0.01103,-0.01444 -0.01868,-0.01868 -0.10531,-0.20722 -0.13588,-0.4637 -0.08747,-0.76774 0.07218,-0.58175 0.32951,-0.98599902 0.77281,-1.21190302 0.1724,-0.088324 0.3593,-0.136726 0.5631,-0.142671 0.2072,-0.01189 0.3983,0.01613 0.5834,0.078126 0.1818,0.062846 0.3508,0.155418 0.5019,0.278561 0.1521,0.125692 0.2743,0.280255 0.3686,0.46454702 0.1461,0.2862 0.1818,0.58344 0.107,0.88833 -0.0773,0.30658 -0.2531,0.56477 -0.5265,0.77624 0.597,0.15711 0.986,0.41019 1.1677,0.76348 0.1002,0.20128 0.1461,0.40934 0.1325,0.62845 -0.0144,0.21741 -0.0815,0.41784 -0.2072,0.59874 -0.124,0.17919 -0.2939,0.32526 -0.5104,0.43566 -0.2404,0.1223 -0.5342,0.18004 -0.8807,0.16815 0.0594,0.06285 0.09,0.09428 0.0934,0.09598 l 0.3643,0.27431 c 0.0739,0.05266 0.1495,0.15542 0.2276,0.30489 0.186,0.36518 0.2132,0.7465 0.0833,1.13801 -0.13,0.39661 -0.3881,0.69045 -0.772,0.88748 -0.3338,0.1724 -0.659,0.20978 -0.975,0.11296 -0.3159,-0.09852 -0.6429,-0.29555 -0.97577,-0.5877 -0.01614,-0.26497 0.03991,-0.50106 0.169,-0.70828 0.20887,-0.33036 0.47047,-0.5758 0.78127,-0.73292 0.1325,-0.06964 0.2684,-0.09172 0.4051,-0.06794 0.1376,0.02633 0.2336,0.08918 0.2871,0.19533 0.0289,0.0569 0.0229,0.12569 -0.0119,0.20722 -0.0382,0.08153 -0.0883,0.13928 -0.1503,0.17155 -0.0527,0.02633 -0.1299,0.02973 -0.2293,0.01189 l -0.113,0.17326 c 0.0739,0.08323 0.1504,0.13333 0.2251,0.14267 0.0739,0.01359 0.1605,-0.00679 0.265,-0.05945 0.1248,-0.06284 0.2055,-0.16645 0.242,-0.30828 0.0374,-0.14098 0.0204,-0.28196 -0.0527,-0.42718 -0.0968,-0.19024 -0.2386,-0.30404 -0.4263,-0.34735 -0.1877,-0.04331 -0.3923,-0.0102 -0.6157,0.10106 -0.1707,0.08917 -0.3083,0.19193 -0.4136,0.30658 -0.1061,0.11465 -0.22845,0.30319 -0.36688,0.56562 0.05011,-0.39746 0.10617,-0.73971 0.17241,-1.03185 0.06287,-0.29215 0.13757,-0.54098 0.21997,-0.74141 0.0832,-0.19873 0.1919,-0.38982 0.3295,-0.5775 0.2251,-0.30149 0.4951,-0.53336 0.8068,-0.69302 0.1741,-0.08917 0.327,-0.12568 0.4535,-0.11294 0.1317,0.01189 0.2242,0.07473 0.282,0.18599 0.0323,0.06454 0.0399,0.13247 0.0221,0.20211 -0.0179,0.06964 -0.0552,0.11975 -0.1138,0.15032 -0.0629,0.03228 -0.1206,0.02719 -0.1716,-0.01103 l -0.0552,0.231 c 0.1181,0.02803 0.2386,0.01188 0.3584,-0.05181 0.1257,-0.0637 0.2047,-0.15286 0.2369,-0.27006 0.0281,-0.1155 0.0128,-0.23524 -0.0484,-0.35329 -0.0628,-0.12314 -0.146,-0.21486 -0.2488,-0.27346 -0.1028,-0.06115 -0.2208,-0.08579 -0.3499,-0.079 -0.1308,0.00935 -0.2726,0.05351 -0.4289,0.13164 -0.2183,0.11465 -0.3974,0.24375 -0.5384,0.38982 -0.1393,0.14777 -0.3202,0.3966 -0.541,0.75159 0.0187,-0.15287 0.0849,-0.39489 0.1919,-0.72696 0.0484,-0.12908 0.0909,-0.24969 0.1266,-0.36943 0.0806,-0.24799 0.1724,-0.5138 0.2777,-0.8 0.0756,-0.24714 0.208,-0.55882 0.3991,-0.93335 l -0.0552,-0.03483 c -0.1307,0.18939 -0.2462,0.37624 -0.3388,0.56563 -0.1911,0.39066 -0.3406,0.75753 -0.4518,1.09894 -0.0663,0.21826 -0.1716,0.54268 -0.3109,0.97495 -0.05601,-0.41868 -0.12055,-0.6981 -0.19104,-0.83313 -0.12145,-0.23695 -0.27091,-0.4017 -0.44247,-0.48748 -0.1741,-0.08832 -0.3431,-0.09087 -0.51466,-0.0017 -0.14097,0.07134 -0.2344,0.17411 -0.28281,0.30915 -0.04926,0.13503 -0.03736,0.26751 0.03144,0.4034 0.08068,0.15626 0.19702,0.24798 0.35158,0.27176 l 0.09088,-0.19534 c -0.1223,-0.01953 -0.19958,-0.06285 -0.23525,-0.12909 -0.02123,-0.04331 -0.02888,-0.09596 -0.02293,-0.1605 0.00509,-0.06454 0.02377,-0.12654 0.05689,-0.19023 0.02039,-0.04162 0.04926,-0.0705 0.08408,-0.08918 0.1206,-0.05945 0.23695,-0.05945 0.34821,0 0.1121,0.06284 0.21402,0.17918 0.30234,0.35159 0.1189,0.23609 0.19617,0.5308 0.22675,0.88749 0.01274,0.20128 0.01274,0.36349 0.0034,0.48748 -0.01104,0.12314 -0.05266,0.37962 -0.12654,0.76434 -0.04247,0.25903 -0.07899,0.54183 -0.11041,0.84671 -0.05266,-0.13078 -0.1104,-0.26497 -0.18088,-0.40255 -0.11805,-0.231 -0.26752,-0.3915 -0.44672,-0.48407 -0.18089,-0.09342 -0.35839,-0.09342 -0.53589,-0.00255 -0.08068,0.04161 -0.14693,0.1002 -0.19363,0.17918 -0.04926,0.07643 -0.07814,0.15967 -0.08408,0.25054 -0.0051,0.09172 0.01613,0.1792 0.06114,0.26752 0.06285,0.12314 0.18004,0.20891 0.35414,0.25732 l 0.04841,-0.15286 c -0.09681,-0.05436 -0.15881,-0.10956 -0.18938,-0.16731 -0.03397,-0.06709 -0.03821,-0.14607 -0.01273,-0.23524 0.02378,-0.09172 0.06878,-0.15542 0.13587,-0.19024 0.10446,-0.05435 0.23695,-0.02548 0.38897,0.08153 0.15457,0.10786 0.28111,0.26327 0.38642,0.46624 0.11635,0.23015 0.20127,0.586 0.25478,1.07348 -0.43907,0.2242 -0.83909,0.30149 -1.20512,0.22675 -0.36349,-0.07133 -0.66158,-0.33206 -0.88748,-0.77453 -0.12484,-0.24289 -0.18854,-0.49767 -0.19109,-0.76179 -0.00254,-0.26497 0.05265,-0.50361 0.16731,-0.71253 z m 6.6931,4.17328 c -0.0867,-0.169 -0.1954,-0.31082 -0.327,-0.42717 -0.1333,-0.1189 -0.282,-0.20723 -0.445,-0.27007 -0.1639,-0.0586 -0.3287,-0.08578 -0.4977,-0.07729 -0.1664,0.00595 -0.3253,0.04587 -0.4739,0.12315 -0.1851,0.09512 -0.338,0.21996 -0.4552,0.38217 -0.118,0.15881 -0.1885,0.33375 -0.2123,0.5239998 -0.0255,0.1843 0,0.3541 0.079,0.5095 0.101,0.1979 0.259,0.3372 0.4722,0.4094 0.2114,0.073 0.4127,0.0628 0.6038,-0.0374 0.1172,-0.0586 0.2064,-0.1367 0.2658,-0.2293 0.0612,-0.0942 0.0951,-0.2038 0.1011,-0.332 0.0068,-0.1266 -0.0162,-0.2599 -0.0705,-0.4017398 l -0.2726,0.04247 c 0.0603,0.1570698 0.0713,0.2955698 0.0399,0.4169698 -0.034,0.1189 -0.1104,0.2132 -0.2378,0.276 -0.0977,0.0518 -0.2132,0.0527 -0.3405,0.0017 -0.1291,-0.0526 -0.226,-0.1444 -0.2914,-0.2717 -0.0577,-0.1121 -0.0772,-0.2395 -0.0569,-0.3805 0.0204,-0.1443798 0.0756,-0.2768698 0.1682,-0.4059598 0.0943,-0.12314 0.2072,-0.22251 0.3406,-0.28875 0.1545,-0.07983 0.3235,-0.10786 0.507,-0.08323 0.1834,0.02548 0.3558,0.09257 0.5146,0.19958 0.1571,0.107 0.2794,0.24544 0.3652,0.4119 0.152,0.2989598 0.1724,0.6097598 0.0637,0.9316598 -0.1087,0.3219 -0.3134,0.5588 -0.6115,0.7117 -0.31,0.1588 -0.6361,0.1987 -0.9775,0.1189 -0.3422,-0.0773 -0.7023,-0.2769 -1.087,-0.5954 -0.2056,-0.1707 -0.3907,-0.3635 -0.5555,-0.5724 -0.1647,-0.2123 -0.3133,-0.4458398 -0.4467,-0.7048698 -0.2395,-0.47304 -0.39996,-1.03356 -0.48234,-1.67645 l -0.0136,-0.11975 c 0.27854,0.26412 0.60214,0.44247 0.96904,0.53419 0.3652,0.09257 0.7057,0.06115 1.0157,-0.09851 0.2938,-0.14863 0.535,-0.35074 0.7236,-0.59788 0.1868,-0.25053 0.2981,-0.52145 0.3337,-0.81275 0.0365,-0.29555 -0.0161,-0.5758 -0.1528,-0.84757 -0.1487,-0.29299 -0.3015,-0.48833 -0.4569,-0.58939 0.2267,-0.04077 0.4085,-0.09087 0.5435,-0.16306 0.2386,-0.12229 0.4289,-0.29299 0.5749,-0.50955 0.147,-0.21827 0.2302,-0.45352 0.2514,-0.70915 0.0212,-0.25563 -0.0289,-0.49765 -0.1461,-0.7295 -0.1995,-0.39236 -0.5409,-0.65905 -1.025,-0.80173 0.4382,-0.54862 0.5138,-1.10149 0.2276,-1.65691202 -0.1435,-0.284504 -0.3508,-0.509557 -0.62,-0.676862 -0.2692,-0.165607 -0.5639,-0.2581748 -0.8747,-0.27431083 -0.3142,-0.01698527 -0.614,0.04841143 -0.9002,0.19448483 -0.46799,0.237794 -0.74485,0.636948 -0.82723,1.18812002 -0.05011,0.28366 -0.045,0.5257 0.0153,0.72273 l -0.08833,-0.01103 c -0.26157,-0.06964 -0.47218,-0.10192 -0.63269,-0.09258 -0.15882,0.00424 -0.32188,0.05096 -0.48833,0.13589 -0.231,0.1172 -0.41784,0.28025 -0.55372,0.48408 -0.14013,0.20382 -0.21063,0.42801 -0.21827,0.66836 -0.00765,0.24034 0.05011,0.48068 0.17325,0.71932 0.09172,0.18174 0.20043,0.33377 0.32103,0.45012 0.11804,0.11719 0.2726,0.21742 0.46114,0.30574 -0.21656,0 -0.4017,0.03821 -0.55117,0.11634 -0.27007,0.13673 -0.48324,0.32951 -0.64375,0.57495 -0.15796,0.24714 -0.23949,0.52231 -0.24883,0.82465 -0.00679,0.30318 0.06455,0.60467 0.21827,0.90361 0.01359,0.02633 0.03225,0.04586 0.04669,0.07134 -0.02548,-0.01359 -0.04415,-0.03312 -0.07132,-0.04755 -0.30064,-0.15117 -0.6013,-0.22421 -0.90363,-0.21572 -0.30319,0.00764 -0.57835,0.08917 -0.82464,0.24798 -0.24543,0.15966 -0.43737,0.37198 -0.57495,0.6429 -0.07813,0.14862 -0.11634,0.33631 -0.11634,0.55117 -0.08832,-0.18854 -0.18854,-0.3431 -0.30489,-0.46199 -0.11805,-0.1206 -0.26922,-0.22931 -0.45097,-0.32018 -0.23949,-0.12399 -0.47898,-0.1809 -0.71932,-0.1724 -0.24119,0.00679 -0.46454,0.07812 -0.66836,0.2174 -0.20468,0.13589 -0.36603,0.32358 -0.48493,0.55373 -0.08408,0.16645 -0.13164,0.33036 -0.13589,0.48917 -0.00849,0.15967 0.02294,0.37029 0.09258,0.63101 l 0.01188,0.09002 c -0.19788,-0.0603 -0.43907,-0.06539 -0.72358,-0.01613 -0.55117101,0.08323 -0.94862601,0.35924 -1.18726901,0.8280198 -0.1469232,0.2854 -0.2114698,0.5852 -0.19363526,0.8985 0.01443746,0.3126 0.10700526,0.6064 0.27431126,0.8765 0.166456,0.2692 0.391507,0.4756 0.675161,0.6182 0.55627201,0.2862 1.10829201,0.2107 1.65862201,-0.2267 0.14182,0.4849 0.40766,0.8255 0.80087,1.025 0.23185,0.1172 0.47557,0.1682 0.7295,0.147 0.25478,-0.023 0.49174,-0.1062 0.70915,-0.2514 0.21741,-0.1469 0.38726,-0.3372 0.50956,-0.5758 0.07133,-0.135 0.12228,-0.3168 0.1622,-0.5444 0.10191,0.1563 0.29639,0.31 0.59023,0.4578 0.27177,0.1367 0.55289,0.1893 0.84759,0.1528 0.29215,-0.0348 0.5622,-0.1469 0.81103,-0.3337 0.24799,-0.1869 0.45097,-0.4289 0.60044,-0.7236 0.15881,-0.3108 0.19107,-0.6497 0.0968,-1.0157 -0.09172,-0.3669 -0.2692,-0.6905 -0.53332,-0.9690298 l 0.11889,0.01443 c 0.64544,0.08068 1.20341,0.2419998 1.6773,0.4814998 0.25818,0.1334 0.49257,0.282 0.70407,0.4467 0.2106,0.1657 0.4025,0.3508 0.5741,0.5563 0.3176,0.3839 0.5163,0.7431 0.5953,1.0871 0.079,0.3397 0.0399,0.6666 -0.1197,0.9766 -0.1529,0.299 -0.3898,0.5036 -0.7134,0.6123 -0.321,0.1079 -0.6319,0.0884 -0.93081,-0.0645 -0.16731,-0.0866 -0.30574,-0.2072 -0.4119,-0.3652 -0.10701,-0.1588 -0.17409,-0.3303 -0.19872,-0.5138 -0.02548,-0.1843 0.00425,-0.3533 0.08153,-0.5078 0.06879,-0.1325 0.16645,-0.2455 0.29129,-0.3398 0.12824,-0.0925 0.26158,-0.1477 0.40591,-0.1681 0.141,-0.0204 0.2676,-0.0017 0.3797,0.0577 0.1265,0.0646 0.2191,0.1606 0.2709,0.2905 0.0509,0.1265 0.0501,0.242 -0.0017,0.3397 -0.0629,0.1274 -0.1563,0.203 -0.276,0.2378 -0.1206,0.0314 -0.2582,0.0212 -0.41787,-0.0399 l -0.04161,0.2743 c 0.14178,0.0526 0.27598,0.0764 0.40168,0.0696 0.1274,-0.0068 0.2378,-0.0407 0.3321,-0.1019 0.0934,-0.0594 0.1715,-0.1486 0.231,-0.2649 0.0994,-0.1928 0.1095,-0.3924 0.0357,-0.6047 -0.0722,-0.2132 -0.2098,-0.3703 -0.4094,-0.4722 -0.1546,-0.0807 -0.3253,-0.1045 -0.5104,-0.0807 -0.18855,0.0263 -0.36349,0.0968 -0.5223,0.214 -0.16221,0.1172 -0.2862,0.2701 -0.38302,0.4561 -0.07643,0.1494 -0.11634,0.3066 -0.12314,0.473 -0.00849,0.169 0.01868,0.3346 0.07983,0.4985 0.06115,0.1631 0.14946,0.3109 0.26836,0.4433 0.11805,0.1325 0.25818,0.2404 0.42803,0.3279 0.231,0.1189 0.47814,0.1698 0.74144,0.1528 0.2632,-0.0161 0.5078,-0.0959 0.7261,-0.2369 0.2208,-0.1393 0.3932,-0.3253 0.513,-0.5605 0.0866,-0.1699 0.1384,-0.3669 0.1511,-0.5911 0.0145,-0.2217 -0.0085,-0.4544 -0.0696,-0.6964 -0.0637,-0.2438 -0.1546,-0.4714 -0.2794,-0.6786 0.2072,0.124 0.4339,0.2157 0.6785,0.2786 0.2429,0.0611 0.4756,0.0849 0.6973,0.0696 0.2242,-0.011 0.4204,-0.0645 0.5911,-0.1503 0.2344,-0.1197 0.4212,-0.2921 0.5613,-0.5147 0.1402,-0.2174 0.2191,-0.4628 0.2361,-0.7244 0.0162,-0.2633 -0.0348,-0.5112398 -0.1528,-0.7430898 z"
     fill="#64471C"
     id="path2"
     style="fill:#e3ae3d;fill-opacity:1" /><path
     d="m 74.4826,65.537783 c -0.2259,0.4433 -0.6293,0.6998 -1.2128,0.7728 -0.3023,0.0501 -0.5588,0.0204 -0.766,-0.0858 -0.0051,-0.0076 -0.0119,-0.0119 -0.0195,-0.0203 -0.0085,-0.0051 -0.0221,-0.0128 -0.0408,-0.0213 0.1384,0.2506 0.2123,0.4943 0.2251,0.7304 0.0135,0.2386 -0.0315,0.4569 -0.1359,0.6624 -0.0994,0.1945 -0.2353,0.3491 -0.4094,0.4612 -0.1715,0.1129 -0.3635,0.1783 -0.5715,0.1944 -0.209,0.017 -0.4102,-0.0254 -0.609,-0.1273 -0.3872,-0.1988 -0.6887,-0.5529 -0.9061,-1.0616 -0.0051,0.0348 -0.0077,0.0637 -0.0136,0.0841 -0.0043,0.0203 -0.0068,0.0348 -0.0076,0.0433 -0.0349,0.2284 -0.068,0.4059 -0.0986,0.5308 -0.0322,0.129 -0.0722,0.2437 -0.124,0.3448 -0.107,0.2106 -0.2649,0.3719 -0.4739,0.4891 -0.208,0.1147 -0.4475,0.1707 -0.7108,0.1682 -0.2667,-0.0034 -0.5214,-0.0663 -0.7643,-0.1928 -0.4408,-0.2259 -0.7015,-0.5223 -0.7746,-0.8858 -0.0722,-0.366 0.0034,-0.7677 0.2277,-1.2059 0.4874,0.0535 0.8433,0.1375 1.0743,0.2547 0.2021,0.1054 0.3575,0.2319 0.4662,0.3856 0.107,0.1537 0.1359,0.2854 0.0798,0.3898 -0.0331,0.0663 -0.0976,0.1121 -0.1893,0.1368 -0.0901,0.0237 -0.1682,0.0203 -0.2353,-0.0136 -0.0569,-0.0297 -0.1129,-0.0943 -0.1656,-0.1903 l -0.1546,0.0501 c 0.0484,0.1733 0.1351,0.2905 0.2565,0.3533 0.09,0.0451 0.1767,0.0663 0.2684,0.0603 0.0917,-0.0051 0.1741,-0.0331 0.2514,-0.0823 0.0773,-0.0484 0.1375,-0.1138 0.1792,-0.1954 0.09,-0.1766 0.09,-0.3541 -0.0043,-0.535 -0.0917,-0.1792 -0.2522,-0.3287 -0.4832,-0.4459 -0.1385,-0.0705 -0.2709,-0.1282 -0.4026,-0.1817 0.3049,-0.0306 0.5877,-0.0688 0.8459,-0.1104 0.3856,-0.0748 0.6403,-0.1155 0.7652,-0.1266 0.1231,-0.0093 0.287,-0.0093 0.4883,0.0026 0.3558,0.0314 0.6506,0.1087 0.885,0.2276 0.1732,0.0883 0.2904,0.1902 0.3524,0.3023 0.0611,0.113 0.0611,0.2276 0,0.3482 -0.0178,0.0348 -0.0467,0.0637 -0.0883,0.085 -0.0629,0.0331 -0.1266,0.0518 -0.1911,0.0552 -0.0637,0.0059 -0.1172,0 -0.1597,-0.0221 -0.0671,-0.0348 -0.1104,-0.113 -0.1291,-0.2353 l -0.1953,0.0909 c 0.0238,0.1546 0.1155,0.2709 0.2709,0.3516 0.1359,0.0679 0.2701,0.0807 0.4043,0.0314 0.135,-0.0475 0.2378,-0.141 0.31,-0.2828 0.0883,-0.1715 0.0866,-0.3405 -0.0017,-0.5138 -0.0875,-0.1732 -0.2506,-0.3227 -0.4884,-0.4442 -0.1359,-0.0696 -0.4153,-0.1341 -0.8331,-0.1902 0.4314,-0.1393 0.7567,-0.2437 0.975,-0.3108 0.3422,-0.1104 0.7082,-0.2616 1.0997,-0.451 0.1877,-0.0926 0.3746,-0.2089 0.564,-0.3397 l -0.034,-0.0543 c -0.3737,0.191 -0.6862,0.3227 -0.9325,0.3983 -0.2871,0.1053 -0.5529,0.197 -0.8,0.2768 -0.1189,0.0357 -0.2412,0.0781 -0.372,0.1266 -0.3295,0.1078 -0.5715,0.1732 -0.7244,0.1927 0.3541,-0.2199 0.6038,-0.4008 0.7516,-0.5401 0.1461,-0.141 0.2743,-0.3202 0.389,-0.5384 0.0781,-0.1571 0.1231,-0.299 0.1316,-0.4298 0.0068,-0.1282 -0.0179,-0.2462 -0.079,-0.349 -0.0586,-0.1028 -0.1503,-0.1877 -0.2735,-0.2488 -0.118,-0.0612 -0.2377,-0.0782 -0.3532,-0.0501 -0.1172,0.0331 -0.2064,0.1112 -0.2701,0.2386 -0.0629,0.1181 -0.0798,0.2403 -0.0518,0.3567 l 0.2301,-0.0544 c -0.039,-0.0501 -0.0424,-0.1087 -0.0102,-0.1724 0.0306,-0.0577 0.0799,-0.0942 0.1495,-0.1129 0.0705,-0.017 0.1393,-0.0102 0.203,0.0212 0.1112,0.0578 0.1741,0.1512 0.186,0.282 0.0136,0.1282 -0.0238,0.2811 -0.1138,0.4543 -0.1588,0.3126 -0.3898,0.5809 -0.6922,0.8077 -0.1868,0.1367 -0.3787,0.2463 -0.5775,0.3287 -0.2012,0.0815 -0.4501,0.1562 -0.7405,0.2199 -0.293,0.0663 -0.6353,0.124 -1.0327,0.1724 0.2632,-0.1384 0.4509,-0.2599 0.5664,-0.366 0.1147,-0.1053 0.2183,-0.2438 0.3058,-0.4136 0.1121,-0.2234 0.1452,-0.428 0.1019,-0.6157 -0.0451,-0.1877 -0.1588,-0.3304 -0.3482,-0.4264 -0.1444,-0.0747 -0.2854,-0.0908 -0.4272,-0.0543 -0.1401,0.0374 -0.2446,0.1189 -0.3083,0.2437 -0.0535,0.1036 -0.073,0.1903 -0.0603,0.2633 0.0102,0.0756 0.0603,0.1529 0.1435,0.2268 l 0.1741,-0.113 c -0.0187,-0.1002 -0.0144,-0.1775 0.0128,-0.2285 0.0314,-0.0645 0.0892,-0.1138 0.169,-0.152 0.0832,-0.0348 0.152,-0.0407 0.2072,-0.0119 0.1079,0.0535 0.1707,0.1504 0.1962,0.2871 0.0238,0.1367 0.0017,0.2718 -0.068,0.4051 -0.1571,0.3117 -0.4017,0.5724 -0.732,0.7813 -0.2073,0.1282 -0.4442,0.1851 -0.7075,0.169 -0.293,-0.3337 -0.4909,-0.6607 -0.5885,-0.9766 -0.0968,-0.3143 -0.0595,-0.6429 0.1112,-0.9741 0.1979,-0.3848 0.4918,-0.6421 0.8884,-0.7729 0.3923,-0.1282 0.7737,-0.1027 1.1388,0.0841 0.1495,0.0781 0.2523,0.1537 0.3049,0.2268 l 0.2735,0.3651 c 0.0025,0.0034 0.034,0.034 0.096,0.0935 -0.0111,-0.3465 0.0458,-0.6404 0.1681,-0.8807 0.1104,-0.2166 0.2565,-0.3856 0.4365,-0.5121 0.1801,-0.1232 0.3805,-0.1911 0.5988,-0.2064 0.2182,-0.0136 0.4263,0.0331 0.6284,0.1325 0.3525,0.1826 0.6047,0.5707 0.7618,1.1686 0.2123,-0.2726 0.4705,-0.4493 0.7771,-0.5266 0.3049,-0.0747 0.6021,-0.0399 0.8875,0.107 0.1868,0.0951 0.3405,0.2166 0.4654,0.3695 0.124,0.1503 0.2157,0.3193 0.2785,0.5027 0.062,0.1835 0.09,0.3745 0.079,0.5826 -0.0059,0.203 -0.0552,0.389 -0.1435,0.5614 z m -7.0379,4.8731 c -0.118,0.2089 -0.2794,0.3669 -0.49,0.473 -0.1028,0.0518 -0.2149,0.0917 -0.344,0.1248 -0.1256,0.0298 -0.304,0.0637 -0.5316,0.0977 -0.0093,0.0017 -0.0238,0.0043 -0.0442,0.0068 -0.0195,0.0077 -0.0492,0.0094 -0.0849,0.0144 0.5113,0.2175 0.8646,0.5198 1.0624,0.9062 0.102,0.1979 0.1444,0.4 0.1283,0.6081 -0.0162,0.2089 -0.0816,0.4017 -0.1954,0.5724 -0.1121,0.1732 -0.2666,0.3091 -0.4611,0.4102 -0.2038,0.1044 -0.4238,0.1486 -0.6616,0.1359 -0.2361,-0.0136 -0.479,-0.0884 -0.7312,-0.2268 0.0102,0.0195 0.0178,0.0331 0.0229,0.0425 0.0068,0.0068 0.0119,0.0136 0.0187,0.0195 0.1062,0.2081 0.1359,0.4629 0.0875,0.7652 -0.0722,0.5834 -0.3304,0.9868 -0.7737,1.2136 -0.1715,0.0866 -0.3584,0.1376 -0.5622,0.1427 -0.2064,0.011 -0.3983,-0.0179 -0.5834,-0.079 -0.1826,-0.0629 -0.3499,-0.1546 -0.5028,-0.2786 -0.1503,-0.1248 -0.2735,-0.2794 -0.3677,-0.4645 -0.1461,-0.2854 -0.1818,-0.5826 -0.107,-0.8875 0.0781,-0.3074 0.253,-0.5656 0.5265,-0.7779 -0.5979,-0.1571 -0.986,-0.4094 -1.1677,-0.7618 -0.1003,-0.2021 -0.1461,-0.4094 -0.1325,-0.6285 0.0136,-0.2182 0.0815,-0.4195 0.2064,-0.5987 0.1248,-0.18 0.2946,-0.3244 0.5104,-0.4357 0.242,-0.1231 0.535,-0.18 0.8806,-0.1681 -0.0586,-0.0629 -0.0891,-0.0943 -0.0934,-0.096 l -0.3643,-0.2735 c -0.073,-0.0535 -0.1495,-0.1554 -0.2268,-0.304 -0.186,-0.3669 -0.2131,-0.7473 -0.0841,-1.1414 0.13,-0.3958 0.3882,-0.6896 0.772,-0.8875 0.3338,-0.1707 0.6599,-0.2089 0.975,-0.1104 0.3159,0.0968 0.6437,0.2947 0.9758,0.5869 0.017,0.2641 -0.0399,0.501 -0.1673,0.7082 -0.2098,0.3304 -0.4713,0.5741 -0.7813,0.733 -0.1342,0.0679 -0.2692,0.0917 -0.406,0.0662 -0.1367,-0.0246 -0.2344,-0.0875 -0.287,-0.1953 -0.0289,-0.0552 -0.023,-0.1249 0.0119,-0.2056 0.0373,-0.0815 0.0883,-0.1375 0.1503,-0.1707 0.0526,-0.0263 0.1291,-0.0305 0.2293,-0.0127 l 0.1129,-0.175 c -0.0738,-0.0823 -0.1503,-0.1316 -0.2259,-0.1426 -0.073,-0.0119 -0.1605,0.0085 -0.2641,0.0603 -0.1248,0.062 -0.2055,0.1673 -0.242,0.3083 -0.0383,0.1418 -0.0213,0.2828 0.0526,0.428 0.096,0.1902 0.2395,0.3032 0.4264,0.3482 0.1868,0.0424 0.3932,0.0093 0.6157,-0.1036 0.1707,-0.0875 0.3083,-0.1911 0.4136,-0.3049 0.1061,-0.1147 0.2284,-0.3032 0.366,-0.5673 -0.0484,0.3983 -0.1053,0.7414 -0.1707,1.0335 -0.0637,0.2922 -0.1393,0.5393 -0.2208,0.7406 -0.0824,0.1987 -0.1928,0.3907 -0.3295,0.5783 -0.2259,0.3015 -0.4951,0.5334 -0.8077,0.6913 -0.1741,0.0909 -0.3253,0.1274 -0.4526,0.1147 -0.1308,-0.0136 -0.2243,-0.0747 -0.2829,-0.1877 -0.0305,-0.0628 -0.039,-0.1308 -0.0203,-0.2021 0.0161,-0.0688 0.0535,-0.1181 0.1129,-0.1503 0.0629,-0.0315 0.1215,-0.0272 0.1716,0.0127 l 0.0552,-0.2327 c -0.1181,-0.0272 -0.2387,-0.0093 -0.3584,0.0535 -0.1257,0.0629 -0.2047,0.152 -0.237,0.2684 -0.0288,0.1163 -0.0127,0.2361 0.0493,0.355 0.062,0.1214 0.1452,0.2131 0.248,0.2726 0.1036,0.062 0.2208,0.0858 0.3499,0.0781 0.1299,-0.0076 0.2726,-0.0518 0.4289,-0.1316 0.2182,-0.113 0.3983,-0.2421 0.5384,-0.3881 0.1393,-0.1461 0.3202,-0.3975 0.5401,-0.7516 -0.0178,0.1528 -0.084,0.3949 -0.1911,0.7252 -0.0484,0.1291 -0.09,0.2523 -0.1273,0.3712 -0.0799,0.2471 -0.1724,0.5138 -0.2769,0.8 -0.0756,0.2463 -0.2081,0.5588 -0.3992,0.9325 l 0.0561,0.0339 c 0.1299,-0.1885 0.2446,-0.3762 0.3388,-0.5639 0.1894,-0.3932 0.3398,-0.7558 0.4502,-1.0998 0.067,-0.2182 0.1715,-0.5435 0.3116,-0.9758 0.0561,0.4196 0.1215,0.699 0.1911,0.8348 0.1215,0.2378 0.2701,0.4 0.4425,0.4875 0.1732,0.0883 0.3439,0.09 0.5155,0.0017 0.1401,-0.0722 0.2335,-0.1758 0.2828,-0.31 0.0484,-0.1341 0.0357,-0.2683 -0.0323,-0.4042 -0.0815,-0.1563 -0.197,-0.2454 -0.3516,-0.2718 l -0.0908,0.1962 c 0.1222,0.0187 0.1995,0.0612 0.2352,0.1291 0.0212,0.0442 0.0289,0.0968 0.0221,0.1597 -0.0051,0.0662 -0.0229,0.1282 -0.0561,0.191 -0.0203,0.0417 -0.0492,0.0714 -0.0832,0.0884 -0.1206,0.0611 -0.2378,0.0611 -0.349,0 -0.1121,-0.062 -0.2141,-0.1792 -0.3032,-0.3516 -0.1181,-0.2353 -0.1945,-0.5291 -0.2268,-0.8858 -0.0119,-0.2013 -0.0119,-0.3644 -0.0025,-0.4883 0.011,-0.124 0.0518,-0.3788 0.1265,-0.7652 0.0416,-0.2582 0.0781,-0.5402 0.1096,-0.8459 0.0535,0.1316 0.1121,0.2641 0.1817,0.4026 0.1181,0.2318 0.2675,0.3932 0.4476,0.484 0.18,0.0926 0.3567,0.0926 0.5342,0.0034 0.0815,-0.0424 0.1469,-0.101 0.1953,-0.18 0.0492,-0.0756 0.0773,-0.1588 0.0824,-0.2505 0.0051,-0.0918 -0.0153,-0.1784 -0.0612,-0.2676 -0.0611,-0.1223 -0.1792,-0.2089 -0.3533,-0.2573 l -0.0484,0.1546 c 0.096,0.0526 0.158,0.1087 0.1894,0.1656 0.034,0.0662 0.0382,0.1461 0.0128,0.2361 -0.0238,0.0909 -0.0688,0.1554 -0.1359,0.1902 -0.1053,0.0535 -0.237,0.0263 -0.389,-0.0815 -0.1554,-0.1087 -0.2811,-0.2641 -0.3864,-0.4663 -0.1164,-0.2301 -0.2022,-0.5868 -0.2548,-1.0726 0.4382,-0.2259 0.8391,-0.3006 1.206,-0.2293 0.3635,0.073 0.6598,0.3338 0.8857,0.7745 0.1257,0.2438 0.1894,0.4986 0.1911,0.7652 0.0034,0.2633 -0.0518,0.5019 -0.1656,0.7109 z m -2.7287,-4.457 c -0.0645,-0.1265 -0.1376,-0.242 -0.2097,-0.3567 0.1146,0.0722 0.2301,0.1453 0.3575,0.2107 0.3338,0.1715 0.6922,0.3091 1.0726,0.4127 0.3805,0.1036 0.7601,0.1681 1.1414,0.1902 -0.0671,0.0833 -0.1121,0.1503 -0.1376,0.1988 -0.129,0.2539 -0.1876,0.5155 -0.1791,0.7915 0.0102,0.225 0.0815,0.4356 0.1885,0.6395 -0.2038,-0.1079 -0.4144,-0.1792 -0.6395,-0.1886 -0.2752,-0.0085 -0.5384,0.051 -0.7907,0.1792 -0.0492,0.0247 -0.1172,0.0714 -0.1995,0.1376 -0.023,-0.3813 -0.0875,-0.7618 -0.1894,-1.1423 -0.1045,-0.3796 -0.2429,-0.7371 -0.4145,-1.0726 z m 9.9033,-2.017 c -0.1681,-0.27 -0.3923,-0.4764 -0.676,-0.6216 -0.5563,-0.2845 -1.1091,-0.209 -1.6595,0.2293 -0.1409,-0.4833 -0.4068,-0.8264 -0.8,-1.0251 -0.2318,-0.118 -0.4756,-0.1682 -0.7303,-0.1461 -0.254,0.0213 -0.4909,0.1045 -0.7083,0.2506 -0.2166,0.1469 -0.3873,0.3363 -0.5096,0.5749 -0.0705,0.1359 -0.1223,0.3185 -0.163,0.5444 -0.1011,-0.1554 -0.2964,-0.3083 -0.5894,-0.4561 -0.2709,-0.1367 -0.5529,-0.1902 -0.8476,-0.1537 -0.2921,0.0348 -0.5622,0.1478 -0.811,0.3329 -0.248,0.1886 -0.451,0.4306 -0.6005,0.7244 -0.1588,0.31 -0.1902,0.6506 -0.0976,1.0158 0.0925,0.3668 0.27,0.6896 0.5341,0.9698 l -0.1189,-0.0136 c -0.6454,-0.0823 -1.2034,-0.2437 -1.6773,-0.484 -0.259,-0.1325 -0.4925,-0.2811 -0.7049,-0.4459 -0.2097,-0.1648 -0.4025,-0.3499 -0.5732,-0.5563 -0.3176,-0.383 -0.5164,-0.7431 -0.5945,-1.0862 -0.0798,-0.3405 -0.0407,-0.6683 0.1189,-0.9766 0.1529,-0.2998 0.3898,-0.5045 0.7125,-0.6141 0.3211,-0.1087 0.6327,-0.0874 0.9308,0.0646 0.1673,0.0866 0.3066,0.2089 0.4128,0.3652 0.107,0.1596 0.1732,0.332 0.1987,0.5138 0.0246,0.1843 -0.0034,0.3541 -0.0824,0.5087 -0.0679,0.1342 -0.1656,0.2463 -0.2913,0.3405 -0.1274,0.0926 -0.2607,0.1487 -0.4051,0.1682 -0.1418,0.0195 -0.2683,0.0017 -0.3796,-0.0578 -0.1274,-0.0645 -0.2191,-0.1613 -0.2709,-0.2896 -0.051,-0.1273 -0.0501,-0.2437 9e-4,-0.3414 0.0628,-0.1265 0.1554,-0.2038 0.276,-0.2369 0.1214,-0.0314 0.259,-0.0212 0.4186,0.0382 l 0.0408,-0.2734 c -0.141,-0.0527 -0.2752,-0.0748 -0.4008,-0.0697 -0.1274,0.0077 -0.2378,0.0408 -0.3321,0.1011 -0.0934,0.0611 -0.1715,0.1486 -0.231,0.2666 -0.0985,0.1928 -0.1104,0.3924 -0.0365,0.6047 0.073,0.2115 0.2106,0.3703 0.4102,0.4722 0.1545,0.0773 0.3244,0.1045 0.5104,0.0773 0.1885,-0.0229 0.3626,-0.0943 0.5223,-0.2115 0.163,-0.1163 0.287,-0.2709 0.3821,-0.4543 0.0773,-0.1495 0.1172,-0.3092 0.124,-0.4748 0.0085,-0.1698 -0.0195,-0.3337 -0.0798,-0.4976 -0.0611,-0.1631 -0.1495,-0.3109 -0.2684,-0.445 -0.118,-0.1317 -0.2581,-0.2404 -0.4271,-0.3262 -0.2319,-0.1197 -0.479,-0.1698 -0.7431,-0.1545 -0.2625,0.0178 -0.5071,0.0959 -0.7245,0.2369 -0.2225,0.1393 -0.3949,0.327 -0.5138,0.5605 -0.0875,0.1724 -0.1393,0.3678 -0.1512,0.5928 -0.0144,0.22 0.0085,0.4544 0.0697,0.6981 0.0628,0.242 0.1554,0.4713 0.2794,0.6769 -0.2081,-0.1249 -0.4348,-0.2174 -0.6777,-0.2786 -0.2429,-0.062 -0.4756,-0.0849 -0.6981,-0.0705 -0.2242,0.0119 -0.4204,0.0646 -0.5911,0.1495 -0.2344,0.1214 -0.4221,0.2938 -0.5614,0.5147 -0.1409,0.2191 -0.2191,0.4628 -0.2361,0.7252 -0.0161,0.265 0.0349,0.5121 0.1529,0.7423 0.0866,0.1698 0.1954,0.3108 0.3278,0.428 0.1325,0.1181 0.282,0.2072 0.4442,0.2675 0.1631,0.0612 0.3287,0.0892 0.4977,0.0807 0.1664,-0.0059 0.3252,-0.0476 0.4747,-0.124 0.1843,-0.0943 0.3372,-0.2191 0.4544,-0.3813 0.1172,-0.1597 0.1876,-0.3346 0.2123,-0.5232 0.0254,-0.1859 0,-0.3558 -0.079,-0.5104 -0.1011,-0.1987 -0.259,-0.3371 -0.4722,-0.4093 -0.2115,-0.073 -0.4127,-0.0629 -0.6038,0.0365 -0.1164,0.0595 -0.2056,0.1359 -0.2659,0.231 -0.0611,0.0934 -0.0942,0.2047 -0.101,0.3312 -0.0068,0.1257 0.0153,0.2599 0.0688,0.4009 l 0.2734,-0.0399 c -0.0594,-0.1606 -0.0704,-0.2981 -0.0399,-0.4187 0.0349,-0.1206 0.1113,-0.2132 0.2387,-0.276 0.0976,-0.051 0.2132,-0.0527 0.3405,-0.0017 0.1291,0.0526 0.2251,0.1443 0.2905,0.2709 0.0586,0.1112 0.0773,0.2386 0.0577,0.3805 -0.0204,0.1435 -0.0756,0.276 -0.1681,0.4051 -0.0934,0.1256 -0.2064,0.2233 -0.3406,0.2904 -0.1537,0.079 -0.3236,0.1079 -0.507,0.0815 -0.1834,-0.0238 -0.3558,-0.0908 -0.5147,-0.1987 -0.1562,-0.1053 -0.2793,-0.2446 -0.366,-0.4119 -0.1511,-0.2981 -0.1732,-0.6089 -0.0637,-0.9308 0.1087,-0.3236 0.3134,-0.5597 0.6124,-0.7125 0.3099,-0.1597 0.6369,-0.1979 0.9775,-0.1181 0.3431,0.0773 0.7023,0.276 1.087,0.5945 0.2047,0.1699 0.3907,0.3627 0.5546,0.5733 0.1664,0.2123 0.3142,0.4441 0.4475,0.7032 0.2395,0.4747 0.4009,1.0335 0.4816,1.6781 l 0.0144,0.1189 c -0.2794,-0.2641 -0.603,-0.4425 -0.9698,-0.5333 -0.3644,-0.0943 -0.7049,-0.0612 -1.0149,0.0976 -0.2947,0.1495 -0.5359,0.3516 -0.7236,0.5996 -0.186,0.2497 -0.2981,0.5206 -0.3338,0.8119 -0.0365,0.2939 0.0162,0.5758 0.1529,0.8467 0.1486,0.293 0.3006,0.4892 0.4569,0.5894 -0.2267,0.0408 -0.4085,0.0917 -0.5444,0.1622 -0.2378,0.124 -0.428,0.293 -0.5741,0.5104 -0.1469,0.2175 -0.2301,0.4544 -0.2522,0.7083 -0.0204,0.2557 0.0289,0.4994 0.1478,0.7312 0.1987,0.3924 0.5401,0.6591 1.0242,0.8001 -0.4382,0.5486 -0.5138,1.1023 -0.2276,1.6586 0.1435,0.2836 0.3499,0.5087 0.6199,0.6768 0.2693,0.1656 0.5631,0.2574 0.8748,0.2735 0.3142,0.017 0.6149,-0.0476 0.9002,-0.1945 0.468,-0.2395 0.744,-0.6361 0.8264,-1.1873 0.0509,-0.2836 0.0466,-0.5257 -0.0145,-0.7244 l 0.0883,0.0128 c 0.2625,0.0696 0.4731,0.1002 0.6319,0.0917 0.1605,-0.0034 0.3227,-0.0501 0.4892,-0.1351 0.231,-0.1189 0.4178,-0.2802 0.5545,-0.4849 0.1385,-0.203 0.2098,-0.4272 0.2174,-0.6684 0.0077,-0.2395 -0.0501,-0.4806 -0.1732,-0.7193 -0.0926,-0.1826 -0.1996,-0.3329 -0.321,-0.451 -0.1181,-0.1163 -0.2726,-0.2174 -0.4612,-0.3048 0.2149,0 0.4026,-0.0383 0.552,-0.1164 0.2693,-0.1367 0.4824,-0.3295 0.6421,-0.5758 0.1588,-0.2454 0.2395,-0.5206 0.2488,-0.8246 0.0077,-0.3024 -0.0637,-0.6021 -0.2165,-0.9019 -0.0145,-0.0272 -0.0332,-0.0467 -0.0484,-0.0722 0.0263,0.0144 0.045,0.0331 0.0721,0.0475 0.2998,0.152 0.6005,0.2234 0.9037,0.2174 0.3032,-0.0101 0.5783,-0.0917 0.8246,-0.2488 0.2454,-0.1597 0.4374,-0.3737 0.5741,-0.642 0.079,-0.1495 0.1172,-0.3372 0.1172,-0.5529 0.0875,0.1894 0.1885,0.3439 0.3057,0.462 0.1172,0.1206 0.2684,0.2284 0.4502,0.3202 0.2386,0.124 0.4789,0.1809 0.7193,0.1732 0.2412,-0.0076 0.4645,-0.079 0.6683,-0.2174 0.2047,-0.1376 0.3661,-0.3236 0.485,-0.5554 0.0841,-0.1648 0.1308,-0.3287 0.1359,-0.4875 0.0076,-0.1614 -0.0238,-0.3703 -0.0926,-0.6318 l -0.0119,-0.0892 c 0.1979,0.0611 0.4391,0.0654 0.7227,0.0144 0.552,-0.0815 0.9486,-0.3592 1.1881,-0.8263 0.1461,-0.2862 0.2115,-0.5852 0.1954,-0.9002 -0.0162,-0.3117 -0.1087,-0.6056 -0.2752,-0.8748 z"
     fill="#64471C"
     id="path3"
     style="fill:#e3ae3d;fill-opacity:1" /><path
     d="m 10.1779,65.965783 c -0.1698,0.3363 -0.30825,0.693 -0.41186,1.0735 -0.10361,0.3796 -0.16815,0.7601 -0.18938,1.1423 -0.08323,-0.068 -0.15116,-0.1121 -0.19957,-0.1376 -0.25308,-0.1291 -0.51551,-0.1886 -0.79152,-0.1792 -0.22505,0.0102 -0.43737,0.0815 -0.6412,0.1902 0.10871,-0.2038 0.18005,-0.4153 0.18939,-0.642 0.01019,-0.2752 -0.04925,-0.5385 -0.17834,-0.7898 -0.02547,-0.0501 -0.06965,-0.1164 -0.13844,-0.2005 0.38217,-0.022 0.76264,-0.0866 1.14226,-0.1894 0.37962,-0.1053 0.73887,-0.2428 1.07346,-0.4135 0.1266,-0.0646 0.2404,-0.1368 0.355,-0.209 -0.0722,0.1147 -0.1444,0.2293 -0.2098,0.355 z m 0.5911,1.8693 c 0.316,-0.096 0.6412,-0.0595 0.975,0.1121 0.3839,0.197 0.642,0.4917 0.772,0.8874 0.1299,0.3941 0.1027,0.7737 -0.0833,1.1398 -0.0781,0.1503 -0.1537,0.2513 -0.2276,0.3057 l -0.3643,0.2718 c -0.0034,0.0017 -0.034,0.0339 -0.0934,0.0968 0.3465,-0.0119 0.6403,0.0458 0.8807,0.169 0.2165,0.1095 0.3864,0.2556 0.5104,0.4365 0.1257,0.1783 0.1928,0.3796 0.2072,0.5979 0.0136,0.2182 -0.0323,0.4272 -0.1325,0.6276 -0.1817,0.3533 -0.5707,0.6055 -1.1677,0.7626 0.2734,0.2123 0.4492,0.4714 0.5265,0.7763 0.0748,0.3048 0.0391,0.6029 -0.107,0.8883 -0.0943,0.1868 -0.2165,0.3414 -0.3686,0.4662 -0.1511,0.1223 -0.3201,0.2149 -0.5019,0.2777 -0.1851,0.0612 -0.3762,0.0901 -0.5834,0.079 -0.2038,-0.0059 -0.3907,-0.0552 -0.5631,-0.1418 -0.4433,-0.2285 -0.70063,-0.6319 -0.77281,-1.2153 -0.04841,-0.3023 -0.01784,-0.5588 0.08747,-0.766 0.00765,-0.006 0.01189,-0.0111 0.01868,-0.0187 0.0051,-0.0085 0.01275,-0.0229 0.02294,-0.0416 -0.25139,0.1392 -0.49429,0.214 -0.73208,0.225 -0.23694,0.0136 -0.45691,-0.0314 -0.66073,-0.135 -0.19533,-0.1002 -0.34989,-0.2361 -0.46115,-0.4094 -0.1138,-0.1724 -0.17919,-0.3626 -0.19533,-0.5715 -0.01614,-0.2089 0.02633,-0.4111 0.12739,-0.6089 0.19788,-0.3873 0.55202,-0.6879 1.06243,-0.9054 -0.03482,-0.0059 -0.06454,-0.0084 -0.08493,-0.0144 -0.02038,-0.0042 -0.03397,-0.0059 -0.04246,-0.0076 -0.2293,-0.0349 -0.40765,-0.068 -0.53249,-0.0994 -0.12909,-0.0314 -0.24205,-0.0705 -0.34396,-0.1223 -0.21061,-0.107 -0.37198,-0.2658 -0.48917,-0.4747 -0.11466,-0.2089 -0.16985,-0.4476 -0.16731,-0.7117 0.00255,-0.265 0.06625,-0.5198 0.19109,-0.7635 0.2259,-0.4425 0.52399,-0.7023 0.88748,-0.7745 0.36603,-0.0722 0.76605,0.0025 1.20512,0.2276 -0.05351,0.4866 -0.13843,0.8433 -0.25478,1.0751 -0.10531,0.2005 -0.23185,0.3567 -0.38642,0.4646 -0.15202,0.1078 -0.28451,0.1359 -0.38897,0.0798 -0.06709,-0.034 -0.11209,-0.0968 -0.13587,-0.1894 -0.02548,-0.09 -0.02124,-0.1673 0.01273,-0.2344 0.03057,-0.0577 0.09257,-0.1138 0.18938,-0.1673 l -0.04841,-0.1537 c -0.1741,0.0493 -0.29129,0.1359 -0.35414,0.2582 -0.04501,0.09 -0.06624,0.1741 -0.06114,0.2675 0.00594,0.0926 0.03482,0.1741 0.08408,0.2505 0.0467,0.0773 0.11295,0.1376 0.19363,0.1809 0.1775,0.0892 0.355,0.0892 0.53589,-0.0051 0.1792,-0.0917 0.32867,-0.2522 0.44672,-0.4849 0.07048,-0.1359 0.12822,-0.2701 0.18088,-0.4008 0.03142,0.3065 0.06794,0.5868 0.11041,0.8458 0.07388,0.3847 0.1155,0.6412 0.12654,0.7644 0.00934,0.1248 0.00934,0.2879 -0.0034,0.4891 -0.03058,0.3567 -0.10785,0.6506 -0.22675,0.8858 -0.08832,0.1716 -0.19024,0.2905 -0.30234,0.3508 -0.11126,0.0628 -0.22761,0.0628 -0.34821,0 -0.03482,-0.017 -0.06369,-0.0467 -0.08408,-0.0867 -0.03312,-0.0628 -0.0518,-0.1282 -0.05689,-0.1927 -0.00595,-0.062 0.0017,-0.1155 0.02293,-0.1589 0.03567,-0.0662 0.11295,-0.1104 0.23525,-0.1299 l -0.09088,-0.1936 c -0.15456,0.0229 -0.2709,0.1138 -0.35158,0.2692 -0.0688,0.1376 -0.0807,0.2701 -0.03144,0.4059 0.04841,0.1334 0.14184,0.237 0.28281,0.31 0.17156,0.0867 0.34056,0.085 0.51466,-0.0034 0.17156,-0.0857 0.32102,-0.2505 0.44247,-0.4874 0.07049,-0.1351 0.13503,-0.4145 0.19104,-0.834 0.1393,0.4322 0.2446,0.7575 0.3109,0.9766 0.1112,0.3414 0.2607,0.7075 0.4518,1.0998 0.0926,0.1869 0.2081,0.3746 0.3388,0.5639 l 0.0552,-0.0348 c -0.1911,-0.3745 -0.3235,-0.687 -0.3991,-0.9342 -0.1053,-0.2853 -0.1971,-0.552 -0.2777,-0.7991 -0.0357,-0.1181 -0.0782,-0.2395 -0.1266,-0.3703 -0.107,-0.3312 -0.1732,-0.5716 -0.1919,-0.7261 0.2208,0.355 0.4017,0.6055 0.541,0.7533 0.141,0.1443 0.3201,0.2743 0.5384,0.3881 0.1563,0.0773 0.2981,0.1223 0.4289,0.1308 0.1291,0.0085 0.2471,-0.017 0.3499,-0.0773 0.1028,-0.0603 0.186,-0.152 0.2488,-0.2752 0.0612,-0.1172 0.0765,-0.2378 0.0484,-0.3533 -0.0322,-0.1155 -0.1112,-0.2063 -0.2369,-0.27 -0.1198,-0.0629 -0.2403,-0.079 -0.3584,-0.051 l 0.0552,0.2302 c 0.051,-0.0383 0.1087,-0.0425 0.1716,-0.0094 0.0586,0.0297 0.0959,0.079 0.1138,0.1478 0.0178,0.0713 0.0102,0.1393 -0.0221,0.2038 -0.0578,0.1113 -0.1503,0.1741 -0.282,0.186 -0.1265,0.0136 -0.2794,-0.0238 -0.4535,-0.1138 -0.3117,-0.1588 -0.5817,-0.3898 -0.8068,-0.693 -0.1376,-0.1868 -0.2463,-0.3779 -0.3295,-0.5767 -0.0824,-0.2021 -0.1571,-0.4501 -0.21997,-0.7397 -0.06624,-0.2938 -0.1223,-0.6361 -0.17241,-1.0344 0.13843,0.2624 0.26078,0.4518 0.36688,0.5665 0.1053,0.1155 0.2429,0.2191 0.4136,0.3066 0.2234,0.1129 0.428,0.1444 0.6157,0.1019 0.1877,-0.045 0.3295,-0.1588 0.4263,-0.3474 0.0731,-0.1443 0.0901,-0.287 0.0527,-0.428 -0.0365,-0.1418 -0.1172,-0.2454 -0.242,-0.3083 -0.1045,-0.0543 -0.1911,-0.073 -0.265,-0.0603 -0.0747,0.0119 -0.1512,0.0603 -0.2251,0.1427 l 0.113,0.1733 c 0.0994,-0.0162 0.1766,-0.0119 0.2293,0.0144 0.062,0.0314 0.1121,0.0892 0.1503,0.1681 0.0348,0.0833 0.0408,0.1538 0.0119,0.209 -0.0535,0.1061 -0.1495,0.1698 -0.2871,0.1944 -0.1367,0.0238 -0.2726,0.0017 -0.4051,-0.067 -0.3108,-0.1589 -0.5724,-0.4034 -0.78127,-0.733 -0.12909,-0.2072 -0.18514,-0.4433 -0.169,-0.7066 0.33287,-0.2938 0.65987,-0.4917 0.97577,-0.5893 z m -3.71805,0.687 c -0.24289,0.1257 -0.49682,0.1886 -0.76349,0.1919 -0.26412,0.0034 -0.50276,-0.0526 -0.71083,-0.1673 -0.20892,-0.1172 -0.36774,-0.2777 -0.47389,-0.4883 -0.05266,-0.1019 -0.09172,-0.2148 -0.12399,-0.3439 -0.03058,-0.1249 -0.06371,-0.3024 -0.09853,-0.5325 -0.0017,-0.0085 -0.00424,-0.0238 -0.00848,-0.0425 -0.0051,-0.0212 -0.00849,-0.0501 -0.01358,-0.0858 -0.21741,0.5113 -0.51807,0.8646 -0.90618,1.0633 -0.19788,0.1011 -0.39915,0.1427 -0.60807,0.1266 -0.20892,-0.017 -0.4,-0.0816 -0.5724,-0.1962 -0.1724,-0.1113 -0.30914,-0.2633 -0.40935,-0.4595 -0.10361,-0.2038 -0.14863,-0.4238 -0.13504,-0.6599 0.01189,-0.2386 0.08663,-0.4823 0.22591,-0.7329 -0.02038,0.0085 -0.03312,0.0179 -0.04161,0.023 -0.00764,0.0068 -0.01444,0.0118 -0.01953,0.0195 -0.20722,0.1044 -0.4637,0.135 -0.76604,0.0866 -0.5826,-0.0722 -0.98684901,-0.3295 -1.21360301,-0.7737 -0.086625,-0.1724 -0.136726,-0.3592 -0.14267,-0.563 -0.011041,-0.2064 0.016978,-0.3975 0.078125,-0.5826 0.063695,-0.1826 0.155418,-0.3508 0.278562,-0.5028 0.125691,-0.1503 0.279407,-0.2734 0.46624601,-0.3677 0.2845,-0.1461 0.58259,-0.1818 0.88833,-0.107 0.30488,0.0773 0.56392,0.2531 0.77539,0.5265 0.15711,-0.597 0.41019,-0.9851 0.76264,-1.1677 0.20127,-0.1002 0.41103,-0.1461 0.62844,-0.1334 0.21826,0.0145 0.41954,0.0816 0.59874,0.2073 0.18004,0.1248 0.32526,0.2947 0.43566,0.5104 0.12315,0.2412 0.18089,0.535 0.169,0.8815 0.062,-0.0603 0.09343,-0.0909 0.09598,-0.0943 l 0.27261,-0.3634 c 0.05436,-0.0739 0.15628,-0.1487 0.30575,-0.2268 0.36518,-0.1877 0.74649,-0.214 1.1397,-0.0858 0.39491,0.1317 0.69045,0.389 0.88663,0.772 0.17155,0.3346 0.20978,0.6607 0.11211,0.9775 -0.09682,0.3134 -0.29469,0.6421 -0.58768,0.9733 -0.26413,0.017 -0.50023,-0.0399 -0.70745,-0.1673 -0.33121,-0.209 -0.57581,-0.4697 -0.73293,-0.7814 -0.06963,-0.1324 -0.0917,-0.2683 -0.06707,-0.4059 0.02463,-0.135 0.08746,-0.2327 0.19616,-0.2871 0.05436,-0.028 0.12316,-0.0229 0.20639,0.0111 0.07983,0.039 0.13758,0.09 0.169,0.152 0.02633,0.0527 0.03057,0.1282 0.01358,0.2302 l 0.17411,0.1121 c 0.08153,-0.0739 0.13248,-0.1504 0.14267,-0.2251 0.01189,-0.0747 -0.00679,-0.1614 -0.06115,-0.2658 -0.06284,-0.124 -0.16646,-0.2055 -0.30744,-0.2421 -0.14098,-0.0373 -0.28279,-0.0203 -0.42716,0.0535 -0.19024,0.096 -0.3032,0.2387 -0.34906,0.4255 -0.04246,0.1877 -0.01019,0.3932 0.10276,0.6174 0.08832,0.169 0.19194,0.3066 0.30574,0.4128 0.11465,0.1053 0.30318,0.2284 0.56646,0.3669 -0.39746,-0.0484 -0.73971,-0.1062 -1.0327,-0.1724 -0.2913,-0.0629 -0.53928,-0.1376 -0.73971,-0.2208 -0.19958,-0.0816 -0.39152,-0.192 -0.57835,-0.3279 -0.30234,-0.2259 -0.5342,-0.4959 -0.69302,-0.8085 -0.08917,-0.1732 -0.12652,-0.3261 -0.11294,-0.4526 0.01189,-0.1308 0.07474,-0.2242 0.18599,-0.2837 0.06454,-0.0314 0.13247,-0.0382 0.20296,-0.0204 0.06964,0.0179 0.11805,0.0552 0.14863,0.113 0.03312,0.0637 0.02973,0.1214 -0.01019,0.1724 l 0.231,0.056 c 0.02718,-0.1188 0.01103,-0.2394 -0.05181,-0.3592 -0.06455,-0.1265 -0.15371,-0.2047 -0.27006,-0.2369 -0.1155,-0.0281 -0.23524,-0.0136 -0.35329,0.0484 -0.12314,0.062 -0.21486,0.1452 -0.27346,0.2488 -0.062,0.1036 -0.08664,0.22 -0.079,0.3499 0.0085,0.1308 0.05436,0.2726 0.13249,0.4297 0.11296,0.2166 0.2429,0.3958 0.38812,0.5376 0.14693,0.1401 0.3983,0.3202 0.75159,0.541 -0.15287,-0.0178 -0.39489,-0.0858 -0.72525,-0.1919 -0.12994,-0.0493 -0.25225,-0.0909 -0.37114,-0.1274 -0.24799,-0.0807 -0.5138,-0.1724 -0.79915,-0.2769 -0.24629,-0.0756 -0.55967,-0.2072 -0.93334,-0.4 l -0.03484,0.0561 c 0.18939,0.1308 0.37709,0.2463 0.56478,0.3388 0.39151,0.1894 0.75753,0.3397 1.09894,0.451 0.21826,0.0679 0.54353,0.1715 0.9758,0.3117 -0.41868,0.056 -0.6981,0.1206 -0.83313,0.1902 -0.23779,0.1223 -0.40085,0.2709 -0.48833,0.4442 -0.08832,0.1741 -0.09002,0.3431 -0.00255,0.5138 0.07219,0.1401 0.17581,0.2335 0.31085,0.2836 0.13418,0.0484 0.26752,0.0357 0.40425,-0.0314 0.15626,-0.0815 0.24713,-0.1979 0.27091,-0.3516 l -0.19534,-0.0926 c -0.01953,0.1223 -0.06199,0.2005 -0.12909,0.237 -0.04331,0.0195 -0.0968,0.028 -0.1605,0.0212 -0.06369,-0.0051 -0.12739,-0.0229 -0.19023,-0.056 -0.04162,-0.0213 -0.07134,-0.0501 -0.08833,-0.0833 -0.06115,-0.1206 -0.06115,-0.2378 0,-0.3499 0.06115,-0.1121 0.17919,-0.2123 0.35159,-0.3015 0.23524,-0.1189 0.5291,-0.1961 0.88579,-0.2259 0.20128,-0.0144 0.36434,-0.0144 0.48748,-0.0042 0.12484,0.011 0.38047,0.0526 0.76604,0.1265 0.25818,0.0416 0.54013,0.0782 0.84672,0.1096 -0.13249,0.0526 -0.26498,0.1112 -0.40341,0.1809 -0.23184,0.1197 -0.39152,0.2683 -0.48324,0.4467 -0.09427,0.18 -0.09425,0.3575 -0.00423,0.535 0.04246,0.0816 0.10105,0.1478 0.18003,0.1945 0.07559,0.0501 0.15881,0.0781 0.24968,0.0849 0.09257,0.0043 0.17921,-0.017 0.26838,-0.062 0.12229,-0.062 0.20892,-0.1791 0.25733,-0.3532 l -0.15372,-0.0476 c -0.05351,0.096 -0.1087,0.1571 -0.16645,0.1877 -0.0671,0.0356 -0.14523,0.0382 -0.23525,0.0127 -0.09257,-0.0229 -0.15627,-0.0679 -0.18939,-0.135 -0.0552,-0.1053 -0.02718,-0.237 0.07983,-0.389 0.10786,-0.1562 0.26497,-0.2811 0.46624,-0.3864 0.23016,-0.1163 0.58684,-0.203 1.07432,-0.2548 0.22505,0.4391 0.2998,0.8391 0.22761,1.2051 -0.07303,0.3635 -0.33292,0.6616 -0.77538,0.8858 z m 7.01065,-3.741 c -0.1401,-0.2217 -0.3269,-0.3941 -0.5613,-0.5138 -0.1707,-0.0858 -0.3669,-0.1376 -0.5911,-0.1512 -0.2217,-0.0136 -0.4544,0.0085 -0.6973,0.0705 -0.2446,0.0629 -0.4713,0.1554 -0.6785,0.2794 0.1248,-0.208 0.2157,-0.4339 0.2794,-0.6777 0.0611,-0.2437 0.0841,-0.4764 0.0696,-0.6989 -0.0127,-0.2234 -0.0645,-0.4204 -0.1511,-0.5894 -0.1198,-0.2361 -0.2922,-0.423 -0.513,-0.5614 -0.2183,-0.141 -0.4629,-0.2191 -0.7261,-0.2369 -0.2633,-0.017 -0.51044,0.0348 -0.74144,0.152 -0.16985,0.0875 -0.30998,0.1962 -0.42803,0.3278 -0.1189,0.1325 -0.20721,0.2811 -0.26836,0.4433 -0.06115,0.1656 -0.08832,0.3304 -0.07983,0.4994 0.0068,0.1664 0.04671,0.3236 0.12314,0.4747 0.09682,0.1843 0.22081,0.3363 0.38302,0.4544 0.15881,0.118 0.33375,0.1877 0.5223,0.2131 0.1851,0.0238 0.3558,0 0.5104,-0.0798 0.1996,-0.1019 0.3372,-0.2582 0.4094,-0.473 0.0738,-0.2106 0.0637,-0.4119 -0.0357,-0.6038 -0.0595,-0.1164 -0.1376,-0.2039 -0.231,-0.265 -0.0943,-0.062 -0.2047,-0.0951 -0.3321,-0.1019 -0.1257,-0.0068 -0.2599,0.017 -0.40168,0.0705 l 0.04161,0.2726 c 0.15967,-0.0595 0.29727,-0.0714 0.41787,-0.0391 0.1197,0.0348 0.2131,0.1104 0.276,0.237 0.0518,0.0976 0.0526,0.214 0.0017,0.3413 -0.0518,0.1283 -0.1444,0.226 -0.2709,0.2905 -0.1121,0.0569 -0.2387,0.0773 -0.3797,0.0569 -0.14433,-0.0187 -0.27767,-0.0747 -0.40591,-0.1682 -0.12484,-0.0925 -0.2225,-0.2055 -0.29129,-0.3397 -0.07728,-0.1545 -0.10701,-0.3235 -0.08153,-0.5078 0.02463,-0.1843 0.09171,-0.355 0.19872,-0.513 0.10616,-0.1588 0.24459,-0.2794 0.4119,-0.3669 0.29891,-0.152 0.60981,-0.1715 0.93081,-0.0637 0.3236,0.1096 0.5605,0.3143 0.7134,0.6115 0.1596,0.3109 0.1987,0.637 0.1197,0.9784 -0.079,0.3422 -0.2777,0.7015 -0.5953,1.0853 -0.1716,0.2064 -0.3635,0.3915 -0.5741,0.5572 -0.2115,0.1656 -0.44589,0.3142 -0.70407,0.4467 -0.47389,0.2403 -1.03186,0.4 -1.6773,0.4806 l -0.11889,0.0162 c 0.26412,-0.2794 0.4416,-0.603 0.53332,-0.9707 0.09427,-0.3652 0.06201,-0.7041 -0.0968,-1.0157 -0.14947,-0.293 -0.35245,-0.5342 -0.60044,-0.7236 -0.24883,-0.1869 -0.51888,-0.2981 -0.81103,-0.3329 -0.2947,-0.0366 -0.57582,0.0153 -0.84759,0.152 -0.29384,0.1478 -0.48832,0.3023 -0.59023,0.4586 -0.03992,-0.2276 -0.09087,-0.4085 -0.1622,-0.5444 -0.1223,-0.2386 -0.29215,-0.4297 -0.50956,-0.5758 -0.21741,-0.1461 -0.45437,-0.2293 -0.70915,-0.2514 -0.25393,-0.0221 -0.49765,0.0289 -0.7295,0.1486 -0.39321,0.1971 -0.65905,0.5393 -0.80087,1.0234 -0.55033,-0.4382 -1.10235,-0.5138 -1.65862201,-0.2276 -0.283654,0.1435 -0.508705,0.3508 -0.675161,0.62 -0.167306,0.2692 -0.2598738,0.563 -0.27431126,0.8747 -0.01783454,0.3134 0.04671206,0.614 0.19363526,0.9011 0.238643,0.4662 0.636098,0.7431 1.18726901,0.8263 0.28451,0.0493 0.5257,0.0442 0.72358,-0.0153 l -0.01188,0.0875 c -0.06964,0.2624 -0.10107,0.473 -0.09258,0.6327 0.00425,0.1605 0.05181,0.3219 0.13589,0.4892 0.1189,0.231 0.28025,0.4178 0.48493,0.5537 0.20382,0.1393 0.42717,0.2106 0.66836,0.2174 0.24034,0.0085 0.47983,-0.0501 0.71932,-0.1724 0.18175,-0.0925 0.33292,-0.2004 0.45097,-0.3202 0.11635,-0.1189 0.21657,-0.2726 0.30489,-0.4628 0,0.2174 0.03821,0.4026 0.11634,0.552 0.13758,0.2701 0.32952,0.4832 0.57495,0.6421 0.24629,0.1596 0.52145,0.2411 0.82464,0.2505 0.30233,0.0076 0.60299,-0.0645 0.90363,-0.2183 0.02717,-0.0136 0.04584,-0.0331 0.07132,-0.0467 -0.01359,0.0255 -0.0331,0.0433 -0.04669,0.0714 -0.15372,0.2998 -0.22506,0.6004 -0.21827,0.9036 0.00934,0.304 0.09087,0.5783 0.24883,0.8246 0.16051,0.2463 0.37368,0.4374 0.64375,0.5741 0.14947,0.079 0.33461,0.1172 0.55117,0.1172 -0.18854,0.0875 -0.3431,0.1877 -0.46114,0.3058 -0.1206,0.1172 -0.22931,0.2675 -0.32103,0.4492 -0.12314,0.2395 -0.1809,0.4799 -0.17325,0.7202 0.00764,0.2403 0.07814,0.4637 0.21827,0.6684 0.13588,0.2038 0.32272,0.366 0.55372,0.4857 0.16645,0.0833 0.32951,0.13 0.48833,0.1342 0.16051,0.0085 0.37112,-0.0212 0.63269,-0.0917 l 0.08833,-0.0127 c -0.0603,0.1987 -0.06541,0.4399 -0.0153,0.7244 0.08238,0.5512 0.35924,0.9495 0.82723,1.1881 0.2862,0.1461 0.586,0.2106 0.9002,0.1936 0.3108,-0.0161 0.6055,-0.1078 0.8747,-0.2751 0.2692,-0.1673 0.4765,-0.3915 0.62,-0.6769 0.2862,-0.5537 0.2106,-1.1074 -0.2276,-1.6577 0.4841,-0.1419 0.8255,-0.4068 1.025,-0.8009 0.1172,-0.231 0.1673,-0.4747 0.1461,-0.7287 -0.0212,-0.2547 -0.1044,-0.4917 -0.2514,-0.71 -0.146,-0.2157 -0.3363,-0.3864 -0.5749,-0.5095 -0.135,-0.0714 -0.3168,-0.1232 -0.5435,-0.1622 0.1554,-0.1019 0.3082,-0.2956 0.4569,-0.5894 0.1367,-0.2718 0.1893,-0.5529 0.1528,-0.8459 -0.0356,-0.2947 -0.1469,-0.5639 -0.3337,-0.8144 -0.1886,-0.2472 -0.4298,-0.4493 -0.7236,-0.5988 -0.31,-0.1571 -0.6505,-0.191 -1.0157,-0.0976 -0.3669,0.0917 -0.6905,0.2692 -0.96904,0.5342 l 0.0136,-0.1189 c 0.08238,-0.6455 0.24284,-1.2051 0.48234,-1.6765 0.1334,-0.2599 0.282,-0.4943 0.4467,-0.7057 0.1648,-0.2098 0.3499,-0.4017 0.5555,-0.5724 0.3847,-0.3185 0.7448,-0.5181 1.087,-0.5954 0.3414,-0.0798 0.6675,-0.0399 0.9775,0.1189 0.2981,0.1529 0.5028,0.389 0.6115,0.7117 0.1087,0.3219 0.0883,0.6336 -0.0637,0.9308 -0.0858,0.169 -0.2081,0.3066 -0.3652,0.4145 -0.1588,0.1061 -0.3312,0.1724 -0.5146,0.1978 -0.1835,0.0264 -0.3525,-0.0042 -0.507,-0.0815 -0.1334,-0.0679 -0.2463,-0.1665 -0.3406,-0.2921 -0.0926,-0.1266 -0.1478,-0.2608 -0.1682,-0.4051 -0.0203,-0.1419 -8e-4,-0.2684 0.0569,-0.3797 0.0654,-0.1274 0.1623,-0.2191 0.2914,-0.2717 0.1273,-0.0501 0.2428,-0.0501 0.3405,0.0017 0.1274,0.0637 0.2038,0.1554 0.2378,0.2768 0.0314,0.1198 0.0204,0.2591 -0.0399,0.4179 l 0.2726,0.0416 c 0.0543,-0.1427 0.0773,-0.276 0.0705,-0.4017 -0.006,-0.1274 -0.0399,-0.237 -0.1011,-0.3312 -0.0594,-0.096 -0.1486,-0.1724 -0.2658,-0.2319 -0.1911,-0.1002 -0.3924,-0.1104 -0.6038,-0.0356 -0.2132,0.0713 -0.3712,0.2089 -0.4722,0.4093 -0.079,0.1537 -0.1045,0.3236 -0.079,0.5096 0.0238,0.1893 0.0943,0.3651 0.2123,0.5223 0.1172,0.163 0.2701,0.287 0.4552,0.3838 0.1486,0.0748 0.3075,0.1155 0.4739,0.1223 0.169,0.0085 0.3338,-0.0178 0.4977,-0.079 0.163,-0.062 0.3117,-0.1494 0.445,-0.2692 0.1316,-0.1172 0.2403,-0.259 0.327,-0.4263 0.118,-0.2319 0.169,-0.479 0.1528,-0.7431 -0.017,-0.2633 -0.0959,-0.507 -0.2361,-0.7253 z"
     fill="#64471C"
     id="path4"
     style="fill:#e3ae3d;fill-opacity:1" /><path
     d="m 13.2939,6.7762932 h 48.0735 v -0.8569 H 13.2939 Z"
     fill="#64471C"
     id="path5"
     style="fill:#e3ae3d;fill-opacity:1" /><path
     d="m 14.2833,8.5003832 h 46.093 l 0.468,-0.38726 H 13.8162 Z"
     fill="#64471C"
     id="path6"
     style="fill:#e3ae3d;fill-opacity:1" /><path
     d="m 13.2939,69.162383 h 48.0735 v 0.8578 H 13.2939 Z"
     fill="#64471C"
     id="path7"
     style="fill:#e3ae3d;fill-opacity:1" /><path
     d="m 14.2833,67.438383 h 46.093 l 0.468,0.3873 H 13.8162 Z"
     fill="#64471C"
     id="path8"
     style="fill:#e3ae3d;fill-opacity:1" /><path
     d="m 6.03017,61.959883 v -48.0718 H 5.17328 v 48.0718 z"
     fill="#64471C"
     id="path9"
     style="fill:#e3ae3d;fill-opacity:1" /><path
     d="m 7.75416,60.971283 v -46.0938 l -0.38642,-0.4663 v 47.0272 z"
     fill="#64471C"
     id="path10"
     style="fill:#e3ae3d;fill-opacity:1" /><path
     d="m 68.4163,61.959883 v -48.0718 h 0.8569 v 48.0718 z"
     fill="#64471C"
     id="path11"
     style="fill:#e3ae3d;fill-opacity:1" /><path
     d="m 66.6923,60.971283 v -46.0938 l 0.3873,-0.4663 v 47.0272 z"
     fill="#64471C"
     id="path12"
     style="fill:#e3ae3d;fill-opacity:1" /></svg>
