<svg width="241" height="209" viewBox="0 0 241 209" fill="none" xmlns="http://www.w3.org/2000/svg">
<path d="M93.6283 64.6927C94.2443 64.6899 94.9045 64.7383 95.609 64.8378C96.3281 64.9373 96.8934 65.0814 97.3049 65.2703C97.4371 65.3137 97.5254 65.372 97.5697 65.4451C97.614 65.5036 97.6438 65.6134 97.6592 65.7747L97.9368 68.8315C97.937 68.8755 97.9005 68.905 97.8272 68.92C97.7686 68.9349 97.7245 68.9131 97.6949 68.8546C97.2059 67.7274 96.5419 66.843 95.7031 66.2014C94.8789 65.5598 93.9021 65.2415 92.7728 65.2465C91.7901 65.2509 90.9552 65.504 90.2681 66.0057C89.5957 66.5074 89.0855 67.2063 88.7375 68.1026C88.4041 68.9841 88.24 70.0115 88.2452 71.1848C88.2498 72.1968 88.3787 73.1495 88.632 74.0431C88.8853 74.922 89.2407 75.6977 89.6984 76.3703C90.156 77.0283 90.701 77.5466 91.3334 77.9251C91.9657 78.3036 92.6632 78.4911 93.4259 78.4877C94.3645 78.4835 95.1992 78.1718 95.9297 77.5525C96.675 76.9332 97.3381 75.9769 97.919 74.6836C97.948 74.6248 97.9993 74.6026 98.0727 74.6169C98.1461 74.6313 98.1829 74.6605 98.183 74.7045L97.8664 77.6979C97.8379 77.874 97.8017 77.9915 97.758 78.0504C97.7288 78.0945 97.6484 78.1462 97.5167 78.2055C96.8431 78.4578 96.1619 78.6442 95.4731 78.7646C94.799 78.8849 94.1393 78.9465 93.494 78.9494C92.0713 78.9558 90.853 78.7486 89.8391 78.3277C88.8252 77.8923 87.994 77.324 87.3455 76.6229C86.7116 75.907 86.2388 75.1318 85.9271 74.2972C85.63 73.4478 85.4796 72.6125 85.4759 71.7912C85.4711 70.7058 85.6867 69.7295 86.1228 68.8622C86.5736 67.9949 87.179 67.2515 87.9389 66.6321C88.7135 66.0126 89.584 65.5394 90.5506 65.2124C91.5317 64.8707 92.5577 64.6975 93.6283 64.6927ZM101.005 76.3639L101.288 70.6426L101.728 70.7066L101.445 76.3619C101.419 77.0367 101.531 77.5422 101.782 77.8784C102.033 78.2146 102.386 78.3817 102.84 78.3797C102.884 78.3795 102.906 78.4234 102.907 78.5114C102.907 78.5994 102.885 78.6435 102.841 78.6437C102.607 78.6447 102.357 78.6385 102.093 78.625C101.829 78.6115 101.543 78.6055 101.235 78.6069C100.942 78.6082 100.649 78.6168 100.355 78.6328C100.077 78.6487 99.8128 78.6572 99.5635 78.6583C99.5195 78.6585 99.4973 78.6146 99.4969 78.5266C99.4965 78.4386 99.5183 78.3945 99.5623 78.3943C100.032 78.3922 100.383 78.222 100.616 77.8836C100.849 77.5452 100.979 77.0387 101.005 76.3639ZM111.288 78.342C111.332 78.3418 111.354 78.3857 111.355 78.4737C111.355 78.5617 111.333 78.6058 111.289 78.606C110.981 78.6074 110.629 78.6016 110.233 78.5887C109.837 78.5758 109.449 78.5702 109.067 78.5719C108.671 78.5737 108.312 78.5826 107.989 78.5987C107.681 78.6148 107.381 78.6234 107.087 78.6247C107.058 78.6249 107.043 78.5809 107.043 78.4929C107.042 78.4049 107.057 78.3609 107.086 78.3607C107.497 78.3589 107.768 78.2624 107.899 78.0711C108.03 77.8799 108.072 77.469 108.025 76.8385L107.584 71.5825L108.107 70.3921L105.083 78.1277C105.069 78.1717 105.017 78.194 104.929 78.1944C104.841 78.1948 104.783 78.173 104.753 78.1292L101.69 71.9828C101.364 71.3242 101.069 70.9002 100.804 70.7107C100.554 70.5212 100.253 70.4272 99.9008 70.4287C99.8714 70.4289 99.8566 70.3849 99.8562 70.2969C99.8558 70.2089 99.8703 70.1649 99.8996 70.1647C100.208 70.1634 100.472 70.1695 100.692 70.1832C100.912 70.1822 101.088 70.1814 101.22 70.1809C101.425 70.1799 101.616 70.1791 101.792 70.1783C101.968 70.1628 102.1 70.1549 102.188 70.1545C102.496 70.1532 102.745 70.2107 102.936 70.3272C103.128 70.4437 103.356 70.758 103.623 71.2701L105.843 75.7923L104.904 77.5125L107.558 70.6806C107.616 70.5043 107.703 70.3719 107.82 70.2834C107.952 70.1801 108.084 70.1282 108.216 70.1276C108.304 70.1272 108.48 70.1338 108.744 70.1473C109.008 70.1461 109.264 70.1449 109.514 70.1438C109.822 70.1425 110.078 70.1413 110.284 70.1404C110.489 70.1248 110.701 70.1165 110.921 70.1155C110.951 70.1154 110.966 70.1593 110.966 70.2473C110.966 70.3353 110.952 70.3794 110.923 70.3795C110.483 70.3815 110.146 70.471 109.912 70.6481C109.678 70.8251 109.584 71.2215 109.631 71.8373L110.071 76.8294C110.117 77.2545 110.163 77.577 110.208 77.7968C110.267 78.0165 110.378 78.1627 110.54 78.2353C110.701 78.3079 110.951 78.3435 111.288 78.342ZM116.993 78.8665C116.069 78.8706 115.269 78.6616 114.593 78.2392C113.916 77.8169 113.393 77.2546 113.023 76.5522C112.653 75.8352 112.466 75.066 112.463 74.2447C112.459 73.482 112.603 72.8214 112.894 72.2628C113.185 71.7041 113.571 71.2477 114.054 70.8936C114.536 70.5247 115.063 70.2511 115.634 70.0725C116.205 69.894 116.77 69.8034 117.327 69.8009C118.266 69.7968 119.066 70.0132 119.728 70.4502C120.405 70.8872 120.92 71.4496 121.275 72.1373C121.631 72.8251 121.81 73.5576 121.813 74.335C121.817 75.2296 121.593 76.0226 121.142 76.714C120.705 77.3906 120.121 77.9212 119.389 78.3058C118.657 78.6758 117.859 78.8627 116.993 78.8665ZM117.651 78.4016C118.238 78.399 118.677 78.111 118.968 77.5377C119.258 76.9644 119.401 76.1571 119.397 75.1158C119.392 74.0451 119.249 73.1511 118.967 72.4336C118.7 71.7162 118.352 71.175 117.925 70.8103C117.499 70.4455 117.05 70.2642 116.581 70.2663C116.009 70.2688 115.57 70.5275 115.264 71.0422C114.973 71.5568 114.83 72.3494 114.835 73.4201C114.84 74.4174 114.968 75.2969 115.221 76.0584C115.474 76.8053 115.813 77.3831 116.241 77.7919C116.668 78.2006 117.138 78.4039 117.651 78.4016ZM124.896 78.5452C124.852 78.5454 124.83 78.5015 124.829 78.4135C124.829 78.3255 124.851 78.2814 124.895 78.2812C125.408 78.279 125.737 78.1821 125.883 77.9908C126.029 77.7995 126.101 77.3885 126.098 76.7579L126.076 71.8739C126.074 71.3606 126.035 71.0087 125.961 70.8184C125.887 70.6281 125.725 70.5335 125.476 70.5346C124.992 70.5367 124.589 70.7219 124.268 71.09C123.947 71.4434 123.642 72.0461 123.353 72.8981C123.338 72.9421 123.287 72.9644 123.199 72.9648C123.125 72.9651 123.089 72.9433 123.089 72.8993C123.088 72.6939 123.086 72.3859 123.084 71.9753C123.083 71.5646 123.073 71.1393 123.057 70.6994C123.055 70.2594 123.053 69.9074 123.052 69.6434C123.052 69.5701 123.095 69.5332 123.183 69.5328C123.271 69.5324 123.316 69.5689 123.316 69.6422C123.317 69.8329 123.611 69.9562 124.198 70.0123C124.799 70.0536 125.789 70.0712 127.168 70.065C128.004 70.0613 128.693 70.0509 129.236 70.0338C129.778 70.002 130.181 69.9562 130.445 69.8964C130.709 69.8365 130.84 69.7406 130.84 69.6086C130.84 69.5353 130.883 69.4984 130.971 69.498C131.059 69.4976 131.104 69.5341 131.104 69.6074C131.105 69.8714 131.107 70.2234 131.109 70.6634C131.111 71.1034 131.105 71.5288 131.092 71.9395C131.094 72.3502 131.096 72.6582 131.096 72.8635C131.097 72.9075 131.053 72.9297 130.965 72.9301C130.891 72.9304 130.847 72.9086 130.832 72.8647C130.55 72.0153 130.239 71.4153 129.9 71.0648C129.576 70.6996 129.179 70.518 128.71 70.5201C128.475 70.5212 128.314 70.6172 128.227 70.8083C128.155 70.9993 128.12 71.3514 128.122 71.8648L128.144 76.7487C128.147 77.3794 128.222 77.7897 128.369 77.9797C128.517 78.1697 128.84 78.2636 129.339 78.2614C129.383 78.2612 129.405 78.3051 129.405 78.3931C129.405 78.4811 129.384 78.5252 129.34 78.5254C129.032 78.5268 128.687 78.521 128.306 78.508C127.939 78.495 127.558 78.4894 127.162 78.4911C126.751 78.493 126.348 78.5021 125.952 78.5185C125.57 78.5349 125.218 78.5438 124.896 78.5452ZM132.139 84.563C132.095 84.5632 132.073 84.5193 132.072 84.4313C132.072 84.3433 132.094 84.2992 132.138 84.299C132.651 84.2967 132.981 84.1999 133.127 84.0086C133.287 83.8172 133.366 83.4061 133.363 82.7755L133.314 71.7976C133.311 71.1523 133.192 70.7421 132.957 70.5672C132.736 70.3775 132.369 70.2838 131.855 70.2861C131.826 70.2862 131.811 70.2423 131.811 70.1543C131.81 70.0663 131.825 70.0222 131.854 70.0221C132.074 70.0211 132.367 70.0198 132.734 70.0182C133.101 70.0165 133.475 70.0149 133.856 70.0132C134.252 70.0114 134.589 70.0099 134.868 70.0086C135.073 70.0077 135.206 70.0511 135.265 70.1389C135.324 70.2119 135.354 70.3365 135.354 70.5125L135.409 82.7664C135.411 83.177 135.456 83.4921 135.545 83.7118C135.649 83.9313 135.84 84.0771 136.119 84.1492C136.398 84.2359 136.816 84.2781 137.374 84.2756C137.418 84.2754 137.44 84.3193 137.44 84.4073C137.441 84.4953 137.419 84.5394 137.375 84.5396C136.964 84.5414 136.502 84.5362 135.989 84.5238C135.475 84.5114 134.933 84.5065 134.361 84.509C133.95 84.5109 133.547 84.52 133.151 84.5364C132.77 84.5528 132.432 84.5617 132.139 84.563ZM137.283 78.7759C136.711 78.7785 136.22 78.7367 135.809 78.6505C135.412 78.5643 134.935 78.4271 134.377 78.2389L135.141 76.8495C135.465 77.244 135.811 77.5725 136.179 77.8349C136.562 78.0972 137.068 78.2269 137.699 78.2241C138.388 78.221 138.929 77.9179 139.323 77.3148C139.716 76.7117 139.91 75.7502 139.904 74.4302C139.899 73.2569 139.623 72.3854 139.078 71.8159C138.533 71.2316 137.894 70.9411 137.16 70.9444C136.618 70.9468 136.149 71.0883 135.754 71.3687C135.359 71.6491 134.972 72.0029 134.593 72.4299L134.372 72.1669C135.116 71.2982 135.824 70.6717 136.497 70.2874C137.185 69.903 137.888 69.7092 138.607 69.7059C139.223 69.7032 139.795 69.862 140.325 70.1823C140.854 70.4879 141.282 70.9407 141.607 71.5406C141.947 72.1404 142.119 72.873 142.123 73.7383C142.127 74.6769 141.977 75.4696 141.671 76.1163C141.381 76.763 140.995 77.2854 140.512 77.6835C140.03 78.067 139.503 78.3407 138.932 78.5046C138.376 78.6831 137.826 78.7735 137.283 78.7759ZM147.994 78.7061C147.041 78.7104 146.226 78.516 145.549 78.123C144.888 77.73 144.379 77.2116 144.024 76.5678C143.684 75.9093 143.512 75.2134 143.509 74.4801C143.505 73.6148 143.722 72.8291 144.159 72.1232C144.595 71.4026 145.187 70.8279 145.933 70.3992C146.694 69.9705 147.551 69.754 148.504 69.7498C149.413 69.7457 150.111 69.9406 150.597 70.3344C151.082 70.7136 151.327 71.2405 151.33 71.9152C151.33 72.0765 151.316 72.2232 151.288 72.3554C151.259 72.4875 151.193 72.5538 151.091 72.5542L148.979 72.5637C149.005 71.8742 148.922 71.3099 148.729 70.8708C148.536 70.417 148.191 70.1912 147.692 70.1934C147.105 70.196 146.63 70.5061 146.266 71.1238C145.902 71.7267 145.722 72.5342 145.727 73.5462C145.731 74.3675 145.866 75.0856 146.133 75.7004C146.399 76.3152 146.783 76.7902 147.283 77.1253C147.783 77.4604 148.385 77.6264 149.089 77.6232C149.441 77.6217 149.815 77.5687 150.21 77.4642C150.621 77.3597 150.987 77.2041 151.308 76.9973C151.338 76.9679 151.374 76.9824 151.419 77.0408C151.477 77.0992 151.492 77.1505 151.463 77.1946C150.923 77.7397 150.367 78.1309 149.796 78.3681C149.24 78.5906 148.639 78.7032 147.994 78.7061ZM144.953 72.6256L144.929 72.2077L149.746 72.0762L149.749 72.5602L144.953 72.6256ZM154.372 78.4137C154.328 78.4139 154.306 78.3699 154.305 78.2819C154.305 78.194 154.327 78.1499 154.371 78.1497C154.884 78.1474 155.214 78.0506 155.36 77.8592C155.505 77.6679 155.577 77.2569 155.574 76.6263L155.552 71.7423C155.55 71.229 155.512 70.8772 155.438 70.6868C155.363 70.4965 155.202 70.4019 154.952 70.403C154.468 70.4051 154.066 70.5903 153.745 70.9584C153.424 71.3118 153.118 71.9145 152.829 72.7665C152.814 72.8106 152.763 72.8328 152.675 72.8332C152.602 72.8335 152.565 72.8117 152.565 72.7677C152.564 72.5623 152.562 72.2543 152.561 71.8437C152.559 71.433 152.55 71.0077 152.533 70.5678C152.531 70.1278 152.529 69.7758 152.528 69.5118C152.528 69.4385 152.572 69.4016 152.66 69.4012C152.748 69.4008 152.792 69.4373 152.792 69.5106C152.793 69.7013 153.087 69.8246 153.674 69.8807C154.275 69.922 155.266 69.9396 156.644 69.9334C157.48 69.9297 158.169 69.9193 158.712 69.9022C159.255 69.8704 159.658 69.8246 159.921 69.7648C160.185 69.7049 160.317 69.609 160.316 69.477C160.316 69.4037 160.36 69.3668 160.448 69.3664C160.536 69.366 160.58 69.4025 160.58 69.4758C160.581 69.7398 160.583 70.0918 160.585 70.5318C160.587 70.9718 160.581 71.3972 160.569 71.8079C160.57 72.2186 160.572 72.5266 160.573 72.7319C160.573 72.7759 160.529 72.7981 160.441 72.7985C160.368 72.7988 160.324 72.777 160.309 72.7331C160.026 71.8837 159.716 71.2837 159.377 70.9332C159.052 70.568 158.656 70.3865 158.186 70.3885C157.952 70.3896 157.791 70.4856 157.704 70.6767C157.631 70.8677 157.596 71.2199 157.598 71.7332L157.62 76.6171C157.623 77.2478 157.698 77.6581 157.846 77.8481C157.993 78.0382 158.316 78.132 158.815 78.1298C158.859 78.1296 158.881 78.1735 158.881 78.2615C158.882 78.3495 158.86 78.3936 158.816 78.3938C158.508 78.3952 158.163 78.3894 157.782 78.3764C157.415 78.3634 157.034 78.3578 156.638 78.3595C156.227 78.3614 155.824 78.3705 155.428 78.3869C155.047 78.4033 154.695 78.4122 154.372 78.4137ZM165.1 71.6997L165.122 76.5836C165.125 77.0823 165.207 77.4559 165.369 77.7046C165.546 77.9531 165.884 78.0763 166.383 78.074C166.984 78.0713 167.416 77.9081 167.679 77.5842C167.956 77.2603 168.093 76.7611 168.09 76.0864C168.087 75.4117 167.938 74.8624 167.643 74.4384C167.348 74.0144 166.833 73.804 166.1 73.8073C165.851 73.8084 165.572 73.8463 165.264 73.921C164.971 73.981 164.656 74.0924 164.32 74.2552L164.186 73.8378C164.654 73.6304 165.123 73.4963 165.592 73.4355C166.061 73.3601 166.494 73.3215 166.89 73.3197C169.148 73.3096 170.281 74.0673 170.288 75.5926C170.292 76.4432 169.972 77.1267 169.329 77.6429C168.686 78.1444 167.858 78.3974 166.846 78.402C166.641 78.4029 166.377 78.3967 166.054 78.3835C165.732 78.3703 165.394 78.3571 165.042 78.344C164.705 78.3309 164.404 78.3249 164.14 78.326C163.729 78.3279 163.326 78.337 162.93 78.3534C162.549 78.3698 162.197 78.3787 161.874 78.3802C161.83 78.3804 161.808 78.3365 161.808 78.2485C161.807 78.1605 161.829 78.1164 161.873 78.1162C162.386 78.1139 162.716 78.0171 162.862 77.8257C163.008 77.6344 163.079 77.2234 163.076 76.5928L163.054 71.6648C163.051 71.0195 162.976 70.6092 162.829 70.4338C162.681 70.2438 162.358 70.1499 161.86 70.1521C161.816 70.1523 161.793 70.1084 161.793 70.0204C161.793 69.9324 161.814 69.8883 161.858 69.8881C162.166 69.8868 162.511 69.8926 162.892 69.9055C163.289 69.9184 163.692 69.924 164.103 69.9221C164.543 69.9202 164.975 69.9109 165.4 69.8943C165.826 69.8778 166.207 69.8687 166.544 69.8672C166.574 69.8671 166.589 69.911 166.589 69.999C166.589 70.087 166.575 70.1311 166.546 70.1312C165.915 70.134 165.512 70.2385 165.337 70.4446C165.176 70.6507 165.098 71.069 165.1 71.6997ZM95.1726 105.728C95.1286 105.728 95.1064 105.684 95.106 105.596C95.1056 105.508 95.1274 105.464 95.1714 105.464C95.6847 105.462 96.0143 105.365 96.1601 105.174C96.3206 104.982 96.3994 104.571 96.3966 103.941L96.3476 92.9628C96.3447 92.3175 96.2256 91.9074 95.9901 91.7324C95.7693 91.5427 95.4022 91.449 94.8889 91.4513C94.8595 91.4515 94.8447 91.4075 94.8443 91.3195C94.8439 91.2315 94.8583 91.1875 94.8877 91.1873C95.1077 91.1863 95.401 91.185 95.7677 91.1834C96.1343 91.1818 96.5083 91.1801 96.8897 91.1784C97.2857 91.1766 97.623 91.1751 97.9016 91.1739C98.107 91.173 98.2392 91.2164 98.2982 91.3041C98.3572 91.3772 98.3871 91.5017 98.3879 91.6777L98.4426 103.932C98.4444 104.342 98.4898 104.657 98.5788 104.877C98.6825 105.097 98.8738 105.242 99.1528 105.314C99.4318 105.401 99.85 105.443 100.407 105.441C100.451 105.441 100.474 105.485 100.474 105.573C100.474 105.661 100.453 105.705 100.409 105.705C99.9979 105.707 99.5358 105.701 99.0225 105.689C98.5091 105.677 97.9664 105.672 97.3944 105.674C96.9837 105.676 96.5804 105.685 96.1845 105.702C95.8032 105.718 95.4659 105.727 95.1726 105.728ZM100.317 99.9412C99.7448 99.9437 99.2533 99.9019 98.8422 99.8158C98.4458 99.7295 97.9686 99.5923 97.4104 99.4041L98.1742 98.0147C98.4986 98.4093 98.8448 98.7377 99.2126 99.0001C99.5951 99.2624 100.102 99.3921 100.732 99.3893C101.422 99.3862 101.963 99.0832 102.356 98.4801C102.75 97.877 102.943 96.9154 102.937 95.5954C102.932 94.4221 102.657 93.5507 102.112 92.9811C101.566 92.3969 100.927 92.1064 100.194 92.1097C99.6512 92.1121 99.1825 92.2535 98.7877 92.5339C98.393 92.8144 98.0059 93.1681 97.6265 93.5951L97.4053 93.3321C98.1494 92.4634 98.8579 91.8369 99.5309 91.4526C100.219 91.0682 100.922 90.8744 101.64 90.8712C102.256 90.8684 102.829 91.0272 103.358 91.3475C103.888 91.6532 104.315 92.1059 104.641 92.7058C104.981 93.3056 105.153 94.0382 105.156 94.9035C105.161 95.8422 105.01 96.6349 104.705 97.2816C104.415 97.9282 104.028 98.4506 103.546 98.8488C103.064 99.2322 102.537 99.5059 101.966 99.6698C101.409 99.8483 100.859 99.9388 100.317 99.9412ZM112.875 99.7311C112.816 99.7607 112.743 99.7757 112.655 99.7761C112.391 99.7773 112.126 99.6025 111.861 99.2516C111.595 98.9008 111.461 98.3954 111.458 97.7354L111.441 93.9955C111.439 93.4235 111.4 92.947 111.325 92.566C111.25 92.185 111.131 91.8995 110.969 91.7095C110.807 91.5196 110.586 91.4252 110.308 91.4265C110.088 91.4275 109.89 91.487 109.715 91.6051C109.539 91.7086 109.401 91.8852 109.299 92.135C109.197 92.3701 109.133 92.7004 109.105 93.1259C109.063 93.5514 108.933 93.8673 108.714 94.0736C108.494 94.2653 108.194 94.362 107.813 94.3637C107.446 94.3653 107.182 94.2858 107.02 94.1252C106.858 93.9646 106.776 93.7449 106.775 93.4663C106.773 93.1436 106.926 92.8349 107.233 92.5402C107.539 92.2309 107.919 91.9578 108.373 91.7211C108.841 91.4697 109.324 91.2769 109.823 91.1427C110.321 90.9938 110.768 90.9184 111.164 90.9167C111.809 90.9138 112.36 91.1093 112.816 91.5033C113.273 91.8826 113.503 92.4902 113.506 93.3262L113.524 97.2202C113.526 97.6455 113.6 97.9752 113.748 98.2092C113.91 98.4431 114.131 98.5595 114.41 98.5583C114.615 98.5573 114.827 98.5051 115.047 98.4014C115.106 98.3718 115.15 98.4009 115.179 98.4888C115.224 98.562 115.209 98.6134 115.136 98.643L112.875 99.7311ZM108.255 99.7737C107.8 99.7758 107.433 99.6601 107.153 99.4267C106.874 99.1786 106.733 98.8272 106.731 98.3725C106.728 97.8445 106.925 97.4697 107.32 97.2479C107.729 97.0114 108.359 96.7519 109.208 96.4695L111.669 95.6665L111.758 95.9961L110.243 96.5528C109.847 96.7013 109.562 96.8639 109.387 97.0407C109.226 97.2174 109.147 97.4304 109.148 97.6797C109.149 97.9877 109.238 98.2293 109.415 98.4045C109.592 98.5798 109.812 98.6668 110.076 98.6656C110.193 98.6651 110.347 98.6424 110.538 98.5975C110.743 98.538 110.963 98.4563 111.197 98.3526L112.404 97.6872L112.427 98.0611L110.54 99.1035C110.174 99.2958 109.786 99.4589 109.376 99.5927C108.966 99.7119 108.592 99.7722 108.255 99.7737ZM120.023 99.8532C119.261 99.8566 118.549 99.6838 117.887 99.3347C117.24 98.971 116.717 98.4013 116.317 97.6257C115.933 96.8501 115.737 95.8463 115.732 94.6143C115.724 92.7517 115.922 91.2401 116.328 90.0796C116.733 88.9045 117.316 87.9925 118.075 87.3438C118.835 86.6804 119.735 86.1924 120.775 85.8797C121.258 85.7309 121.698 85.5823 122.093 85.4338C122.488 85.2707 122.839 85.0492 123.146 84.7691C123.467 84.489 123.737 84.0991 123.955 83.5995C123.969 83.5554 124.013 83.5406 124.087 83.5549C124.16 83.5692 124.189 83.5984 124.175 83.6425C124.061 84.435 123.917 85.081 123.744 85.5805C123.584 86.0652 123.374 86.4548 123.111 86.7493C122.863 87.0437 122.549 87.2871 122.168 87.4795C121.788 87.6572 121.326 87.8353 120.784 88.0137C120.155 88.2072 119.562 88.4592 119.006 88.7696C118.45 89.0801 117.953 89.5077 117.516 90.0523C117.093 90.5969 116.758 91.317 116.513 92.2128C116.282 93.0938 116.17 94.2164 116.176 95.5803L115.974 94.7012C116.249 93.8053 116.598 93.1071 117.021 92.6065C117.459 92.1059 117.897 91.752 118.336 91.5447C118.79 91.3226 119.185 91.1889 119.522 91.1434C119.874 91.0831 120.116 91.0527 120.248 91.0521C121.128 91.0482 121.862 91.1769 122.45 91.4383C123.052 91.6849 123.53 92.0201 123.884 92.4439C124.253 92.8676 124.512 93.3284 124.66 93.8264C124.824 94.3097 124.907 94.786 124.909 95.2554C124.913 96.2087 124.682 97.031 124.216 97.7225C123.764 98.3992 123.165 98.9225 122.419 99.2925C121.687 99.6624 120.889 99.8493 120.023 99.8532ZM120.879 99.3874C121.437 99.3849 121.868 99.097 122.173 98.5236C122.479 97.9502 122.629 97.0989 122.624 95.9696C122.62 94.9722 122.491 94.1441 122.239 93.4853C121.987 92.8117 121.662 92.3145 121.264 91.9936C120.867 91.658 120.433 91.4913 119.964 91.4934C119.495 91.4955 119.121 91.6658 118.844 92.0044C118.582 92.3282 118.393 92.7471 118.278 93.2609C118.177 93.7601 118.128 94.2883 118.131 94.8456C118.135 95.7109 118.248 96.4878 118.471 97.1761C118.694 97.8645 119.012 98.4057 119.425 98.7999C119.837 99.194 120.322 99.3899 120.879 99.3874ZM130.816 99.805C129.892 99.8092 129.091 99.6001 128.415 99.1777C127.738 98.7554 127.215 98.1931 126.845 97.4907C126.475 96.7737 126.289 96.0045 126.285 95.1832C126.281 94.4205 126.425 93.7599 126.716 93.2013C127.007 92.6426 127.394 92.1862 127.876 91.8321C128.358 91.4632 128.885 91.1896 129.456 91.011C130.027 90.8325 130.592 90.7419 131.149 90.7394C132.088 90.7353 132.888 90.9517 133.55 91.3887C134.227 91.8257 134.742 92.3881 135.098 93.0758C135.453 93.7636 135.632 94.4961 135.635 95.2735C135.639 96.1681 135.416 96.9611 134.964 97.6525C134.527 98.3291 133.943 98.8597 133.211 99.2443C132.479 99.6143 131.681 99.8012 130.816 99.805ZM131.473 99.3401C132.06 99.3375 132.499 99.0495 132.79 98.4762C133.08 97.9029 133.223 97.0956 133.219 96.0543C133.214 94.9836 133.071 94.0896 132.789 93.3722C132.522 92.6547 132.175 92.1135 131.748 91.7488C131.321 91.384 130.872 91.2027 130.403 91.2048C129.831 91.2073 129.392 91.466 129.087 91.9807C128.796 92.4953 128.652 93.288 128.657 94.3586C128.662 95.3559 128.79 96.2354 129.043 96.9969C129.296 97.7438 129.636 98.3216 130.063 98.7304C130.49 99.1391 130.96 99.3424 131.473 99.3401ZM138.718 99.4837C138.674 99.4839 138.652 99.44 138.651 99.352C138.651 99.264 138.673 99.2199 138.717 99.2197C139.23 99.2175 139.56 99.1207 139.705 98.9293C139.851 98.738 139.923 98.327 139.92 97.6964L139.898 92.8124C139.896 92.2991 139.858 91.9472 139.783 91.7569C139.709 91.5666 139.547 91.472 139.298 91.4731C138.814 91.4752 138.412 91.6604 138.091 92.0285C137.769 92.3819 137.464 92.9846 137.175 93.8366C137.16 93.8806 137.109 93.9029 137.021 93.9033C136.948 93.9036 136.911 93.8818 136.911 93.8378C136.91 93.6324 136.908 93.3244 136.907 92.9138C136.905 92.5031 136.895 92.0778 136.879 91.6379C136.877 91.1979 136.875 90.8459 136.874 90.5819C136.874 90.5086 136.918 90.4717 137.006 90.4713C137.094 90.4709 137.138 90.5074 137.138 90.5807C137.139 90.7714 137.433 90.8947 138.02 90.9508C138.621 90.9921 139.611 91.0097 140.99 91.0035C141.826 90.9998 142.515 90.9894 143.058 90.9723C143.6 90.9405 144.004 90.8947 144.267 90.8349C144.531 90.775 144.663 90.6791 144.662 90.5471C144.662 90.4738 144.706 90.4369 144.794 90.4365C144.882 90.4361 144.926 90.4726 144.926 90.5459C144.927 90.8099 144.929 91.1619 144.931 91.6019C144.933 92.0419 144.927 92.4673 144.914 92.878C144.916 93.2887 144.918 93.5967 144.919 93.802C144.919 93.846 144.875 93.8682 144.787 93.8686C144.714 93.8689 144.669 93.8471 144.655 93.8032C144.372 92.9538 144.061 92.3538 143.723 92.0033C143.398 91.6381 143.001 91.4565 142.532 91.4586C142.297 91.4597 142.137 91.5557 142.049 91.7468C141.977 91.9378 141.942 92.2899 141.944 92.8033L141.966 97.6872C141.969 98.3179 142.044 98.7282 142.191 98.9182C142.339 99.1082 142.662 99.2021 143.161 99.1999C143.205 99.1997 143.227 99.2436 143.227 99.3316C143.228 99.4196 143.206 99.4637 143.162 99.4639C142.854 99.4653 142.509 99.4595 142.128 99.4465C141.761 99.4335 141.38 99.4279 140.984 99.4296C140.573 99.4315 140.17 99.4406 139.774 99.457C139.392 99.4734 139.041 99.4823 138.718 99.4837ZM155.482 99.4089C155.438 99.4091 155.416 99.3652 155.415 99.2772C155.415 99.1892 155.437 99.1451 155.481 99.1449C155.994 99.1426 156.324 99.0458 156.47 98.8545C156.615 98.6632 156.687 98.2522 156.684 97.6215L156.662 92.6936C156.659 92.0482 156.584 91.6379 156.437 91.4626C156.289 91.2726 155.966 91.1787 155.467 91.1809C155.423 91.1811 155.401 91.1372 155.401 91.0492C155.4 90.9612 155.422 90.9171 155.466 90.9169C155.774 90.9155 156.119 90.9213 156.5 90.9343C156.896 90.9472 157.3 90.9527 157.71 90.9509C158.106 90.9491 158.495 90.94 158.876 90.9237C159.257 90.9073 159.595 90.8985 159.888 90.8972C159.917 90.897 159.932 90.941 159.933 91.029C159.933 91.117 159.919 91.161 159.889 91.1612C159.391 91.1634 159.068 91.2675 158.923 91.4735C158.777 91.6795 158.705 92.0978 158.708 92.7284L158.73 97.6124C158.733 98.2431 158.808 98.6534 158.956 98.8434C159.103 99.0334 159.426 99.1273 159.925 99.1251C159.954 99.1249 159.969 99.1689 159.969 99.2569C159.97 99.3449 159.955 99.3889 159.926 99.3891C159.618 99.3904 159.273 99.3846 158.892 99.3717C158.525 99.3587 158.144 99.353 157.748 99.3548C157.337 99.3566 156.934 99.3658 156.538 99.3822C156.157 99.3986 155.805 99.4075 155.482 99.4089ZM149.446 92.7698L149.468 97.6537C149.47 98.1524 149.553 98.526 149.715 98.7746C149.892 99.0232 150.23 99.1464 150.729 99.1441C151.33 99.1414 151.762 98.9782 152.025 98.6543C152.302 98.3304 152.439 97.8311 152.436 97.1565C152.433 96.4818 152.284 95.9325 151.989 95.5085C151.693 95.0844 151.179 94.8741 150.446 94.8773C150.196 94.8785 149.918 94.9164 149.61 94.9911C149.317 95.0511 149.002 95.1625 148.666 95.3253L148.532 94.9079C149 94.7005 149.469 94.5664 149.938 94.5056C150.407 94.4302 150.84 94.3916 151.236 94.3898C153.494 94.3797 154.627 95.1373 154.634 96.6627C154.638 97.5133 154.318 98.1968 153.675 98.713C153.032 99.2145 152.204 99.4675 151.192 99.4721C150.987 99.473 150.723 99.4668 150.4 99.4536C150.077 99.4404 149.74 99.4272 149.388 99.4141C149.051 99.401 148.75 99.395 148.486 99.3961C148.075 99.398 147.672 99.4071 147.276 99.4235C146.895 99.4399 146.543 99.4488 146.22 99.4503C146.176 99.4505 146.154 99.4065 146.154 99.3186C146.153 99.2306 146.175 99.1865 146.219 99.1863C146.732 99.184 147.062 99.0872 147.208 98.8958C147.353 98.7045 147.425 98.2935 147.422 97.6629L147.4 92.7349C147.397 92.0896 147.322 91.6793 147.175 91.5039C147.027 91.3139 146.704 91.22 146.205 91.2222C146.161 91.2224 146.139 91.1785 146.139 91.0905C146.138 91.0025 146.16 90.9584 146.204 90.9582C146.512 90.9569 146.857 90.9627 147.238 90.9756C147.634 90.9885 148.038 90.9941 148.448 90.9922C148.888 90.9903 149.321 90.981 149.746 90.9644C150.172 90.9479 150.553 90.9388 150.89 90.9373C150.92 90.9372 150.934 90.9811 150.935 91.0691C150.935 91.1571 150.921 91.2012 150.891 91.2013C150.261 91.2041 149.858 91.3086 149.683 91.5147C149.522 91.7208 149.444 92.1391 149.446 92.7698Z" fill="#C89B3A"/>
<path d="M105.536 125.123L105.551 124.974L105.364 125.032L105.536 125.123ZM35.8789 163.505C35.8 163.474 35.7177 163.413 35.6422 163.418C35.3695 163.44 35.318 163.544 35.5136 163.659C35.577 163.697 35.6902 163.681 35.7692 163.656C35.8172 163.639 35.8429 163.558 35.8789 163.505ZM35.2906 166.491C34.589 166.178 33.9989 166.191 33.498 166.91C34.2339 167.28 34.7468 166.912 35.2906 166.491ZM212.013 51.33C208.759 50.7667 204.999 52.3367 204.033 54.1909C206.747 53.2184 209.38 52.2733 212.013 51.33ZM43.9119 117.643C43.0474 113.635 41.6665 109.812 39.7728 106.172C39.8191 110.469 41.4864 114.191 43.9119 117.643ZM175.761 52.1004C173.949 52.4942 172.472 51.1056 170.905 52.3041C172.963 54.0385 175.498 53.268 177.925 53.8039C175.872 55.1942 173.91 54.5727 171.79 54.4648C172.737 57.1271 175.056 56.1923 176.864 56.7111C175.924 57.7178 174.967 57.3976 174.04 57.2504C173.63 57.1853 173.244 57.2572 173.066 57.6613C172.891 58.0585 173.133 58.4215 173.344 58.7416C173.932 59.6319 174.877 59.5121 175.725 59.435C179.348 59.108 182.735 57.9061 186.075 56.5467C186.916 56.2026 187.29 55.6068 187.013 54.6994C186.197 52.0148 186.308 49.1333 185.235 46.1029C180.279 49.8336 174.934 50.5852 168.771 48.3321C170.632 51.0937 173.333 50.9481 175.761 52.1004ZM59.7463 157.379C59.6589 156.78 59.2283 156.713 58.9247 156.564C52.7391 153.505 49.5297 148.543 48.6566 141.7C47.9087 135.836 47.2363 129.943 45.9412 124.154C45.3923 121.697 43.8296 120.524 40.8466 120.495C40.9615 121.651 41.7695 122.387 42.4007 123.188C43.562 124.659 44.5072 126.253 44.9206 128.071C45.7988 131.92 45.7216 135.617 42.6786 138.65C41.8415 139.484 40.7848 140.006 39.7368 140.52C38.7847 140.986 38.6784 141.669 39.3817 142.359C40.5944 143.545 41.0421 145.18 41.8844 146.584C45.0612 144.487 45.4986 144.501 47.8212 147.524C49.2947 149.44 50.444 151.608 51.9158 153.525C53.8507 156.049 56.5026 157.292 59.7463 157.379ZM77.8244 122.416C76.6974 121.327 75.8243 119.653 75.0987 117.253C75.0147 116.975 74.9615 116.686 74.85 116.421C74.368 115.273 73.6819 114.724 72.3593 115.349C69.1791 116.852 66.2098 118.669 63.4978 120.911C62.5441 121.701 62.3846 122.594 62.7842 123.755C63.5733 126.046 64.1565 128.412 65.0193 130.674C65.6283 132.271 65.8564 134.062 67.287 135.807C71.4982 130.376 77.2326 129.429 84.0717 130.349C81.5279 127.821 78.7027 128.91 75.8569 128.366C77.7352 127.173 79.5192 128.099 81.1797 127.253C79.4128 125.532 77.0405 126.572 74.8569 125.729C76.5293 125.01 78.1795 125.745 79.2482 124.414C78.1298 123.151 76.6065 123.822 75.26 123.377C76.0182 122.808 77.0216 123.26 77.8244 122.416ZM86.5641 129.426C87.089 128.142 86.4852 127.018 85.9569 125.906C85.4149 124.765 84.8111 123.654 84.2296 122.533C82.341 118.886 83.2398 115.595 85.4577 112.435C86.2314 111.332 87.1182 111.31 88.2469 111.786C90.0583 112.548 91.0103 114.096 91.784 115.703C92.724 115.482 93.0739 114.837 93.465 114.325C94.8716 112.488 96.7842 111.329 98.774 110.303C101.038 109.136 101.553 109.44 101.525 111.916C101.498 114.31 101.318 116.7 101.188 119.484C106.716 114.828 111.673 109.879 118.269 106.922C117.278 105.908 116.358 106.145 115.536 106.136C107.128 106.047 98.8049 106.913 90.5935 108.678C86.2125 109.622 81.9979 111.194 77.7884 112.722C76.7369 113.106 75.3372 113.527 76.1743 115.166C78.8365 120.377 82.1626 125.135 86.1576 129.421C86.2022 129.468 86.3446 129.426 86.5641 129.426ZM42.9959 93.8962L42.9479 93.8551C41.8432 95.7915 41.0164 97.8563 40.2496 99.9416C40.0301 100.534 39.826 101.744 40.5172 101.649C42.128 101.426 41.718 102.202 41.4984 103.011C41.284 103.799 41.3766 104.545 41.6974 105.275C43.291 108.91 44.6547 112.633 45.7182 116.453C46.1144 117.878 46.9069 117.551 48.0494 117.105C47.5125 118.669 46.4163 120.007 47.4507 121.541C49.1592 120.887 49.2501 118.578 51.1747 118.4L51.1267 118.357C50.3376 119.698 49.5297 121.028 48.7629 122.379C48.1386 123.478 47.9928 124.622 48.449 126.084C49.7287 124.346 50.7287 122.796 51.9261 121.418C53.1319 120.028 54.5334 118.807 55.8491 117.513C55.9932 117.665 56.1372 117.818 56.2813 117.97C54.5214 119.773 52.7529 121.607 51.4818 123.752C50.2639 125.803 48.7767 127.887 49.1506 131.167C50.2587 129.347 50.9826 127.991 51.866 126.748C54.2195 123.428 56.6947 120.215 60.5011 118.381L60.4599 118.34C59.5251 119.324 58.6228 120.343 57.6485 121.288C54.6089 124.24 52.3051 127.691 50.6052 131.554C49.8316 133.316 49.8539 133.346 50.5332 135.298C54.4682 125.503 61.6229 118.898 70.68 114.149C82.6206 107.887 95.4445 105.003 108.843 104.4C123.899 103.722 138.733 106.29 153.655 107.53C161.427 108.175 169.186 108.797 176.967 107.785C184.864 106.759 192.391 104.552 199.369 100.649C201.383 99.5221 203.083 98.0138 205.169 95.9798C202.416 96.7263 201.165 99 198.3 99.2551C201.644 96.199 205.646 94.3499 206.55 89.9258C202.862 93.0008 199.602 96.5996 194.793 97.9624C196.712 96.2246 199.196 95.2761 200.997 93.3654C202.755 91.5044 204.795 89.8625 205.824 86.7738C203.45 88.688 201.779 90.6209 199.343 91.5438C201.448 89.1862 204.227 87.3405 204.99 83.704C203.459 84.0978 203.023 85.3083 201.975 85.6421L202.014 85.6867C202.066 84.2964 203.419 83.663 203.868 82.5039C204.162 81.7437 204.899 80.7472 203.824 80.3038C203.016 79.97 202.975 79.7029 203.275 79.143C203.977 77.8281 203.527 76.5594 203.347 75.2172C202.791 71.0927 201.834 67.0214 201.64 62.8113C200.611 62.9055 199.963 63.7427 199.067 64.0577L199.112 64.1091C199.349 62.2001 201.705 61.2293 201.452 58.8803C199.656 59.6867 198.623 61.4776 196.698 61.7018L196.745 61.7498C197.621 60.464 198.86 59.5206 199.909 58.3992C200.584 57.6784 201.453 56.973 201.119 55.7335C199.657 55.8293 199.102 57.0038 198.194 57.6664C196.28 59.0686 194.652 60.9828 192.026 61.1129L192.067 61.1557C193.353 59.6542 195.245 58.9539 196.693 57.663C198.546 56.0091 200.27 54.2662 201.419 51.7768C200.095 51.8196 199.717 52.6962 199.108 53.2458C198.4 53.8827 197.844 54.7713 196.707 54.7096L196.746 54.7559C196.702 53.5026 197.679 52.9068 198.441 52.1997C199.609 51.1194 200.537 49.9209 200.779 48.2995C200.819 48.2499 200.856 48.2002 200.896 48.1523C200.87 48.2139 200.846 48.2773 200.82 48.3406C199.259 49.7976 197.806 51.3984 196.117 52.6876C186.218 60.238 174.694 62.724 162.583 62.6247C152.161 62.5391 141.836 60.8081 131.469 59.8014C116.775 58.3718 102.119 58.0105 87.5093 60.6438C73.2187 63.2188 59.9779 68.3756 48.0511 76.6998C44.5312 79.1567 41.296 81.9731 38.7727 85.5C37.3953 87.4262 36.1242 89.4036 36.1174 92.5693C37.7144 89.6108 39.1312 87.284 40.9512 85.2672C43.5483 82.3874 46.1933 79.5265 49.9568 78.0866L49.9191 78.0438C49.4319 79.6857 47.8572 80.2935 46.7182 81.278C43.0577 84.4385 40.0387 88.0682 38.0248 92.4803C37.596 93.4219 36.9665 94.3516 37.3336 95.5843C38.3079 95.0056 38.5497 94.0434 39.0283 93.2285C40.8432 90.133 42.6803 87.0409 45.8743 85.0943L45.8348 85.0515C45.8194 85.7825 45.4386 86.3424 44.9343 86.8149C42.2515 89.3334 40.7608 92.5881 39.3285 95.8754C38.9048 96.8478 38.4794 97.8443 39.1415 99.1643C39.9272 97.7878 40.6751 96.5705 41.3235 95.3052C41.7008 94.5707 42.0937 93.9612 42.9959 93.8962ZM50.5383 157.473C52.7271 157.872 54.5746 159.548 56.9658 159.184C57.9504 160.019 59.0019 159.843 60.074 159.225C59.0259 159.225 57.9795 159.225 56.9332 159.225C52.6414 156.893 49.269 153.679 47.1488 149.212C46.8297 148.543 46.1865 147.993 45.6084 147.485C44.3219 146.353 43.7078 146.62 43.3184 148.36C43.164 149.048 43.2687 149.707 43.3476 150.382C43.4351 151.121 43.2532 151.786 42.4299 151.969C41.555 152.162 41.212 151.525 41.0147 150.839C40.5584 149.252 40.1227 147.658 39.7076 146.059C39.4349 145.006 39.0438 144.023 38.2478 143.251C36.8172 141.864 36.2632 141.907 34.872 143.468C34.6182 143.754 34.3866 144.095 33.92 144.044C33.5118 143.64 33.474 143.063 33.7931 142.73C35.3146 141.145 34.5444 140.226 32.9714 139.431C32.6369 139.263 32.3625 138.947 32.1035 138.659C29.9524 136.26 31.0382 132.901 34.1807 132.211C35.9767 131.817 36.1191 131.478 35.0882 130.045C31.7295 125.38 25.4633 124.479 20.9022 128.006C17.8077 130.4 16.926 133.706 18.4973 137.336C19.2297 136.747 19.5042 135.899 19.909 135.165C20.53 134.038 21.3722 133.112 22.3157 132.258C22.7908 131.826 23.2419 131.689 23.8783 132.023C28.0484 134.206 29.961 138.526 28.7053 143.011C27.7859 146.293 28.6642 148.682 31.4636 150.524C31.8513 150.779 32.359 150.911 32.4894 151.544C31.8513 152.424 31.1377 152.688 30.0639 152.048C26.9231 150.178 25.2335 145.184 26.6641 141.804C27.7773 139.171 27.3948 137.158 25.4016 135.173C23.6262 133.406 22.7033 133.548 21.3345 135.719C20.6346 136.829 20.4648 138.077 20.1972 139.308C20.0394 140.034 20.1629 140.986 19.0908 141.094C18.0599 141.198 17.9209 140.26 17.5435 139.613C17.312 139.217 17.2519 138.662 16.6893 138.577C15.974 138.681 16.396 139.69 15.6807 139.77C13.3598 131.172 19.9399 125.245 25.5525 124.284C30.8152 123.382 35.9973 126.493 37.4879 131.437C38.2461 133.956 37.5325 134.766 34.9509 134.235C34.131 134.065 33.3882 134.007 32.8393 134.737C32.2887 135.468 32.534 136.224 32.9268 136.926C33.8737 138.618 35.3849 139.495 37.2701 139.327C39.2547 139.149 41.0902 138.488 41.8912 136.349C42.67 134.28 42.4436 132.134 42.3904 130.001L42.3475 130.044C43.2567 131.174 42.5276 132.677 43.2035 133.905C44.5397 128.744 42.7644 123.481 38.4108 121.319C33.8943 119.074 29.0227 118.148 24.0224 119.925C14.0682 123.468 10.1246 133.935 15.2124 143.821C18.3 149.819 23.326 153.868 29.3452 156.79C34.7331 159.406 40.4092 161.055 46.3186 161.829C48.684 162.139 51.1404 162.565 53.487 161.522L53.4424 161.565C55.048 161.3 56.7651 161.743 58.959 160.846C57.139 160.324 55.9434 160.05 54.801 159.634C53.3035 159.09 51.5796 158.939 50.5795 157.432L50.5383 157.473ZM80.9069 141.047L80.9549 141.087C81.3203 139.883 81.6445 138.664 82.0631 137.479C82.5537 136.093 82.5571 134.793 81.6497 133.331C80.6856 135.23 80.7543 137.365 79.1916 138.728L79.2327 138.769C79.219 137.873 79.49 137.057 79.912 136.278C80.394 135.386 80.4438 134.43 80.3083 133.451C80.2294 132.869 80.1522 132.136 79.5158 132.033C78.5638 131.881 78.7507 132.961 78.0972 133.697C77.5294 131.136 75.9598 131.944 74.4812 132.487C72.1466 133.345 70.2048 134.735 68.7811 136.8C67.2784 138.979 66.3556 138.943 65.2458 136.608C64.8735 135.826 64.6042 134.988 64.3332 134.161C63.3983 131.311 62.5115 128.445 61.5509 125.603C61.0346 124.079 60.4325 123.902 59.2866 124.995C58.3089 125.926 57.4152 126.965 56.609 128.047C54.6998 130.609 54.7186 130.963 56.3945 133.629C55.6947 134.249 55.0308 132.901 54.3413 133.56C54.4356 134.346 54.5248 135.101 54.6157 135.858L54.662 135.815C54.0943 135.882 53.8232 134.957 53.017 135.428C53.8987 139.429 56.5952 142.063 59.9042 144.254C56.5626 143.53 54.8336 140.727 52.1439 138.335C52.324 140.387 53.1457 141.558 53.8301 142.807C54.8061 144.597 56.6536 145.689 57.5181 147.548L57.5593 147.502C55.0326 146.78 53.9467 144.331 51.9741 142.888C52.734 145.305 54.0943 147.346 55.7856 149.166C56.3122 149.733 56.964 150.164 56.9435 151.044L56.9846 150.998C54.6981 150.491 53.8147 148.36 52.2931 146.966L52.1902 146.821L52.336 146.923C52.8678 150.836 55.7341 152.969 58.7789 154.648C68.7982 160.175 80.816 155.982 86.5075 148.526C89.1406 145.079 89.705 142.352 88.7101 138.818C88.2538 140.354 87.9056 141.751 87.4201 143.099C86.9038 144.523 86.6602 146.155 85.0375 146.905L85.0752 146.942C85.0478 146.233 85.4372 145.656 85.6516 145.021C86.4801 142.559 87.5882 140.152 87.4287 137.464C87.3704 136.483 87.4613 135.37 86.2056 134.86C85.2708 136.248 85.9603 137.68 85.5778 138.95C85.2039 140.202 84.962 141.534 83.7149 142.477C84.6104 139.452 85.8643 136.459 83.2655 133.016C83.3273 136.303 83.5383 139.178 80.9069 141.047ZM196.717 38.4087C198.117 38.3471 198.721 39.9804 200.273 40.3537C199.489 37.0527 197.134 35.2362 194.954 32.5551C198.295 33.8973 199.928 36.1299 201.699 38.2546C201.004 35.3937 199.968 32.716 197.559 30.8532C190.96 25.7512 183.668 25.2324 176.073 28.0248C171.776 29.6034 168.162 32.1784 166.302 36.635C165.486 38.5902 165.438 39.3692 166.246 41.8158C166.633 38.8008 167.242 36.0751 169.824 34.3373L169.784 34.298C169.675 35.7207 168.695 36.7685 168.174 38.0149C167.174 40.4033 167.242 42.3551 168.508 44.1357C168.906 41.4785 169.716 39.0884 171.678 37.2753C170.426 39.787 169.316 42.2695 170.119 45.6629C171.062 43.3926 171.568 41.3244 173.877 39.8743C172.929 41.9185 171.865 43.3687 171.646 45.1304C171.558 45.8358 171.38 46.5395 172.411 47.0394C175.824 48.6984 181.397 47.5976 183.574 44.7332C184.164 43.9576 184.241 42.3842 185.723 42.7917C187.106 43.1701 186.912 44.6425 187.226 45.7143C187.362 46.1714 187.312 46.6799 187.393 47.1576C187.734 49.1658 188.013 51.1895 188.471 53.1721C188.851 54.8175 189.291 55.0332 190.667 54.2234C192.671 53.0437 194.695 51.8658 196.354 50.1811C199.093 47.3955 199.153 46.9007 197.107 43.3944C197.043 43.2848 197.18 43.0571 197.225 42.8824C198.093 42.7027 198.098 44.2076 199.16 43.8053C199.141 41.648 197.306 40.2766 196.76 38.3625L196.717 38.4087ZM58.1854 169.16C57.645 169.17 57.3225 169.98 56.657 169.58C57.2248 167.304 59.4324 166.15 60.4308 164.156C55.4511 166.535 50.7905 169.289 46.8572 173.132C44.7319 175.211 43.3767 177.789 42.0902 180.407C41.7523 181.092 41.4676 181.931 42.1177 182.586C42.7901 183.266 43.6323 182.862 44.2979 182.55C45.346 182.061 46.3169 181.4 47.31 180.794C47.8521 180.462 48.2878 179.549 49.0065 180.082C49.7373 180.621 49.4165 181.506 49.1163 182.232C48.8195 182.949 48.4525 183.638 48.118 184.338C47.2757 186.107 46.7148 187.962 46.4729 189.901C46.3958 190.525 46.2225 191.375 47.0973 191.602C47.7303 191.768 48.1317 191.203 48.4713 190.717C48.8796 190.128 48.9619 188.967 49.9911 189.332C50.9037 189.656 50.4594 190.671 50.4886 191.405C50.4989 191.697 50.4766 191.989 50.4423 192.279C49.6584 198.901 53.4064 202.791 58.6125 205.811C59.4942 206.323 60.0482 206.138 60.3724 205.159C60.7996 203.868 61.2661 202.591 61.719 201.31C63.6402 195.872 63.5681 190.64 60.1066 185.761C59.7069 185.197 59.3467 184.607 59.405 183.889C59.4822 182.961 60.0517 182.682 60.8064 183.136C61.2833 183.422 61.5886 183.982 62.0037 184.386C63.0896 185.44 64.3898 186.052 65.913 186.112C67.6524 186.18 68.203 185.625 68.1396 183.893C68.0641 181.855 66.9783 180.195 65.9748 178.546C64.0896 175.449 63.0947 172.216 63.8838 168.573C63.9713 168.174 64.2097 167.63 63.6436 167.354C63.1273 167.364 63.1393 168.258 62.4943 167.948C62.4669 166.551 64.0845 165.741 64.0021 164.043C60.8064 167.155 58.8424 170.699 57.2505 174.478C55.669 178.236 55.1749 182.271 54.2864 186.211C54.2504 181.813 54.5934 177.505 56.4992 173.435C57.1459 172.052 58.1305 170.758 58.1373 169.119C58.2523 169.008 58.3741 168.902 58.4718 168.778C58.4958 168.748 58.4392 168.655 58.4187 168.592C58.3398 168.78 58.2626 168.97 58.1854 169.16ZM107.822 122.38C109.581 122.454 111.191 121.466 113.514 121.466C111.61 122.618 109.787 122.663 108.577 123.968C110.919 123.613 113.238 123.605 115.559 123.567C118.025 123.526 120.353 124.308 122.753 124.652C124.683 124.928 126.635 124.947 128.578 124.77C129.465 124.69 130.379 124.514 130.601 123.444C130.784 122.557 130.686 121.689 129.935 121.045C129.643 120.793 129.276 120.625 128.988 120.369C128.619 120.04 128.295 119.644 128.613 119.11C128.901 118.624 129.366 118.573 129.88 118.667C131.079 118.886 131.97 119.631 132.91 120.333C134.558 121.565 136.273 122.692 138.503 122.382C140.213 122.144 140.44 121.81 139.845 120.185C139.682 119.742 139.28 119.328 139.69 118.877C140.087 118.441 140.639 118.621 141.042 118.848C142.865 119.881 144.824 119.569 146.754 119.475C148.011 119.415 148.192 118.806 147.576 117.742C144.131 111.782 137.954 109.055 131.126 110.49C129.415 110.849 127.691 111.161 125.962 111.418C125.425 111.498 124.686 111.524 124.532 110.789C124.388 110.105 125.017 109.848 125.506 109.521C126.479 108.868 128.022 109.098 128.666 107.538C126.791 106.865 125.081 107.067 123.379 107.423C115.818 109.007 109.965 113.382 104.876 118.907C103.289 120.629 101.857 122.439 99.6454 123.44C98.6471 123.892 98.081 124.875 97.4721 125.753C96.5887 127.029 95.7258 128.318 94.8596 129.605C94.1237 130.699 93.3312 131.768 92.9178 133.187C94.0379 133.15 94.4977 132.446 94.9282 131.895C97.8838 128.101 101.558 125.12 105.394 122.267C110.546 118.437 116.097 115.583 122.497 114.563C124.645 114.221 126.798 114.027 129.115 114.684C128.762 114.988 128.638 115.186 128.494 115.202C127.818 115.272 127.136 115.351 126.458 115.32C119.456 115.017 113.867 118.562 108.227 121.969C108.073 122.064 107.987 122.271 107.869 122.425L107.708 122.574L107.822 122.38ZM23.6553 178.435L23.6982 178.481C23.7102 177.587 24.3157 177.123 24.9624 176.649C28.5698 173.995 32.2458 171.456 36.2803 169.468C37.325 168.953 38.4743 168.557 39.2479 167.564C36.4416 168.068 33.637 168.272 30.925 169.073C29.0861 169.617 27.273 170.141 25.2283 169.946C23.3106 169.764 21.3619 170.439 19.7426 171.62C18.4287 172.581 18.6088 173.553 20.0634 174.202C20.7976 174.531 21.8834 173.954 22.3397 175.045C21.7822 176.212 20.6878 176.426 19.65 176.56C17.6893 176.813 16.245 177.888 14.8985 179.202C12.0218 182.003 11.0904 185.685 10.3082 189.411C10.0252 190.757 11.1058 190.769 11.9978 190.702C18.1182 190.245 23.3998 188.241 26.7155 182.657C27.1118 181.991 27.5475 181.34 28.0278 180.734C28.328 180.356 28.7705 179.993 29.2886 180.279C29.8546 180.59 29.563 181.105 29.4258 181.554C29.0621 182.751 28.3588 183.872 28.5921 185.201C28.8632 186.74 29.6728 187.154 31.0725 186.433C32.0348 185.939 32.8119 185.22 33.5049 184.377C34.7622 182.848 35.6028 181.097 36.2718 179.272C38.5566 173.053 43.2121 169.378 49.1986 167.08C50.4268 166.609 51.6241 166.056 53.1062 165.424C51.7013 164.817 50.8197 165.287 49.9225 165.643C48.3907 166.253 46.8778 166.917 45.3202 167.451C38.4142 169.824 31.666 172.495 25.9265 177.192C25.2678 177.729 24.6005 178.366 23.6553 178.435ZM199.604 15.6823C199.98 15.9802 200.434 16.2199 200.719 16.588C204.484 21.4538 206.706 26.9188 207.354 33.0635C207.68 36.159 207.635 39.2288 207.219 42.3808C207.889 42.1805 207.93 41.7525 208.02 41.4152C209.968 34.0549 211.021 26.5833 210.617 18.9576C210.483 16.4254 209.865 13.9651 208.87 11.6229C208.527 10.8182 208.095 9.88682 207.037 10.0409C206.068 10.183 205.668 11.0562 205.491 11.9568C205.342 12.7187 205.268 13.4959 205.122 14.2578C204.975 15.0403 205.203 15.9631 204.378 16.7061C203.381 15.6754 203.289 14.5249 203.067 13.4035C202.223 9.15747 199.724 6.24176 195.717 4.67519C193.82 3.93384 191.842 3.3877 189.885 2.80729C188.204 2.30907 187.953 2.47172 187.959 4.16498C187.964 6.41297 188.492 8.58907 189.019 10.7617C190.019 14.8913 192.482 17.8532 196.225 19.8033C196.741 20.0704 197.273 20.317 197.752 20.6388C198.074 20.858 198.259 21.2312 198.186 21.649C198.103 22.1215 197.724 22.2379 197.318 22.2448C196.932 22.2499 196.53 22.1301 196.16 22.1986C195.487 22.3218 194.77 22.553 194.551 23.2703C194.302 24.0767 194.998 24.4671 195.525 24.8831C195.83 25.1245 196.153 25.3437 196.477 25.5577C199.707 27.6944 203.146 29.588 205.031 33.3238C205.759 32.4609 205.879 31.7212 205.724 30.932C205.352 29.0281 204.913 27.1499 204.34 25.2889C203.272 21.8202 200.99 18.9627 199.65 15.6412L199.604 15.6823ZM95.5526 136.432L95.5183 136.387C95.4908 136.788 95.0551 137.502 95.9746 137.305C100.349 136.365 104.455 137.582 108.576 138.752C108.855 138.832 109.155 138.89 109.399 139.036C109.654 139.186 110.205 139.2 109.859 139.873C105.84 138.693 101.776 137.959 97.0724 139.173C98.4189 139.334 99.2286 139.431 100.217 139.551C99.2766 140.226 98.2114 139.577 97.4875 140.258C97.8735 140.619 98.1548 140.881 98.4344 141.143L98.4721 141.097C97.9609 141.208 97.3606 140.926 96.8991 141.46C98.8272 142.549 100.232 144.122 101.385 145.961C101.951 146.863 102.565 147.749 103.265 148.548C104.538 150.005 106.201 150.788 108.131 150.853C110.01 150.916 110.761 150.147 110.869 148.274C110.951 146.863 110.701 145.583 109.582 144.566C109.099 144.126 108.455 143.574 109.032 142.847C109.639 142.083 110.421 142.366 111.135 142.782C112.162 143.379 112.91 144.28 113.686 145.151C116.199 147.968 119.312 149.569 123.111 149.75C124.87 149.832 125.187 149.486 124.847 147.742C123.623 141.44 119.725 135.743 112.073 134.913C110.725 134.766 109.359 134.771 108.003 134.684C105.776 134.538 105.524 134.059 106.708 132.083C107.071 131.477 107.485 130.924 107.018 130.236C106.582 129.592 105.879 129.499 105.191 129.611C103.851 129.83 102.508 130.059 101.285 130.718C98.7226 132.098 96.0809 133.329 93.8201 135.221C92.9555 135.944 91.6279 136.178 91.5026 137.606L91.3328 137.738L91.4598 137.563C92.9761 137.735 94.0362 136.264 95.5526 136.432ZM37.1003 115.433C37.8482 115.939 38.5961 116.445 39.3439 116.951C39.4383 116.847 39.5343 116.742 39.6287 116.638C37.7041 114.147 35.7812 111.656 33.8582 109.165C35.4552 109.985 36.5239 111.219 37.5548 112.517C38.2478 113.392 38.7161 114.595 40.0541 114.796C40.133 114.994 40.2119 115.193 40.2908 115.39C40.3114 115.325 40.3697 115.231 40.3457 115.198C40.2479 115.066 40.1244 114.952 40.0112 114.832C38.7367 111.772 38.1964 108.533 37.5977 105.299C37.2667 103.516 36.6354 101.782 34.6164 101.133C33.9303 102.025 34.1207 102.927 34.0504 103.782C34.0126 104.258 34.0744 104.843 33.4963 104.996C32.745 105.194 32.4791 104.559 32.299 104.025C31.419 101.438 29.7122 99.5256 27.5029 97.9915C24.6279 95.9969 21.1286 95.7281 17.9587 94.5451C16.8797 94.1427 16.7082 95.0433 16.6721 95.8993C16.4423 101.169 19.3258 105.811 24.1665 107.971C24.6966 108.208 25.2026 108.504 25.7052 108.798C26.2713 109.129 27.1015 109.411 26.7738 110.247C26.5183 110.897 25.7807 110.635 25.2163 110.558C24.5439 110.468 23.8698 110.298 23.1991 110.307C22.1098 110.322 20.9039 110.488 20.5025 111.634C20.0685 112.878 21.1372 113.525 22.0223 114.138C22.1819 114.25 22.3603 114.332 22.5266 114.431C26.1872 116.616 30.395 116.304 34.378 117.01C34.5238 117.035 34.848 116.866 34.8411 116.83C34.4277 114.443 35.8824 116.311 36.4158 116.172C36.891 116.047 37.0008 115.739 37.1414 115.388L37.1003 115.433ZM32.4105 163.853C32.7227 164.072 32.992 164.56 33.4226 164.008C33.0743 163.971 32.7244 163.933 32.3762 163.895C31.6043 162.753 30.3727 162.839 29.2251 162.743C27.7859 162.625 26.3176 162.668 24.4564 161.579C28.0535 161.796 31.1291 162.531 34.3385 161.168C31.4773 159.321 28.2816 158.605 25.5868 156.871C23.5524 155.561 21.4683 154.282 19.1886 153.395C18.0324 152.945 16.6653 152.039 15.7064 153.208C14.8127 154.297 15.9603 155.333 16.6756 156.247C16.9723 156.628 17.2862 157.078 16.83 157.53C16.396 157.958 15.9277 157.677 15.4937 157.465C14.2827 156.874 13.274 155.861 11.8194 155.785C8.44189 155.612 5.37826 156.6 2.00588 158.064C4.35591 160.576 5.98722 163.099 8.38356 164.993C10.9291 167.005 14.0631 166.121 16.9672 166.503C16.5847 167.931 15.48 167.84 14.835 168.373C14.4559 168.686 13.9979 168.967 14.1694 169.525C14.3341 170.052 14.8539 170.181 15.3479 170.228C16.7305 170.364 18.1371 170.244 19.3447 169.616C21.7925 168.342 24.3295 167.484 27.086 167.285C27.4857 167.256 28.0055 167.082 27.6452 166.616C27.1564 165.981 27.0449 165.69 27.9746 165.57C28.8872 165.45 29.8066 165.322 30.9181 164.498C27.9386 164.209 25.3398 164.698 22.808 163.853C26.0088 163.853 29.2097 163.853 32.4105 163.853ZM214.241 50.0698L214.2 50.0219C215.087 50.806 215.97 50.4602 216.902 50.0732C218.977 49.2138 221.156 48.957 223.401 49.1128C220.761 50.0287 218.087 50.7958 215.42 51.5868C215.19 51.6552 214.924 51.8436 215.133 52.2459C215.873 52.3606 216.646 52.4822 217.741 52.6517C215.152 53.2971 212.62 52.3709 210.039 54.2063C214.986 55.0212 219.372 55.7608 223.763 56.4542C224.525 56.5741 225.317 56.5604 226.089 56.5142C227.249 56.444 228.07 56.0656 227.245 54.7096C226.521 53.5197 227.189 53.1379 228.23 53.0061C228.806 52.9325 229.396 52.9119 229.976 52.9376C233.409 53.0968 235.829 51.2204 238.081 48.9775C238.694 48.3697 238.719 47.892 238.018 47.3134C235.318 45.0859 231.424 44.6647 228.206 46.2998C227.755 46.5292 227.309 46.6644 226.849 46.3323C227.463 43.646 226.954 43.1855 224.255 43.9902C223.885 44.1014 223.518 44.2384 223.164 44.3959C220.681 45.4985 218.202 46.6097 215.723 47.7208C214.673 48.19 213.835 48.9193 213.025 49.7137C213.464 50.1246 213.86 50.063 214.241 50.0698ZM92.031 129.391C94.3227 127.541 95.6315 124.882 97.5252 122.713C99.7981 120.11 99.7861 116.888 100.162 113.798C100.385 111.964 99.5048 111.539 97.8615 112.52C95.5697 113.888 93.6297 115.604 92.7995 118.275C92.6228 118.843 92.3415 119.415 91.6605 119.427C90.8131 119.441 90.5386 118.756 90.3757 118.083C90.1012 116.955 89.9262 115.789 89.2573 114.806C88.7649 114.084 88.2057 113.299 87.2023 113.419C86.3343 113.525 86.0015 114.316 85.6979 115.042C84.5812 117.7 84.5555 120.345 86.0101 122.868C87.0084 124.601 88.2126 126.221 88.391 128.222C89.4717 128.376 89.0617 126.945 89.9726 127.114C90.6141 127.708 90.0463 128.638 90.5626 129.272C91.6244 128.226 91.1682 126.471 92.4461 125.267C92.796 126.849 91.657 128.08 92.0721 129.427C91.9504 129.546 91.82 129.659 91.7154 129.79C91.6896 129.825 91.7479 129.926 91.7685 129.996C91.856 129.794 91.9435 129.593 92.031 129.391ZM208.985 58.8289C207.762 58.2314 206.599 57.3463 204.481 58.1578C206.472 58.2914 207.392 59.8528 209.025 59.3682C209.198 59.7672 209.373 60.1678 209.548 60.5667L209.587 60.5273C208.562 60.8355 207.617 59.6559 206.423 60.375C207.821 62.0956 208.666 64.0217 209.44 66.0078C210.322 68.2677 211.421 70.4387 213.034 72.298C213.461 72.7894 213.847 73.5016 214.685 73.1215C215.346 72.8202 215.653 72.1902 215.848 71.5259C216.02 70.942 215.806 70.3822 215.704 69.8104C215.584 69.117 214.963 68.1342 216.085 67.8637C217.001 67.6428 217.32 68.6187 217.598 69.331C217.881 70.05 218.075 70.8034 218.317 71.5396C219.271 74.4262 221.537 76.0492 224.041 77.4429C224.885 77.912 225.571 77.8812 225.763 76.7974C226.568 72.2159 227.123 67.6702 222.929 64.2118C222.07 63.503 221.789 62.8472 222.995 62.26C224.662 61.4467 223.674 60.7054 222.847 60.2346C219.368 58.2485 215.749 56.6186 211.632 56.5364C211.385 56.5313 211.135 56.6546 210.651 56.7778C212.941 58.7502 216.236 59.257 217.655 62.5596C215.883 61.7566 214.589 60.8818 213.068 60.5428L213.118 60.5924C212.982 60.012 212.745 59.4076 212.046 59.5583C210.992 59.7843 210.008 59.2707 208.98 59.4162C208.968 59.2056 208.958 58.9933 208.946 58.7827C209.088 58.6526 209.478 58.9625 209.437 58.5088C209.287 58.6149 209.136 58.7211 208.985 58.8289ZM40.5893 165.609C39.5807 165.674 38.5086 165.525 37.7315 166.371C38.7076 166.224 39.7814 166.373 40.5533 165.566C41.2737 165.417 42.1194 165.981 42.7884 165.179C41.9376 164.96 41.2205 165.078 40.5893 165.609ZM209.555 45.9351C210.044 45.9471 210.467 45.8187 210.744 45.3752C211.514 45.5002 212.049 45.0328 212.55 44.586C215.228 42.1942 218.245 40.179 220.506 37.3215C221.108 36.5614 221.701 35.6642 223.168 35.166C222.036 37.8882 219.989 39.2733 218.41 41.0248C216.849 42.7523 214.914 44.1528 213.675 46.1611C215.545 45.4078 217.246 44.4627 219.018 43.6786C222.938 41.9476 226.823 40.1636 230.46 37.8763C231.295 37.3506 232.062 36.7634 232.613 35.9433C233.556 34.5411 233.035 33.5309 231.33 33.3991C230.494 33.334 229.669 34.1353 228.724 33.3666C228.918 32.2178 229.952 31.7247 230.717 31.0655C232.242 29.754 233.39 28.2097 233.793 26.2323C234.364 23.421 234.493 20.5258 235.899 17.5981C232.537 17.6358 229.868 18.235 227.365 19.6698C224.175 21.4983 222.808 24.6075 221.466 27.756C221.111 28.5898 221.091 29.6719 219.967 30.0092C219.125 28.9768 219.741 28.0471 219.874 27.1345C220.06 25.8761 220.216 24.6177 219.842 23.3765C219.518 22.2944 218.869 21.9366 217.912 22.7447C216.233 24.1589 214.987 25.948 214.402 28.0163C213.265 32.026 212.359 36.1008 211.358 40.1482L211.22 40.2612L211.317 40.1088C211.939 40.0044 212.548 39.8383 212.078 40.8844C211.43 42.3277 210.059 43.5827 210.78 45.4215C210.292 45.4078 209.869 45.5328 209.598 45.9762C209.563 46.0293 209.531 46.0807 209.498 46.132C209.517 46.067 209.536 46.0019 209.555 45.9351ZM199.052 29.6068C199.254 29.8122 199.457 30.0194 199.661 30.2266C200.114 30.9354 200.532 31.6802 201.416 31.9558C201.721 33.0909 202.076 34.1952 203.182 34.8407C203.297 34.9914 202.985 35.3834 203.46 35.3304C203.352 35.1797 203.246 35.029 203.138 34.8784C203.078 33.5943 202.668 32.5242 201.367 32.0003C201.259 30.944 200.666 30.379 199.62 30.2677C199.417 30.0605 199.213 29.8551 199.009 29.6479C198.815 29.4527 198.623 29.2558 198.429 29.0606L198.366 28.9494L198.472 29.0179C198.666 29.2147 198.86 29.4099 199.052 29.6068ZM35.903 99.0992C35.963 98.3716 35.5805 97.7826 35.2563 97.1937C33.3179 93.677 33.8377 90.2682 35.6834 86.9211C37.7881 83.1031 40.8535 80.1446 44.2035 77.4292C53.2692 70.0808 63.6659 65.3024 74.6956 61.8149C83.7441 58.9539 93.0653 57.5106 102.541 57.0124C116.307 56.2882 129.957 57.6065 143.601 59.2039C151.629 60.1438 159.671 61.0153 167.781 60.5855C168.462 60.5496 169.15 60.565 169.822 60.4777C171.483 60.2586 171.726 59.9829 171.128 58.4266C170.188 55.98 169.126 53.5779 168.038 51.193C167.191 49.337 166.198 47.5479 165.314 45.7074C162.736 40.3348 163.496 35.4331 167.858 31.3515C173.845 25.7495 180.974 23.5768 189.12 24.9379C190.072 25.0971 191.019 25.2872 192.139 25.4961C192.542 24.0305 191.998 22.3852 193.391 21.2244C194.089 20.644 193.182 20.0105 192.7 19.6013C187.477 15.1669 186.286 9.18488 186.178 2.78162C186.169 2.2971 186.193 1.80915 186.236 1.32462C186.338 0.194634 186.945 -0.342971 187.995 0.234002C190.336 1.51979 192.967 1.90844 195.436 2.79359C198.903 4.03487 200.278 5.1546 204.059 9.86802C204.241 9.82863 204.474 9.84916 204.594 9.7413C207.195 7.43853 208.1 7.56694 210.028 10.445C212.028 13.4292 212.143 16.8654 212.353 20.245C212.519 22.9399 212.444 25.6518 212.133 28.4272C213.176 28.1738 212.996 27.3537 213.183 26.7835C213.871 24.6828 215.154 23.0084 216.775 21.5565C218.809 19.7331 219.598 19.8153 221.188 22.0239C221.35 22.2499 221.49 22.4896 221.615 22.6848C222.02 22.7464 222.266 22.5683 222.42 22.3184C225.401 17.4817 230.134 16.0881 235.393 15.7474C235.966 15.7097 236.577 15.7474 237.122 15.91C237.992 16.1685 238.524 16.7934 237.896 17.6581C236.33 19.8136 236.134 22.3407 235.743 24.8335C235.345 27.3623 234.542 29.7352 232.565 31.5432C232.921 31.9147 233.095 32.1459 233.314 32.3188C235.542 34.0737 235.587 35.1728 233.58 37.2376C231.866 38.9994 229.679 40.0969 227.446 41.6001C229.012 42.7284 230.266 43.7299 232.319 43.6648C235.477 43.5655 238.064 45.2314 240.395 47.2243C241.068 47.8013 241.301 48.4878 240.457 49.1795C238.954 50.4122 237.507 51.7169 235.954 52.8811C235.11 53.5146 234.199 54.1481 233.117 54.3398C231.347 54.6565 229.462 54.5692 229.134 57.1614C229.029 57.9883 227.626 58.2502 226.612 58.2657C225.647 58.2811 224.681 58.2691 223.655 58.2691C223.818 59.2964 224.737 59.4368 225.225 59.9829C226.101 60.9622 227.046 61.8491 225.731 63.1863C225.014 63.9139 225.499 64.5868 225.964 65.2579C229.1 69.7813 227.868 74.5375 226.636 79.2663C226.305 80.5384 225.386 80.2439 224.557 79.7543C221.785 78.1158 219.219 76.2239 217.363 73.6849C216.499 73.6061 216.216 74.231 215.759 74.5512C214.49 75.4415 213.377 75.272 212.449 74.0769C210.543 71.6201 208.644 69.1649 207.749 66.102C207.136 64.0098 205.906 62.3473 203.929 60.8527C203.29 64.4173 204.117 67.5624 204.501 70.6853C205.237 76.6656 206.387 82.5912 208.407 88.3011C209.737 92.0591 208.731 95.1289 205.946 97.8186C202.817 100.84 199.144 103.006 195.197 104.732C183.948 109.648 172.121 110.853 160.009 109.971C154.768 109.589 149.54 109.016 144.311 108.482C141.606 108.206 138.912 107.805 136.208 107.504C134.699 107.336 133.169 107.009 131.415 107.684C132.203 108.67 133.138 108.406 133.894 108.369C139.546 108.083 143.841 110.481 147.214 114.854C148.221 116.162 149.375 117.354 150.44 118.619C151.478 119.852 151.331 120.333 149.741 120.807C148.041 121.317 146.274 121.249 144.522 121.316C143.685 121.346 142.759 121.103 142.172 122.065C140.659 124.548 138.304 124.336 135.949 123.855C134.916 123.644 133.94 123.163 132.755 122.738C132.182 125.753 129.968 126.39 127.383 126.532C124.527 126.688 121.77 126.031 118.981 125.618C114.994 125.027 111.022 125.156 107.075 125.984C106.112 126.186 105.243 126.579 104.246 127.349C105.222 127.616 106.004 127.81 106.774 128.042C108.354 128.522 109.44 129.446 108.949 131.234C108.555 132.674 109.248 132.901 110.392 133.002C112.528 133.189 114.641 133.502 116.634 134.377C121.405 136.474 124.408 140.082 125.841 145.042C126.216 146.348 126.595 147.656 126.916 148.978C127.345 150.743 127.01 151.356 125.139 151.377C121.513 151.416 117.917 151.13 114.967 148.581C114.406 148.096 113.933 147.384 113.044 147.452C112.562 147.81 112.694 148.329 112.627 148.786C112.209 151.649 110.721 152.837 107.853 152.561C105.188 152.306 103.033 151.101 101.417 148.971C100.477 147.732 99.6043 146.442 98.6522 145.213C97.2731 143.434 95.4257 142.465 93.1905 142.203C91.8354 142.046 91 142.537 90.5781 143.905C88.3069 151.257 82.9379 155.357 75.9118 157.687C69.366 159.858 65.256 165.842 65.642 172.562C65.7569 174.565 66.4191 176.366 67.4774 178.025C68.4277 179.517 69.2151 181.071 69.6079 182.794C70.3987 186.264 69.1207 187.824 65.6231 187.776C64.9696 187.767 64.3006 187.341 63.6642 187.783C63.623 187.894 63.5373 188.004 63.5647 188.063C65.7707 193.061 64.8221 197.918 62.9609 202.752C62.2988 204.476 61.7276 206.234 61.1203 207.979C60.8116 208.86 60.3433 209.376 59.4153 208.669C57.0944 206.903 54.7409 205.178 52.487 203.329C50.3428 201.572 49.4817 199.081 48.9825 196.454C48.8213 195.598 48.7647 194.722 48.6635 193.886C48.4851 193.744 48.3393 193.532 48.1934 193.532C44.9463 193.532 44.5157 193.064 44.7302 189.873C44.8622 187.904 45.8297 186.163 46.286 184.292C45.3014 183.586 44.5346 184.326 43.7404 184.477C40.7951 185.036 39.3182 183.576 40.2376 180.729C41.3303 177.346 43.4522 174.543 45.7662 171.884C46.394 171.162 47.3135 170.675 47.5879 169.663C47.7595 169.641 47.9653 169.669 48.094 169.583C48.2706 169.461 48.1866 169.289 47.9619 169.343C47.8281 169.376 47.7372 169.583 47.6274 169.711C43.4196 171.591 40.0198 174.274 38.2461 178.719C37.1329 181.508 36.0659 184.36 33.7124 186.439C33.2767 186.822 32.8616 187.245 32.3762 187.553C29.6522 189.281 28.4395 188.935 26.8991 186.035C26.7224 186.05 26.4634 185.995 26.3793 186.093C22.4958 190.524 17.2228 191.7 11.7234 192.405C7.33377 192.969 7.36293 193.011 8.68718 188.899C9.25325 187.142 9.63063 185.326 10.207 183.574C11.1796 180.616 13.0064 178.287 15.5898 176.515C16.3136 176.019 17.3703 175.652 16.8625 174.269C16.4286 173.091 16.3582 171.838 14.6789 171.67C13.2226 171.525 12.0493 170.857 11.9601 169.158C11.9155 168.316 11.3734 167.992 10.677 167.794C7.20169 166.796 4.88082 164.366 2.84641 161.56C2.22031 160.695 1.50329 159.896 0.820577 159.072C-0.354439 157.655 -0.344143 157.383 1.35234 156.588C4.55319 155.087 7.89126 154.07 11.4832 154.178C12.1642 154.198 12.756 154.342 13.2037 153.527C14.4902 151.192 14.5331 151.214 17.2742 150.697C17.3531 149.579 16.432 149.012 15.8934 148.243C12.3683 143.196 10.3099 137.746 11.7079 131.518C13.027 125.637 16.5795 121.482 22.0806 118.994C23.1373 118.516 24.2145 118.081 25.7464 117.429C23.7137 116.9 22.1784 116.231 20.7838 115.279C17.7614 113.216 17.7065 111.562 20.5883 109.226C20.7324 109.11 20.813 108.916 21 108.649C19.722 106.891 17.9844 105.458 16.914 103.46C15.1369 100.144 15.1077 96.5534 14.9705 92.9734C14.9345 92.0026 15.6927 91.501 16.5692 91.9666C19.6054 93.5846 23.0515 94.0537 26.1495 95.4799C28.0226 96.3411 29.7654 97.3752 31.0485 99.0513C31.8599 100.111 32.7021 101.063 34.0195 99.5906C34.5152 99.0359 35.2991 99.2208 35.9475 99.0547C35.9939 99.3355 36.1654 99.3526 36.1225 99.2037C36.0213 98.8339 36.2632 99.2465 35.903 99.0992Z" fill="#C89B3A"/>
</svg>
